<?xml version="1.0" encoding="utf-8"?>
<!-- Generator: Adobe Illustrator 23.0.1, SVG Export Plug-In . SVG Version: 6.00 Build 0)  -->
<svg version="1.1" id="Layer_1" xmlns="http://www.w3.org/2000/svg" xmlns:xlink="http://www.w3.org/1999/xlink" x="0px" y="0px"
	 viewBox="0 0 71.3 44.1" style="enable-background:new 0 0 71.3 44.1;" xml:space="preserve">
<style type="text/css">
	.st0{fill:none;stroke:#0066FF;stroke-width:0.75;stroke-linejoin:round;stroke-miterlimit:10;}
	.st1{fill:#FFFFFF;stroke:#00C1A3;stroke-width:0.75;stroke-miterlimit:10;}
	.st2{fill:#FFFFFF;stroke:#0066FF;stroke-width:0.75;stroke-miterlimit:10;}
	.st3{fill:none;stroke:#00C1A3;stroke-width:0.75;stroke-miterlimit:10;}
	
		.st4{fill-rule:evenodd;clip-rule:evenodd;fill:none;stroke:#FF25F3;stroke-width:0.75;stroke-linecap:round;stroke-linejoin:round;stroke-miterlimit:10;}
	.st5{fill:none;stroke:#0066FF;stroke-width:0.75;stroke-miterlimit:10;}
	.st6{fill-rule:evenodd;clip-rule:evenodd;fill:none;stroke:#0066FF;stroke-width:0.75;stroke-miterlimit:10;}
	.st7{fill-rule:evenodd;clip-rule:evenodd;fill:none;stroke:#00C1A3;stroke-width:0.75;stroke-miterlimit:10;}
	.st8{fill:none;stroke:#FF25F3;stroke-width:0.75;stroke-linecap:round;stroke-linejoin:round;stroke-miterlimit:10;}
	.st9{fill:#FFFFFF;stroke:#FF25F3;stroke-width:0.75;stroke-linecap:round;stroke-linejoin:round;stroke-miterlimit:10;}
	.st10{fill-rule:evenodd;clip-rule:evenodd;fill:#FFFFFF;stroke:#0066FF;stroke-width:0.75;stroke-miterlimit:10;}
	
		.st11{fill-rule:evenodd;clip-rule:evenodd;fill:#FFFFFF;stroke:#FF25F3;stroke-width:0.75;stroke-linecap:round;stroke-linejoin:round;stroke-miterlimit:10;}
	.st12{fill-rule:evenodd;clip-rule:evenodd;fill:#FFFFFF;stroke:#00C1A3;stroke-width:0.75;stroke-miterlimit:10;}
	.st13{fill:none;stroke:#0066FF;stroke-width:0.75;stroke-linecap:round;stroke-linejoin:round;stroke-miterlimit:10;}
	.st14{fill:#FFFFFF;stroke:#00C1A3;stroke-width:0.75;stroke-linecap:round;stroke-linejoin:round;stroke-miterlimit:10;}
	
		.st15{fill-rule:evenodd;clip-rule:evenodd;fill:#FFFFFF;stroke:#0066FF;stroke-width:0.75;stroke-linecap:round;stroke-linejoin:round;stroke-miterlimit:10;}
	
		.st16{fill-rule:evenodd;clip-rule:evenodd;fill:none;stroke:#0066FF;stroke-width:0.75;stroke-linecap:round;stroke-linejoin:round;stroke-miterlimit:10;}
	.st17{fill:#FFFFFF;stroke:#0066FF;stroke-width:0.75;stroke-linejoin:round;stroke-miterlimit:10;}
	.st18{fill:none;stroke:#FF25F3;stroke-width:0.75;stroke-linecap:round;stroke-miterlimit:10;}
	.st19{fill:none;stroke:#00C1A3;stroke-width:0.75;stroke-miterlimit:10;stroke-dasharray:1.9953,1.9953;}
	.st20{fill:none;stroke:#FF25F3;stroke-width:0.75;stroke-linecap:round;stroke-miterlimit:10;stroke-dasharray:1.9953,1.9953;}
</style>
<path class="st3" d="M33.4,5.8c0,2.5-7.2,4.5-16.1,4.5c-8.9,0-16.1-2-16.1-4.5c0-2.5,7.2-4.5,16.1-4.5C26.2,1.3,33.4,3.3,33.4,5.8z"
	/>
<path class="st5" d="M70,5.8c0,2.5-7.2,4.5-16.1,4.5c-8.9,0-16.1-2-16.1-4.5c0-2.5,7.2-4.5,16.1-4.5C62.8,1.3,70,3.3,70,5.8z"/>
<polygon class="st5" points="54.6,11 52.6,16.4 41.1,20.1 35.9,19.9 30.7,20.1 19.3,16.4 17.3,11 15.9,17.9 31.3,24.8 35.9,24.8 
	40.5,24.8 56,17.9 "/>
<ellipse class="st18" cx="35.9" cy="30.5" rx="3.2" ry="3.4"/>
<path class="st5" d="M31.4,24.8v6.6h0c0.3,2.4,2.2,4.3,4.5,4.3c2.3,0,4.2-1.9,4.5-4.3h0v-6.6H31.4z"/>
<g>
	<path class="st5" d="M21.9,39.7c0-8.2,6.1-14.9,13.7-14.9c7.6,0,13.7,6.7,13.7,14.9"/>
	<path class="st5" d="M23.1,41.1c0,0.8-0.6,1.4-1.2,1.4c-0.7,0-1.3-0.6-1.3-1.4c0-0.8,0.6-1.4,1.3-1.4
		C22.5,39.7,23.1,40.3,23.1,41.1z"/>
	<path class="st5" d="M50.5,41.1c0,0.8-0.6,1.4-1.3,1.4c-0.7,0-1.2-0.6-1.2-1.4c0-0.8,0.6-1.4,1.2-1.4
		C49.9,39.7,50.5,40.3,50.5,41.1z"/>
</g>
</svg>
