<?xml version="1.0" encoding="utf-8"?>
<!-- Generator: Adobe Illustrator 23.0.1, SVG Export Plug-In . SVG Version: 6.00 Build 0)  -->
<svg version="1.1" id="Layer_1" xmlns="http://www.w3.org/2000/svg" xmlns:xlink="http://www.w3.org/1999/xlink" x="0px" y="0px"
	 viewBox="0 0 41.7 37.1" style="enable-background:new 0 0 41.7 37.1;" xml:space="preserve">
<style type="text/css">
	.st0{fill-rule:evenodd;clip-rule:evenodd;fill:none;stroke:#00C1A3;stroke-width:0.75;stroke-miterlimit:10;}
	.st1{fill:#FFFFFF;stroke:#0066FF;stroke-width:0.75;stroke-linecap:round;stroke-linejoin:round;stroke-miterlimit:10;}
	.st2{fill:none;stroke:#0066FF;stroke-width:0.75;stroke-linecap:round;stroke-linejoin:round;stroke-miterlimit:10;}
	.st3{fill:#FFFFFF;stroke:#0066FF;stroke-width:0.75;stroke-miterlimit:10;}
	.st4{fill:none;stroke:#0066FF;stroke-width:0.75;stroke-miterlimit:10;}
	.st5{fill:none;stroke:#00C1A3;stroke-width:0.75;stroke-miterlimit:10;}
	.st6{fill:none;stroke:#FF25F3;stroke-width:0.75;stroke-miterlimit:10;}
	.st7{fill:none;stroke:#FF25F3;stroke-width:0.75;stroke-linecap:round;stroke-linejoin:round;stroke-miterlimit:10;}
	.st8{fill-rule:evenodd;clip-rule:evenodd;fill:none;stroke:#0066FF;stroke-width:0.75;stroke-miterlimit:10;}
	.st9{clip-path:url(#SVGID_2_);fill-rule:evenodd;clip-rule:evenodd;fill:#FFFFFF;}
	.st10{fill-rule:evenodd;clip-rule:evenodd;fill:#FCFDFF;}
	.st11{fill-rule:evenodd;clip-rule:evenodd;fill:#FFFFFF;}
	.st12{fill-rule:evenodd;clip-rule:evenodd;fill:#3D6A9D;}
	.st13{fill:#FFFFFF;}
	.st14{fill:#0066FF;}
	.st15{fill-rule:evenodd;clip-rule:evenodd;fill:#FFFFFF;stroke:#0066FF;stroke-width:0.75;stroke-miterlimit:10;}
	.st16{fill-rule:evenodd;clip-rule:evenodd;fill:#FFFFFF;stroke:#44E0A0;stroke-width:0.75;stroke-miterlimit:10;}
	.st17{fill-rule:evenodd;clip-rule:evenodd;fill:#FFFFFF;stroke:#FF25F3;stroke-width:0.75;stroke-miterlimit:10;}
	.st18{fill:none;stroke:#FFFFFF;stroke-width:2.8774;stroke-miterlimit:10;}
	
		.st19{fill-rule:evenodd;clip-rule:evenodd;fill:none;stroke:#FF25F3;stroke-width:0.75;stroke-linecap:round;stroke-linejoin:round;stroke-miterlimit:10;}
	.st20{fill-rule:evenodd;clip-rule:evenodd;fill:#FFFFFF;stroke:#FFFFFF;stroke-width:0.7194;stroke-miterlimit:10;}
	.st21{fill:none;stroke:#FFFFFF;stroke-width:0.7194;stroke-miterlimit:10;}
	.st22{fill:none;stroke:#44E0A0;stroke-width:0.75;stroke-linecap:round;stroke-linejoin:round;stroke-miterlimit:10;}
	.st23{fill-rule:evenodd;clip-rule:evenodd;fill:#FFFFFF;stroke:#00C1A3;stroke-width:0.75;stroke-miterlimit:10;}
	.st24{fill:none;stroke:#0066FF;stroke-width:0.75;stroke-linecap:round;stroke-miterlimit:10;}
	.st25{fill:#FFFFFF;stroke:#00C1A3;stroke-width:0.75;stroke-miterlimit:10;}
	.st26{clip-path:url(#SVGID_4_);}
	
		.st27{fill-rule:evenodd;clip-rule:evenodd;fill:none;stroke:#0066FF;stroke-width:0.75;stroke-linecap:round;stroke-miterlimit:10;}
	.st28{fill:#FFFFFF;stroke:#FF25F3;stroke-width:0.75;stroke-miterlimit:10;}
	.st29{fill:#FFFFFF;stroke:#FF25F3;stroke-width:0.75;stroke-linecap:round;stroke-linejoin:round;stroke-miterlimit:10;}
	.st30{fill:none;stroke:#00FA9B;stroke-width:0.75;stroke-miterlimit:10;}
	.st31{fill:#87D73F;}
	.st32{fill:#3DED98;}
</style>
<g>
	<path class="st7" d="M25.3,22h-4.9c0-0.7,0-1.1,0-1.3c0-1.6,0.3-2.9,0.8-4c0.5-1,1.6-2.2,3.2-3.5c1.6-1.3,2.5-2.1,2.8-2.5
		c0.5-0.6,0.7-1.3,0.7-2.1c0-1.1-0.4-2-1.3-2.7c-0.8-0.8-2-1.1-3.4-1.1c-1.4,0-2.5,0.4-3.5,1.2c-0.9,0.8-1.6,2-1.9,3.6l-5-0.6
		c0.1-2.3,1.1-4.3,3-5.9C17.6,1.4,20,0.6,23,0.6c3.1,0,5.6,0.8,7.5,2.5c1.8,1.6,2.8,3.5,2.8,5.7c0,1.2-0.3,2.3-1,3.4
		c-0.7,1.1-2.1,2.5-4.3,4.4c-1.1,1-1.9,1.7-2.1,2.3C25.4,19.5,25.3,20.5,25.3,22z M20.4,29.3v-5.4h5.4v5.4H20.4z"/>
</g>
<g>
	<path class="st4" d="M11.6,30H7.3c0-0.6,0-1,0-1.1c0-1.4,0.2-2.5,0.7-3.4c0.5-0.9,1.4-1.9,2.8-3c1.4-1.1,2.2-1.9,2.5-2.2
		c0.4-0.6,0.6-1.2,0.6-1.8c0-0.9-0.4-1.7-1.1-2.4c-0.7-0.7-1.7-1-3-1c-1.2,0-2.2,0.3-3,1c-0.8,0.7-1.4,1.7-1.7,3.1l-4.4-0.5
		c0.1-2,1-3.7,2.6-5.1c1.6-1.4,3.7-2.1,6.3-2.1c2.7,0,4.9,0.7,6.5,2.1c1.6,1.4,2.4,3.1,2.4,5c0,1-0.3,2-0.9,3
		c-0.6,0.9-1.9,2.2-3.8,3.8c-1,0.8-1.6,1.5-1.9,2C11.7,27.8,11.6,28.7,11.6,30z M7.3,36.4v-4.7H12v4.7H7.3z"/>
</g>
<g>
	<path class="st5" d="M35.9,30.9h-3.2c0-0.5,0-0.7,0-0.8c0-1,0.2-1.9,0.5-2.5c0.3-0.7,1-1.4,2-2.2c1-0.8,1.6-1.4,1.8-1.6
		c0.3-0.4,0.5-0.8,0.5-1.3c0-0.7-0.3-1.3-0.8-1.7c-0.5-0.5-1.3-0.7-2.2-0.7c-0.9,0-1.6,0.3-2.2,0.8c-0.6,0.5-1,1.3-1.2,2.3L28,22.5
		c0.1-1.5,0.7-2.7,1.9-3.8c1.2-1,2.7-1.5,4.6-1.5c2,0,3.6,0.5,4.8,1.6c1.2,1,1.8,2.3,1.8,3.6c0,0.8-0.2,1.5-0.6,2.2
		c-0.4,0.7-1.4,1.6-2.8,2.8c-0.7,0.6-1.2,1.1-1.4,1.5C36,29.2,35.9,29.9,35.9,30.9z M32.8,35.5v-3.5h3.5v3.5H32.8z"/>
</g>
</svg>
