<?xml version="1.0" encoding="utf-8"?>
<!-- Generator: Adobe Illustrator 23.0.1, SVG Export Plug-In . SVG Version: 6.00 Build 0)  -->
<svg version="1.1" id="Layer_1" xmlns="http://www.w3.org/2000/svg" xmlns:xlink="http://www.w3.org/1999/xlink" x="0px" y="0px"
	 viewBox="0 0 65.7 68" style="enable-background:new 0 0 65.7 68;" xml:space="preserve">
<style type="text/css">
	.st0{fill-rule:evenodd;clip-rule:evenodd;fill:none;stroke:#FF25F3;stroke-width:0.75;stroke-miterlimit:10;}
	.st1{fill:none;stroke:#0066FF;stroke-width:0.75;stroke-linecap:round;stroke-miterlimit:10;}
	.st2{fill:none;stroke:#0066FF;stroke-width:0.75;stroke-miterlimit:10;}
	.st3{fill:none;stroke:#00C1A3;stroke-width:0.75;stroke-miterlimit:10;}
</style>
<path class="st0" d="M26.4,23c-2.1,0.2-3.6,1.7-4,3.6c-0.2,0.9-0.1,6.3-0.1,7.6c0,2.6,0,5.2,0,7.7c0,1.4,0,2.2,1,2.8
	c1.3,0.9,3.2,0.3,3.6-1.4c0.1-0.6,0-12.5,0-13.5c0-0.5,0-1.3,0-1.9c0-0.7,0.9-0.7,1,0c0.1,1.1,0,2.7,0,3.8v30.8c0,1-0.2,2.7,0.3,3.5
	c1.1,2,4.2,1.3,4.3-1.1c0-1.3,0-2.6,0-3.9c0-5.1,0-10.4,0-15.4c0-0.8,0.7-0.8,0.9-0.4c0.1,0.3,0,15.6,0,17.3c0,1.1-0.1,2.7,0.3,3.5
	c1.1,1.9,4.2,1.3,4.3-1.2s0-5.1,0-7.7c0-9.6,0-19.3,0-28.9c0-0.3,0-0.7,0.2-0.9c0.2-0.2,0.6-0.1,0.7,0c0.2,0.3,0.1,3.1,0.1,3.7
	c0,1.3,0,2.6,0,3.8c0,2.5-0.1,5.2,0,7.7c0.1,2.4,3.2,3,4.3,1.1c0.5-0.8,0.3-2.5,0.3-3.6V28.9c0-1.3,0-2.3-0.5-3.4
	c-0.4-0.8-1.1-1.6-1.9-2c-1.1-0.6-1.9-0.6-3.3-0.6C36.3,22.9,27.2,22.9,26.4,23L26.4,23z"/>
<path class="st0" d="M32.5,10.7c-2.8,0.1-5.1,2.7-4.9,5.7c0.2,2.8,2.7,5.1,5.8,4.9c2.8-0.2,5.1-2.7,4.8-5.7
	C38,12.7,35.6,10.5,32.5,10.7L32.5,10.7z"/>
<g>
	<line class="st1" x1="6.4" y1="67.1" x2="6.4" y2="49.8"/>
	<path class="st1" d="M6.4,67.1c0,0-1.2-5.6-3.2-6.7c-1.4-0.8-2.6,0.4-2.6,0.4"/>
	<path class="st1" d="M6.4,66.9c0,0,0.8-5.6,2.3-7.4c1.5-1.9,2.6-1.7,2.6-1.7"/>
	<path class="st1" d="M6.4,58.9c0,0-0.4-5.1-3.2-5.7"/>
	<path class="st1" d="M6.4,56.7c0,0,0.9-3.8,2.4-4.4"/>
	<ellipse class="st1" cx="6.4" cy="47.9" rx="0.7" ry="2"/>
</g>
<g>
	<line class="st1" x1="17.2" y1="67.1" x2="17.2" y2="49.8"/>
	<path class="st1" d="M17.2,67.1c0,0-1.2-5.6-3.2-6.7c-1.4-0.8-2.6,0.4-2.6,0.4"/>
	<path class="st1" d="M17.2,66.9c0,0,0.8-5.6,2.3-7.4c1.5-1.9,2.6-1.7,2.6-1.7"/>
	<path class="st1" d="M17.2,58.9c0,0-0.4-5.1-3.2-5.7"/>
	<path class="st1" d="M17.2,56.7c0,0,0.9-3.8,2.4-4.4"/>
	<ellipse class="st1" cx="17.2" cy="47.9" rx="0.7" ry="2"/>
</g>
<g>
	<line class="st1" x1="27.9" y1="67.1" x2="27.9" y2="49.8"/>
	<path class="st1" d="M27.9,67.1c0,0-1.2-5.6-3.2-6.7c-1.4-0.8-2.6,0.4-2.6,0.4"/>
	<path class="st1" d="M27.9,66.9c0,0,0.8-5.6,2.3-7.4c1.5-1.9,2.6-1.7,2.6-1.7"/>
	<path class="st1" d="M27.9,58.9c0,0-0.4-5.1-3.2-5.7"/>
	<path class="st1" d="M28,56.7c0,0,0.9-3.8,2.4-4.4"/>
	<ellipse class="st1" cx="27.9" cy="47.9" rx="0.7" ry="2"/>
</g>
<g>
	<line class="st1" x1="38.7" y1="67.1" x2="38.7" y2="49.8"/>
	<path class="st1" d="M38.7,67.1c0,0-1.2-5.6-3.2-6.7c-1.4-0.8-2.6,0.4-2.6,0.4"/>
	<path class="st1" d="M38.7,66.9c0,0,0.8-5.6,2.3-7.4c1.5-1.9,2.6-1.7,2.6-1.7"/>
	<path class="st1" d="M38.7,58.9c0,0-0.4-5.1-3.2-5.7"/>
	<path class="st1" d="M38.7,56.7c0,0,0.9-3.8,2.4-4.4"/>
	<ellipse class="st1" cx="38.7" cy="47.9" rx="0.7" ry="2"/>
</g>
<g>
	<line class="st1" x1="49.5" y1="67.1" x2="49.5" y2="49.8"/>
	<path class="st1" d="M49.5,67.1c0,0-1.2-5.6-3.2-6.7c-1.4-0.8-2.6,0.4-2.6,0.4"/>
	<path class="st1" d="M49.5,66.9c0,0,0.8-5.6,2.3-7.4c1.5-1.9,2.6-1.7,2.6-1.7"/>
	<path class="st1" d="M49.5,58.9c0,0-0.4-5.1-3.2-5.7"/>
	<path class="st1" d="M49.5,56.7c0,0,0.9-3.8,2.4-4.4"/>
	<ellipse class="st1" cx="49.5" cy="47.9" rx="0.7" ry="2"/>
</g>
<g>
	<line class="st1" x1="60.2" y1="67.1" x2="60.2" y2="49.8"/>
	<path class="st1" d="M60.2,67.1c0,0-1.2-5.6-3.2-6.7c-1.4-0.8-2.6,0.4-2.6,0.4"/>
	<path class="st1" d="M60.2,66.9c0,0,0.8-5.6,2.3-7.4c1.5-1.9,2.6-1.7,2.6-1.7"/>
	<path class="st1" d="M60.2,58.9c0,0-0.4-5.1-3.2-5.7"/>
	<path class="st1" d="M60.2,56.7c0,0,0.9-3.8,2.4-4.4"/>
	<ellipse class="st1" cx="60.2" cy="47.9" rx="0.7" ry="2"/>
</g>
<line class="st2" x1="0.7" y1="67.4" x2="65.1" y2="67.4"/>
<path class="st3" d="M42.6,4.5l-3.5-3.6l-2.9,5.2c-1-0.5-2.1-0.8-3.4-0.8c-3.9,0-7,2.9-7,6.7c0,1.7,0.6,3.1,1.6,4.3v-0.1
	c-0.2-2.9,2.1-5.4,4.9-5.5c3.1-0.2,5.5,2,5.7,4.7c0,0.3,0,0.6,0,1c1-1.2,1.6-2.7,1.6-4.3c0-1.6-0.6-3-1.5-4.1L42.6,4.5z"/>
</svg>
