<?xml version="1.0" encoding="utf-8"?>
<!-- Generator: Adobe Illustrator 23.0.1, SVG Export Plug-In . SVG Version: 6.00 Build 0)  -->
<svg version="1.1" id="Layer_1" xmlns="http://www.w3.org/2000/svg" xmlns:xlink="http://www.w3.org/1999/xlink" x="0px" y="0px"
	 viewBox="0 0 47.2 40.2" style="enable-background:new 0 0 47.2 40.2;" xml:space="preserve">
<style type="text/css">
	.st0{fill:none;stroke:#0066FF;stroke-width:0.75;stroke-linejoin:round;stroke-miterlimit:10;}
	.st1{fill:#FFFFFF;stroke:#00C1A3;stroke-width:0.75;stroke-miterlimit:10;}
	.st2{fill:#FFFFFF;stroke:#0066FF;stroke-width:0.75;stroke-miterlimit:10;}
	.st3{fill:none;stroke:#00C1A3;stroke-width:0.75;stroke-miterlimit:10;}
	
		.st4{fill-rule:evenodd;clip-rule:evenodd;fill:none;stroke:#FF25F3;stroke-width:0.75;stroke-linecap:round;stroke-linejoin:round;stroke-miterlimit:10;}
	.st5{fill:none;stroke:#0066FF;stroke-width:0.75;stroke-miterlimit:10;}
	.st6{fill-rule:evenodd;clip-rule:evenodd;fill:none;stroke:#0066FF;stroke-width:0.75;stroke-miterlimit:10;}
	.st7{fill-rule:evenodd;clip-rule:evenodd;fill:none;stroke:#00C1A3;stroke-width:0.75;stroke-miterlimit:10;}
	.st8{fill:none;stroke:#FF25F3;stroke-width:0.75;stroke-linecap:round;stroke-linejoin:round;stroke-miterlimit:10;}
	.st9{fill:#FFFFFF;stroke:#FF25F3;stroke-width:0.75;stroke-linecap:round;stroke-linejoin:round;stroke-miterlimit:10;}
	.st10{fill-rule:evenodd;clip-rule:evenodd;fill:#FFFFFF;stroke:#0066FF;stroke-width:0.75;stroke-miterlimit:10;}
	
		.st11{fill-rule:evenodd;clip-rule:evenodd;fill:#FFFFFF;stroke:#FF25F3;stroke-width:0.75;stroke-linecap:round;stroke-linejoin:round;stroke-miterlimit:10;}
	.st12{fill-rule:evenodd;clip-rule:evenodd;fill:#FFFFFF;stroke:#00C1A3;stroke-width:0.75;stroke-miterlimit:10;}
	.st13{fill:none;stroke:#0066FF;stroke-width:0.75;stroke-linecap:round;stroke-linejoin:round;stroke-miterlimit:10;}
	.st14{fill:#FFFFFF;stroke:#00C1A3;stroke-width:0.75;stroke-linecap:round;stroke-linejoin:round;stroke-miterlimit:10;}
	
		.st15{fill-rule:evenodd;clip-rule:evenodd;fill:#FFFFFF;stroke:#0066FF;stroke-width:0.75;stroke-linecap:round;stroke-linejoin:round;stroke-miterlimit:10;}
	
		.st16{fill-rule:evenodd;clip-rule:evenodd;fill:none;stroke:#0066FF;stroke-width:0.75;stroke-linecap:round;stroke-linejoin:round;stroke-miterlimit:10;}
	.st17{fill:#FFFFFF;stroke:#0066FF;stroke-width:0.75;stroke-linejoin:round;stroke-miterlimit:10;}
	.st18{fill:none;stroke:#FF25F3;stroke-width:0.75;stroke-linecap:round;stroke-miterlimit:10;}
	.st19{fill:none;stroke:#00C1A3;stroke-width:0.75;stroke-miterlimit:10;stroke-dasharray:1.9953,1.9953;}
	.st20{fill:none;stroke:#FF25F3;stroke-width:0.75;stroke-linecap:round;stroke-miterlimit:10;stroke-dasharray:1.9953,1.9953;}
	.st21{fill:#FFFFFF;stroke:#000000;stroke-miterlimit:10;}
	.st22{fill:#0066FF;}
	.st23{fill:#FF25F3;}
	.st24{fill:none;stroke:#FF25F3;stroke-width:0.75;stroke-linejoin:round;stroke-miterlimit:10;}
	.st25{fill:none;stroke:#FF25F3;stroke-width:0.75;stroke-miterlimit:10;}
	.st26{fill:none;stroke:#0066FF;stroke-width:0.75;stroke-linecap:round;stroke-miterlimit:10;}
	.st27{fill:none;stroke:#FFFFFF;stroke-width:0.75;stroke-miterlimit:10;}
	.st28{fill:none;stroke:#0000FF;stroke-width:2;stroke-miterlimit:10;}
	.st29{fill:none;stroke:#00C1A3;stroke-width:2;stroke-miterlimit:10;}
	.st30{fill:none;stroke:#FF25F3;stroke-width:2;stroke-linecap:round;stroke-linejoin:round;stroke-miterlimit:10;}
	.st31{fill:none;stroke:#FF25F3;stroke-width:0.75;stroke-linejoin:round;}
	.st32{fill:none;stroke:#FF25F3;stroke-width:0.75;stroke-linejoin:round;stroke-dasharray:1.916,1.916;}
	.st33{fill:none;stroke:#FF25F3;stroke-width:0.75;stroke-miterlimit:10;stroke-dasharray:1.916,1.916;}
	.st34{fill:none;}
	.st35{fill-rule:evenodd;clip-rule:evenodd;fill:none;stroke:#FF25F3;stroke-width:0.75;stroke-miterlimit:10;}
</style>
<g>
	<path class="st5" d="M2.1,16.4h4.8v9.5H7c0.5-0.8,1-1.6,1.5-2.4l4.9-7.1h6l-7.1,9.2l7.5,12.3H14l-5.3-9.3l-1.9,2.3v7H2.1V16.4z"/>
	<path class="st25" d="M21.7,16.7c1.5-0.3,3.6-0.4,6.6-0.4c3,0,5.1,0.6,6.6,1.7c1.4,1.1,2.3,2.9,2.3,5c0,2.1-0.7,3.9-2,5.1
		c-1.7,1.6-4.1,2.3-7,2.3c-0.6,0-1.2,0-1.7-0.1v7.7h-4.8V16.7z M26.5,26.5c0.4,0.1,0.9,0.1,1.6,0.1c2.6,0,4.2-1.3,4.2-3.5
		c0-2-1.4-3.2-3.8-3.2c-1,0-1.7,0.1-2,0.2V26.5z"/>
	<g>
		<path class="st3" d="M45.1,16.4v21.5h-4.9V16.4H45.1z"/>
	</g>
</g>
<path class="st5" d="M8.6,14.5c0,0,0-0.1,0-0.1C8.3,11,10.8,8,14.2,7.7c3.4-0.3,6.4,2.2,6.7,5.6c0,0.4,0,0.8,0,1.2h6.2
	c0-0.6,0-1.2,0-1.8c0-0.1,0-0.3,0-0.4l-3.2-0.7l2.6-2c-0.3-0.9-0.7-1.7-1.2-2.5L22,8l1.4-3c-0.7-0.6-1.4-1.2-2.2-1.7l-2.5,2.1l0-3.3
	c-0.9-0.3-1.8-0.5-2.7-0.6l-1.4,3l-1.4-3c-0.9,0.1-1.8,0.3-2.7,0.6l0.1,3.3L8.1,3.4C7.3,3.9,6.6,5.1,6,5.8l1.4,2.3L4.2,7.3
	C3.7,8.1,3.3,8.9,3,9.8l2.6,2l-3.2,0.7c-0.1,0.6-0.1,1.3,0,2H8.6z"/>
<line class="st5" x1="40.5" y1="18.4" x2="42.9" y2="18.4"/>
<line class="st5" x1="40.5" y1="20.2" x2="44.1" y2="20.2"/>
<line class="st5" x1="40.5" y1="22.1" x2="42.9" y2="22.1"/>
<line class="st5" x1="40.5" y1="23.9" x2="44.1" y2="23.9"/>
<line class="st5" x1="40.5" y1="25.7" x2="42.9" y2="25.7"/>
<line class="st5" x1="40.5" y1="27.6" x2="44.1" y2="27.6"/>
<line class="st5" x1="40.5" y1="29.4" x2="42.9" y2="29.4"/>
<line class="st5" x1="40.5" y1="31.2" x2="44.1" y2="31.2"/>
<line class="st5" x1="40.5" y1="33.1" x2="42.9" y2="33.1"/>
<line class="st5" x1="40.5" y1="34.9" x2="44.1" y2="34.9"/>
<line class="st5" x1="40.5" y1="36.7" x2="42.9" y2="36.7"/>
</svg>
