<?xml version="1.0" encoding="utf-8"?>
<!-- Generator: Adobe Illustrator 23.0.1, SVG Export Plug-In . SVG Version: 6.00 Build 0)  -->
<svg version="1.1" id="Layer_1" xmlns="http://www.w3.org/2000/svg" xmlns:xlink="http://www.w3.org/1999/xlink" x="0px" y="0px"
	 viewBox="0 0 95.9 54.1" style="enable-background:new 0 0 95.9 54.1;" xml:space="preserve">
<style type="text/css">
	.st0{fill:none;stroke:#FF25F3;stroke-width:0.75;stroke-linecap:round;stroke-linejoin:round;stroke-miterlimit:10;}
	.st1{fill-rule:evenodd;clip-rule:evenodd;fill:none;stroke:#0066FF;stroke-width:0.75;stroke-miterlimit:10;}
	.st2{fill:none;stroke:#00C1A3;stroke-width:0.75;stroke-miterlimit:10;}
	.st3{fill:none;stroke:#0066FF;stroke-width:0.75;stroke-miterlimit:10;}
</style>
<polyline class="st0" points="72.2,17.9 81.6,12.9 84.7,18.7 95.4,1.3 75,0.7 78.1,6.5 72,9.8 "/>
<polyline class="st0" points="28,33.4 23.8,35.7 20,28.7 16.5,22.2 10.1,25.7 0.5,30.9 4,37.4 13.6,32.2 20.8,45.7 21.8,45.2 
	27.3,42.2 27.8,41.9 "/>
<path class="st1" d="M66,53.5H34.2c-3.3,0-6-2.7-6-6V11.4c0-3.3,2.7-6,6-6H66c3.3,0,6,2.7,6,6v36.1C72,50.8,69.3,53.5,66,53.5z"/>
<path class="st2" d="M65.5,23.3H34.7c-1.4,0-2.5-1.1-2.5-2.5v-8.5c0-1.4,1.1-2.5,2.5-2.5h30.7c1.4,0,2.5,1.1,2.5,2.5v8.5
	C68,22.2,66.9,23.3,65.5,23.3z"/>
<path class="st3" d="M39.3,35.5h-4.6c-1.4,0-2.5-1.1-2.5-2.5v-4.6c0-1.4,1.1-2.5,2.5-2.5h4.6c1.4,0,2.5,1.1,2.5,2.5V33
	C41.8,34.4,40.7,35.5,39.3,35.5z"/>
<path class="st3" d="M52.3,35.5h-4.6c-1.4,0-2.5-1.1-2.5-2.5v-4.6c0-1.4,1.1-2.5,2.5-2.5h4.6c1.4,0,2.5,1.1,2.5,2.5V33
	C54.8,34.4,53.7,35.5,52.3,35.5z"/>
<path class="st3" d="M39.3,48.5h-4.6c-1.4,0-2.5-1.1-2.5-2.5v-4.6c0-1.4,1.1-2.5,2.5-2.5h4.6c1.4,0,2.5,1.1,2.5,2.5V46
	C41.8,47.4,40.7,48.5,39.3,48.5z"/>
<path class="st0" d="M52.3,48.5h-4.6c-1.4,0-2.5-1.1-2.5-2.5v-4.6c0-1.4,1.1-2.5,2.5-2.5h4.6c1.4,0,2.5,1.1,2.5,2.5V46
	C54.8,47.4,53.7,48.5,52.3,48.5z"/>
<path class="st3" d="M64.9,48.5h-3.6c-1.7,0-3.1-1.4-3.1-3.1V29.1c0-1.7,1.4-3.1,3.1-3.1h3.6c1.7,0,3.1,1.4,3.1,3.1v16.3
	C68,47.1,66.6,48.5,64.9,48.5z"/>
</svg>
