<?xml version="1.0" encoding="utf-8"?>
<!-- Generator: Adobe Illustrator 23.0.1, SVG Export Plug-In . SVG Version: 6.00 Build 0)  -->
<svg version="1.1" id="Layer_1" xmlns="http://www.w3.org/2000/svg" xmlns:xlink="http://www.w3.org/1999/xlink" x="0px" y="0px"
	 viewBox="0 0 98 53.7" style="enable-background:new 0 0 98 53.7;" xml:space="preserve">
<style type="text/css">
	.st0{fill:#FF25F3;}
	.st1{fill:#2935E8;}
	.st2{fill:#00C1A3;}
	.st3{fill:none;stroke:#0066FF;stroke-width:0.75;stroke-linejoin:round;stroke-miterlimit:10;}
	.st4{fill:#FFFFFF;stroke:#00C1A3;stroke-width:0.75;stroke-miterlimit:10;}
	.st5{fill:#FFFFFF;stroke:#0066FF;stroke-width:0.75;stroke-miterlimit:10;}
	.st6{fill:none;stroke:#00C1A3;stroke-width:0.75;stroke-miterlimit:10;}
	
		.st7{fill-rule:evenodd;clip-rule:evenodd;fill:none;stroke:#FF25F3;stroke-width:0.75;stroke-linecap:round;stroke-linejoin:round;stroke-miterlimit:10;}
	.st8{fill:none;stroke:#0066FF;stroke-width:0.75;stroke-miterlimit:10;}
	.st9{fill-rule:evenodd;clip-rule:evenodd;fill:none;stroke:#0066FF;stroke-width:0.75;stroke-miterlimit:10;}
	.st10{fill-rule:evenodd;clip-rule:evenodd;fill:none;stroke:#00C1A3;stroke-width:0.75;stroke-miterlimit:10;}
	.st11{fill:none;stroke:#FF25F3;stroke-width:0.75;stroke-linecap:round;stroke-linejoin:round;stroke-miterlimit:10;}
	.st12{fill:#FFFFFF;stroke:#FF25F3;stroke-width:0.75;stroke-linecap:round;stroke-linejoin:round;stroke-miterlimit:10;}
	.st13{fill-rule:evenodd;clip-rule:evenodd;fill:#FFFFFF;stroke:#0066FF;stroke-width:0.75;stroke-miterlimit:10;}
	
		.st14{fill-rule:evenodd;clip-rule:evenodd;fill:#FFFFFF;stroke:#FF25F3;stroke-width:0.75;stroke-linecap:round;stroke-linejoin:round;stroke-miterlimit:10;}
	.st15{fill-rule:evenodd;clip-rule:evenodd;fill:#FFFFFF;stroke:#00C1A3;stroke-width:0.75;stroke-miterlimit:10;}
	.st16{fill:none;stroke:#0066FF;stroke-width:0.75;stroke-linecap:round;stroke-linejoin:round;stroke-miterlimit:10;}
	.st17{fill:#FFFFFF;stroke:#00C1A3;stroke-width:0.75;stroke-linecap:round;stroke-linejoin:round;stroke-miterlimit:10;}
	
		.st18{fill-rule:evenodd;clip-rule:evenodd;fill:#FFFFFF;stroke:#0066FF;stroke-width:0.75;stroke-linecap:round;stroke-linejoin:round;stroke-miterlimit:10;}
	
		.st19{fill-rule:evenodd;clip-rule:evenodd;fill:none;stroke:#0066FF;stroke-width:0.75;stroke-linecap:round;stroke-linejoin:round;stroke-miterlimit:10;}
	.st20{fill:#FFFFFF;stroke:#0066FF;stroke-width:0.75;stroke-linejoin:round;stroke-miterlimit:10;}
	.st21{fill:none;stroke:#FF25F3;stroke-width:0.75;stroke-linecap:round;stroke-miterlimit:10;}
	.st22{fill:none;stroke:#00C1A3;stroke-width:0.75;stroke-miterlimit:10;stroke-dasharray:1.9953,1.9953;}
	.st23{fill:none;stroke:#FF25F3;stroke-width:0.75;stroke-linecap:round;stroke-miterlimit:10;stroke-dasharray:1.9953,1.9953;}
	.st24{fill:#FFFFFF;stroke:#000000;stroke-miterlimit:10;}
	.st25{fill:#0066FF;}
	.st26{fill:none;stroke:#FF25F3;stroke-width:0.75;stroke-linejoin:round;stroke-miterlimit:10;}
	.st27{fill:none;stroke:#FF25F3;stroke-width:0.75;stroke-miterlimit:10;}
	.st28{fill:none;stroke:#0066FF;stroke-width:0.75;stroke-linecap:round;stroke-miterlimit:10;}
	.st29{fill:none;stroke:#FFFFFF;stroke-width:0.75;stroke-miterlimit:10;}
	.st30{fill:none;stroke:#0000FF;stroke-width:2;stroke-miterlimit:10;}
	.st31{fill:none;stroke:#00C1A3;stroke-width:2;stroke-miterlimit:10;}
	.st32{fill:none;stroke:#FF25F3;stroke-width:2;stroke-linecap:round;stroke-linejoin:round;stroke-miterlimit:10;}
	.st33{fill:none;stroke:#FF25F3;stroke-width:0.75;stroke-linejoin:round;}
	.st34{fill:none;stroke:#FF25F3;stroke-width:0.75;stroke-linejoin:round;stroke-dasharray:1.916,1.916;}
	.st35{fill:none;stroke:#FF25F3;stroke-width:0.75;stroke-miterlimit:10;stroke-dasharray:1.916,1.916;}
	.st36{fill:none;}
	.st37{fill-rule:evenodd;clip-rule:evenodd;fill:none;stroke:#FF25F3;stroke-width:0.75;stroke-miterlimit:10;}
	.st38{clip-path:url(#SVGID_2_);fill:#2935E8;}
	.st39{clip-path:url(#SVGID_4_);fill:#00C1A3;}
	.st40{clip-path:url(#SVGID_6_);fill:#FF25F3;}
	.st41{fill:#FFFFFF;}
	.st42{fill:none;stroke:#FF25F3;stroke-width:0.75;stroke-linecap:round;stroke-linejoin:round;}
	.st43{fill:none;stroke:#FF25F3;stroke-width:0.75;stroke-linecap:round;stroke-linejoin:round;stroke-dasharray:5.1058,5.1058;}
	.st44{fill:none;stroke:#FF25F3;stroke-width:0.75;stroke-miterlimit:10;stroke-dasharray:7.3935,7.3935;}
	.st45{fill:none;stroke:#00C1A3;stroke-width:0.75;stroke-miterlimit:10;stroke-dasharray:8.7323,8.7323;}
</style>
<g>
	<path class="st9" d="M62.2,50.3H30.4c-3.3,0-6-2.7-6-6V8.2c0-3.3,2.7-6,6-6h31.8c3.3,0,6,2.7,6,6v36.1
		C68.2,47.6,65.5,50.3,62.2,50.3z"/>
	<path class="st9" d="M61.7,20.1H30.9c-1.4,0-2.5-1.1-2.5-2.5V9c0-1.4,1.1-2.5,2.5-2.5h30.7c1.4,0,2.5,1.1,2.5,2.5v8.5
		C64.2,18.9,63.1,20.1,61.7,20.1z"/>
	<path class="st9" d="M35.5,32.3h-4.6c-1.4,0-2.5-1.1-2.5-2.5v-4.6c0-1.4,1.1-2.5,2.5-2.5h4.6c1.4,0,2.5,1.1,2.5,2.5v4.6
		C38,31.2,36.9,32.3,35.5,32.3z"/>
	<path class="st9" d="M48.5,32.3h-4.6c-1.4,0-2.5-1.1-2.5-2.5v-4.6c0-1.4,1.1-2.5,2.5-2.5h4.6c1.4,0,2.5,1.1,2.5,2.5v4.6
		C51,31.2,49.9,32.3,48.5,32.3z"/>
	<path class="st9" d="M35.5,45.2h-4.6c-1.4,0-2.5-1.1-2.5-2.5v-4.6c0-1.4,1.1-2.5,2.5-2.5h4.6c1.4,0,2.5,1.1,2.5,2.5v4.6
		C38,44.1,36.9,45.2,35.5,45.2z"/>
	<path class="st9" d="M48.5,45.2h-4.6c-1.4,0-2.5-1.1-2.5-2.5v-4.6c0-1.4,1.1-2.5,2.5-2.5h4.6c1.4,0,2.5,1.1,2.5,2.5v4.6
		C51,44.1,49.9,45.2,48.5,45.2z"/>
	<path class="st9" d="M61.1,45.2h-3.6c-1.7,0-3.1-1.4-3.1-3.1V25.8c0-1.7,1.4-3.1,3.1-3.1h3.6c1.7,0,3.1,1.4,3.1,3.1v16.3
		C64.2,43.9,62.8,45.2,61.1,45.2z"/>
</g>
<g>
	<g>
		<path class="st6" d="M8.9,33.5c1.8,2.3,2.2,4.9,1,5.8s-3.6-0.2-5.4-2.5c-1.8-2.3-1-5.8-1-5.8S7.1,31.2,8.9,33.5z"/>
		<path class="st6" d="M8.9,24.2c1.8,2.3,2.2,4.9,1,5.8c-1.2,0.9-3.6-0.2-5.4-2.5s-1-5.8-1-5.8S7.1,21.9,8.9,24.2z"/>
		<path class="st6" d="M8.9,14.9c1.8,2.3,2.2,4.9,1,5.8c-1.2,0.9-3.6-0.2-5.4-2.5s-1-5.8-1-5.8S7.1,12.6,8.9,14.9z"/>
		<path class="st6" d="M8.9,5.6c1.8,2.3,2.2,4.9,1,5.8C8.7,12.4,6.3,11.3,4.5,9s-1-5.8-1-5.8S7.1,3.3,8.9,5.6z"/>
	</g>
	<g>
		<path class="st6" d="M14.3,33.2c-1.8,2.3-2.2,4.9-1,5.8c1.2,0.9,3.6-0.2,5.4-2.5s1-5.8,1-5.8S16.1,30.9,14.3,33.2z"/>
		<path class="st6" d="M14.3,23.9c-1.8,2.3-2.2,4.9-1,5.8s3.6-0.2,5.4-2.5s1-5.8,1-5.8S16.1,21.6,14.3,23.9z"/>
		<path class="st6" d="M14.3,14.6c-1.8,2.3-2.2,4.9-1,5.8c1.2,0.9,3.6-0.2,5.4-2.5s1-5.8,1-5.8S16.1,12.3,14.3,14.6z"/>
		<path class="st6" d="M14.3,5.3c-1.8,2.3-2.2,4.9-1,5.8s3.6-0.2,5.4-2.5s1-5.8,1-5.8S16.1,3,14.3,5.3z"/>
	</g>
	<line class="st6" x1="11.5" y1="40.9" x2="11.5" y2="51.7"/>
</g>
<g>
	<ellipse class="st27" cx="76.6" cy="16.1" rx="5.5" ry="9.5"/>
	<line class="st27" x1="90.3" y1="6.5" x2="76.6" y2="48.7"/>
	<ellipse class="st27" cx="90.4" cy="37.3" rx="5.5" ry="9.5"/>
</g>
</svg>
