<?xml version="1.0" encoding="utf-8"?>
<!-- Generator: Adobe Illustrator 23.0.1, SVG Export Plug-In . SVG Version: 6.00 Build 0)  -->
<svg version="1.1" id="Layer_1" xmlns="http://www.w3.org/2000/svg" xmlns:xlink="http://www.w3.org/1999/xlink" x="0px" y="0px"
	 viewBox="0 0 66.8 52.5" style="enable-background:new 0 0 66.8 52.5;" xml:space="preserve">
<style type="text/css">
	.st0{fill-rule:evenodd;clip-rule:evenodd;fill:none;stroke:#00C1A3;stroke-width:0.75;stroke-miterlimit:10;}
	.st1{fill:#FFFFFF;stroke:#0066FF;stroke-width:0.75;stroke-linecap:round;stroke-linejoin:round;stroke-miterlimit:10;}
	.st2{fill:none;stroke:#0066FF;stroke-width:0.75;stroke-linecap:round;stroke-linejoin:round;stroke-miterlimit:10;}
	.st3{fill:#FFFFFF;stroke:#0066FF;stroke-width:0.75;stroke-miterlimit:10;}
	.st4{fill:none;stroke:#0066FF;stroke-width:0.75;stroke-miterlimit:10;}
	.st5{fill:none;stroke:#00C1A3;stroke-width:0.75;stroke-miterlimit:10;}
	.st6{fill:none;stroke:#FF25F3;stroke-width:0.75;stroke-miterlimit:10;}
	.st7{fill:none;stroke:#FF25F3;stroke-width:0.75;stroke-linecap:round;stroke-linejoin:round;stroke-miterlimit:10;}
	.st8{fill-rule:evenodd;clip-rule:evenodd;fill:none;stroke:#0066FF;stroke-width:0.75;stroke-miterlimit:10;}
	.st9{clip-path:url(#SVGID_2_);fill-rule:evenodd;clip-rule:evenodd;fill:#FFFFFF;}
	.st10{fill-rule:evenodd;clip-rule:evenodd;fill:#FCFDFF;}
	.st11{fill-rule:evenodd;clip-rule:evenodd;fill:#FFFFFF;}
	.st12{fill-rule:evenodd;clip-rule:evenodd;fill:#3D6A9D;}
	.st13{fill:#FFFFFF;}
	.st14{fill:#0066FF;}
	.st15{fill-rule:evenodd;clip-rule:evenodd;fill:#FFFFFF;stroke:#0066FF;stroke-width:0.75;stroke-miterlimit:10;}
	.st16{fill-rule:evenodd;clip-rule:evenodd;fill:#FFFFFF;stroke:#44E0A0;stroke-width:0.75;stroke-miterlimit:10;}
	.st17{fill-rule:evenodd;clip-rule:evenodd;fill:#FFFFFF;stroke:#FF25F3;stroke-width:0.75;stroke-miterlimit:10;}
	.st18{fill:none;stroke:#FFFFFF;stroke-width:2.8774;stroke-miterlimit:10;}
	
		.st19{fill-rule:evenodd;clip-rule:evenodd;fill:none;stroke:#FF25F3;stroke-width:0.75;stroke-linecap:round;stroke-linejoin:round;stroke-miterlimit:10;}
	.st20{fill-rule:evenodd;clip-rule:evenodd;fill:#FFFFFF;stroke:#FFFFFF;stroke-width:0.7194;stroke-miterlimit:10;}
	.st21{fill:none;stroke:#FFFFFF;stroke-width:0.7194;stroke-miterlimit:10;}
	.st22{fill:none;stroke:#44E0A0;stroke-width:0.75;stroke-linecap:round;stroke-linejoin:round;stroke-miterlimit:10;}
	.st23{fill-rule:evenodd;clip-rule:evenodd;fill:#FFFFFF;stroke:#00C1A3;stroke-width:0.75;stroke-miterlimit:10;}
	.st24{fill:none;stroke:#0066FF;stroke-width:0.75;stroke-linecap:round;stroke-miterlimit:10;}
	.st25{fill:#FFFFFF;stroke:#00C1A3;stroke-width:0.75;stroke-miterlimit:10;}
	.st26{clip-path:url(#SVGID_4_);}
	
		.st27{fill-rule:evenodd;clip-rule:evenodd;fill:none;stroke:#0066FF;stroke-width:0.75;stroke-linecap:round;stroke-miterlimit:10;}
	.st28{fill-rule:evenodd;clip-rule:evenodd;fill:none;stroke:#FF25F3;stroke-width:0.75;stroke-miterlimit:10;}
	.st29{fill:#FFFFFF;stroke:#FF25F3;stroke-width:0.75;stroke-miterlimit:10;}
	.st30{fill:#FFFFFF;stroke:#FF25F3;stroke-width:0.75;stroke-linecap:round;stroke-linejoin:round;stroke-miterlimit:10;}
	.st31{fill:none;stroke:#00FA9B;stroke-width:0.75;stroke-miterlimit:10;}
	.st32{fill:#87D73F;}
	.st33{fill:#3DED98;}
</style>
<path class="st8" d="M59.8,51.5H27.9c-3.3,0-6-2.7-6-6V9.5c0-3.3,2.7-6,6-6h31.8c3.3,0,6,2.7,6,6v36.1
	C65.8,48.8,63.1,51.5,59.8,51.5z"/>
<path class="st0" d="M59.2,21.3H28.5c-1.4,0-2.5-1.1-2.5-2.5v-8.5c0-1.4,1.1-2.5,2.5-2.5h30.7c1.4,0,2.5,1.1,2.5,2.5v8.5
	C61.7,20.2,60.6,21.3,59.2,21.3z"/>
<path class="st8" d="M33,33.6h-4.6c-1.4,0-2.5-1.1-2.5-2.5v-4.6c0-1.4,1.1-2.5,2.5-2.5H33c1.4,0,2.5,1.1,2.5,2.5v4.6
	C35.5,32.5,34.4,33.6,33,33.6z"/>
<path class="st8" d="M46,33.6h-4.6c-1.4,0-2.5-1.1-2.5-2.5v-4.6c0-1.4,1.1-2.5,2.5-2.5H46c1.4,0,2.5,1.1,2.5,2.5v4.6
	C48.5,32.5,47.4,33.6,46,33.6z"/>
<path class="st8" d="M33,46.5h-4.6c-1.4,0-2.5-1.1-2.5-2.5v-4.6c0-1.4,1.1-2.5,2.5-2.5H33c1.4,0,2.5,1.1,2.5,2.5V44
	C35.5,45.4,34.4,46.5,33,46.5z"/>
<path class="st19" d="M46,46.5h-4.6c-1.4,0-2.5-1.1-2.5-2.5v-4.6c0-1.4,1.1-2.5,2.5-2.5H46c1.4,0,2.5,1.1,2.5,2.5V44
	C48.5,45.4,47.4,46.5,46,46.5z"/>
<path class="st8" d="M58.7,46.5H55c-1.7,0-3.1-1.4-3.1-3.1V27.1c0-1.7,1.4-3.1,3.1-3.1h3.6c1.7,0,3.1,1.4,3.1,3.1v16.3
	C61.7,45.1,60.3,46.5,58.7,46.5z"/>
<g>
	<g>
		<path class="st7" d="M6.4,31.7c1.8,2.3,2.2,4.9,1,5.8C6.2,38.4,3.8,37.3,2,35s-1-5.8-1-5.8S4.6,29.3,6.4,31.7z"/>
		<path class="st7" d="M6.4,22.4c1.8,2.3,2.2,4.9,1,5.8C6.2,29.1,3.8,28,2,25.7s-1-5.8-1-5.8S4.6,20.1,6.4,22.4z"/>
		<path class="st7" d="M6.4,13.1c1.8,2.3,2.2,4.9,1,5.8S3.8,18.7,2,16.4s-1-5.8-1-5.8S4.6,10.8,6.4,13.1z"/>
		<path class="st7" d="M6.4,3.8c1.8,2.3,2.2,4.9,1,5.8C6.2,10.5,3.8,9.4,2,7.1S1,1.3,1,1.3S4.6,1.5,6.4,3.8z"/>
	</g>
	<g>
		<path class="st7" d="M11.8,31.3c-1.8,2.3-2.2,4.9-1,5.8c1.2,0.9,3.6-0.2,5.4-2.5s1-5.8,1-5.8S13.6,29,11.8,31.3z"/>
		<path class="st7" d="M11.8,22c-1.8,2.3-2.2,4.9-1,5.8c1.2,0.9,3.6-0.2,5.4-2.5s1-5.8,1-5.8S13.6,19.7,11.8,22z"/>
		<path class="st7" d="M11.8,12.7c-1.8,2.3-2.2,4.9-1,5.8c1.2,0.9,3.6-0.2,5.4-2.5s1-5.8,1-5.8S13.6,10.4,11.8,12.7z"/>
		<path class="st7" d="M11.8,3.4c-1.8,2.3-2.2,4.9-1,5.8s3.6-0.2,5.4-2.5s1-5.8,1-5.8S13.6,1.1,11.8,3.4z"/>
	</g>
	<line class="st7" x1="9" y1="39.1" x2="9" y2="49.8"/>
</g>
</svg>
