<?xml version="1.0" encoding="utf-8"?>
<!-- Generator: Adobe Illustrator 16.0.0, SVG Export Plug-In . SVG Version: 6.00 Build 0)  -->
<!DOCTYPE svg PUBLIC "-//W3C//DTD SVG 1.1//EN" "http://www.w3.org/Graphics/SVG/1.1/DTD/svg11.dtd">
<svg version="1.1" id="Layer_1" xmlns="http://www.w3.org/2000/svg" xmlns:xlink="http://www.w3.org/1999/xlink" x="0px" y="0px"
	 width="150px" height="150px" viewBox="0 0 150 150" enable-background="new 0 0 150 150" xml:space="preserve">
<g>
	<g>
		<polygon fill="none" stroke="#FFFFFF" stroke-width="0.6075" stroke-miterlimit="10" points="81.664,21.438 85.489,19.229 
			89.312,21.438 89.312,25.853 85.489,28.063 81.664,25.853 		"/>
		<path fill="#FFFFFF" d="M86.926,24.846c0,0.264-0.091,0.485-0.281,0.677c-0.189,0.188-0.415,0.283-0.675,0.283h-0.963
			c-0.264,0-0.488-0.095-0.68-0.278c-0.184-0.192-0.279-0.418-0.279-0.682v-2.4c0-0.264,0.096-0.489,0.279-0.677
			c0.191-0.188,0.416-0.282,0.68-0.282h0.963c0.26,0,0.485,0.094,0.675,0.282c0.19,0.189,0.281,0.413,0.281,0.677V24.846
			L86.926,24.846z M85.963,22.363c-0.067-0.261-0.226-0.394-0.474-0.394c-0.135,0-0.249,0.046-0.341,0.138
			c-0.095,0.093-0.142,0.206-0.142,0.338v1.633L85.963,22.363L85.963,22.363z M85.97,24.846v-1.631l-0.952,1.707
			c0.049,0.271,0.21,0.4,0.472,0.4c0.133,0,0.245-0.045,0.34-0.138C85.923,25.091,85.97,24.978,85.97,24.846z"/>
	</g>
	<g>
		<polygon fill="none" stroke="#FFFFFF" stroke-width="0.6075" stroke-miterlimit="10" points="89.501,44.698 93.322,42.49 
			97.149,44.698 97.149,49.114 93.322,51.324 89.501,49.114 		"/>
		<polygon fill="#FFFFFF" points="94.896,48.923 94.686,48.923 92.199,46.686 92.199,48.923 91.751,48.923 91.751,44.892 
			91.96,44.892 94.448,47.133 94.448,44.892 94.896,44.892 		"/>
	</g>
	<g>
		<polygon fill="none" stroke="#FFFFFF" stroke-width="0.6075" stroke-miterlimit="10" points="90.381,61.51 94.207,59.3 
			98.026,61.51 98.026,65.927 94.207,68.133 90.381,65.927 		"/>
		<path fill-rule="evenodd" clip-rule="evenodd" fill="#FFFFFF" d="M95.379,61.659h-2.971l0.383,0.493h1.374
			c0.069,0.084,0.146,0.201,0.196,0.332h-1.665l0.372,0.496h1.337c-0.01,0.047-0.023,0.093-0.044,0.144
			c-0.149,0.35-0.396,0.533-0.569,0.625l-0.198-0.246h-0.633l1.777,2.271h0.641l-1.237-1.581c0.209-0.163,0.77-0.645,0.817-1.212
			h1.038l-0.332-0.496h-0.758c-0.033-0.131-0.076-0.235-0.12-0.332h0.931L95.379,61.659z"/>
	</g>
	<g>
		<polygon fill="none" stroke="#FFFFFF" stroke-width="0.6075" stroke-miterlimit="10" points="102.845,66.035 106.675,63.83 
			110.494,66.035 110.494,70.453 106.675,72.659 102.845,70.453 		"/>
		<path fill="#FFFFFF" d="M106.487,69.485v-1.103c-0.34-0.099-0.596-0.246-0.761-0.446c-0.157-0.203-0.241-0.442-0.241-0.725
			c0-0.289,0.096-0.532,0.274-0.726c0.187-0.193,0.425-0.309,0.728-0.341v-0.259h0.382v0.259c0.279,0.036,0.502,0.132,0.668,0.29
			c0.163,0.154,0.269,0.364,0.312,0.63l-0.665,0.086c-0.041-0.211-0.144-0.348-0.314-0.426v1.034
			c0.421,0.109,0.71,0.262,0.859,0.442c0.154,0.181,0.229,0.413,0.229,0.698c0,0.318-0.094,0.585-0.283,0.806
			c-0.197,0.218-0.465,0.351-0.806,0.401v0.488h-0.382v-0.479c-0.305-0.036-0.548-0.148-0.738-0.339
			c-0.19-0.188-0.313-0.456-0.367-0.802l0.688-0.076c0.027,0.141,0.083,0.261,0.16,0.364
			C106.307,69.369,106.395,69.443,106.487,69.485L106.487,69.485z M106.487,66.722c-0.104,0.034-0.181,0.096-0.251,0.179
			c-0.058,0.084-0.087,0.178-0.087,0.277c0,0.095,0.021,0.184,0.08,0.261c0.06,0.079,0.145,0.145,0.258,0.197V66.722L106.487,66.722
			z M106.869,69.524c0.132-0.024,0.237-0.084,0.321-0.182c0.082-0.099,0.123-0.213,0.123-0.346c0-0.119-0.032-0.218-0.104-0.308
			c-0.067-0.082-0.183-0.147-0.341-0.191V69.524z"/>
	</g>
	<g>
		<polygon fill="none" stroke="#FFFFFF" stroke-width="0.6075" stroke-miterlimit="10" points="82.361,73.688 86.187,71.482 
			90.012,73.688 90.012,78.102 86.187,80.31 82.361,78.102 		"/>
		<path fill-rule="evenodd" clip-rule="evenodd" fill="#FFFFFF" d="M87.742,77.355c-0.016,0.045-0.029,0.03-0.063,0.114l0.102,0.038
			c0.047,0.012,0.173-0.132,0.306-0.172c0.042,0.047,0.061,0.132,0.113,0.148c0.144,0.049,0.191-0.03,0.125,0.182
			c0.027,0.031,0.041,0.058,0.107,0.077c0.054,0.022,0.11-0.032,0.157-0.051c0.11-0.056,0.087,0.005,0.178-0.023
			c0.108-0.032,0.083-0.207,0.118-0.338c0.078-0.277-0.074-0.426-0.215-0.609c-0.046-0.05-0.559-0.378-0.644-0.409
			c-0.28-0.104-0.579-0.192-0.862-0.287c-0.699-0.237-1.02-0.344-1.46-0.717c-0.233-0.19-0.364-0.215-0.491-0.491
			c-0.071-0.146-0.143-0.449-0.376-0.527c-0.114-0.041-0.167-0.033-0.248-0.062c-0.129-0.036-0.136-0.114-0.187-0.126l-0.022-0.013
			c-0.075-0.026-0.196,0.013-0.262,0.025c-0.038-0.025-0.049-0.038-0.109-0.061c-0.131-0.041-0.344,0.071-0.399,0.232l-0.031,0.101
			c-0.037,0.108-0.049,0.205,0,0.271l0.243-0.087l-0.004,0.057l0.036,0.019c-0.11,0.176-0.353,0.225-0.389,0.273l0.104,0.034
			c0.114,0.039,0.235-0.057,0.419-0.036l0.016,0.019l-0.358,0.244l0.009,0.03l0.535-0.072l0.049,0.047l0.023,0.013l-0.356,0.391
			c0.21,0.065,0.377-0.192,0.543-0.135c0.012,0.006,0.249,0.382,0.5,0.464c-0.032,0.159,0.063,0.155,0.035,0.239l-0.005,0.022
			c-0.021,0.062-0.037,0.069-0.063,0.112c0.012,0.043,0.01,0.072,0.059,0.09c0.055,0.021,0.065,0.012,0.11,0.015
			c0.073-0.177,0.131-0.147,0.269-0.185l0.196,0.226c-0.03,0.099-0.107,0.213-0.015,0.247l0.041,0.011
			c0.124,0.045,0.111-0.258,0.376-0.166c0.204,0.067,0.045,0.354,0.139,0.389l0.024,0.008c0.053,0.017,0.092-0.023,0.131-0.051
			l0.032-0.102c0.023-0.018,0.071-0.066,0.106-0.052c0.288,0.096,0.09,0.321,0.2,0.358l0.021,0.01
			c0.045,0.013,0.047-0.005,0.096-0.016c0.034-0.108,0.082-0.246,0.186-0.214c0.098,0.036,0.172,0.16,0.134,0.275l-0.021,0.063
			l0.059,0.02c0.051,0.018,0.051,0,0.099-0.013c0.03-0.089,0.085-0.222,0.157-0.196c0.1,0.029,0.146,0.094,0.116,0.196l-0.035,0.104
			l0.063,0.02c0.065,0.024,0.155-0.127,0.198-0.184C87.747,77.185,87.775,77.249,87.742,77.355z"/>
	</g>
	<g>
		<polygon fill="none" stroke="#FFFFFF" stroke-width="0.6075" stroke-miterlimit="10" points="89.894,80.598 93.719,78.391 
			97.544,80.598 97.544,85.011 93.719,87.218 89.894,85.011 		"/>
		<path fill="#FFFFFF" d="M93.359,84.45h-1.106c-0.295,0-0.561-0.106-0.773-0.321c-0.216-0.218-0.324-0.472-0.324-0.776v-1.099
			c0-0.3,0.108-0.558,0.324-0.773c0.213-0.212,0.479-0.325,0.773-0.325h0.74c0.088,0,0.173,0.041,0.246,0.118
			c0.078,0.075,0.12,0.16,0.12,0.251v0.366h-0.366c0-0.101-0.036-0.188-0.109-0.26c-0.07-0.074-0.155-0.106-0.26-0.106
			c-0.204,0-0.377,0.069-0.521,0.214c-0.144,0.144-0.215,0.319-0.215,0.516v1.099c0,0.204,0.071,0.377,0.215,0.519
			s0.316,0.216,0.521,0.216h0.735V84.45L93.359,84.45z M96.276,84.45h-0.729v-0.548c-0.052,0.205-0.134,0.348-0.244,0.428
			c-0.108,0.082-0.271,0.12-0.487,0.12c-0.201,0-0.373-0.069-0.521-0.211c-0.137-0.149-0.213-0.32-0.213-0.521v-1.828h0.734v1.828
			c0,0.241,0.059,0.368,0.183,0.368c0.165,0,0.303-0.072,0.407-0.201c0.098-0.112,0.142-0.229,0.142-0.353v-1.643h0.729V84.45z"/>
	</g>
	<g>
		<polygon fill="none" stroke="#FFFFFF" stroke-width="0.6075" stroke-miterlimit="10" points="103.202,81.783 107.021,79.573 
			110.852,81.783 110.852,86.199 107.021,88.406 103.202,86.199 		"/>
		<path fill="#FFFFFF" d="M106.657,85.636h-2.188v-0.367l1.46-2.553h-1.46v-0.368h2.188v0.368l-1.462,2.553h1.462V85.636
			L106.657,85.636z M109.583,85.636h-0.729v-1.831c0-0.242-0.063-0.363-0.185-0.363c-0.164,0-0.299,0.064-0.409,0.197
			c-0.095,0.113-0.142,0.227-0.142,0.35v1.647h-0.729v-2.563h0.729v0.55c0.055-0.202,0.135-0.347,0.245-0.427
			c0.105-0.081,0.272-0.123,0.49-0.123c0.204,0,0.373,0.075,0.517,0.213c0.136,0.146,0.213,0.315,0.213,0.519V85.636z"/>
	</g>
	<polygon fill="none" stroke="#FFFFFF" stroke-width="0.6075" stroke-miterlimit="10" points="60.249,21.935 64.074,19.729 
		67.897,21.935 67.897,26.35 64.074,28.558 60.249,26.35 	"/>
	<polygon fill="none" stroke="#FFFFFF" stroke-width="0.6075" stroke-miterlimit="10" points="64.002,27.168 67.824,24.961 
		71.648,27.168 71.648,31.584 67.824,33.79 64.002,31.584 	"/>
	<polygon fill="none" stroke="#FFFFFF" stroke-width="0.6075" stroke-miterlimit="10" points="74.753,28.473 78.579,26.262 
		82.404,28.473 82.404,32.886 78.579,35.092 74.753,32.886 	"/>
	<polygon fill="none" stroke="#FFFFFF" stroke-width="0.6075" stroke-miterlimit="10" points="103.342,21.769 107.169,19.562 
		110.993,21.769 110.993,26.185 107.169,28.39 103.342,26.185 	"/>
	<polygon fill="none" stroke="#FFFFFF" stroke-width="0.6075" stroke-miterlimit="10" points="72.531,36.539 76.357,34.331 
		80.179,36.539 80.179,40.956 76.357,43.163 72.531,40.956 	"/>
	<polygon fill="none" stroke="#FFFFFF" stroke-width="0.6075" stroke-miterlimit="10" points="62.255,40.802 66.081,38.592 
		69.903,40.802 69.903,45.219 66.081,47.425 62.255,45.219 	"/>
	<polygon fill="none" stroke="#FFFFFF" stroke-width="0.6075" stroke-miterlimit="10" points="101.888,32.737 105.709,30.53 
		109.537,32.737 109.537,37.154 105.709,39.362 101.888,37.154 	"/>
	<polygon fill="none" stroke="#FFFFFF" stroke-width="0.6075" stroke-miterlimit="10" points="118.565,21.935 122.392,19.729 
		126.215,21.935 126.215,26.35 122.392,28.558 118.565,26.35 	"/>
	<polygon fill="none" stroke="#FFFFFF" stroke-width="0.6075" stroke-miterlimit="10" points="122.485,23.913 126.304,21.706 
		130.125,23.913 130.125,28.331 126.304,30.538 122.485,28.331 	"/>
	<polygon fill="none" stroke="#FFFFFF" stroke-width="0.6075" stroke-miterlimit="10" points="127.223,32.379 131.051,30.168 
		134.871,32.379 134.871,36.796 131.051,39.004 127.223,36.796 	"/>
	<polygon fill="none" stroke="#FFFFFF" stroke-width="0.6075" stroke-miterlimit="10" points="114.856,33.361 118.682,31.15 
		122.502,33.361 122.502,37.776 118.682,39.981 114.856,37.776 	"/>
	<polygon fill="none" stroke="#FFFFFF" stroke-width="0.6075" stroke-miterlimit="10" points="115.959,44.269 119.781,42.061 
		123.601,44.269 123.601,48.683 119.781,50.89 115.959,48.683 	"/>
	<polygon fill="none" stroke="#FFFFFF" stroke-width="0.6075" stroke-miterlimit="10" points="133.819,48.954 137.647,46.747 
		141.472,48.954 141.472,53.371 137.647,55.579 133.819,53.371 	"/>
	<g>
		<polygon fill="none" stroke="#FFFFFF" stroke-width="0.6075" stroke-miterlimit="10" points="86.784,53.422 90.607,51.214 
			94.43,53.422 94.43,57.841 90.607,60.047 86.784,57.841 		"/>
	</g>
	<polygon fill="none" stroke="#FFFFFF" stroke-width="0.6075" stroke-miterlimit="10" points="100.542,41.885 104.372,39.678 
		108.188,41.885 108.188,46.299 104.372,48.505 100.542,46.299 	"/>
	<polygon fill="none" stroke="#FFFFFF" stroke-width="0.6075" stroke-miterlimit="10" points="104.173,43.528 107.997,41.317 
		111.815,43.528 111.815,47.945 107.997,50.151 104.173,47.945 	"/>
	<polygon fill="none" stroke="#FFFFFF" stroke-width="0.6075" stroke-miterlimit="10" points="98.158,51.064 101.983,48.857 
		105.803,51.064 105.803,55.482 101.983,57.688 98.158,55.482 	"/>
	<polygon fill="none" stroke="#FFFFFF" stroke-width="0.6075" stroke-miterlimit="10" points="95.36,54.052 99.187,51.842 
		103.007,54.052 103.007,58.469 99.187,60.672 95.36,58.469 	"/>
	<polygon fill="none" stroke="#FFFFFF" stroke-width="0.6075" stroke-miterlimit="10" points="65.86,56.654 69.689,54.444 
		73.509,56.654 73.509,61.069 69.689,63.278 65.86,61.069 	"/>
	<polygon fill="none" stroke="#FFFFFF" stroke-width="0.6075" stroke-miterlimit="10" points="123.196,53.336 127.021,51.123 
		130.839,53.336 130.839,57.749 127.021,59.957 123.196,57.749 	"/>
	<polygon fill="none" stroke="#FFFFFF" stroke-width="0.6075" stroke-miterlimit="10" points="118.752,53.498 122.577,51.289 
		126.401,53.498 126.401,57.912 122.577,60.119 118.752,57.912 	"/>
	<polygon fill="none" stroke="#FFFFFF" stroke-width="0.6075" stroke-miterlimit="10" points="125.987,56.316 129.811,54.106 
		133.638,56.316 133.638,60.73 129.811,62.938 125.987,60.73 	"/>
	<polygon fill="none" stroke="#FFFFFF" stroke-width="0.6075" stroke-miterlimit="10" points="124.34,69.17 128.168,66.961 
		131.987,69.17 131.987,73.584 128.168,75.795 124.34,73.584 	"/>
	<polygon fill="none" stroke="#FFFFFF" stroke-width="0.6075" stroke-miterlimit="10" points="128.257,68.202 132.079,65.993 
		135.902,68.202 135.902,72.619 132.079,74.825 128.257,72.619 	"/>
	<polygon fill="none" stroke="#FFFFFF" stroke-width="0.6075" stroke-miterlimit="10" points="112.925,69.763 116.749,67.555 
		120.575,69.763 120.575,74.18 116.749,76.388 112.925,74.18 	"/>
	<polygon fill="none" stroke="#FFFFFF" stroke-width="0.6075" stroke-miterlimit="10" points="111.036,73.14 114.856,70.932 
		118.687,73.14 118.687,77.557 114.856,79.761 111.036,77.557 	"/>
	<polygon fill="none" stroke="#FFFFFF" stroke-width="0.6075" stroke-miterlimit="10" points="102.271,73.658 106.097,71.452 
		109.916,73.658 109.916,78.075 106.097,80.282 102.271,78.075 	"/>
	<polygon fill="none" stroke="#FFFFFF" stroke-width="0.6075" stroke-miterlimit="10" points="92.95,70.982 96.773,68.774 
		100.595,70.982 100.595,75.4 96.773,77.606 92.95,75.4 	"/>
	<polygon fill="none" stroke="#FFFFFF" stroke-width="0.6075" stroke-miterlimit="10" points="74.583,68.81 78.407,66.599 
		82.232,68.81 82.232,73.224 78.407,75.434 74.583,73.224 	"/>
	<polygon fill="none" stroke="#FFFFFF" stroke-width="0.6075" stroke-miterlimit="10" points="73.977,57.366 77.798,55.159 
		81.618,57.366 81.618,61.78 77.798,63.989 73.977,61.78 	"/>
	<polygon fill="none" stroke="#FFFFFF" stroke-width="0.6075" stroke-miterlimit="10" points="64.456,65.109 68.281,62.901 
		72.108,65.109 72.108,69.527 68.281,71.733 64.456,69.527 	"/>
	<polygon fill="none" stroke="#FFFFFF" stroke-width="0.6075" stroke-miterlimit="10" points="80.679,79.045 84.509,76.838 
		88.333,79.045 88.333,83.463 84.509,85.671 80.679,83.463 	"/>
	<polygon fill="none" stroke="#FFFFFF" stroke-width="0.6075" stroke-miterlimit="10" points="108.236,83.643 112.06,81.436 
		115.879,83.643 115.879,88.058 112.06,90.264 108.236,88.058 	"/>
	<polygon fill="none" stroke="#FFFFFF" stroke-width="0.6075" stroke-miterlimit="10" points="128.578,88.365 132.403,86.156 
		136.224,88.365 136.224,92.781 132.403,94.985 128.578,92.781 	"/>
	<polygon fill="none" stroke="#FFFFFF" stroke-width="0.6075" stroke-miterlimit="10" points="129.257,97.665 133.08,95.457 
		136.903,97.665 136.903,102.083 133.08,104.289 129.257,102.083 	"/>
	<polygon fill="none" stroke="#FFFFFF" stroke-width="0.6075" stroke-miterlimit="10" points="87.309,94.844 91.135,92.637 
		94.956,94.844 94.956,99.259 91.135,101.467 87.309,99.259 	"/>
	<polygon fill="none" stroke="#FFFFFF" stroke-width="0.6075" stroke-miterlimit="10" points="68.239,95.095 72.062,92.884 
		75.887,95.095 75.887,99.51 72.062,101.716 68.239,99.51 	"/>
	<polygon fill="none" stroke="#FFFFFF" stroke-width="0.6075" stroke-miterlimit="10" points="62.415,75.05 66.241,72.843 
		70.063,75.05 70.063,79.467 66.241,81.673 62.415,79.467 	"/>
	<polygon fill="none" stroke="#FFFFFF" stroke-width="0.6075" stroke-miterlimit="10" points="57.861,80.466 61.686,78.26 
		65.513,80.466 65.513,84.884 61.686,87.091 57.861,84.884 	"/>
	<polygon fill="none" stroke="#FFFFFF" stroke-width="0.6075" stroke-miterlimit="10" points="54.495,94.114 58.317,91.905 
		62.138,94.114 62.138,98.529 58.317,100.739 54.495,98.529 	"/>
	<g>
		<polygon fill="none" stroke="#FFFFFF" stroke-width="0.6075" stroke-miterlimit="10" points="70.15,24.615 73.977,22.404 
			77.794,24.615 77.794,29.028 73.977,31.236 70.15,29.028 		"/>
		<path fill="#FFFFFF" d="M75.409,28.022c0,0.261-0.088,0.486-0.279,0.677c-0.187,0.187-0.412,0.282-0.677,0.282h-0.96
			c-0.268,0-0.491-0.096-0.677-0.278c-0.19-0.19-0.285-0.42-0.285-0.681v-2.404c0-0.262,0.095-0.487,0.285-0.676
			c0.186-0.189,0.409-0.281,0.677-0.281h0.96c0.265,0,0.49,0.092,0.677,0.281c0.191,0.19,0.279,0.414,0.279,0.676V28.022
			L75.409,28.022z M74.446,25.539c-0.069-0.265-0.222-0.394-0.47-0.394c-0.135,0-0.248,0.044-0.341,0.137
			c-0.094,0.096-0.143,0.207-0.143,0.336v1.636L74.446,25.539L74.446,25.539z M74.453,28.022V26.39l-0.946,1.706
			c0.049,0.269,0.207,0.403,0.47,0.403c0.132,0,0.243-0.045,0.339-0.142C74.407,28.264,74.453,28.151,74.453,28.022z"/>
	</g>
	<g>
		<polygon fill="none" stroke="#FFFFFF" stroke-width="0.6075" stroke-miterlimit="10" points="109.019,25.89 112.847,23.683 
			116.664,25.89 116.664,30.306 112.847,32.512 109.019,30.306 		"/>
		<path fill="#FFFFFF" d="M114.281,29.295c0,0.265-0.089,0.488-0.284,0.68c-0.188,0.187-0.41,0.28-0.675,0.28h-0.961
			c-0.261,0-0.493-0.094-0.679-0.277c-0.184-0.19-0.279-0.418-0.279-0.683v-2.398c0-0.264,0.096-0.491,0.279-0.679
			c0.186-0.188,0.418-0.281,0.679-0.281h0.961c0.265,0,0.487,0.094,0.675,0.281c0.195,0.192,0.284,0.415,0.284,0.679V29.295
			L114.281,29.295z M113.316,26.815c-0.067-0.262-0.227-0.396-0.47-0.396c-0.135,0-0.25,0.046-0.344,0.139s-0.142,0.21-0.142,0.338
			v1.635L113.316,26.815L113.316,26.815z M113.322,29.295v-1.628l-0.95,1.705c0.049,0.268,0.209,0.402,0.475,0.402
			c0.129,0,0.241-0.045,0.336-0.142C113.276,29.542,113.322,29.429,113.322,29.295z"/>
	</g>
	<g>
		<polygon fill="none" stroke="#FFFFFF" stroke-width="0.6075" stroke-miterlimit="10" points="138.282,36.083 142.104,33.875 
			145.927,36.083 145.927,40.499 142.104,42.707 138.282,40.499 		"/>
		<path fill="#FFFFFF" d="M143.545,39.494c0,0.26-0.094,0.483-0.285,0.676c-0.187,0.188-0.415,0.28-0.675,0.28h-0.965
			c-0.26,0-0.487-0.092-0.673-0.276c-0.188-0.192-0.28-0.42-0.28-0.68V37.09c0-0.262,0.092-0.488,0.28-0.676
			c0.186-0.188,0.413-0.281,0.673-0.281h0.965c0.26,0,0.488,0.093,0.675,0.281c0.191,0.19,0.285,0.414,0.285,0.676V39.494
			L143.545,39.494z M142.577,37.009c-0.065-0.263-0.222-0.395-0.474-0.395c-0.13,0-0.249,0.045-0.34,0.139s-0.144,0.207-0.144,0.337
			v1.636L142.577,37.009L142.577,37.009z M142.585,39.494v-1.632l-0.949,1.705c0.048,0.268,0.208,0.401,0.468,0.401
			c0.134,0,0.248-0.048,0.339-0.142C142.538,39.735,142.585,39.622,142.585,39.494z"/>
	</g>
	<g>
		<path fill="#FFFFFF" d="M115.951,41.036c0,0.263-0.094,0.487-0.283,0.677c-0.189,0.188-0.413,0.282-0.676,0.282h-0.964
			c-0.263,0-0.49-0.095-0.678-0.278c-0.185-0.19-0.28-0.418-0.28-0.681v-2.401c0-0.262,0.096-0.489,0.28-0.679
			c0.188-0.188,0.415-0.28,0.678-0.28h0.964c0.263,0,0.486,0.093,0.676,0.28c0.189,0.191,0.283,0.417,0.283,0.679V41.036
			L115.951,41.036z M114.986,38.553c-0.07-0.26-0.226-0.394-0.475-0.394c-0.132,0-0.245,0.045-0.345,0.14
			c-0.09,0.094-0.139,0.207-0.139,0.336v1.636L114.986,38.553L114.986,38.553z M114.992,41.036v-1.63l-0.952,1.707
			c0.051,0.268,0.209,0.401,0.472,0.401c0.134,0,0.245-0.047,0.339-0.141C114.944,41.281,114.992,41.166,114.992,41.036z"/>
		<polygon fill="none" stroke="#FFFFFF" stroke-width="0.6075" stroke-miterlimit="10" points="110.683,37.628 114.509,35.42 
			118.331,37.628 118.331,42.044 114.509,44.252 110.683,42.044 		"/>
	</g>
	<g>
		<polygon fill="none" stroke="#FFFFFF" stroke-width="0.6075" stroke-miterlimit="10" points="93.902,33.194 97.724,30.988 
			101.547,33.194 101.547,37.612 97.724,39.819 93.902,37.612 		"/>
		<path fill="#FFFFFF" d="M99.162,36.604c0,0.264-0.091,0.485-0.282,0.679c-0.188,0.186-0.411,0.279-0.676,0.279h-0.962
			c-0.259,0-0.489-0.094-0.676-0.277c-0.188-0.191-0.28-0.417-0.28-0.681v-2.402c0-0.264,0.093-0.488,0.28-0.676
			c0.187-0.188,0.417-0.281,0.676-0.281h0.962c0.265,0,0.488,0.093,0.676,0.281c0.191,0.188,0.282,0.412,0.282,0.676V36.604
			L99.162,36.604z M98.196,34.12c-0.067-0.261-0.221-0.394-0.473-0.394c-0.131,0-0.246,0.045-0.336,0.138
			c-0.095,0.096-0.146,0.208-0.146,0.338v1.634L98.196,34.12L98.196,34.12z M98.204,36.604v-1.631l-0.947,1.705
			c0.048,0.269,0.209,0.404,0.467,0.404c0.132,0,0.248-0.05,0.342-0.143C98.158,36.847,98.204,36.732,98.204,36.604z"/>
	</g>
	<g>
		<polygon fill="none" stroke="#FFFFFF" stroke-width="0.6075" stroke-miterlimit="10" points="81.797,37.53 85.622,35.322 
			89.444,37.53 89.444,41.947 85.622,44.155 81.797,41.947 		"/>
		<path fill="#FFFFFF" d="M87.06,40.942c0,0.261-0.091,0.482-0.283,0.673c-0.188,0.188-0.411,0.281-0.674,0.281h-0.964
			c-0.261,0-0.491-0.093-0.679-0.277c-0.185-0.192-0.277-0.416-0.277-0.677v-2.405c0-0.262,0.093-0.488,0.277-0.675
			c0.188-0.19,0.418-0.286,0.679-0.286h0.964c0.263,0,0.486,0.096,0.674,0.286c0.192,0.19,0.283,0.413,0.283,0.675V40.942
			L87.06,40.942z M86.092,38.455c-0.064-0.26-0.222-0.395-0.47-0.395c-0.133,0-0.247,0.047-0.34,0.141
			c-0.094,0.094-0.144,0.206-0.144,0.336v1.637L86.092,38.455L86.092,38.455z M86.103,40.942V39.31l-0.954,1.707
			c0.054,0.266,0.212,0.401,0.474,0.401c0.131,0,0.244-0.047,0.341-0.143C86.057,41.183,86.103,41.069,86.103,40.942z"/>
	</g>
	<g>
		<polygon fill="none" stroke="#FFFFFF" stroke-width="0.6075" stroke-miterlimit="10" points="68.083,34.646 71.909,32.438 
			75.73,34.646 75.73,39.061 71.909,41.27 68.083,39.061 		"/>
		<path fill="#FFFFFF" d="M73.346,38.056c0,0.263-0.091,0.484-0.285,0.676c-0.186,0.188-0.41,0.282-0.673,0.282h-0.961
			c-0.264,0-0.489-0.095-0.674-0.279c-0.191-0.191-0.286-0.416-0.286-0.679v-2.403c0-0.263,0.095-0.489,0.286-0.677
			c0.185-0.188,0.41-0.281,0.674-0.281h0.961c0.263,0,0.487,0.093,0.673,0.281c0.194,0.19,0.285,0.414,0.285,0.677V38.056
			L73.346,38.056z M72.379,35.571c-0.065-0.262-0.218-0.395-0.47-0.395c-0.131,0-0.249,0.048-0.341,0.139
			c-0.095,0.092-0.142,0.206-0.142,0.337v1.637L72.379,35.571L72.379,35.571z M72.388,38.056v-1.633l-0.95,1.707
			c0.052,0.27,0.209,0.402,0.472,0.402c0.132,0,0.248-0.046,0.339-0.14C72.343,38.299,72.388,38.185,72.388,38.056z"/>
	</g>
	<g>
		<polygon fill="none" stroke="#FFFFFF" stroke-width="0.6075" stroke-miterlimit="10" points="74.175,45.188 77.999,42.978 
			81.822,45.188 81.822,49.602 77.999,51.81 74.175,49.602 		"/>
		<path fill="#FFFFFF" d="M79.436,48.596c0,0.262-0.089,0.483-0.281,0.677c-0.188,0.185-0.412,0.282-0.673,0.282h-0.963
			c-0.262,0-0.491-0.098-0.682-0.282c-0.184-0.188-0.277-0.415-0.277-0.677v-2.401c0-0.266,0.094-0.49,0.277-0.679
			c0.19-0.187,0.42-0.281,0.682-0.281h0.963c0.261,0,0.484,0.095,0.673,0.281c0.192,0.19,0.281,0.413,0.281,0.679V48.596
			L79.436,48.596z M78.474,46.111c-0.072-0.264-0.228-0.395-0.475-0.395c-0.132,0-0.246,0.045-0.342,0.138
			c-0.094,0.094-0.139,0.211-0.139,0.34v1.632L78.474,46.111L78.474,46.111z M78.481,48.596v-1.635l-0.956,1.709
			c0.053,0.267,0.214,0.401,0.474,0.401c0.132,0,0.247-0.044,0.341-0.142C78.433,48.836,78.481,48.723,78.481,48.596z"/>
	</g>
	<g>
		<polygon fill="none" stroke="#FFFFFF" stroke-width="0.6075" stroke-miterlimit="10" points="83.964,63.677 87.785,61.47 
			91.609,63.677 91.609,68.091 87.785,70.299 83.964,68.091 		"/>
		<path fill="#FFFFFF" d="M89.226,67.083c0,0.263-0.091,0.485-0.285,0.677c-0.185,0.188-0.414,0.281-0.675,0.281h-0.961
			c-0.261,0-0.486-0.093-0.675-0.276c-0.188-0.193-0.283-0.419-0.283-0.682V64.68c0-0.261,0.095-0.487,0.283-0.675
			c0.188-0.188,0.414-0.283,0.675-0.283h0.961c0.261,0,0.49,0.095,0.675,0.283c0.194,0.188,0.285,0.414,0.285,0.675V67.083
			L89.226,67.083z M88.258,64.599c-0.063-0.261-0.222-0.394-0.473-0.394c-0.128,0-0.245,0.045-0.337,0.14
			c-0.093,0.094-0.144,0.205-0.144,0.335v1.638L88.258,64.599L88.258,64.599z M88.266,67.083v-1.632l-0.948,1.708
			c0.049,0.268,0.207,0.401,0.468,0.401c0.134,0,0.251-0.048,0.344-0.141C88.221,67.325,88.266,67.212,88.266,67.083z"/>
	</g>
	<g>
		<polygon fill="none" stroke="#FFFFFF" stroke-width="0.6075" stroke-miterlimit="10" points="70.446,63.248 74.271,61.039 
			78.096,63.248 78.096,67.662 74.271,69.871 70.446,67.662 		"/>
		<path fill="#FFFFFF" d="M75.711,66.656c0,0.263-0.088,0.484-0.285,0.678c-0.188,0.188-0.414,0.281-0.675,0.281h-0.959
			c-0.264,0-0.49-0.094-0.683-0.278c-0.183-0.193-0.276-0.418-0.276-0.681v-2.403c0-0.264,0.094-0.489,0.276-0.675
			c0.192-0.188,0.419-0.282,0.683-0.282h0.959c0.261,0,0.487,0.094,0.675,0.282c0.197,0.19,0.285,0.411,0.285,0.675V66.656
			L75.711,66.656z M74.746,64.175c-0.071-0.266-0.226-0.4-0.476-0.4c-0.131,0-0.245,0.05-0.337,0.142
			c-0.095,0.095-0.142,0.208-0.142,0.337v1.636L74.746,64.175L74.746,64.175z M74.751,66.656v-1.634l-0.946,1.709
			c0.046,0.27,0.204,0.4,0.466,0.4c0.133,0,0.248-0.047,0.342-0.139C74.705,66.899,74.751,66.786,74.751,66.656z"/>
	</g>
	<g>
		<polygon fill="none" stroke="#FFFFFF" stroke-width="0.6075" stroke-miterlimit="10" points="115.957,56.437 119.781,54.23 
			123.601,56.437 123.601,60.854 119.781,63.063 115.957,60.854 		"/>
		<path fill="#FFFFFF" d="M121.218,59.848c0,0.263-0.088,0.485-0.28,0.677c-0.185,0.189-0.415,0.281-0.679,0.281h-0.956
			c-0.263,0-0.491-0.092-0.681-0.277c-0.185-0.191-0.284-0.418-0.284-0.681v-2.401c0-0.264,0.1-0.489,0.284-0.677
			c0.189-0.188,0.418-0.284,0.681-0.284h0.956c0.264,0,0.494,0.097,0.679,0.284c0.192,0.19,0.28,0.413,0.28,0.677V59.848
			L121.218,59.848z M120.255,57.363c-0.068-0.263-0.222-0.393-0.474-0.393c-0.134,0-0.244,0.043-0.34,0.139
			c-0.091,0.093-0.139,0.205-0.139,0.337v1.633L120.255,57.363L120.255,57.363z M120.259,59.848v-1.632l-0.947,1.708
			c0.051,0.266,0.206,0.4,0.47,0.4c0.129,0,0.247-0.046,0.344-0.141C120.215,60.092,120.259,59.978,120.259,59.848z"/>
	</g>
	<g>
		<polygon fill="none" stroke="#FFFFFF" stroke-width="0.6075" stroke-miterlimit="10" points="121.325,65.033 125.153,62.824 
			128.974,65.033 128.974,69.447 125.153,71.653 121.325,69.447 		"/>
		<path fill="#FFFFFF" d="M126.589,68.441c0,0.26-0.09,0.484-0.279,0.675c-0.191,0.188-0.416,0.283-0.679,0.283h-0.962
			c-0.262,0-0.49-0.095-0.68-0.278c-0.184-0.192-0.277-0.42-0.277-0.68v-2.404c0-0.262,0.094-0.487,0.277-0.677
			c0.189-0.188,0.418-0.282,0.68-0.282h0.962c0.263,0,0.487,0.095,0.679,0.282c0.189,0.19,0.279,0.415,0.279,0.677V68.441
			L126.589,68.441z M125.625,65.956c-0.066-0.264-0.225-0.394-0.472-0.394c-0.135,0-0.248,0.043-0.344,0.139
			c-0.091,0.092-0.141,0.207-0.141,0.336v1.635L125.625,65.956L125.625,65.956z M125.631,68.441v-1.634l-0.953,1.706
			c0.052,0.27,0.213,0.4,0.476,0.4c0.133,0,0.243-0.043,0.339-0.137C125.583,68.681,125.631,68.567,125.631,68.441z"/>
	</g>
	<g>
		<polygon fill="none" stroke="#FFFFFF" stroke-width="0.6075" stroke-miterlimit="10" points="138.282,59.013 142.104,56.803 
			145.93,59.013 145.93,63.426 142.104,65.638 138.282,63.426 		"/>
		<path fill="#FFFFFF" d="M143.549,62.417c0,0.263-0.096,0.488-0.283,0.679c-0.192,0.188-0.415,0.282-0.678,0.282h-0.965
			c-0.261,0-0.485-0.095-0.673-0.279c-0.189-0.189-0.283-0.419-0.283-0.682v-2.4c0-0.264,0.094-0.488,0.283-0.676
			c0.188-0.188,0.412-0.283,0.673-0.283h0.965c0.263,0,0.485,0.095,0.678,0.283c0.188,0.188,0.283,0.412,0.283,0.676V62.417
			L143.549,62.417z M142.582,59.935c-0.067-0.262-0.225-0.394-0.475-0.394c-0.134,0-0.245,0.046-0.341,0.139
			c-0.094,0.095-0.144,0.209-0.144,0.337v1.635L142.582,59.935L142.582,59.935z M142.588,62.417v-1.63l-0.948,1.705
			c0.045,0.269,0.207,0.403,0.468,0.403c0.134,0,0.248-0.047,0.338-0.142C142.542,62.662,142.588,62.546,142.588,62.417z"/>
	</g>
	<g>
		<polygon fill="none" stroke="#FFFFFF" stroke-width="0.6075" stroke-miterlimit="10" points="116.053,90.937 119.88,88.728 
			123.701,90.937 123.701,95.353 119.88,97.56 116.053,95.353 		"/>
		<path fill="#FFFFFF" d="M121.32,94.347c0,0.262-0.088,0.485-0.28,0.677c-0.19,0.185-0.415,0.281-0.678,0.281h-0.961
			c-0.264,0-0.492-0.097-0.679-0.281c-0.187-0.189-0.279-0.415-0.279-0.677v-2.402c0-0.263,0.093-0.491,0.279-0.679
			c0.187-0.187,0.415-0.28,0.679-0.28h0.961c0.263,0,0.487,0.094,0.678,0.28c0.192,0.192,0.28,0.416,0.28,0.679V94.347
			L121.32,94.347z M120.354,91.864c-0.067-0.264-0.224-0.396-0.472-0.396c-0.133,0-0.246,0.043-0.338,0.136
			c-0.095,0.095-0.143,0.209-0.143,0.34v1.634L120.354,91.864L120.354,91.864z M120.362,94.347v-1.63l-0.95,1.702
			c0.053,0.27,0.208,0.404,0.47,0.404c0.136,0,0.246-0.044,0.341-0.142C120.316,94.589,120.362,94.476,120.362,94.347z"/>
	</g>
	<g>
		<polygon fill="none" stroke="#FFFFFF" stroke-width="0.6075" stroke-miterlimit="10" points="92.89,88.499 96.717,86.287 
			100.541,88.499 100.541,92.913 96.717,95.124 92.89,92.913 		"/>
		<path fill="#FFFFFF" d="M98.158,91.907c0,0.262-0.093,0.487-0.286,0.678c-0.185,0.188-0.415,0.283-0.674,0.283h-0.96
			c-0.263,0-0.491-0.095-0.677-0.279c-0.188-0.192-0.285-0.42-0.285-0.682v-2.4c0-0.262,0.097-0.492,0.285-0.677
			c0.186-0.19,0.414-0.282,0.677-0.282h0.96c0.259,0,0.489,0.092,0.674,0.282c0.193,0.187,0.286,0.415,0.286,0.677V91.907
			L98.158,91.907z M97.19,89.425c-0.066-0.262-0.226-0.395-0.474-0.395c-0.13,0-0.249,0.042-0.338,0.137
			c-0.093,0.095-0.141,0.209-0.141,0.34v1.632L97.19,89.425L97.19,89.425z M97.198,91.907v-1.63l-0.949,1.704
			c0.049,0.269,0.207,0.401,0.468,0.401c0.134,0,0.248-0.043,0.345-0.138C97.149,92.152,97.198,92.034,97.198,91.907z"/>
	</g>
	<g>
		<polygon fill="none" stroke="#FFFFFF" stroke-width="0.6075" stroke-miterlimit="10" points="138.145,95.233 141.968,93.025 
			145.794,95.233 145.794,99.65 141.968,101.856 138.145,99.65 		"/>
		<path fill="#FFFFFF" d="M143.412,98.643c0,0.263-0.096,0.483-0.286,0.677c-0.186,0.188-0.413,0.283-0.675,0.283h-0.963
			c-0.263,0-0.488-0.095-0.675-0.278c-0.19-0.192-0.28-0.419-0.28-0.682V96.24c0-0.264,0.09-0.489,0.28-0.678
			c0.187-0.188,0.412-0.28,0.675-0.28h0.963c0.262,0,0.489,0.093,0.675,0.28c0.19,0.193,0.286,0.414,0.286,0.678V98.643
			L143.412,98.643z M142.442,96.16c-0.064-0.262-0.222-0.396-0.469-0.396c-0.136,0-0.249,0.046-0.344,0.139
			c-0.092,0.093-0.142,0.208-0.142,0.337v1.639L142.442,96.16L142.442,96.16z M142.451,98.643v-1.634l-0.946,1.71
			c0.047,0.269,0.205,0.398,0.469,0.398c0.13,0,0.246-0.043,0.336-0.139C142.406,98.885,142.451,98.772,142.451,98.643z"/>
	</g>
	<g>
		<polygon fill="none" stroke="#FFFFFF" stroke-width="0.6075" stroke-miterlimit="10" points="70.188,82.61 74.013,80.403 
			77.837,82.61 77.837,87.025 74.013,89.231 70.188,87.025 		"/>
		<path fill="#FFFFFF" d="M75.449,86.017c0,0.263-0.089,0.489-0.276,0.68c-0.191,0.186-0.42,0.28-0.68,0.28h-0.965
			c-0.261,0-0.486-0.095-0.673-0.278c-0.192-0.19-0.281-0.419-0.281-0.682v-2.4c0-0.263,0.089-0.49,0.281-0.674
			c0.187-0.19,0.412-0.286,0.673-0.286h0.965c0.26,0,0.488,0.096,0.68,0.286c0.188,0.188,0.276,0.411,0.276,0.674V86.017
			L75.449,86.017z M74.486,83.536c-0.069-0.261-0.222-0.396-0.474-0.396c-0.135,0-0.246,0.047-0.341,0.139
			c-0.091,0.095-0.144,0.211-0.144,0.338v1.637L74.486,83.536L74.486,83.536z M74.493,86.017V84.39l-0.949,1.703
			c0.046,0.269,0.207,0.402,0.469,0.402c0.132,0,0.249-0.044,0.339-0.143C74.446,86.263,74.493,86.148,74.493,86.017z"/>
	</g>
	<g>
		<polygon fill="none" stroke="#FFFFFF" stroke-width="0.6075" stroke-miterlimit="10" points="138.223,21.686 142.045,19.478 
			145.87,21.686 145.87,26.102 142.045,28.308 138.223,26.102 		"/>
		<polygon fill="#FFFFFF" points="142.421,26.055 141.465,26.055 141.465,22.692 140.984,22.692 140.984,22.218 141.94,21.733 
			142.421,21.733 		"/>
	</g>
	<g>
		<polygon fill="none" stroke="#FFFFFF" stroke-width="0.6075" stroke-miterlimit="10" points="125.581,41.885 129.404,39.678 
			133.228,41.885 133.228,46.299 129.404,48.505 125.581,46.299 		"/>
		<polygon fill="#FFFFFF" points="129.776,46.251 128.818,46.251 128.818,42.889 128.338,42.889 128.338,42.413 129.297,41.932 
			129.776,41.932 		"/>
	</g>
	<g>
		<polygon fill="none" stroke="#FFFFFF" stroke-width="0.6075" stroke-miterlimit="10" points="96.079,23.146 99.901,20.939 
			103.729,23.146 103.729,27.562 99.901,29.772 96.079,27.562 		"/>
		<polygon fill="#FFFFFF" points="100.278,27.515 99.317,27.515 99.317,24.156 98.839,24.156 98.839,23.68 99.798,23.196 
			100.278,23.196 		"/>
	</g>
	<g>
		<polygon fill="none" stroke="#FFFFFF" stroke-width="0.6075" stroke-miterlimit="10" points="85.407,33.221 89.229,31.014 
			93.05,33.221 93.05,37.639 89.229,39.846 85.407,37.639 		"/>
		<polygon fill="#FFFFFF" points="89.601,37.588 88.643,37.588 88.643,34.226 88.157,34.226 88.157,33.752 89.122,33.268 
			89.601,33.268 		"/>
	</g>
	<g>
		<polygon fill="none" stroke="#FFFFFF" stroke-width="0.6075" stroke-miterlimit="10" points="107.921,57.577 111.744,55.372 
			115.57,57.577 115.57,61.993 111.744,64.205 107.921,61.993 		"/>
		<polygon fill="#FFFFFF" points="112.121,61.948 111.164,61.948 111.164,58.584 110.681,58.584 110.681,58.109 111.64,57.626 
			112.121,57.626 		"/>
	</g>
	<g>
		<polygon fill="none" stroke="#FFFFFF" stroke-width="0.6075" stroke-miterlimit="10" points="81.577,51.044 85.407,48.836 
			89.226,51.044 89.226,55.462 85.407,57.671 81.577,55.462 		"/>
		<polygon fill="#FFFFFF" points="85.776,55.411 84.819,55.411 84.819,52.051 84.335,52.051 84.335,51.575 85.298,51.093 
			85.776,51.093 		"/>
	</g>
	<g>
		<polygon fill="none" stroke="#FFFFFF" stroke-width="0.6075" stroke-miterlimit="10" points="75.612,54.363 79.436,52.157 
			83.262,54.363 83.262,58.782 79.436,60.988 75.612,58.782 		"/>
		<polygon fill="#FFFFFF" points="79.811,58.73 78.854,58.73 78.854,55.37 78.374,55.37 78.374,54.894 79.333,54.413 79.811,54.413 
					"/>
	</g>
	<g>
		<polygon fill="none" stroke="#FFFFFF" stroke-width="0.6075" stroke-miterlimit="10" points="66.835,46.6 70.656,44.394 
			74.482,46.6 74.482,51.017 70.656,53.225 66.835,51.017 		"/>
		<polygon fill="#FFFFFF" points="71.035,50.966 70.076,50.966 70.076,47.607 69.593,47.607 69.593,47.13 70.556,46.649 
			71.035,46.649 		"/>
	</g>
	<g>
		<polygon fill="none" stroke="#FFFFFF" stroke-width="0.6075" stroke-miterlimit="10" points="95.575,75.016 99.398,72.812 
			103.221,75.016 103.221,79.434 99.398,81.645 95.575,79.434 		"/>
		<polygon fill="#FFFFFF" points="99.77,79.386 98.813,79.386 98.813,76.024 98.331,76.024 98.331,75.549 99.296,75.065 
			99.77,75.065 		"/>
	</g>
	<g>
		<polygon fill="none" stroke="#FFFFFF" stroke-width="0.6075" stroke-miterlimit="10" points="118.814,79.972 122.64,77.763 
			126.456,79.972 126.456,84.386 122.64,86.597 118.814,84.386 		"/>
		<polygon fill="#FFFFFF" points="123.012,84.338 122.053,84.338 122.053,80.976 121.572,80.976 121.572,80.5 122.531,80.017 
			123.012,80.017 		"/>
	</g>
	<g>
		<polygon fill="none" stroke="#FFFFFF" stroke-width="0.6075" stroke-miterlimit="10" points="136.146,77.178 139.973,74.972 
			143.793,77.178 143.793,81.594 139.973,83.8 136.146,81.594 		"/>
		<polygon fill="#FFFFFF" points="140.349,81.547 139.388,81.547 139.388,78.186 138.906,78.186 138.906,77.711 139.869,77.228 
			140.349,77.228 		"/>
	</g>
	<g>
		<polygon fill="none" stroke="#FFFFFF" stroke-width="0.6075" stroke-miterlimit="10" points="110.526,95.353 114.349,93.146 
			118.171,95.353 118.171,99.768 114.349,101.975 110.526,99.768 		"/>
		<polygon fill="#FFFFFF" points="114.724,99.717 113.766,99.717 113.766,96.355 113.283,96.355 113.283,95.881 114.249,95.398 
			114.724,95.398 		"/>
	</g>
	<g>
		<polygon fill="none" stroke="#FFFFFF" stroke-width="0.6075" stroke-miterlimit="10" points="103.915,93.479 107.734,91.268 
			111.558,93.479 111.558,97.895 107.734,100.104 103.915,97.895 		"/>
		<polygon fill="#FFFFFF" points="108.112,97.848 107.155,97.848 107.155,94.487 106.675,94.487 106.675,94.011 107.632,93.529 
			108.112,93.529 		"/>
	</g>
	<g>
		<polygon fill="none" stroke="#FFFFFF" stroke-width="0.6075" stroke-miterlimit="10" points="77.845,90.122 81.666,87.911 
			85.489,90.122 85.489,94.536 81.666,96.743 77.845,94.536 		"/>
		<polygon fill="#FFFFFF" points="82.039,94.49 81.08,94.49 81.08,91.127 80.597,91.127 80.597,90.652 81.562,90.17 82.039,90.17 		
			"/>
	</g>
	<g>
		<polygon fill="none" stroke="#FFFFFF" stroke-width="0.6075" stroke-miterlimit="10" points="60.633,89.396 64.456,87.188 
			68.28,89.396 68.28,93.81 64.456,96.02 60.633,93.81 		"/>
		<polygon fill="#FFFFFF" points="64.827,93.763 63.872,93.763 63.872,90.402 63.393,90.402 63.393,89.927 64.349,89.443 
			64.827,89.443 		"/>
	</g>
	<polygon fill="none" stroke="#FFFFFF" stroke-width="0.6075" stroke-miterlimit="10" points="120.703,81.115 124.525,78.906 
		128.349,81.115 128.349,85.529 124.525,87.739 120.703,85.529 	"/>
	<path fill="#FFFFFF" d="M62.024,106.949c0.084-0.261,0.21-0.446,0.374-0.568c0.156-0.125,0.362-0.187,0.601-0.187
		c0.326,0,0.568,0.104,0.709,0.309c0.145,0.203,0.215,0.567,0.215,1.079v1.546c0,0.393-0.074,0.681-0.227,0.854
		c-0.152,0.179-0.388,0.271-0.721,0.271c-0.219,0-0.425-0.06-0.586-0.172c-0.158-0.111-0.321-0.313-0.498-0.604
		c-0.252-0.423-0.584-0.743-0.993-0.946c-0.408-0.204-0.905-0.307-1.499-0.307c-0.735,0-1.338,0.239-1.805,0.726
		c-0.473,0.482-0.705,1.097-0.705,1.843c0,0.783,0.238,1.416,0.729,1.891c0.484,0.485,1.134,0.721,1.947,0.721
		c0.747,0,1.486-0.205,2.225-0.62c0.734-0.41,1.18-0.616,1.34-0.616c0.235,0,0.438,0.086,0.591,0.263
		c0.157,0.175,0.235,0.405,0.235,0.679c0,0.594-0.446,1.125-1.353,1.587c-0.899,0.466-1.966,0.7-3.202,0.7
		c-1.524,0-2.76-0.429-3.715-1.283c-0.953-0.86-1.43-1.958-1.43-3.307c0-1.314,0.471-2.405,1.41-3.284
		c0.948-0.873,2.138-1.309,3.576-1.309c0.494,0,0.973,0.058,1.427,0.18C61.137,106.514,61.581,106.696,62.024,106.949
		L62.024,106.949z M70.435,113.095h2.224c0.433,0,0.736,0.077,0.914,0.232c0.179,0.159,0.27,0.419,0.27,0.787
		s-0.091,0.639-0.27,0.804c-0.178,0.162-0.481,0.242-0.914,0.242h-5.275c-0.427,0-0.733-0.08-0.924-0.242
		c-0.183-0.165-0.277-0.436-0.277-0.804s0.095-0.628,0.273-0.787c0.187-0.155,0.491-0.232,0.928-0.232h0.72v-4.589h-0.405
		c-0.432,0-0.733-0.076-0.915-0.242c-0.182-0.162-0.267-0.42-0.267-0.792c0-0.366,0.085-0.629,0.267-0.791
		c0.174-0.161,0.477-0.24,0.915-0.24h2.01c0.169,0,0.3,0.036,0.395,0.105c0.099,0.072,0.144,0.172,0.144,0.302v1.396
		c0.689-0.745,1.332-1.271,1.927-1.58c0.589-0.314,1.226-0.47,1.914-0.47c0.614,0,1.104,0.137,1.467,0.421
		c0.361,0.277,0.544,0.652,0.544,1.125c0,0.367-0.127,0.67-0.377,0.899c-0.248,0.24-0.567,0.358-0.955,0.358
		c-0.278,0-0.604-0.102-1.002-0.314c-0.387-0.205-0.659-0.307-0.812-0.307c-0.295,0-0.648,0.132-1.065,0.407
		c-0.416,0.277-0.899,0.69-1.451,1.247V113.095L70.435,113.095z M82.496,113.405c0.733,0,1.337-0.25,1.81-0.741
		c0.471-0.492,0.712-1.119,0.712-1.87c0-0.763-0.238-1.376-0.702-1.853c-0.465-0.477-1.071-0.716-1.819-0.716
		c-0.736,0-1.344,0.239-1.819,0.72c-0.479,0.48-0.714,1.095-0.714,1.849c0,0.751,0.235,1.378,0.716,1.87
		C81.155,113.155,81.765,113.405,82.496,113.405L82.496,113.405z M87.638,110.811c0,1.346-0.473,2.443-1.423,3.304
		c-0.953,0.854-2.192,1.283-3.719,1.283s-2.765-0.429-3.722-1.289c-0.959-0.859-1.434-1.96-1.434-3.298
		c0-1.34,0.475-2.437,1.434-3.296c0.957-0.851,2.195-1.283,3.722-1.283s2.766,0.433,3.719,1.283
		C87.165,108.374,87.638,109.471,87.638,110.811L87.638,110.811z M92.376,110.674c0,0.72,0.205,1.308,0.605,1.767
		c0.404,0.462,0.915,0.689,1.543,0.689c0.618,0,1.134-0.231,1.539-0.692c0.404-0.462,0.611-1.051,0.611-1.764
		c0-0.716-0.207-1.304-0.604-1.761c-0.404-0.469-0.923-0.691-1.547-0.691c-0.628,0-1.139,0.223-1.543,0.691
		C92.581,109.37,92.376,109.958,92.376,110.674L92.376,110.674z M93.54,116.839c0.431,0,0.733,0.079,0.909,0.243
		c0.179,0.167,0.269,0.433,0.269,0.806c0,0.367-0.09,0.627-0.269,0.785c-0.176,0.155-0.479,0.232-0.909,0.232h-4.004
		c-0.432,0-0.731-0.077-0.911-0.232c-0.18-0.158-0.272-0.418-0.272-0.785c0-0.373,0.093-0.639,0.272-0.806
		c0.18-0.164,0.479-0.243,0.911-0.243h0.556v-8.333h-0.155c-0.333,0-0.579-0.084-0.762-0.262c-0.178-0.176-0.264-0.437-0.264-0.772
		c0-0.366,0.089-0.629,0.27-0.791c0.179-0.161,0.485-0.24,0.911-0.24h1.453c0.181,0,0.316,0.034,0.408,0.098
		c0.081,0.066,0.128,0.16,0.128,0.29v0.681c0.323-0.43,0.717-0.756,1.174-0.971c0.449-0.217,0.968-0.327,1.543-0.327
		c1.29,0,2.357,0.411,3.199,1.235c0.842,0.826,1.263,1.863,1.263,3.116c0,1.309-0.412,2.39-1.233,3.248
		c-0.826,0.862-1.861,1.291-3.119,1.291c-0.502,0-0.974-0.069-1.41-0.208c-0.444-0.146-0.828-0.352-1.162-0.622v2.567H93.54
		L93.54,116.839z M105.368,113.386c0.631,0,1.146-0.236,1.549-0.701c0.401-0.461,0.604-1.06,0.604-1.777
		c0-0.716-0.207-1.302-0.606-1.768c-0.413-0.459-0.925-0.695-1.546-0.695c-0.617,0-1.127,0.236-1.533,0.695
		c-0.41,0.466-0.614,1.052-0.614,1.768c0,0.718,0.204,1.316,0.612,1.777C104.234,113.149,104.747,113.386,105.368,113.386
		L105.368,113.386z M106.3,104.897c-0.436,0-0.738-0.083-0.923-0.25c-0.187-0.163-0.277-0.433-0.277-0.792
		c0-0.375,0.091-0.641,0.277-0.806c0.185-0.166,0.487-0.246,0.923-0.246h2.938c0.218,0,0.361,0.049,0.438,0.132
		c0.078,0.087,0.121,0.255,0.121,0.49v9.669h0.16c0.339,0,0.59,0.084,0.763,0.26c0.17,0.166,0.249,0.423,0.249,0.76
		c0,0.368-0.085,0.639-0.266,0.804c-0.176,0.162-0.479,0.242-0.906,0.242h-1.445c-0.186,0-0.321-0.036-0.422-0.11
		c-0.098-0.068-0.146-0.171-0.146-0.296v-0.661c-0.317,0.43-0.722,0.752-1.199,0.969c-0.479,0.225-1.018,0.336-1.624,0.336
		c-1.235,0-2.264-0.419-3.094-1.26c-0.833-0.843-1.249-1.889-1.249-3.149c0-1.292,0.416-2.372,1.253-3.254
		c0.833-0.88,1.867-1.313,3.09-1.313c0.488,0,0.963,0.07,1.406,0.223c0.443,0.153,0.842,0.367,1.191,0.648v-2.396H106.3
		L106.3,104.897z M118.975,112.726v-1.455c-0.323-0.071-0.608-0.121-0.865-0.157c-0.258-0.032-0.502-0.048-0.72-0.048
		c-0.726,0-1.277,0.112-1.654,0.355c-0.392,0.24-0.583,0.583-0.583,1.031c0,0.324,0.132,0.579,0.391,0.769
		c0.258,0.185,0.613,0.279,1.072,0.279c0.438,0,0.848-0.068,1.236-0.19C118.236,113.181,118.614,112.987,118.975,112.726
		L118.975,112.726z M121.265,109.59v3.505h0.146c0.342,0,0.598,0.086,0.777,0.269c0.181,0.173,0.269,0.432,0.269,0.769
		c0,0.363-0.091,0.627-0.272,0.786c-0.19,0.162-0.496,0.242-0.92,0.242h-0.888c-0.319,0-0.557-0.062-0.713-0.179
		c-0.148-0.124-0.278-0.339-0.377-0.65c-0.521,0.342-1.073,0.606-1.662,0.789c-0.581,0.185-1.177,0.277-1.771,0.277
		c-1.022,0-1.819-0.255-2.398-0.758c-0.575-0.502-0.859-1.192-0.859-2.066c0-0.942,0.377-1.677,1.121-2.201
		c0.748-0.524,1.799-0.782,3.151-0.782c0.35,0,0.694,0.016,1.044,0.051c0.349,0.024,0.706,0.08,1.062,0.149v-0.181
		c0-0.567-0.134-0.996-0.412-1.292c-0.271-0.3-0.676-0.442-1.213-0.442c-0.42,0-0.952,0.15-1.593,0.461
		c-0.65,0.304-1.111,0.462-1.377,0.462c-0.318,0-0.574-0.087-0.756-0.254c-0.185-0.159-0.273-0.393-0.273-0.688
		c0-0.514,0.372-0.917,1.115-1.215c0.744-0.296,1.764-0.446,3.044-0.446c1.344,0,2.302,0.26,2.881,0.773
		C120.97,107.483,121.265,108.358,121.265,109.59L121.265,109.59z M125.181,109.037c-0.424,0-0.731-0.08-0.907-0.247
		c-0.175-0.159-0.267-0.43-0.267-0.799c0-0.37,0.086-0.632,0.262-0.788c0.176-0.159,0.485-0.235,0.912-0.235h0.893v-2.593
		c0-0.222,0.107-0.406,0.323-0.564c0.212-0.154,0.485-0.231,0.82-0.231c0.421,0,0.723,0.094,0.901,0.271
		c0.186,0.18,0.278,0.482,0.278,0.91v2.207h2.88c0.432,0,0.736,0.076,0.917,0.235c0.185,0.156,0.279,0.418,0.279,0.788
		c0,0.369-0.095,0.64-0.279,0.799c-0.181,0.167-0.491,0.247-0.917,0.247h-2.88v2.417c0,0.673,0.104,1.137,0.317,1.389
		c0.209,0.254,0.566,0.387,1.086,0.387c0.491,0,1.068-0.142,1.732-0.429c0.669-0.284,1.121-0.421,1.346-0.421
		c0.264,0,0.483,0.1,0.667,0.303c0.188,0.209,0.274,0.465,0.274,0.78c0,0.455-0.439,0.884-1.324,1.28
		c-0.886,0.403-1.875,0.608-2.979,0.608c-0.646,0-1.217-0.088-1.708-0.265c-0.486-0.176-0.875-0.427-1.156-0.752
		c-0.211-0.251-0.359-0.544-0.445-0.903c-0.088-0.347-0.133-0.942-0.133-1.771v-0.206v-2.417H125.181L125.181,109.037z
		 M142.253,112.726v-1.455c-0.324-0.071-0.613-0.121-0.87-0.157c-0.257-0.032-0.501-0.048-0.716-0.048
		c-0.723,0-1.279,0.112-1.659,0.355c-0.387,0.24-0.581,0.583-0.581,1.031c0,0.324,0.135,0.579,0.387,0.769
		c0.262,0.185,0.616,0.279,1.077,0.279c0.433,0,0.846-0.068,1.229-0.19C141.51,113.181,141.886,112.987,142.253,112.726
		L142.253,112.726z M144.532,109.59v3.505h0.155c0.333,0,0.599,0.086,0.777,0.269c0.178,0.173,0.267,0.432,0.267,0.769
		c0,0.363-0.092,0.627-0.274,0.786c-0.187,0.162-0.497,0.242-0.925,0.242h-0.884c-0.317,0-0.554-0.062-0.708-0.179
		c-0.156-0.124-0.277-0.339-0.375-0.65c-0.524,0.342-1.077,0.606-1.664,0.789c-0.589,0.185-1.176,0.277-1.773,0.277
		c-1.021,0-1.82-0.255-2.395-0.758c-0.579-0.502-0.863-1.192-0.863-2.066c0-0.942,0.377-1.677,1.125-2.201
		c0.744-0.524,1.795-0.782,3.147-0.782c0.348,0,0.698,0.016,1.044,0.051c0.352,0.024,0.704,0.08,1.066,0.149v-0.181
		c0-0.567-0.136-0.996-0.415-1.292c-0.269-0.3-0.678-0.442-1.215-0.442c-0.42,0-0.95,0.15-1.593,0.461
		c-0.648,0.304-1.11,0.462-1.379,0.462c-0.321,0-0.568-0.087-0.754-0.254c-0.185-0.159-0.274-0.393-0.274-0.688
		c0-0.514,0.373-0.917,1.116-1.215c0.757-0.296,1.763-0.446,3.048-0.446c1.34,0,2.3,0.26,2.876,0.773
		C144.243,107.483,144.532,108.358,144.532,109.59z"/>
	<g>
		<polygon fill="none" stroke="#FFFFFF" stroke-width="0.6075" stroke-miterlimit="10" points="95.581,41.911 99.398,39.704 
			103.228,41.911 103.228,46.327 99.398,48.535 95.581,46.327 		"/>
		<path fill="#FFFFFF" d="M100.749,43.45c0,0.244-0.088,0.456-0.266,0.63c-0.176,0.175-0.386,0.263-0.631,0.263h-0.903v1.791h-0.892
			v-4.027h1.795c0.241,0,0.453,0.085,0.631,0.262c0.178,0.173,0.266,0.388,0.266,0.63V43.45L100.749,43.45z M99.853,43.45v-0.452
			c0-0.121-0.049-0.229-0.137-0.313c-0.083-0.087-0.187-0.131-0.317-0.131h-0.449v1.341h0.449c0.128,0,0.233-0.043,0.317-0.132
			C99.804,43.676,99.853,43.567,99.853,43.45z"/>
	</g>
	<g>
		<polygon fill="none" stroke="#FFFFFF" stroke-width="0.6075" stroke-miterlimit="10" points="106.836,47.525 110.657,45.318 
			114.479,47.525 114.479,51.942 110.657,54.148 106.836,51.942 		"/>
		<polygon fill="#FFFFFF" points="112.226,51.747 111.325,51.747 109.981,50.183 109.981,51.747 109.091,51.747 109.091,47.719 
			109.981,47.719 109.981,49.363 111.432,47.719 112.229,47.719 110.432,49.732 		"/>
	</g>
	<g>
		<polygon fill="none" stroke="#FFFFFF" stroke-width="0.6075" stroke-miterlimit="10" points="100.542,55.31 104.372,53.103 
			108.188,55.31 108.188,59.729 104.372,61.935 100.542,59.729 		"/>
		<path fill-rule="evenodd" clip-rule="evenodd" fill="#FFFFFF" d="M102.361,56.96v0.06l0.122,0.04
			c0.16-0.114,0.516-0.385,0.755-0.388c0.29,0,0.375,0.167,0.597,0.188v0.063c-0.368,0-0.757,0.163-0.756,0.503v0.19
			c0.006,0.344,0.431,0.505,0.762,0.531c-0.242,0.174-0.4,0.143-0.63,0.253l-0.756-0.387l-0.094,0.011v0.065l0.134-0.033
			c0.116,0.23,0.432,0.44,0.785,0.44h0.027c0.259,0,0.805-0.35,0.85-0.35h0.184c0.232-0.005-0.086,0.217-0.086,0.406
			c-0.361,0.097,0.028,0.315-0.967,0.32l-0.067,0.102l0.121-0.073c0.046,0.063,0.07,0.095,0.187,0.095h0.29
			c0.356-0.004,0.665-0.65,0.806-0.91l0.283-0.038c-0.027,0.127-0.095,0.156-0.095,0.283c0.003,0.199,0.326,0.501,0.539,0.501
			l0.188-0.005c0.104,0,0.121-0.021,0.22-0.033v0.128l0.078-0.008l-0.083-0.181c-0.313,0-0.779-0.079-0.781-0.345v-0.154
			c0-0.069,0.053-0.346,0.152-0.346h0.099v0.095h0.091c-0.031,0.134-0.065,0.057-0.065,0.155v0.125c0,0.11,0.252,0.313,0.383,0.313
			h0.094c0.274,0,0.438-0.245,0.535-0.445l0.087,0.073l0.023-0.043l-0.176-0.061c-0.037,0.136-0.349,0.349-0.47,0.352
			c-0.13,0-0.234-0.07-0.315-0.125c0-0.103,0.009-0.281-0.002-0.378c-0.025-0.192-0.108-0.088-0.123-0.278
			c0.043,0.018,0.179,0.06,0.252,0.06c0.104,0,0.242-0.059,0.31-0.097c-0.015-0.086-0.032-0.061-0.032-0.122
			c0-0.074,0.014-0.043,0.032-0.125c-0.067-0.042-0.21-0.097-0.313-0.097c-0.093,0-0.162,0.041-0.25,0.066
			c0.017-0.185,0.088-0.095,0.121-0.259c0.011-0.081,0.004-0.309,0.004-0.403c0.055-0.04,0.186-0.128,0.279-0.128
			c0.256-0.003,0.437,0.282,0.571,0.385l0.089-0.104c-0.224,0.049-0.053-0.098-0.259-0.244c-0.084-0.056-0.309-0.162-0.433-0.162
			h-0.037c-0.141,0-0.37,0.239-0.37,0.316v0.122c0,0.107,0.029,0.028,0.062,0.16h-0.089v0.094h-0.099
			c-0.098,0-0.162-0.274-0.162-0.343v-0.157c-0.002-0.263,0.471-0.348,0.793-0.346l0.055-0.193h-0.061v0.128l-0.285-0.03h-0.126
			c-0.199,0-0.53,0.305-0.53,0.502c0,0.129,0.066,0.159,0.1,0.289l-0.283-0.032c-0.194-0.288-0.406-0.912-0.887-0.907h-0.22
			c-0.119,0-0.142,0.029-0.187,0.094l-0.129-0.057l0.064,0.087c0.376,0,0.605-0.034,0.793,0.179
			c0.057,0.066,0.518,0.536,0.276,0.541h-0.187c-0.064,0-0.595-0.345-0.85-0.34h-0.033c-0.385,0-0.659,0.241-0.82,0.479
			L102.361,56.96z"/>
	</g>
	<g>
		<polygon fill="none" stroke="#FFFFFF" stroke-width="0.6075" stroke-miterlimit="10" points="72.908,72.037 76.731,69.83 
			80.556,72.037 80.556,76.456 76.731,78.664 72.908,76.456 		"/>
		<path fill-rule="evenodd" clip-rule="evenodd" fill="#FFFFFF" d="M77.896,73.581c0,0-0.042-0.651-0.269-0.844
			c-0.231-0.188-0.555-0.33-0.835-0.3c-0.272,0.033-0.723,0.107-0.957,0.411c-0.223,0.318-0.246,0.546-0.164,0.84
			c0.086,0.289,0.213,0.444,0.213,0.444l-0.39,0.016l0.008,0.411l0.542,0.01c0,0,0.129,0.124,0.084,0.345
			c-0.037,0.216-0.333,0.629-0.581,0.716c0.078,0.169,0.21,0.395,0.21,0.395s0.408-0.165,0.588-0.165
			c0.175,0,0.302,0.003,0.874,0.165c0.575,0.16,0.738-0.248,0.751-0.229l-0.264-0.538c0,0-0.16,0.207-0.313,0.207
			c-0.161,0-0.505-0.083-0.641-0.125c-0.126-0.041-0.257-0.028-0.257-0.028s0.024-0.025,0.131-0.282
			c0.104-0.262-0.004-0.457-0.004-0.457h0.557l0.006-0.418l-0.628-0.007c0,0-0.272-0.467-0.272-0.68c0-0.207,0.211-0.366,0.41-0.409
			c0.196-0.047,0.469,0.03,0.556,0.179c0.091,0.143,0.052,0.342,0.052,0.342L77.896,73.581z"/>
	</g>
	<path fill-rule="evenodd" clip-rule="evenodd" fill="#FFFFFF" d="M59.479,43.147l-1.805-0.054c0,0-0.021,0.088-0.056,0.245
		l-1.627-0.176c0,0-2.678,12.275-6.528,35.067c-3.853,22.793-2.964,46.076-2.964,46.076l1.403,0.305
		c0.001,0.049,0.002,0.106,0.003,0.151l1.211,0.111l0.007,0.002v-0.001l1.132,0.104c0,0-0.146-25.698,2.866-45.809
		C56.129,59.058,59.479,43.147,59.479,43.147z"/>
	<g>
		<path fill-rule="evenodd" clip-rule="evenodd" fill="#FFFFFF" d="M45.349,111.692c-2.52-4.918-4.843-3.817-6.357-6.165
			c-1.509-2.349-1.563-7.324-4.989-10.112c-0.448-0.365-0.866-0.661-1.263-0.914c-1.697-1.215-2.496-1.322-4.434-2.605
			c-0.657-0.609-1.321-1.455-2.05-2.781c-2.563-4.653-5.281-1.007-7.896-0.382c-2.616,0.623-14.094,17.363-14.094,17.363
			s0.073-0.054,0.193-0.14c-0.004,0.004-0.008,0.008-0.012,0.012c-0.486,0.507-0.893,0.928-1.197,1.249
			c0.537-0.551,1.086-1.076,1.646-1.57c0.008-0.005,0.018-0.011,0.025-0.017c4.04-2.617,8.625-4.771,12.643-5.982
			c2.518-0.934,8.384-2.128,10.629-2.065c1.108,0.444,2.067,1.17,2.808,2.259c4.849,7.128,12.401,18.064,15.441,24.496
			c0.701,1.496,3.324,1.046,3.757,0.672C50.2,125.009,47.865,116.612,45.349,111.692z"/>
	</g>
	<g>
		<g>
			<path fill-rule="evenodd" clip-rule="evenodd" fill="#FFFFFF" d="M69.085,55.071c0.154-0.994-0.491-1.917-1.445-2.065
				c-0.009-0.001-0.019,0-0.024-0.001c0.081-0.165,0.146-0.342,0.177-0.535c0.154-0.992-0.496-1.91-1.446-2.061
				c-0.188-0.028-0.369-0.017-0.547,0.015c0.01-0.042,0.022-0.077,0.028-0.118c0.138-0.872-0.349-1.691-1.119-1.976
				c0.731-0.125,1.343-0.717,1.463-1.518c0.12-0.753-0.227-1.465-0.82-1.829c0.349-0.275,0.602-0.684,0.677-1.168
				c0.151-0.991-0.495-1.913-1.45-2.061c-0.662-0.104-1.296,0.205-1.673,0.735c0.024-0.171,0.059-0.352,0.103-0.537
				c0.517-0.098,0.996-0.418,1.276-0.93c0.094-0.173,0.149-0.354,0.187-0.537c0.494-0.25,0.87-0.735,0.973-1.334
				c0.395-0.151,0.747-0.435,0.969-0.843c0.068-0.126,0.115-0.257,0.152-0.389c0.872,0.025,1.656-0.62,1.797-1.536
				c0.156-0.991-0.493-1.913-1.444-2.063c-0.079-0.012-0.156-0.011-0.232-0.012c0.232-0.259,0.399-0.589,0.459-0.964
				c0.153-0.992-0.496-1.915-1.448-2.063c-0.14-0.021-0.276-0.021-0.408-0.009c-0.016-0.068-0.029-0.136-0.044-0.204
				c0.042-0.116,0.074-0.236,0.093-0.362c0.089-0.584-0.104-1.138-0.468-1.531c-0.006-0.035-0.01-0.068-0.015-0.104
				c0.605-0.209,1.087-0.747,1.195-1.445c0.152-0.993-0.498-1.916-1.451-2.062c-0.486-0.078-0.959,0.071-1.326,0.364
				c-0.02-0.016-0.035-0.034-0.053-0.05c0.436-0.269,0.761-0.724,0.846-1.282c0.15-0.986-0.491-1.911-1.447-2.059
				c-0.078-0.013-0.155-0.011-0.235-0.013c0.018-0.064,0.039-0.128,0.052-0.194c0.148-0.977-0.481-1.887-1.416-2.054
				c-0.136-0.17-0.305-0.316-0.506-0.427c-0.743-0.406-1.662-0.19-2.199,0.463c-0.218-0.165-0.471-0.286-0.757-0.332
				c-0.954-0.146-1.851,0.536-2.004,1.527c-0.042,0.276-0.018,0.544,0.054,0.795c-0.16-0.084-0.333-0.151-0.521-0.181
				c-0.95-0.147-1.844,0.535-2.004,1.526c-0.118,0.795,0.278,1.544,0.936,1.885c-0.582-0.022-1.123,0.258-1.464,0.723
				c-0.08-0.024-0.159-0.051-0.244-0.063c-0.954-0.148-1.845,0.532-2.002,1.524c-0.044,0.275-0.019,0.543,0.052,0.793
				c-0.158-0.084-0.328-0.149-0.512-0.178c-0.959-0.146-1.854,0.533-2.003,1.524c-0.127,0.801,0.274,1.551,0.937,1.892
				c-0.881-0.043-1.672,0.605-1.816,1.53c-0.147,0.961,0.459,1.852,1.365,2.038c-0.15,0.222-0.262,0.478-0.307,0.763
				c-0.084,0.544,0.078,1.062,0.393,1.447c-0.041,0.112-0.073,0.234-0.092,0.358c-0.041,0.273-0.02,0.54,0.051,0.787
				c-0.158-0.081-0.326-0.146-0.512-0.176c-0.95-0.146-1.849,0.538-2.001,1.528c-0.107,0.682,0.174,1.327,0.667,1.715
				c-0.009,0.06-0.009,0.119-0.011,0.18c-0.332,0.041-0.639,0.179-0.892,0.392c-0.778,0.084-1.436,0.693-1.563,1.53
				c-0.123,0.794,0.274,1.539,0.926,1.881c-0.582-0.021-1.12,0.262-1.459,0.725c-0.078-0.022-0.156-0.049-0.241-0.063
				c-0.958-0.148-1.853,0.532-2.002,1.525c-0.044,0.276-0.021,0.543,0.049,0.795c-0.159-0.084-0.329-0.15-0.514-0.18
				c-0.953-0.149-1.852,0.535-2.003,1.523c-0.125,0.799,0.273,1.546,0.929,1.887c-0.876-0.03-1.662,0.614-1.807,1.534
				c-0.144,0.959,0.459,1.85,1.363,2.04c-0.152,0.222-0.263,0.479-0.309,0.764c-0.083,0.546,0.081,1.064,0.399,1.451
				c-0.039,0.112-0.07,0.229-0.089,0.35c-0.044,0.275-0.019,0.546,0.052,0.796c-0.159-0.084-0.332-0.149-0.518-0.179
				c-0.951-0.148-1.847,0.535-2.003,1.526c-0.124,0.796,0.276,1.544,0.935,1.883c-0.877-0.035-1.665,0.612-1.808,1.536
				c-0.149,0.959,0.457,1.849,1.361,2.036c-0.15,0.223-0.263,0.479-0.306,0.766c-0.051,0.332-0.007,0.651,0.103,0.942
				c-0.034-0.009-0.066-0.022-0.103-0.027c-0.951-0.148-1.849,0.536-2.007,1.527c-0.122,0.794,0.277,1.537,0.931,1.881
				c-0.874-0.025-1.655,0.618-1.803,1.537c-0.148,0.962,0.461,1.853,1.365,2.039c-0.15,0.223-0.263,0.477-0.307,0.763
				c-0.156,0.992,0.494,1.913,1.441,2.062c0.566,0.089,1.108-0.123,1.493-0.512c0.021,0.047,0.05,0.092,0.077,0.137
				c-0.184,0.238-0.316,0.521-0.367,0.842c-0.146,0.962,0.459,1.851,1.366,2.045c-0.15,0.223-0.262,0.477-0.307,0.762
				c-0.152,0.984,0.491,1.913,1.445,2.061c0.383,0.06,0.753-0.021,1.075-0.198c0.223,0.21,0.502,0.355,0.816,0.42
				c-0.151,0.222-0.262,0.477-0.305,0.762c-0.156,0.99,0.49,1.913,1.441,2.062c0.531,0.082,1.039-0.098,1.416-0.439
				c0.037,0.04,0.075,0.081,0.111,0.12c-0.16,0.228-0.276,0.491-0.322,0.788c-0.152,0.962,0.457,1.854,1.361,2.041
				c-0.152,0.223-0.264,0.478-0.307,0.763c-0.153,0.989,0.496,1.911,1.451,2.059c0.563,0.09,1.104-0.119,1.487-0.51
				c0.239,0.512,0.708,0.898,1.296,0.987c0.01,0.002,0.02,0,0.027,0.002c0.188,0.641,0.707,1.146,1.39,1.253
				c0.876,0.138,1.693-0.433,1.94-1.291c0.755-0.104,1.39-0.707,1.513-1.527c0.034-0.218,0.023-0.43-0.015-0.634
				c0.91,0.085,1.75-0.578,1.895-1.528c0.039-0.255,0.025-0.505-0.031-0.737c0.648,0.016,1.292-0.33,1.635-0.957
				c0.06-0.114,0.107-0.231,0.144-0.35c0.818,0.068,1.569-0.463,1.817-1.266c0.023-0.068,0.037-0.135,0.053-0.203
				c0.004-0.023,0.012-0.042,0.016-0.063c0-0.006,0-0.013,0-0.018c0.026-0.146,0.039-0.294,0.029-0.439
				c0.078-0.073,0.154-0.146,0.23-0.222c0.129,0.055,0.262,0.1,0.406,0.122c0.951,0.147,1.846-0.538,2.002-1.53
				c0.029-0.181,0.021-0.357-0.002-0.529c0.195,0.127,0.417,0.215,0.659,0.252c0.949,0.15,1.846-0.535,2.002-1.527
				c0.064-0.431-0.027-0.843-0.222-1.189c0.66-0.177,1.198-0.747,1.313-1.491c0.141-0.908-0.399-1.757-1.23-2.001
				c0.017-0.021,0.032-0.045,0.049-0.069c0.886,0.054,1.694-0.596,1.843-1.532c0.155-0.992-0.495-1.919-1.445-2.064
				c-0.016-0.003-0.032,0-0.049-0.003c0.025-0.082,0.051-0.165,0.066-0.253c0.05-0.332,0.007-0.653-0.104-0.943
				c0.071-0.088,0.137-0.181,0.192-0.282c0.03-0.059,0.049-0.12,0.074-0.179c0.753-0.103,1.392-0.705,1.517-1.521
				c0.099-0.633-0.129-1.235-0.555-1.628c0.003-0.13-0.007-0.256-0.03-0.379c0.458-0.266,0.805-0.731,0.895-1.31
				c0.158-0.988-0.494-1.91-1.443-2.062c-0.193-0.029-0.381-0.018-0.563,0.016c-0.018-0.046-0.033-0.092-0.053-0.138
				c-0.016-0.224-0.07-0.44-0.158-0.638c0.717-0.134,1.314-0.723,1.439-1.512c0.121-0.806-0.285-1.56-0.951-1.893
				c0.023-0.025,0.051-0.048,0.072-0.073c0.209,0.148,0.446,0.255,0.713,0.297c0.952,0.147,1.851-0.536,2.001-1.525
				c0.095-0.608-0.112-1.19-0.508-1.584C68.772,55.93,69.013,55.536,69.085,55.071z M41.462,54.816
				c0.003,0.031,0.01,0.061,0.014,0.091c-0.056-0.026-0.108-0.056-0.169-0.077C41.36,54.829,41.411,54.823,41.462,54.816z
				 M50.485,34.624c0.002,0.031,0.008,0.062,0.012,0.092c-0.056-0.027-0.109-0.055-0.167-0.074
				C50.382,34.639,50.433,34.631,50.485,34.624z M39.358,65.004c-0.01-0.002-0.023-0.003-0.033-0.009
				c0.012,0,0.023,0.003,0.034,0.003C39.358,65.001,39.358,65.003,39.358,65.004z M38.489,68.662
				c-0.017,0.012-0.035,0.023-0.054,0.034c-0.007-0.025-0.017-0.048-0.023-0.072C38.438,68.637,38.462,68.65,38.489,68.662z
				 M56.505,23.465c-0.006-0.025-0.018-0.048-0.025-0.073c0.026,0.014,0.052,0.026,0.078,0.04
				C56.54,23.442,56.523,23.454,56.505,23.465z M51.261,29.675c-0.008-0.023-0.018-0.046-0.024-0.07
				c0.024,0.015,0.049,0.027,0.075,0.04C51.295,29.653,51.277,29.664,51.261,29.675z M49.28,39.842
				c-0.006-0.024-0.019-0.047-0.024-0.071c0.025,0.013,0.052,0.026,0.077,0.038C49.315,39.819,49.297,39.831,49.28,39.842z
				 M42.235,49.871c-0.006-0.026-0.02-0.051-0.025-0.076c0.027,0.014,0.055,0.028,0.081,0.041
				C42.271,49.847,42.254,49.858,42.235,49.871z M40.257,60.033c-0.007-0.025-0.019-0.049-0.025-0.075
				c0.025,0.015,0.053,0.029,0.08,0.042C40.292,60.01,40.274,60.022,40.257,60.033z M37.661,73.644
				c0.004,0.032,0.01,0.063,0.014,0.095c-0.061-0.029-0.118-0.059-0.182-0.081C37.551,73.657,37.604,73.65,37.661,73.644z"/>
		</g>
	</g>
</g>
<g>
	<path fill="#FFFFFF" d="M58.884,125.2l1.326,0.422c-0.203,0.739-0.541,1.288-1.015,1.647c-0.473,0.36-1.074,0.54-1.802,0.54
		c-0.9,0-1.64-0.308-2.219-0.922c-0.58-0.616-0.87-1.456-0.87-2.524c0-1.128,0.292-2.005,0.874-2.63
		c0.583-0.623,1.348-0.936,2.298-0.936c0.829,0,1.504,0.246,2.022,0.735c0.308,0.29,0.538,0.707,0.692,1.249l-1.354,0.323
		c-0.08-0.352-0.249-0.629-0.503-0.833c-0.253-0.203-0.563-0.306-0.926-0.306c-0.503,0-0.911,0.183-1.224,0.542
		c-0.313,0.361-0.469,0.945-0.469,1.754c0,0.856,0.152,1.467,0.461,1.831s0.709,0.546,1.204,0.546c0.364,0,0.676-0.115,0.938-0.348
		C58.581,126.061,58.77,125.696,58.884,125.2z"/>
	<path fill="#FFFFFF" d="M61.075,125.168c0-0.432,0.106-0.849,0.319-1.254c0.213-0.402,0.515-0.712,0.903-0.924
		c0.391-0.214,0.826-0.319,1.307-0.319c0.744,0,1.352,0.241,1.828,0.725c0.475,0.481,0.713,1.091,0.713,1.828
		c0,0.743-0.24,1.358-0.722,1.849c-0.479,0.487-1.083,0.732-1.81,0.732c-0.45,0-0.879-0.102-1.287-0.306
		c-0.41-0.203-0.72-0.501-0.933-0.895C61.182,126.212,61.075,125.732,61.075,125.168z M62.408,125.237
		c0,0.488,0.114,0.86,0.345,1.119c0.232,0.26,0.518,0.389,0.857,0.389c0.338,0,0.624-0.129,0.852-0.389
		c0.231-0.259,0.345-0.635,0.345-1.128c0-0.48-0.113-0.851-0.345-1.111c-0.228-0.257-0.514-0.387-0.852-0.387
		c-0.34,0-0.625,0.13-0.857,0.387C62.522,124.378,62.408,124.751,62.408,125.237z"/>
	<path fill="#FFFFFF" d="M71.63,127.694h-1.299v-2.508c0-0.529-0.028-0.872-0.085-1.027c-0.055-0.158-0.145-0.277-0.271-0.364
		c-0.125-0.087-0.273-0.13-0.451-0.13c-0.224,0-0.427,0.063-0.605,0.186s-0.301,0.286-0.367,0.489c-0.066,0.204-0.1,0.581-0.1,1.128
		v2.227h-1.3v-4.912h1.207v0.721c0.429-0.555,0.968-0.832,1.618-0.832c0.288,0,0.55,0.051,0.787,0.155
		c0.238,0.104,0.416,0.234,0.539,0.395c0.121,0.161,0.206,0.342,0.254,0.546c0.049,0.204,0.072,0.496,0.072,0.875V127.694z"/>
	<path fill="#FFFFFF" d="M77.415,127.694h-1.298v-2.508c0-0.529-0.028-0.872-0.085-1.027c-0.055-0.158-0.146-0.277-0.271-0.364
		c-0.125-0.087-0.273-0.13-0.449-0.13c-0.227,0-0.428,0.063-0.606,0.186s-0.302,0.286-0.367,0.489c-0.066,0.204-0.1,0.581-0.1,1.128
		v2.227h-1.299v-4.912h1.205v0.721c0.431-0.555,0.969-0.832,1.62-0.832c0.286,0,0.549,0.051,0.785,0.155
		c0.238,0.104,0.417,0.234,0.539,0.395c0.123,0.161,0.207,0.342,0.253,0.546c0.05,0.204,0.073,0.496,0.073,0.875V127.694z"/>
	<path fill="#FFFFFF" d="M81.577,126.13l1.297,0.219c-0.167,0.474-0.432,0.836-0.787,1.084c-0.361,0.247-0.811,0.372-1.351,0.372
		c-0.854,0-1.487-0.279-1.896-0.838c-0.323-0.446-0.485-1.01-0.485-1.691c0-0.814,0.213-1.452,0.638-1.913
		c0.427-0.461,0.964-0.691,1.614-0.691c0.73,0,1.308,0.241,1.73,0.725c0.422,0.481,0.624,1.221,0.606,2.217h-3.257
		c0.009,0.385,0.115,0.686,0.314,0.899c0.202,0.216,0.45,0.321,0.749,0.321c0.205,0,0.375-0.055,0.514-0.166
		C81.403,126.556,81.507,126.377,81.577,126.13z M81.651,124.817c-0.009-0.376-0.105-0.663-0.29-0.858
		c-0.186-0.196-0.412-0.294-0.676-0.294c-0.284,0-0.518,0.103-0.702,0.311c-0.186,0.206-0.278,0.486-0.273,0.842H81.651z"/>
	<path fill="#FFFFFF" d="M88.283,124.233l-1.279,0.232c-0.044-0.257-0.142-0.449-0.294-0.579c-0.152-0.128-0.351-0.193-0.595-0.193
		c-0.323,0-0.581,0.111-0.774,0.335c-0.192,0.224-0.289,0.598-0.289,1.122c0,0.582,0.097,0.995,0.293,1.235
		c0.195,0.239,0.46,0.359,0.788,0.359c0.247,0,0.449-0.069,0.607-0.211c0.157-0.139,0.269-0.381,0.332-0.723l1.277,0.217
		c-0.132,0.586-0.388,1.028-0.764,1.327c-0.376,0.3-0.88,0.449-1.513,0.449c-0.718,0-1.292-0.228-1.718-0.681
		c-0.428-0.452-0.641-1.08-0.641-1.882c0-0.811,0.215-1.441,0.643-1.895c0.429-0.45,1.009-0.677,1.739-0.677
		c0.598,0,1.073,0.129,1.427,0.387C87.877,123.314,88.13,123.707,88.283,124.233z"/>
	<path fill="#FFFFFF" d="M91.522,122.782v1.036h-0.887v1.979c0,0.402,0.008,0.635,0.023,0.701c0.017,0.065,0.057,0.121,0.115,0.163
		c0.062,0.044,0.133,0.066,0.221,0.066c0.12,0,0.295-0.042,0.523-0.125l0.111,1.008c-0.303,0.129-0.646,0.194-1.029,0.194
		c-0.232,0-0.445-0.039-0.632-0.118c-0.189-0.079-0.327-0.181-0.415-0.305c-0.087-0.124-0.148-0.294-0.182-0.507
		c-0.029-0.151-0.043-0.455-0.043-0.915v-2.142h-0.596v-1.036h0.596v-0.977l1.307-0.759v1.735H91.522z"/>
	<path fill="#FFFFFF" d="M92.423,122.116v-1.202h1.302v1.202H92.423z M92.423,127.694v-4.912h1.302v4.912H92.423z"/>
	<path fill="#FFFFFF" d="M99.522,127.694h-1.299v-2.508c0-0.529-0.027-0.872-0.083-1.027c-0.057-0.158-0.146-0.277-0.271-0.364
		c-0.124-0.087-0.274-0.13-0.45-0.13c-0.227,0-0.428,0.063-0.607,0.186c-0.178,0.123-0.302,0.286-0.367,0.489
		c-0.065,0.204-0.099,0.581-0.099,1.128v2.227h-1.301v-4.912h1.208v0.721c0.43-0.555,0.968-0.832,1.619-0.832
		c0.287,0,0.548,0.051,0.785,0.155c0.239,0.104,0.417,0.234,0.54,0.395c0.12,0.161,0.206,0.342,0.254,0.546s0.071,0.496,0.071,0.875
		V127.694z"/>
	<path fill="#FFFFFF" d="M100.721,128.018l1.484,0.182c0.025,0.172,0.083,0.289,0.171,0.355c0.124,0.093,0.318,0.138,0.583,0.138
		c0.34,0,0.596-0.052,0.762-0.152c0.116-0.068,0.202-0.178,0.261-0.33c0.04-0.106,0.059-0.305,0.059-0.596v-0.716
		c-0.387,0.53-0.876,0.796-1.469,0.796c-0.66,0-1.184-0.279-1.568-0.838c-0.302-0.44-0.453-0.989-0.453-1.646
		c0-0.822,0.198-1.451,0.594-1.887c0.396-0.435,0.889-0.652,1.479-0.652c0.605,0,1.108,0.267,1.503,0.8v-0.688h1.217v4.406
		c0,0.58-0.05,1.014-0.144,1.3c-0.096,0.288-0.229,0.513-0.402,0.676c-0.172,0.164-0.404,0.292-0.691,0.385
		c-0.29,0.093-0.652,0.138-1.095,0.138c-0.833,0-1.422-0.142-1.771-0.428c-0.347-0.285-0.522-0.646-0.522-1.084
		C100.716,128.131,100.718,128.079,100.721,128.018z M101.882,125.136c0,0.522,0.1,0.903,0.302,1.145
		c0.203,0.243,0.451,0.363,0.748,0.363c0.318,0,0.586-0.124,0.804-0.372c0.221-0.248,0.33-0.616,0.33-1.104
		c0-0.508-0.105-0.885-0.315-1.132s-0.474-0.371-0.797-0.371c-0.31,0-0.566,0.119-0.77,0.363
		C101.981,124.27,101.882,124.64,101.882,125.136z"/>
	<path fill="#FFFFFF" d="M109.277,127.694v-6.78h4.648v1.146h-3.28v1.605h2.831v1.147h-2.831v2.882H109.277z"/>
	<path fill="#FFFFFF" d="M116.017,124.281l-1.181-0.214c0.134-0.475,0.361-0.826,0.687-1.055c0.322-0.229,0.803-0.342,1.442-0.342
		c0.579,0,1.011,0.068,1.294,0.205c0.283,0.139,0.484,0.312,0.601,0.523c0.113,0.211,0.173,0.6,0.173,1.164l-0.016,1.516
		c0,0.432,0.021,0.751,0.063,0.955c0.042,0.204,0.12,0.425,0.235,0.66h-1.286c-0.034-0.087-0.076-0.215-0.125-0.385
		c-0.021-0.076-0.037-0.128-0.046-0.152c-0.223,0.216-0.46,0.378-0.713,0.484c-0.253,0.108-0.523,0.163-0.81,0.163
		c-0.506,0-0.903-0.138-1.196-0.412c-0.29-0.274-0.437-0.621-0.437-1.041c0-0.276,0.066-0.524,0.199-0.742
		c0.133-0.217,0.319-0.384,0.557-0.5c0.238-0.114,0.584-0.216,1.034-0.302c0.606-0.113,1.028-0.221,1.263-0.319v-0.129
		c0-0.249-0.063-0.428-0.186-0.535c-0.123-0.106-0.355-0.159-0.697-0.159c-0.231,0-0.412,0.045-0.541,0.137
		C116.201,123.893,116.095,124.052,116.017,124.281z M117.755,125.335c-0.167,0.055-0.43,0.122-0.79,0.199s-0.598,0.152-0.709,0.227
		c-0.169,0.12-0.253,0.272-0.253,0.458c0,0.182,0.066,0.338,0.203,0.471c0.136,0.133,0.308,0.2,0.519,0.2
		c0.231,0,0.458-0.078,0.669-0.232c0.157-0.116,0.262-0.26,0.311-0.431c0.034-0.109,0.051-0.321,0.051-0.633V125.335z"/>
	<path fill="#FFFFFF" d="M121.556,127.694h-1.299v-4.912h1.207v0.697c0.207-0.33,0.391-0.546,0.557-0.651
		c0.164-0.105,0.353-0.157,0.563-0.157c0.294,0,0.58,0.081,0.854,0.244l-0.402,1.134c-0.219-0.142-0.422-0.213-0.611-0.213
		c-0.182,0-0.336,0.051-0.461,0.151c-0.128,0.1-0.228,0.28-0.3,0.543c-0.071,0.263-0.108,0.811-0.108,1.646V127.694z"/>
	<path fill="#FFFFFF" d="M123.901,122.782h1.197v0.671c0.429-0.521,0.94-0.782,1.531-0.782c0.314,0,0.587,0.064,0.817,0.194
		c0.232,0.13,0.423,0.325,0.57,0.588c0.216-0.263,0.449-0.458,0.697-0.588c0.251-0.13,0.517-0.194,0.803-0.194
		c0.358,0,0.665,0.074,0.914,0.221c0.249,0.145,0.435,0.359,0.56,0.645c0.089,0.21,0.135,0.549,0.135,1.016v3.143h-1.299v-2.809
		c0-0.487-0.046-0.801-0.135-0.942c-0.123-0.185-0.307-0.278-0.555-0.278c-0.183,0-0.354,0.056-0.515,0.167
		c-0.161,0.111-0.274,0.273-0.345,0.487c-0.072,0.216-0.108,0.554-0.108,1.016v2.359h-1.301v-2.691c0-0.479-0.021-0.788-0.067-0.927
		c-0.047-0.14-0.119-0.241-0.217-0.31c-0.096-0.066-0.228-0.102-0.395-0.102c-0.199,0-0.381,0.054-0.542,0.162
		c-0.159,0.107-0.273,0.263-0.343,0.467c-0.072,0.204-0.104,0.541-0.104,1.014v2.387h-1.3V122.782z"/>
	<path fill="#FFFFFF" d="M135.264,126.13l1.296,0.219c-0.166,0.474-0.429,0.836-0.789,1.084c-0.359,0.247-0.807,0.372-1.348,0.372
		c-0.854,0-1.486-0.279-1.896-0.838c-0.323-0.446-0.485-1.01-0.485-1.691c0-0.814,0.213-1.452,0.638-1.913
		c0.426-0.461,0.964-0.691,1.615-0.691c0.73,0,1.306,0.241,1.729,0.725c0.424,0.481,0.626,1.221,0.605,2.217h-3.255
		c0.009,0.385,0.113,0.686,0.313,0.899c0.201,0.216,0.452,0.321,0.752,0.321c0.201,0,0.373-0.055,0.512-0.166
		S135.192,126.377,135.264,126.13z M135.34,124.817c-0.009-0.376-0.108-0.663-0.293-0.858c-0.185-0.196-0.41-0.294-0.675-0.294
		c-0.284,0-0.52,0.103-0.702,0.311c-0.187,0.206-0.276,0.486-0.272,0.842H135.34z"/>
	<path fill="#FFFFFF" d="M138.933,127.694h-1.3v-4.912h1.206v0.697c0.208-0.33,0.395-0.546,0.559-0.651
		c0.165-0.105,0.352-0.157,0.561-0.157c0.297,0,0.583,0.081,0.857,0.244l-0.402,1.134c-0.219-0.142-0.424-0.213-0.611-0.213
		c-0.182,0-0.336,0.051-0.462,0.151c-0.126,0.1-0.226,0.28-0.3,0.543c-0.071,0.263-0.107,0.811-0.107,1.646V127.694z"/>
	<path fill="#FFFFFF" d="M140.917,126.292l1.304-0.198c0.056,0.253,0.169,0.444,0.337,0.575c0.17,0.132,0.408,0.197,0.714,0.197
		c0.335,0,0.589-0.063,0.758-0.187c0.114-0.086,0.172-0.201,0.172-0.346c0-0.099-0.032-0.181-0.093-0.244
		c-0.064-0.063-0.211-0.12-0.436-0.173c-1.048-0.23-1.711-0.441-1.994-0.634c-0.388-0.265-0.582-0.632-0.582-1.104
		c0-0.426,0.169-0.783,0.504-1.073c0.336-0.289,0.858-0.435,1.563-0.435c0.671,0,1.172,0.109,1.498,0.328
		c0.328,0.22,0.553,0.544,0.675,0.972l-1.224,0.227c-0.054-0.191-0.152-0.337-0.3-0.438c-0.145-0.103-0.354-0.152-0.626-0.152
		c-0.343,0-0.588,0.047-0.736,0.142c-0.099,0.068-0.146,0.156-0.146,0.264c0,0.093,0.041,0.171,0.129,0.235
		c0.116,0.087,0.521,0.208,1.214,0.366c0.691,0.157,1.175,0.351,1.449,0.579c0.271,0.23,0.407,0.553,0.407,0.966
		c0,0.45-0.188,0.837-0.564,1.161c-0.377,0.322-0.933,0.485-1.669,0.485c-0.67,0-1.199-0.136-1.589-0.407
		C141.293,127.127,141.038,126.758,140.917,126.292z"/>
</g>
</svg>
