<?xml version="1.0" encoding="utf-8"?>
<!-- Generator: Adobe Illustrator 23.0.1, SVG Export Plug-In . SVG Version: 6.00 Build 0)  -->
<svg version="1.1" id="Layer_1" xmlns="http://www.w3.org/2000/svg" xmlns:xlink="http://www.w3.org/1999/xlink" x="0px" y="0px"
	 viewBox="0 0 112.1 129.9" style="enable-background:new 0 0 112.1 129.9;" xml:space="preserve">
<style type="text/css">
	.st0{fill:none;stroke:#0066FF;stroke-width:0.75;stroke-miterlimit:10;}
	.st1{clip-path:url(#SVGID_2_);}
	.st2{opacity:0.3;}
	.st3{fill:none;stroke:#29B99F;stroke-width:0.75;stroke-miterlimit:10;}
	
		.st4{fill-rule:evenodd;clip-rule:evenodd;fill:none;stroke:#BF549F;stroke-width:0.75;stroke-linecap:round;stroke-linejoin:round;stroke-miterlimit:10;}
	.st5{fill:none;stroke:#4068B1;stroke-width:0.75;stroke-miterlimit:10;}
	.st6{fill:none;stroke:#00C1A3;stroke-width:0.75;stroke-miterlimit:10;}
	
		.st7{fill-rule:evenodd;clip-rule:evenodd;fill:none;stroke:#FF25F3;stroke-width:0.75;stroke-linecap:round;stroke-linejoin:round;stroke-miterlimit:10;}
	.st8{fill:none;stroke:#FF25F3;stroke-width:0.75;stroke-linecap:round;stroke-linejoin:round;stroke-miterlimit:10;}
	.st9{fill:none;stroke:#0066FF;stroke-width:0.75;stroke-linejoin:round;stroke-miterlimit:10;}
	.st10{opacity:0.5;}
	.st11{fill:#FFFFFF;stroke:#0066FF;stroke-width:0.75;stroke-miterlimit:10;}
	.st12{fill-rule:evenodd;clip-rule:evenodd;fill:#FFFFFF;stroke:#0066FF;stroke-width:0.75;stroke-miterlimit:10;}
	.st13{opacity:0.3;fill:none;stroke:#0066FF;stroke-width:0.75;stroke-miterlimit:10;}
	.st14{fill:none;stroke:#0066FF;stroke-width:0.75;stroke-linecap:round;stroke-miterlimit:10;}
	.st15{fill:#FFFFFF;stroke:#0066FF;stroke-miterlimit:10;}
	.st16{opacity:0.3;fill:none;stroke:#0066FF;stroke-miterlimit:10;}
	.st17{fill:#0066FF;}
	.st18{opacity:0.5;fill:none;stroke:#0066FF;stroke-width:0.75;stroke-miterlimit:10;}
	.st19{fill:none;stroke:#0066FF;stroke-width:0.75;stroke-miterlimit:10;stroke-dasharray:1.723,1.723;}
</style>
<path class="st0" d="M52.8,59.7c0,0,2.4,2.3,4.4,2.3c2,0,4.2-1.8,4.2-1.8"/>
<path class="st0" d="M71.8,82.7l10.5-6.6c0,0-5.1-10.3-5.8-12.7c-0.7-2.4-3.3-3.4-3.3-3.4L64.4,58"/>
<path class="st8" d="M62,54.2L60,86.4l3.7-0.7l0.9-27.7c0,0-0.5-1.9-0.9-2.5C63.5,55.1,62,54.2,62,54.2z"/>
<path class="st0" d="M49.4,57.1l-9.6,1.6c0,0-2.2,0.4-3.5,2.4c-1.3,2-6.5,14.3-6.5,14.3l9.8,4.4"/>
<path class="st8" d="M51.1,53.8c0,0-2.8,3.5-3.3,17.6c-0.4,12.9,0,15.3,0,15.3l3.4-0.2l1.5-30.9"/>
<path class="st0" d="M50.2,44.1c-0.4-0.6-1.4-0.7-1.8-0.6c-0.6,0.2-0.8,1.8-0.4,3.3c0.4,1.5,1.2,2.6,1.8,2.4c0.1,0,0.2-0.1,0.3-0.2
	l0.2,1.9c0,0,0.9,5.4,6.7,5.4c2.8,0,5.7-3.3,6.2-5.2c0.2-0.7,0.3-1.3,0.5-2c0.1,0.1,0.2,0.2,0.3,0.2c0.6,0.2,1.5-0.8,2.1-2.2
	c0.5-1.5,0.6-3.2-0.1-3.4c-0.3-0.1-1-0.2-1.3,0.1"/>
<path class="st0" d="M50.4,43.9c-2-1.6-3.8-4-3.8-6.5c0-4.9,4.9-8.9,11.1-8.9s11.1,4,11.1,8.9c0,2.8-1.6,4.8-4.1,6.5"/>
<line class="st0" x1="67" y1="32.6" x2="50.1" y2="43.9"/>
<line class="st0" x1="59.5" y1="37.6" x2="65" y2="44.3"/>
<polyline class="st0" points="64.4,30.3 66,23.9 72.4,26.6 67,32.6 "/>
<polyline class="st0" points="39.6,67.9 39.6,98.4 37.4,113.1 "/>
<polyline class="st0" points="72.4,67.9 71.1,99.7 75,113 "/>
<polyline class="st0" points="33.6,77.1 31.9,86.4 37.8,110.1 "/>
<polyline class="st0" points="77.7,79.1 78.5,87.1 74.4,109.1 "/>
<g>
	<ellipse class="st0" cx="15.4" cy="93.3" rx="1.9" ry="7.3"/>
	<line class="st0" x1="15.5" y1="100.4" x2="15.5" y2="123.1"/>
	<path class="st0" d="M15.4,120.5c0,0-0.1-0.3-0.2-0.9c-0.7-2.6-2.9-10.3-3.5-11.4c-0.7-1.4-8.3-2.8-8.3-2.8s5,2.6,6,3.5
		s6.1,12.5,6.1,12.5"/>
	<path class="st0" d="M15.6,116.7c0,0,0.1-0.3,0.1-0.9c0.4-2.6,1.8-10.3,2.1-11.4c0.4-1.4,4.9-2.8,4.9-2.8s-3,2.6-3.6,3.5
		c-0.6,0.9-3.7,12.5-3.7,12.5"/>
</g>
<g>
	<ellipse class="st11" cx="44.9" cy="95.9" rx="1.8" ry="6.6"/>
	<line class="st11" x1="44.8" y1="102.3" x2="44.8" y2="122.9"/>
	<path class="st11" d="M44.9,120.5c0,0,0.1-0.3,0.2-0.8c0.7-2.4,2.7-9.3,3.2-10.4c0.6-1.3,7.5-2.6,7.5-2.6s-4.5,2.4-5.5,3.2
		c-0.9,0.8-5.6,11.3-5.6,11.3"/>
	<path class="st11" d="M44.7,117c0,0-0.1-0.3-0.1-0.8c-0.4-2.4-1.6-9.3-1.9-10.4c-0.4-1.3-4.5-2.6-4.5-2.6s2.7,2.4,3.3,3.2
		c0.6,0.8,3.3,11.3,3.3,11.3"/>
</g>
<g>
	<ellipse class="st6" cx="63" cy="99.1" rx="1.9" ry="7.3"/>
	<line class="st6" x1="63.1" y1="106.2" x2="63.1" y2="128.9"/>
	<path class="st6" d="M63,126.3c0,0-0.1-0.3-0.2-0.9c-0.7-2.6-2.9-10.3-3.5-11.4c-0.7-1.4-8.3-2.8-8.3-2.8s5,2.6,6,3.5
		c1,0.9,6.1,12.5,6.1,12.5"/>
	<path class="st6" d="M63.2,122.5c0,0,0.1-0.3,0.1-0.9c0.4-2.6,1.8-10.3,2.1-11.4c0.4-1.4,4.9-2.8,4.9-2.8s-3,2.6-3.6,3.5
		c-0.6,0.9-3.7,12.5-3.7,12.5"/>
</g>
<g>
	<ellipse class="st0" cx="79.8" cy="97.4" rx="1.9" ry="7.3"/>
	<line class="st0" x1="79.7" y1="104.5" x2="79.7" y2="127.2"/>
	<path class="st0" d="M79.8,124.6c0,0,0.1-0.3,0.2-0.9c0.7-2.6,2.9-10.3,3.5-11.4c0.7-1.4,8.3-2.8,8.3-2.8s-5,2.6-6,3.5
		c-1,0.9-6.1,12.5-6.1,12.5"/>
	<path class="st0" d="M79.6,120.7c0,0-0.1-0.3-0.1-0.9c-0.4-2.6-1.8-10.3-2.1-11.4c-0.4-1.4-4.9-2.8-4.9-2.8s3,2.6,3.6,3.5
		s3.7,12.5,3.7,12.5"/>
</g>
<g>
	<ellipse class="st0" cx="99.6" cy="95.8" rx="1.9" ry="7.3"/>
	<line class="st0" x1="99.7" y1="102.9" x2="99.7" y2="125.6"/>
	<path class="st0" d="M99.6,123c0,0-0.1-0.3-0.2-0.9c-0.7-2.6-2.9-10.3-3.5-11.4c-0.7-1.4-8.3-2.8-8.3-2.8s5,2.6,6,3.5
		s6.1,12.5,6.1,12.5"/>
	<path class="st0" d="M99.8,119.1c0,0,0.1-0.3,0.1-0.9c0.4-2.6,1.8-10.3,2.1-11.4c0.4-1.4,4.9-2.8,4.9-2.8s-3,2.6-3.6,3.5
		c-0.6,0.9-3.7,12.5-3.7,12.5"/>
</g>
<g>
	<ellipse class="st0" cx="31.3" cy="97.9" rx="1.9" ry="7.3"/>
	<line class="st0" x1="31.4" y1="105" x2="31.4" y2="127.7"/>
	<path class="st0" d="M31.3,125.1c0,0-0.1-0.3-0.2-0.9c-0.7-2.6-2.9-10.3-3.5-11.4c-0.7-1.4-8.3-2.8-8.3-2.8s5,2.6,6,3.5
		c1,0.9,6.1,12.5,6.1,12.5"/>
	<path class="st0" d="M31.5,121.2c0,0,0.1-0.3,0.1-0.9c0.4-2.6,1.8-10.3,2.1-11.4c0.4-1.4,4.9-2.8,4.9-2.8s-3,2.6-3.6,3.5
		c-0.6,0.9-3.7,12.5-3.7,12.5"/>
</g>
<g class="st10">
	<g>
		<rect x="88.6" y="39.1" class="st0" width="5.5" height="9.5"/>
		<polygon class="st0" points="94.1,39.1 88.6,39.1 91.4,36.8 		"/>
	</g>
	<g>
		<rect x="95" y="39.1" class="st0" width="5.5" height="9.5"/>
		<polygon class="st0" points="100.5,39.1 95,39.1 97.7,36.8 		"/>
	</g>
	<g>
		<rect x="101.4" y="39.1" class="st0" width="5.5" height="9.5"/>
		<polygon class="st0" points="106.9,39.1 101.4,39.1 104.1,36.8 		"/>
	</g>
	<rect x="82.1" y="34.5" class="st0" width="5" height="14"/>
	<rect x="87" y="35.4" class="st0" width="18.8" height="1.3"/>
	<rect x="80.9" y="48.5" class="st0" width="27.8" height="2.1"/>
</g>
<g class="st10">
	<rect x="8" y="33.6" class="st0" width="16" height="10"/>
	<polygon class="st0" points="31.6,43.6 25.2,43.6 25.2,35.8 30,35.8 31.6,39.7 	"/>
	<circle class="st0" cx="12.3" cy="46.3" r="1.8"/>
	<circle class="st0" cx="28.4" cy="46.3" r="1.8"/>
	<polygon class="st0" points="29.7,39.4 27,39.4 27,37.2 28.9,37.2 	"/>
	<rect x="15.4" y="44.8" class="st0" width="10.4" height="0.1"/>
	<rect x="7" y="44.8" class="st0" width="2.6" height="0"/>
</g>
<g class="st10">
	<polygon class="st0" points="68,13.9 44.1,13.9 44.1,5.7 49.7,4 56,5.7 62.1,4 68,5.7 	"/>
	<rect x="59.7" y="11.2" class="st0" width="4.6" height="2.6"/>
	<rect x="48.2" y="11.2" class="st0" width="4.6" height="2.6"/>
</g>
<path class="st13" d="M20.2,27.8c4.4-7.4,11-13.4,18.9-16.9"/>
<path class="st13" d="M25.9,77.3c-4.7-4.9-8.1-11-9.9-17.8c-0.5-1.7-0.8-3.5-1-5.2"/>
<path class="st13" d="M96,59.9c-2,7.3-6,13.8-11.4,18.9"/>
<path class="st13" d="M74.4,11.6c8.1,4,14.6,10.5,18.7,18.5"/>
<path class="st14" d="M59,45.3c0,0,0.8-0.2,1.3-0.2c0.6,0,1.3,0.2,1.3,0.2"/>
<path class="st14" d="M52.8,45c0,0,0.8-0.2,1.3-0.2c0.6,0,1.3,0.2,1.3,0.2"/>
<path class="st14" d="M54.7,51.3c0,0,1.1,0.5,2.2,0.5c1.2,0,2.2-0.5,2.2-0.5"/>
</svg>
