<?xml version="1.0" encoding="utf-8"?>
<!-- Generator: Adobe Illustrator 23.0.1, SVG Export Plug-In . SVG Version: 6.00 Build 0)  -->
<svg version="1.1" id="Layer_1" xmlns="http://www.w3.org/2000/svg" xmlns:xlink="http://www.w3.org/1999/xlink" x="0px" y="0px"
	 viewBox="0 0 58.9 60.4" style="enable-background:new 0 0 58.9 60.4;" xml:space="preserve">
<style type="text/css">
	.st0{fill:none;stroke:#0066FF;stroke-width:0.75;stroke-linejoin:round;stroke-miterlimit:10;}
	.st1{fill:none;stroke:#00C1A3;stroke-width:0.75;stroke-miterlimit:10;}
	
		.st2{fill-rule:evenodd;clip-rule:evenodd;fill:none;stroke:#FF25F3;stroke-width:0.75;stroke-linecap:round;stroke-linejoin:round;stroke-miterlimit:10;}
	.st3{fill:none;stroke:#0066FF;stroke-width:0.75;stroke-miterlimit:10;}
	.st4{fill-rule:evenodd;clip-rule:evenodd;fill:none;stroke:#0066FF;stroke-width:0.75;stroke-miterlimit:10;}
	.st5{fill-rule:evenodd;clip-rule:evenodd;fill:none;stroke:#00C1A3;stroke-width:0.75;stroke-miterlimit:10;}
	.st6{fill:none;stroke:#FF25F3;stroke-width:0.75;stroke-linecap:round;stroke-linejoin:round;stroke-miterlimit:10;}
	.st7{fill-rule:evenodd;clip-rule:evenodd;fill:#FFFFFF;stroke:#0066FF;stroke-width:0.75;stroke-miterlimit:10;}
	
		.st8{fill-rule:evenodd;clip-rule:evenodd;fill:#FFFFFF;stroke:#FF25F3;stroke-width:0.75;stroke-linecap:round;stroke-linejoin:round;stroke-miterlimit:10;}
	.st9{fill-rule:evenodd;clip-rule:evenodd;fill:#FFFFFF;stroke:#00C1A3;stroke-width:0.75;stroke-miterlimit:10;}
	.st10{fill:#FFFFFF;stroke:#00C1A3;stroke-width:0.75;stroke-miterlimit:10;}
	.st11{fill:#FFFFFF;stroke:#FF25F3;stroke-width:0.75;stroke-linecap:round;stroke-linejoin:round;stroke-miterlimit:10;}
	.st12{fill:#FFFFFF;stroke:#0066FF;stroke-width:0.75;stroke-miterlimit:10;}
	.st13{fill:none;stroke:#0066FF;stroke-width:0.75;stroke-linecap:round;stroke-linejoin:round;stroke-miterlimit:10;}
	.st14{fill:#FFFFFF;stroke:#00C1A3;stroke-width:0.75;stroke-linecap:round;stroke-linejoin:round;stroke-miterlimit:10;}
	
		.st15{fill-rule:evenodd;clip-rule:evenodd;fill:#FFFFFF;stroke:#0066FF;stroke-width:0.75;stroke-linecap:round;stroke-linejoin:round;stroke-miterlimit:10;}
	
		.st16{fill-rule:evenodd;clip-rule:evenodd;fill:none;stroke:#0066FF;stroke-width:0.75;stroke-linecap:round;stroke-linejoin:round;stroke-miterlimit:10;}
	.st17{fill:#FFFFFF;stroke:#0066FF;stroke-width:0.75;stroke-linejoin:round;stroke-miterlimit:10;}
</style>
<g>
	<path class="st6" d="M46.7,11.5c-0.3,0-0.6,0-0.9,0C43.3,5.2,37.3,0.7,30.3,0.7c-9.1,0-16.5,7.6-16.7,17c-1.1-0.5-2.4-0.9-3.7-0.9
		C5,16.9,1,21,1,26.2s4,9.3,8.9,9.3c0.1,0,0.3,0,0.4,0c0.1,0,0.3,0,0.4,0h35c0.2,0,0.3,0,0.5,0c0.2,0,0.3,0,0.5,0
		c6.4,0,11.5-5.4,11.5-12C58.2,16.9,53.1,11.5,46.7,11.5z"/>
	<polyline class="st3" points="30.7,22.4 30.7,45.3 11.5,45.3 11.5,55.4 	"/>
	<polyline class="st3" points="44.7,25.4 44.7,41.1 53.5,41.1 53.5,52.5 	"/>
	<polyline class="st1" points="16.9,28.4 16.9,40 4.4,40 4.4,51.6 	"/>
	<polyline class="st3" points="35.8,30.3 35.8,46.8 41.3,46.8 41.3,55.4 	"/>
	<line class="st3" x1="24.9" y1="45.3" x2="24.9" y2="50.4"/>
	<circle class="st3" cx="4.4" cy="53.7" r="2.1"/>
	<circle class="st3" cx="11.5" cy="57.5" r="2.1"/>
	<circle class="st3" cx="24.9" cy="52.5" r="2.1"/>
	<circle class="st3" cx="41.3" cy="57.5" r="2.1"/>
	<circle class="st3" cx="53.5" cy="54.6" r="2.1"/>
</g>
</svg>
