<?xml version="1.0" encoding="utf-8"?>
<!-- Generator: Adobe Illustrator 23.0.1, SVG Export Plug-In . SVG Version: 6.00 Build 0)  -->
<svg version="1.1" id="Layer_1" xmlns="http://www.w3.org/2000/svg" xmlns:xlink="http://www.w3.org/1999/xlink" x="0px" y="0px"
	 viewBox="0 0 112.1 129.9" style="enable-background:new 0 0 112.1 129.9;" xml:space="preserve">
<style type="text/css">
	.st0{fill:none;stroke:#0066FF;stroke-width:0.75;stroke-miterlimit:10;}
	.st1{clip-path:url(#SVGID_2_);}
	.st2{opacity:0.3;}
	.st3{fill:#0066FF;}
	.st4{font-family:'Digital-7';}
	.st5{font-size:4.6555px;}
	.st6{fill:none;stroke:#29B99F;stroke-width:0.75;stroke-miterlimit:10;}
	
		.st7{fill-rule:evenodd;clip-rule:evenodd;fill:none;stroke:#BF549F;stroke-width:0.75;stroke-linecap:round;stroke-linejoin:round;stroke-miterlimit:10;}
	.st8{fill:none;stroke:#4068B1;stroke-width:0.75;stroke-miterlimit:10;}
	.st9{fill:none;stroke:#00C1A3;stroke-width:0.75;stroke-miterlimit:10;}
	
		.st10{fill-rule:evenodd;clip-rule:evenodd;fill:none;stroke:#FF25F3;stroke-width:0.75;stroke-linecap:round;stroke-linejoin:round;stroke-miterlimit:10;}
	.st11{fill:none;stroke:#FF25F3;stroke-width:0.75;stroke-linecap:round;stroke-linejoin:round;stroke-miterlimit:10;}
	.st12{fill:none;stroke:#0066FF;stroke-width:0.75;stroke-linejoin:round;stroke-miterlimit:10;}
	.st13{opacity:0.5;}
	.st14{fill:#FFFFFF;stroke:#0066FF;stroke-width:0.75;stroke-miterlimit:10;}
	.st15{fill-rule:evenodd;clip-rule:evenodd;fill:#FFFFFF;stroke:#0066FF;stroke-width:0.75;stroke-miterlimit:10;}
	.st16{opacity:0.3;fill:none;stroke:#0066FF;stroke-width:0.75;stroke-miterlimit:10;}
	.st17{fill:none;stroke:#0066FF;stroke-width:0.75;stroke-linecap:round;stroke-miterlimit:10;}
	.st18{fill:#FFFFFF;stroke:#0066FF;stroke-miterlimit:10;}
	.st19{opacity:0.3;fill:none;stroke:#0066FF;stroke-miterlimit:10;}
	.st20{opacity:0.5;fill:none;stroke:#0066FF;stroke-width:0.75;stroke-miterlimit:10;}
	.st21{fill:none;stroke:#0066FF;stroke-width:0.75;stroke-miterlimit:10;stroke-dasharray:1.723,1.723;}
</style>
<g>
	<defs>
		<circle id="SVGID_1_" cx="56" cy="47" r="41.7"/>
	</defs>
	<clipPath id="SVGID_2_">
		<use xlink:href="#SVGID_1_"  style="overflow:visible;"/>
	</clipPath>
	<g class="st1">
		<g class="st2">
			<text transform="matrix(1 0 0 1 11.2683 6.086)"><tspan x="0" y="0" class="st3 st4 st5">0</tspan><tspan x="0" y="5.6" class="st3 st4 st5">0</tspan><tspan x="0.7" y="11.2" class="st3 st4 st5">1</tspan><tspan x="0.7" y="16.8" class="st3 st4 st5">1</tspan><tspan x="0" y="22.3" class="st3 st4 st5">0</tspan><tspan x="0" y="27.9" class="st3 st4 st5">0</tspan><tspan x="0.7" y="33.5" class="st3 st4 st5">1</tspan><tspan x="0.7" y="39.1" class="st3 st4 st5">1</tspan></text>
			<text transform="matrix(1 0 0 1 15.1765 6.086)"><tspan x="0" y="0" class="st3 st4 st5">1</tspan><tspan x="0" y="5.6" class="st3 st4 st5">1</tspan><tspan x="-0.7" y="11.2" class="st3 st4 st5">0</tspan><tspan x="-0.7" y="16.8" class="st3 st4 st5">0</tspan><tspan x="-0.7" y="22.3" class="st3 st4 st5">0</tspan><tspan x="0" y="27.9" class="st3 st4 st5">1</tspan><tspan x="0" y="33.5" class="st3 st4 st5">1</tspan><tspan x="0" y="39.1" class="st3 st4 st5">1</tspan></text>
			<text transform="matrix(1 0 0 1 17.6447 6.086)"><tspan x="0" y="0" class="st3 st4 st5">0</tspan><tspan x="0.7" y="5.6" class="st3 st4 st5">1</tspan><tspan x="0.7" y="11.2" class="st3 st4 st5">1</tspan><tspan x="0.7" y="16.8" class="st3 st4 st5">1</tspan><tspan x="0.7" y="22.3" class="st3 st4 st5">1</tspan><tspan x="0" y="27.9" class="st3 st4 st5">0</tspan><tspan x="0.7" y="33.5" class="st3 st4 st5">1</tspan><tspan x="0" y="39.1" class="st3 st4 st5">0</tspan></text>
			<text transform="matrix(1 0 0 1 21.552 6.086)"><tspan x="0" y="0" class="st3 st4 st5">1</tspan><tspan x="-0.7" y="5.6" class="st3 st4 st5">0</tspan><tspan x="0" y="11.2" class="st3 st4 st5">1</tspan><tspan x="0" y="22.3" class="st3 st4 st5">1</tspan><tspan x="-0.7" y="27.9" class="st3 st4 st5">0</tspan><tspan x="0" y="33.5" class="st3 st4 st5">1</tspan><tspan x="0" y="39.1" class="st3 st4 st5">1</tspan></text>
			<text transform="matrix(1 0 0 1 24.0202 6.086)"><tspan x="0" y="0" class="st3 st4 st5">0</tspan><tspan x="0" y="5.6" class="st3 st4 st5">0</tspan><tspan x="0" y="33.5" class="st3 st4 st5">0</tspan><tspan x="0.7" y="39.1" class="st3 st4 st5">1</tspan></text>
			<text transform="matrix(1 0 0 1 27.9289 6.086)"><tspan x="0" y="0" class="st3 st4 st5">1</tspan><tspan x="0" y="5.6" class="st3 st4 st5">1</tspan><tspan x="-0.7" y="27.9" class="st3 st4 st5">0</tspan><tspan x="0" y="33.5" class="st3 st4 st5">1</tspan><tspan x="0" y="39.1" class="st3 st4 st5">1</tspan></text>
			<text transform="matrix(1 0 0 1 30.3972 6.087)"><tspan x="0" y="0" class="st3 st4 st5">0</tspan><tspan x="0.7" y="33.5" class="st3 st4 st5">1</tspan><tspan x="0" y="39.1" class="st3 st4 st5">0</tspan></text>
			<text transform="matrix(1 0 0 1 34.3044 6.087)"><tspan x="0" y="0" class="st3 st4 st5">1</tspan><tspan x="-0.7" y="5.6" class="st3 st4 st5">0</tspan><tspan x="0" y="22.3" class="st3 st4 st5">1</tspan><tspan x="0" y="27.9" class="st3 st4 st5">1</tspan><tspan x="0" y="33.5" class="st3 st4 st5">1</tspan><tspan x="0" y="39.1" class="st3 st4 st5">1</tspan></text>
			<text transform="matrix(1 0 0 1 36.7732 6.087)"><tspan x="0" y="0" class="st3 st4 st5">0</tspan><tspan x="0.7" y="5.6" class="st3 st4 st5">1</tspan><tspan x="0" y="22.3" class="st3 st4 st5">0</tspan><tspan x="0.7" y="27.9" class="st3 st4 st5">1</tspan><tspan x="0" y="33.5" class="st3 st4 st5">0</tspan><tspan x="0" y="39.1" class="st3 st4 st5">0</tspan></text>
			<text transform="matrix(1 0 0 1 40.6809 6.087)"><tspan x="0" y="0" class="st3 st4 st5">1</tspan><tspan x="-0.7" y="5.6" class="st3 st4 st5">0</tspan><tspan x="-0.7" y="22.3" class="st3 st4 st5">0</tspan><tspan x="-0.7" y="27.9" class="st3 st4 st5">0</tspan><tspan x="0" y="33.5" class="st3 st4 st5">1</tspan><tspan x="0" y="39.1" class="st3 st4 st5">1</tspan></text>
			<text transform="matrix(1 0 0 1 43.1491 6.087)"><tspan x="0" y="0" class="st3 st4 st5">0</tspan><tspan x="0" y="5.6" class="st3 st4 st5">0</tspan><tspan x="0" y="22.3" class="st3 st4 st5">0</tspan><tspan x="0" y="27.9" class="st3 st4 st5">0</tspan><tspan x="0.7" y="33.5" class="st3 st4 st5">1</tspan><tspan x="0.7" y="39.1" class="st3 st4 st5">1</tspan></text>
			<text transform="matrix(1 0 0 1 46.3366 6.087)"><tspan x="0" y="0" class="st3 st4 st5">0</tspan><tspan x="0.7" y="5.6" class="st3 st4 st5">1</tspan><tspan x="0" y="11.2" class="st3 st4 st5">0</tspan><tspan x="0.7" y="16.8" class="st3 st4 st5">1</tspan><tspan x="0.7" y="22.3" class="st3 st4 st5">1</tspan><tspan x="0" y="27.9" class="st3 st4 st5">0</tspan><tspan x="0" y="33.5" class="st3 st4 st5">0</tspan><tspan x="0.7" y="39.1" class="st3 st4 st5">1</tspan></text>
			<text transform="matrix(1 0 0 1 49.5251 6.087)"><tspan x="0" y="0" class="st3 st4 st5">0</tspan><tspan x="0" y="5.6" class="st3 st4 st5">0</tspan><tspan x="0.7" y="11.2" class="st3 st4 st5">1</tspan><tspan x="0.7" y="16.8" class="st3 st4 st5">1</tspan><tspan x="0.7" y="22.3" class="st3 st4 st5">1</tspan><tspan x="0.7" y="27.9" class="st3 st4 st5">1</tspan><tspan x="0" y="33.5" class="st3 st4 st5">0</tspan><tspan x="0.7" y="39.1" class="st3 st4 st5">1</tspan></text>
			<text transform="matrix(1 0 0 1 53.4328 6.087)"><tspan x="0" y="0" class="st3 st4 st5">1</tspan><tspan x="0" y="5.6" class="st3 st4 st5">1</tspan><tspan x="0" y="11.2" class="st3 st4 st5">1</tspan><tspan x="0" y="16.8" class="st3 st4 st5">1</tspan><tspan x="-0.7" y="22.3" class="st3 st4 st5">0</tspan><tspan x="-0.7" y="27.9" class="st3 st4 st5">0</tspan><tspan x="0" y="33.5" class="st3 st4 st5">1</tspan><tspan x="-0.7" y="39.1" class="st3 st4 st5">0</tspan></text>
			<text transform="matrix(1 0 0 1 55.9011 6.088)"><tspan x="0" y="0" class="st3 st4 st5">0</tspan><tspan x="0" y="5.6" class="st3 st4 st5">0</tspan><tspan x="0.7" y="11.2" class="st3 st4 st5">1</tspan><tspan x="0.7" y="16.8" class="st3 st4 st5">1</tspan><tspan x="0" y="22.3" class="st3 st4 st5">0</tspan><tspan x="0" y="27.9" class="st3 st4 st5">0</tspan><tspan x="0.7" y="33.5" class="st3 st4 st5">1</tspan><tspan x="0" y="39.1" class="st3 st4 st5">0</tspan></text>
		</g>
		<g class="st2">
			<text transform="matrix(1 0 0 1 11.2684 51.2253)"><tspan x="0" y="0" class="st3 st4 st5">0</tspan><tspan x="0" y="5.6" class="st3 st4 st5">0</tspan><tspan x="0.7" y="11.2" class="st3 st4 st5">1</tspan><tspan x="0.7" y="16.8" class="st3 st4 st5">1</tspan><tspan x="0" y="22.3" class="st3 st4 st5">0</tspan><tspan x="0" y="27.9" class="st3 st4 st5">0</tspan><tspan x="0.7" y="33.5" class="st3 st4 st5">1</tspan><tspan x="0.7" y="39.1" class="st3 st4 st5">1</tspan></text>
			<text transform="matrix(1 0 0 1 15.1766 51.2253)"><tspan x="0" y="0" class="st3 st4 st5">1</tspan><tspan x="0" y="5.6" class="st3 st4 st5">1</tspan><tspan x="-0.7" y="11.2" class="st3 st4 st5">0</tspan><tspan x="-0.7" y="16.8" class="st3 st4 st5">0</tspan><tspan x="-0.7" y="22.3" class="st3 st4 st5">0</tspan><tspan x="0" y="27.9" class="st3 st4 st5">1</tspan><tspan x="0" y="33.5" class="st3 st4 st5">1</tspan><tspan x="0" y="39.1" class="st3 st4 st5">1</tspan></text>
			<text transform="matrix(1 0 0 1 17.6449 51.2253)"><tspan x="0" y="0" class="st3 st4 st5">0</tspan><tspan x="0.7" y="5.6" class="st3 st4 st5">1</tspan><tspan x="0.7" y="22.3" class="st3 st4 st5">1</tspan><tspan x="0" y="27.9" class="st3 st4 st5">0</tspan><tspan x="0.7" y="33.5" class="st3 st4 st5">1</tspan><tspan x="0" y="39.1" class="st3 st4 st5">0</tspan></text>
			<text transform="matrix(1 0 0 1 21.5521 51.2253)"><tspan x="0" y="0" class="st3 st4 st5">1</tspan><tspan x="-0.7" y="5.6" class="st3 st4 st5">0</tspan><tspan x="0" y="11.2" class="st3 st4 st5">1</tspan><tspan x="0" y="22.3" class="st3 st4 st5">1</tspan><tspan x="-0.7" y="27.9" class="st3 st4 st5">0</tspan><tspan x="0" y="33.5" class="st3 st4 st5">1</tspan><tspan x="0" y="39.1" class="st3 st4 st5">1</tspan></text>
			<text transform="matrix(1 0 0 1 24.0204 51.2253)"><tspan x="0" y="0" class="st3 st4 st5">0</tspan><tspan x="0" y="5.6" class="st3 st4 st5">0</tspan><tspan x="0" y="11.2" class="st3 st4 st5">0</tspan><tspan x="0.7" y="27.9" class="st3 st4 st5">1</tspan><tspan x="0" y="33.5" class="st3 st4 st5">0</tspan><tspan x="0.7" y="39.1" class="st3 st4 st5">1</tspan></text>
			<text transform="matrix(1 0 0 1 27.9291 51.2253)"><tspan x="0" y="0" class="st3 st4 st5">1</tspan><tspan x="0" y="5.6" class="st3 st4 st5">1</tspan><tspan x="-0.7" y="27.9" class="st3 st4 st5">0</tspan><tspan x="0" y="33.5" class="st3 st4 st5">1</tspan><tspan x="0" y="39.1" class="st3 st4 st5">1</tspan></text>
			<text transform="matrix(1 0 0 1 30.3973 51.2262)"><tspan x="0" y="0" class="st3 st4 st5">0</tspan><tspan x="0.7" y="5.6" class="st3 st4 st5">1</tspan><tspan x="0.7" y="11.2" class="st3 st4 st5">1</tspan><tspan x="0.7" y="16.8" class="st3 st4 st5">1</tspan><tspan x="0.7" y="22.3" class="st3 st4 st5">1</tspan><tspan x="0" y="27.9" class="st3 st4 st5">0</tspan><tspan x="0.7" y="33.5" class="st3 st4 st5">1</tspan><tspan x="0" y="39.1" class="st3 st4 st5">0</tspan></text>
			<text transform="matrix(1 0 0 1 34.3045 51.2262)"><tspan x="0" y="0" class="st3 st4 st5">1</tspan><tspan x="-0.7" y="5.6" class="st3 st4 st5">0</tspan><tspan x="-0.7" y="11.2" class="st3 st4 st5">0</tspan><tspan x="-0.7" y="16.8" class="st3 st4 st5">0</tspan><tspan x="0" y="22.3" class="st3 st4 st5">1</tspan><tspan x="0" y="27.9" class="st3 st4 st5">1</tspan><tspan x="0" y="33.5" class="st3 st4 st5">1</tspan><tspan x="0" y="39.1" class="st3 st4 st5">1</tspan></text>
			<text transform="matrix(1 0 0 1 36.7733 51.2262)"><tspan x="0" y="0" class="st3 st4 st5">0</tspan><tspan x="0.7" y="5.6" class="st3 st4 st5">1</tspan><tspan x="0.7" y="11.2" class="st3 st4 st5">1</tspan><tspan x="0" y="16.8" class="st3 st4 st5">0</tspan><tspan x="0" y="22.3" class="st3 st4 st5">0</tspan><tspan x="0.7" y="27.9" class="st3 st4 st5">1</tspan><tspan x="0" y="33.5" class="st3 st4 st5">0</tspan><tspan x="0" y="39.1" class="st3 st4 st5">0</tspan></text>
			<text transform="matrix(1 0 0 1 40.681 51.2262)"><tspan x="0" y="0" class="st3 st4 st5">1</tspan><tspan x="-0.7" y="5.6" class="st3 st4 st5">0</tspan><tspan x="0" y="11.2" class="st3 st4 st5">1</tspan><tspan x="0" y="16.8" class="st3 st4 st5">1</tspan><tspan x="-0.7" y="22.3" class="st3 st4 st5">0</tspan><tspan x="-0.7" y="27.9" class="st3 st4 st5">0</tspan><tspan x="0" y="33.5" class="st3 st4 st5">1</tspan><tspan x="0" y="39.1" class="st3 st4 st5">1</tspan></text>
			<text transform="matrix(1 0 0 1 43.1493 51.2262)"><tspan x="0" y="0" class="st3 st4 st5">0</tspan><tspan x="0" y="5.6" class="st3 st4 st5">0</tspan><tspan x="0.7" y="11.2" class="st3 st4 st5">1</tspan><tspan x="0.7" y="16.8" class="st3 st4 st5">1</tspan><tspan x="0" y="22.3" class="st3 st4 st5">0</tspan><tspan x="0" y="27.9" class="st3 st4 st5">0</tspan><tspan x="0.7" y="33.5" class="st3 st4 st5">1</tspan><tspan x="0.7" y="39.1" class="st3 st4 st5">1</tspan></text>
			<text transform="matrix(1 0 0 1 46.3368 51.2262)"><tspan x="0" y="0" class="st3 st4 st5">0</tspan><tspan x="0.7" y="5.6" class="st3 st4 st5">1</tspan><tspan x="0" y="11.2" class="st3 st4 st5">0</tspan><tspan x="0.7" y="16.8" class="st3 st4 st5">1</tspan><tspan x="0.7" y="22.3" class="st3 st4 st5">1</tspan><tspan x="0" y="27.9" class="st3 st4 st5">0</tspan></text>
			<text transform="matrix(1 0 0 1 49.5252 51.2262)"><tspan x="0" y="0" class="st3 st4 st5">0</tspan><tspan x="0" y="5.6" class="st3 st4 st5">0</tspan><tspan x="0.7" y="11.2" class="st3 st4 st5">1</tspan><tspan x="0.7" y="16.8" class="st3 st4 st5">1</tspan><tspan x="0.7" y="22.3" class="st3 st4 st5">1</tspan><tspan x="0.7" y="27.9" class="st3 st4 st5">1</tspan><tspan x="0" y="33.5" class="st3 st4 st5">0</tspan><tspan x="0.7" y="39.1" class="st3 st4 st5">1</tspan></text>
			<text transform="matrix(1 0 0 1 53.433 51.2262)"><tspan x="0" y="0" class="st3 st4 st5">1</tspan><tspan x="0" y="5.6" class="st3 st4 st5">1</tspan><tspan x="0" y="11.2" class="st3 st4 st5">1</tspan><tspan x="0" y="16.8" class="st3 st4 st5">1</tspan><tspan x="-0.7" y="22.3" class="st3 st4 st5">0</tspan><tspan x="-0.7" y="27.9" class="st3 st4 st5">0</tspan><tspan x="0" y="33.5" class="st3 st4 st5">1</tspan><tspan x="-0.7" y="39.1" class="st3 st4 st5">0</tspan></text>
			<text transform="matrix(1 0 0 1 55.9012 51.2272)"><tspan x="0" y="0" class="st3 st4 st5">0</tspan><tspan x="0" y="5.6" class="st3 st4 st5">0</tspan><tspan x="0.7" y="11.2" class="st3 st4 st5">1</tspan><tspan x="0.7" y="16.8" class="st3 st4 st5">1</tspan><tspan x="0" y="22.3" class="st3 st4 st5">0</tspan><tspan x="0" y="27.9" class="st3 st4 st5">0</tspan><tspan x="0.7" y="33.5" class="st3 st4 st5">1</tspan><tspan x="0" y="39.1" class="st3 st4 st5">0</tspan></text>
		</g>
	</g>
	<g class="st1">
		<g class="st2">
			<text transform="matrix(1 0 0 1 59.1776 6.1095)"><tspan x="0" y="0" class="st3 st4 st5">0</tspan><tspan x="0" y="5.6" class="st3 st4 st5">0</tspan><tspan x="0.7" y="11.2" class="st3 st4 st5">1</tspan><tspan x="0.7" y="16.8" class="st3 st4 st5">1</tspan><tspan x="0" y="22.3" class="st3 st4 st5">0</tspan><tspan x="0" y="27.9" class="st3 st4 st5">0</tspan><tspan x="0.7" y="33.5" class="st3 st4 st5">1</tspan><tspan x="0.7" y="39.1" class="st3 st4 st5">1</tspan></text>
			<text transform="matrix(1 0 0 1 63.0858 6.1095)"><tspan x="0" y="0" class="st3 st4 st5">1</tspan><tspan x="0" y="5.6" class="st3 st4 st5">1</tspan><tspan x="-0.7" y="11.2" class="st3 st4 st5">0</tspan><tspan x="-0.7" y="16.8" class="st3 st4 st5">0</tspan><tspan x="-0.7" y="22.3" class="st3 st4 st5">0</tspan><tspan x="0" y="27.9" class="st3 st4 st5">1</tspan><tspan x="0" y="33.5" class="st3 st4 st5">1</tspan><tspan x="0" y="39.1" class="st3 st4 st5">1</tspan></text>
			<text transform="matrix(1 0 0 1 65.5541 6.1095)"><tspan x="0" y="0" class="st3 st4 st5">0</tspan><tspan x="0.7" y="5.6" class="st3 st4 st5">1</tspan><tspan x="0.7" y="11.2" class="st3 st4 st5">1</tspan><tspan x="0.7" y="16.8" class="st3 st4 st5">1</tspan><tspan x="0.7" y="22.3" class="st3 st4 st5">1</tspan><tspan x="0" y="27.9" class="st3 st4 st5">0</tspan><tspan x="0.7" y="33.5" class="st3 st4 st5">1</tspan><tspan x="0" y="39.1" class="st3 st4 st5">0</tspan></text>
			<text transform="matrix(1 0 0 1 69.4613 6.1095)"><tspan x="0" y="0" class="st3 st4 st5">1</tspan><tspan x="-0.7" y="5.6" class="st3 st4 st5">0</tspan><tspan x="0" y="11.2" class="st3 st4 st5">1</tspan><tspan x="-0.7" y="16.8" class="st3 st4 st5">0</tspan><tspan x="0" y="22.3" class="st3 st4 st5">1</tspan><tspan x="-0.7" y="27.9" class="st3 st4 st5">0</tspan><tspan x="0" y="33.5" class="st3 st4 st5">1</tspan><tspan x="0" y="39.1" class="st3 st4 st5">1</tspan></text>
			<text transform="matrix(1 0 0 1 71.9296 6.1095)"><tspan x="0" y="0" class="st3 st4 st5">0</tspan><tspan x="0" y="5.6" class="st3 st4 st5">0</tspan><tspan x="0" y="11.2" class="st3 st4 st5">0</tspan><tspan x="0" y="16.8" class="st3 st4 st5">0</tspan><tspan x="0" y="22.3" class="st3 st4 st5">0</tspan><tspan x="0.7" y="27.9" class="st3 st4 st5">1</tspan><tspan x="0" y="33.5" class="st3 st4 st5">0</tspan><tspan x="0.7" y="39.1" class="st3 st4 st5">1</tspan></text>
			<text transform="matrix(1 0 0 1 75.8383 6.1095)"><tspan x="0" y="0" class="st3 st4 st5">1</tspan><tspan x="0" y="5.6" class="st3 st4 st5">1</tspan><tspan x="0" y="16.8" class="st3 st4 st5">1</tspan><tspan x="-0.7" y="22.3" class="st3 st4 st5">0</tspan><tspan x="-0.7" y="27.9" class="st3 st4 st5">0</tspan><tspan x="0" y="33.5" class="st3 st4 st5">1</tspan><tspan x="0" y="39.1" class="st3 st4 st5">1</tspan></text>
			<text transform="matrix(1 0 0 1 78.3065 6.1105)"><tspan x="0" y="0" class="st3 st4 st5">0</tspan><tspan x="0.7" y="5.6" class="st3 st4 st5">1</tspan><tspan x="0.7" y="22.3" class="st3 st4 st5">1</tspan><tspan x="0" y="27.9" class="st3 st4 st5">0</tspan><tspan x="0.7" y="33.5" class="st3 st4 st5">1</tspan><tspan x="0" y="39.1" class="st3 st4 st5">0</tspan></text>
			<text transform="matrix(1 0 0 1 82.2138 6.1105)"><tspan x="0" y="0" class="st3 st4 st5">1</tspan><tspan x="-0.7" y="5.6" class="st3 st4 st5">0</tspan><tspan x="0" y="27.9" class="st3 st4 st5">1</tspan><tspan x="0" y="33.5" class="st3 st4 st5">1</tspan><tspan x="0" y="39.1" class="st3 st4 st5">1</tspan></text>
			<text transform="matrix(1 0 0 1 84.6825 6.1105)"><tspan x="0" y="0" class="st3 st4 st5">0</tspan><tspan x="0.7" y="5.6" class="st3 st4 st5">1</tspan><tspan x="0.7" y="27.9" class="st3 st4 st5">1</tspan><tspan x="0" y="33.5" class="st3 st4 st5">0</tspan><tspan x="0" y="39.1" class="st3 st4 st5">0</tspan></text>
			<text transform="matrix(1 0 0 1 88.5902 6.1105)"><tspan x="0" y="0" class="st3 st4 st5">1</tspan><tspan x="-0.7" y="5.6" class="st3 st4 st5">0</tspan><tspan x="-0.7" y="27.9" class="st3 st4 st5">0</tspan><tspan x="0" y="33.5" class="st3 st4 st5">1</tspan><tspan x="0" y="39.1" class="st3 st4 st5">1</tspan></text>
			<text transform="matrix(1 0 0 1 91.0585 6.1105)"><tspan x="0" y="0" class="st3 st4 st5">0</tspan><tspan x="0" y="5.6" class="st3 st4 st5">0</tspan><tspan x="0.7" y="16.8" class="st3 st4 st5">1</tspan><tspan x="0" y="27.9" class="st3 st4 st5">0</tspan><tspan x="0.7" y="33.5" class="st3 st4 st5">1</tspan><tspan x="0.7" y="39.1" class="st3 st4 st5">1</tspan></text>
			<text transform="matrix(1 0 0 1 94.246 6.1105)"><tspan x="0" y="0" class="st3 st4 st5">0</tspan><tspan x="0.7" y="5.6" class="st3 st4 st5">1</tspan><tspan x="0" y="11.2" class="st3 st4 st5">0</tspan><tspan x="0.7" y="22.3" class="st3 st4 st5">1</tspan><tspan x="0" y="27.9" class="st3 st4 st5">0</tspan><tspan x="0" y="33.5" class="st3 st4 st5">0</tspan><tspan x="0.7" y="39.1" class="st3 st4 st5">1</tspan></text>
			<text transform="matrix(1 0 0 1 97.4345 6.1105)"><tspan x="0" y="0" class="st3 st4 st5">0</tspan><tspan x="0" y="5.6" class="st3 st4 st5">0</tspan><tspan x="0.7" y="11.2" class="st3 st4 st5">1</tspan><tspan x="0.7" y="16.8" class="st3 st4 st5">1</tspan><tspan x="0.7" y="22.3" class="st3 st4 st5">1</tspan><tspan x="0.7" y="27.9" class="st3 st4 st5">1</tspan><tspan x="0" y="33.5" class="st3 st4 st5">0</tspan><tspan x="0.7" y="39.1" class="st3 st4 st5">1</tspan></text>
			<text transform="matrix(1 0 0 1 101.3422 6.1105)"><tspan x="0" y="0" class="st3 st4 st5">1</tspan><tspan x="0" y="5.6" class="st3 st4 st5">1</tspan><tspan x="0" y="11.2" class="st3 st4 st5">1</tspan><tspan x="0" y="16.8" class="st3 st4 st5">1</tspan><tspan x="-0.7" y="22.3" class="st3 st4 st5">0</tspan><tspan x="-0.7" y="27.9" class="st3 st4 st5">0</tspan><tspan x="0" y="33.5" class="st3 st4 st5">1</tspan><tspan x="-0.7" y="39.1" class="st3 st4 st5">0</tspan></text>
			<text transform="matrix(1 0 0 1 103.8104 6.1114)"><tspan x="0" y="0" class="st3 st4 st5">0</tspan><tspan x="0" y="5.6" class="st3 st4 st5">0</tspan><tspan x="0.7" y="11.2" class="st3 st4 st5">1</tspan><tspan x="0.7" y="16.8" class="st3 st4 st5">1</tspan><tspan x="0" y="22.3" class="st3 st4 st5">0</tspan><tspan x="0" y="27.9" class="st3 st4 st5">0</tspan><tspan x="0.7" y="33.5" class="st3 st4 st5">1</tspan><tspan x="0" y="39.1" class="st3 st4 st5">0</tspan></text>
		</g>
		<g class="st2">
			<text transform="matrix(1 0 0 1 59.1778 51.2487)"><tspan x="0" y="0" class="st3 st4 st5">0</tspan><tspan x="0" y="5.6" class="st3 st4 st5">0</tspan><tspan x="0.7" y="11.2" class="st3 st4 st5">1</tspan><tspan x="0.7" y="16.8" class="st3 st4 st5">1</tspan><tspan x="0" y="22.3" class="st3 st4 st5">0</tspan><tspan x="0" y="27.9" class="st3 st4 st5">0</tspan><tspan x="0.7" y="33.5" class="st3 st4 st5">1</tspan><tspan x="0.7" y="39.1" class="st3 st4 st5">1</tspan></text>
			<text transform="matrix(1 0 0 1 63.086 51.2487)"><tspan x="0" y="0" class="st3 st4 st5">1</tspan><tspan x="0" y="5.6" class="st3 st4 st5">1</tspan><tspan x="-0.7" y="11.2" class="st3 st4 st5">0</tspan><tspan x="-0.7" y="16.8" class="st3 st4 st5">0</tspan><tspan x="-0.7" y="22.3" class="st3 st4 st5">0</tspan><tspan x="0" y="27.9" class="st3 st4 st5">1</tspan><tspan x="0" y="33.5" class="st3 st4 st5">1</tspan><tspan x="0" y="39.1" class="st3 st4 st5">1</tspan></text>
			<text transform="matrix(1 0 0 1 65.5542 51.2487)"><tspan x="0" y="0" class="st3 st4 st5">0</tspan><tspan x="0.7" y="5.6" class="st3 st4 st5">1</tspan><tspan x="0.7" y="11.2" class="st3 st4 st5">1</tspan><tspan x="0.7" y="16.8" class="st3 st4 st5">1</tspan><tspan x="0.7" y="22.3" class="st3 st4 st5">1</tspan><tspan x="0" y="27.9" class="st3 st4 st5">0</tspan><tspan x="0.7" y="33.5" class="st3 st4 st5">1</tspan><tspan x="0" y="39.1" class="st3 st4 st5">0</tspan></text>
			<text transform="matrix(1 0 0 1 69.4615 51.2487)"><tspan x="0" y="0" class="st3 st4 st5">1</tspan><tspan x="-0.7" y="5.6" class="st3 st4 st5">0</tspan><tspan x="0" y="11.2" class="st3 st4 st5">1</tspan><tspan x="-0.7" y="16.8" class="st3 st4 st5">0</tspan><tspan x="0" y="22.3" class="st3 st4 st5">1</tspan><tspan x="-0.7" y="27.9" class="st3 st4 st5">0</tspan><tspan x="0" y="33.5" class="st3 st4 st5">1</tspan><tspan x="0" y="39.1" class="st3 st4 st5">1</tspan></text>
			<text transform="matrix(1 0 0 1 71.9297 51.2487)"><tspan x="0" y="0" class="st3 st4 st5">0</tspan><tspan x="0" y="5.6" class="st3 st4 st5">0</tspan><tspan x="0" y="11.2" class="st3 st4 st5">0</tspan><tspan x="0" y="16.8" class="st3 st4 st5">0</tspan><tspan x="0" y="22.3" class="st3 st4 st5">0</tspan><tspan x="0.7" y="27.9" class="st3 st4 st5">1</tspan><tspan x="0" y="33.5" class="st3 st4 st5">0</tspan><tspan x="0.7" y="39.1" class="st3 st4 st5">1</tspan></text>
			<text transform="matrix(1 0 0 1 75.8384 51.2487)"><tspan x="0" y="0" class="st3 st4 st5">1</tspan><tspan x="0" y="5.6" class="st3 st4 st5">1</tspan><tspan x="0" y="11.2" class="st3 st4 st5">1</tspan><tspan x="0" y="16.8" class="st3 st4 st5">1</tspan><tspan x="-0.7" y="22.3" class="st3 st4 st5">0</tspan><tspan x="-0.7" y="27.9" class="st3 st4 st5">0</tspan><tspan x="0" y="39.1" class="st3 st4 st5">1</tspan></text>
			<text transform="matrix(1 0 0 1 78.3067 51.2497)"><tspan x="0" y="0" class="st3 st4 st5">0</tspan><tspan x="0.7" y="22.3" class="st3 st4 st5">1</tspan><tspan x="0" y="27.9" class="st3 st4 st5">0</tspan><tspan x="0.7" y="33.5" class="st3 st4 st5">1</tspan><tspan x="0" y="39.1" class="st3 st4 st5">0</tspan></text>
			<text transform="matrix(1 0 0 1 82.2139 51.2497)"><tspan x="0" y="0" class="st3 st4 st5">1</tspan><tspan x="0" y="22.3" class="st3 st4 st5">1</tspan><tspan x="0" y="27.9" class="st3 st4 st5">1</tspan><tspan x="0" y="33.5" class="st3 st4 st5">1</tspan><tspan x="0" y="39.1" class="st3 st4 st5">1</tspan></text>
			<text transform="matrix(1 0 0 1 84.6826 51.2497)"><tspan x="0" y="0" class="st3 st4 st5">0</tspan><tspan x="0" y="22.3" class="st3 st4 st5">0</tspan><tspan x="0.7" y="27.9" class="st3 st4 st5">1</tspan><tspan x="0" y="33.5" class="st3 st4 st5">0</tspan><tspan x="0" y="39.1" class="st3 st4 st5">0</tspan></text>
			<text transform="matrix(1 0 0 1 88.5904 51.2497)"><tspan x="0" y="0" class="st3 st4 st5">1</tspan><tspan x="-0.7" y="22.3" class="st3 st4 st5">0</tspan><tspan x="-0.7" y="27.9" class="st3 st4 st5">0</tspan><tspan x="0" y="33.5" class="st3 st4 st5">1</tspan><tspan x="0" y="39.1" class="st3 st4 st5">1</tspan></text>
			<text transform="matrix(1 0 0 1 91.0586 51.2497)"><tspan x="0" y="0" class="st3 st4 st5">0</tspan><tspan x="0" y="22.3" class="st3 st4 st5">0</tspan><tspan x="0" y="27.9" class="st3 st4 st5">0</tspan><tspan x="0.7" y="33.5" class="st3 st4 st5">1</tspan><tspan x="0.7" y="39.1" class="st3 st4 st5">1</tspan></text>
			<text transform="matrix(1 0 0 1 94.2461 51.2497)"><tspan x="0" y="0" class="st3 st4 st5">0</tspan><tspan x="0.7" y="16.8" class="st3 st4 st5">1</tspan><tspan x="0.7" y="22.3" class="st3 st4 st5">1</tspan><tspan x="0" y="27.9" class="st3 st4 st5">0</tspan><tspan x="0" y="33.5" class="st3 st4 st5">0</tspan><tspan x="0.7" y="39.1" class="st3 st4 st5">1</tspan></text>
			<text transform="matrix(1 0 0 1 97.4346 51.2497)"><tspan x="0" y="0" class="st3 st4 st5">0</tspan><tspan x="0" y="5.6" class="st3 st4 st5">0</tspan><tspan x="0.7" y="11.2" class="st3 st4 st5">1</tspan><tspan x="0.7" y="16.8" class="st3 st4 st5">1</tspan><tspan x="0.7" y="22.3" class="st3 st4 st5">1</tspan><tspan x="0.7" y="27.9" class="st3 st4 st5">1</tspan><tspan x="0" y="33.5" class="st3 st4 st5">0</tspan><tspan x="0.7" y="39.1" class="st3 st4 st5">1</tspan></text>
			<text transform="matrix(1 0 0 1 101.3423 51.2497)"><tspan x="0" y="0" class="st3 st4 st5">1</tspan><tspan x="0" y="5.6" class="st3 st4 st5">1</tspan><tspan x="0" y="11.2" class="st3 st4 st5">1</tspan><tspan x="0" y="16.8" class="st3 st4 st5">1</tspan><tspan x="-0.7" y="22.3" class="st3 st4 st5">0</tspan><tspan x="-0.7" y="27.9" class="st3 st4 st5">0</tspan><tspan x="0" y="33.5" class="st3 st4 st5">1</tspan><tspan x="-0.7" y="39.1" class="st3 st4 st5">0</tspan></text>
			<text transform="matrix(1 0 0 1 103.8106 51.2506)"><tspan x="0" y="0" class="st3 st4 st5">0</tspan><tspan x="0" y="5.6" class="st3 st4 st5">0</tspan><tspan x="0.7" y="11.2" class="st3 st4 st5">1</tspan><tspan x="0.7" y="16.8" class="st3 st4 st5">1</tspan><tspan x="0" y="22.3" class="st3 st4 st5">0</tspan><tspan x="0" y="27.9" class="st3 st4 st5">0</tspan><tspan x="0.7" y="33.5" class="st3 st4 st5">1</tspan><tspan x="0" y="39.1" class="st3 st4 st5">0</tspan></text>
		</g>
	</g>
</g>
<g>
	<g>
		<ellipse class="st0" cx="11.5" cy="82.6" rx="1.5" ry="5.5"/>
		<line class="st0" x1="11.6" y1="88" x2="11.6" y2="105.2"/>
		<path class="st0" d="M11.5,103.2c0,0-0.1-0.2-0.2-0.7c-0.6-2-2.2-7.8-2.7-8.7c-0.5-1.1-6.3-2.1-6.3-2.1s3.8,2,4.6,2.7
			c0.8,0.7,4.7,9.5,4.7,9.5"/>
		<path class="st0" d="M11.6,100.3c0,0,0-0.2,0.1-0.7c0.3-2,1.3-7.8,1.6-8.7c0.3-1.1,3.8-2.1,3.8-2.1s-2.3,2-2.7,2.7
			c-0.5,0.7-2.8,9.5-2.8,9.5"/>
	</g>
	<g>
		<ellipse class="st11" cx="33.1" cy="84.5" rx="1.3" ry="5"/>
		<line class="st11" x1="33.1" y1="89.4" x2="33.1" y2="105"/>
		<path class="st11" d="M33.1,103.2c0,0,0.1-0.2,0.2-0.6c0.5-1.8,2-7.1,2.4-7.9c0.5-1,5.7-1.9,5.7-1.9s-3.4,1.8-4.1,2.4
			s-4.2,8.6-4.2,8.6"/>
		<path class="st11" d="M33,100.6c0,0,0-0.2-0.1-0.6c-0.3-1.8-1.2-7.1-1.5-7.9c-0.3-1-3.4-1.9-3.4-1.9s2.1,1.8,2.5,2.4
			c0.4,0.6,2.5,8.6,2.5,8.6"/>
	</g>
	<g>
		<ellipse class="st0" cx="46.8" cy="87" rx="1.5" ry="5.5"/>
		<line class="st0" x1="46.9" y1="92.4" x2="46.9" y2="109.6"/>
		<path class="st0" d="M46.8,107.6c0,0-0.1-0.2-0.2-0.7c-0.6-2-2.2-7.8-2.7-8.7c-0.5-1.1-6.3-2.1-6.3-2.1s3.8,2,4.6,2.7
			c0.8,0.7,4.7,9.5,4.7,9.5"/>
		<path class="st0" d="M47,104.7c0,0,0-0.2,0.1-0.7c0.3-2,1.3-7.8,1.6-8.7c0.3-1.1,3.8-2.1,3.8-2.1s-2.3,2-2.7,2.7
			c-0.5,0.7-2.8,9.5-2.8,9.5"/>
	</g>
	<g>
		<ellipse class="st0" cx="58.9" cy="82.9" rx="1.5" ry="5.5"/>
		<line class="st0" x1="58.8" y1="88.3" x2="58.8" y2="105.5"/>
		<path class="st0" d="M58.9,103.5c0,0,0.1-0.2,0.2-0.7c0.6-2,2.2-7.8,2.7-8.7C62.3,93.1,68,92,68,92s-3.8,2-4.6,2.7
			c-0.8,0.7-4.7,9.5-4.7,9.5"/>
		<path class="st0" d="M58.7,100.6c0,0,0-0.2-0.1-0.7c-0.3-2-1.3-7.8-1.6-8.7c-0.3-1.1-3.8-2.1-3.8-2.1s2.3,2,2.7,2.7
			c0.5,0.7,2.8,9.5,2.8,9.5"/>
	</g>
	<g>
		<ellipse class="st0" cx="76.2" cy="84.4" rx="1.5" ry="5.5"/>
		<line class="st0" x1="76.3" y1="89.8" x2="76.3" y2="107"/>
		<path class="st0" d="M76.2,105.1c0,0-0.1-0.2-0.2-0.7c-0.6-2-2.2-7.8-2.7-8.7c-0.5-1.1-6.3-2.1-6.3-2.1s3.8,2,4.6,2.7
			c0.8,0.7,4.7,9.5,4.7,9.5"/>
		<path class="st0" d="M76.3,102.1c0,0,0-0.2,0.1-0.7c0.3-2,1.3-7.8,1.6-8.7c0.3-1.1,3.8-2.1,3.8-2.1s-2.3,2-2.7,2.7
			c-0.5,0.7-2.8,9.5-2.8,9.5"/>
	</g>
	<g>
		<ellipse class="st0" cx="23.6" cy="86" rx="1.5" ry="5.5"/>
		<line class="st0" x1="23.7" y1="91.4" x2="23.7" y2="108.6"/>
		<path class="st0" d="M23.6,106.7c0,0-0.1-0.2-0.2-0.7c-0.6-2-2.2-7.8-2.7-8.7c-0.5-1.1-6.3-2.1-6.3-2.1s3.8,2,4.6,2.7
			c0.8,0.7,4.7,9.5,4.7,9.5"/>
		<path class="st0" d="M23.7,103.7c0,0,0-0.2,0.1-0.7c0.3-2,1.3-7.8,1.6-8.7c0.3-1.1,3.8-2.1,3.8-2.1s-2.3,2-2.7,2.7
			c-0.5,0.7-2.8,9.5-2.8,9.5"/>
	</g>
</g>
<g>
	<g>
		<ellipse class="st0" cx="90.9" cy="83.3" rx="1.5" ry="5.5"/>
		<line class="st0" x1="91" y1="88.7" x2="91" y2="105.9"/>
		<path class="st0" d="M90.9,104c0,0-0.1-0.2-0.2-0.7c-0.6-2-2.2-7.8-2.7-8.7c-0.5-1.1-6.3-2.1-6.3-2.1s3.8,2,4.6,2.7
			c0.8,0.7,4.7,9.5,4.7,9.5"/>
		<path class="st0" d="M91.1,101c0,0,0-0.2,0.1-0.7c0.3-2,1.3-7.8,1.6-8.7c0.3-1.1,3.8-2.1,3.8-2.1s-2.3,2-2.7,2.7s-2.8,9.5-2.8,9.5
			"/>
	</g>
	<g>
		<ellipse class="st9" cx="66.5" cy="99.1" rx="1.3" ry="5"/>
		<line class="st9" x1="66.4" y1="104" x2="66.4" y2="119.6"/>
		<path class="st9" d="M66.5,117.8c0,0,0.1-0.2,0.2-0.6c0.5-1.8,2-7.1,2.4-7.9c0.5-1,5.7-1.9,5.7-1.9s-3.4,1.8-4.1,2.4
			c-0.7,0.6-4.2,8.6-4.2,8.6"/>
		<path class="st9" d="M66.4,115.2c0,0,0-0.2-0.1-0.6c-0.3-1.8-1.2-7.1-1.5-7.9c-0.3-1-3.4-1.9-3.4-1.9s2.1,1.8,2.5,2.4
			c0.4,0.6,2.5,8.6,2.5,8.6"/>
	</g>
	<g>
		<ellipse class="st0" cx="80.2" cy="101.6" rx="1.5" ry="5.5"/>
		<line class="st0" x1="80.3" y1="107" x2="80.3" y2="124.2"/>
		<path class="st0" d="M80.2,122.2c0,0-0.1-0.2-0.2-0.7c-0.6-2-2.2-7.8-2.7-8.7c-0.5-1.1-6.3-2.1-6.3-2.1s3.8,2,4.6,2.7
			c0.8,0.7,4.7,9.5,4.7,9.5"/>
		<path class="st0" d="M80.3,119.3c0,0,0-0.2,0.1-0.7c0.3-2,1.3-7.8,1.6-8.7c0.3-1.1,3.8-2.1,3.8-2.1s-2.3,2-2.7,2.7
			c-0.5,0.7-2.8,9.5-2.8,9.5"/>
	</g>
	<g>
		<ellipse class="st0" cx="94.2" cy="100.5" rx="1.5" ry="5.5"/>
		<line class="st0" x1="94.1" y1="105.9" x2="94.1" y2="123.1"/>
		<path class="st0" d="M94.2,121.1c0,0,0.1-0.2,0.2-0.7c0.6-2,2.2-7.8,2.7-8.7c0.5-1.1,6.3-2.1,6.3-2.1s-3.8,2-4.6,2.7
			c-0.8,0.7-4.7,9.5-4.7,9.5"/>
		<path class="st0" d="M94.1,118.2c0,0,0-0.2-0.1-0.7c-0.3-2-1.3-7.8-1.6-8.7c-0.3-1.1-3.8-2.1-3.8-2.1s2.3,2,2.7,2.7
			c0.5,0.7,2.8,9.5,2.8,9.5"/>
	</g>
	<g>
		<ellipse class="st0" cx="106.5" cy="100" rx="1.5" ry="5.5"/>
		<line class="st0" x1="106.6" y1="105.4" x2="106.6" y2="122.6"/>
		<path class="st0" d="M106.5,120.7c0,0-0.1-0.2-0.2-0.7c-0.6-2-2.2-7.8-2.7-8.7c-0.5-1.1-6.3-2.1-6.3-2.1s3.8,2,4.6,2.7
			c0.8,0.7,4.7,9.5,4.7,9.5"/>
		<path class="st0" d="M106.7,117.7c0,0,0-0.2,0.1-0.7c0.3-2,1.3-7.8,1.6-8.7c0.3-1.1,3.8-2.1,3.8-2.1s-2.3,2-2.7,2.7
			s-2.8,9.5-2.8,9.5"/>
	</g>
	<g>
		<ellipse class="st0" cx="7.9" cy="101.4" rx="1.3" ry="5"/>
		<line class="st0" x1="7.8" y1="106.3" x2="7.8" y2="121.9"/>
		<path class="st0" d="M7.9,120.1c0,0,0.1-0.2,0.2-0.6c0.5-1.8,2-7.1,2.4-7.9c0.5-1,5.7-1.9,5.7-1.9s-3.4,1.8-4.1,2.4
			c-0.7,0.6-4.2,8.6-4.2,8.6"/>
		<path class="st0" d="M7.8,117.5c0,0,0-0.2-0.1-0.6c-0.3-1.8-1.2-7.1-1.5-7.9c-0.3-1-3.4-1.9-3.4-1.9s2.1,1.8,2.5,2.4
			s2.5,8.6,2.5,8.6"/>
	</g>
	<g>
		<ellipse class="st0" cx="26.6" cy="102.9" rx="1.5" ry="5.5"/>
		<line class="st0" x1="26.7" y1="108.3" x2="26.7" y2="125.5"/>
		<path class="st0" d="M26.6,123.5c0,0-0.1-0.2-0.2-0.7c-0.6-2-2.2-7.8-2.7-8.7c-0.5-1.1-6.3-2.1-6.3-2.1s3.8,2,4.6,2.7
			c0.8,0.7,4.7,9.5,4.7,9.5"/>
		<path class="st0" d="M26.8,120.6c0,0,0-0.2,0.1-0.7c0.3-2,1.3-7.8,1.6-8.7c0.3-1.1,3.8-2.1,3.8-2.1s-2.3,2-2.7,2.7
			c-0.5,0.7-2.8,9.5-2.8,9.5"/>
	</g>
	<g>
		<ellipse class="st0" cx="36.7" cy="101.8" rx="1.5" ry="5.5"/>
		<line class="st0" x1="36.6" y1="107.2" x2="36.6" y2="124.4"/>
		<path class="st0" d="M36.7,122.4c0,0,0.1-0.2,0.2-0.7c0.6-2,2.2-7.8,2.7-8.7c0.5-1.1,6.3-2.1,6.3-2.1s-3.8,2-4.6,2.7
			c-0.8,0.7-4.7,9.5-4.7,9.5"/>
		<path class="st0" d="M36.5,119.5c0,0,0-0.2-0.1-0.7c-0.3-2-1.3-7.8-1.6-8.7c-0.3-1.1-3.8-2.1-3.8-2.1s2.3,2,2.7,2.7
			c0.5,0.7,2.8,9.5,2.8,9.5"/>
	</g>
	<g>
		<ellipse class="st0" cx="52.9" cy="100.3" rx="1.5" ry="5.5"/>
		<line class="st0" x1="53" y1="105.7" x2="53" y2="123"/>
		<path class="st0" d="M52.9,121c0,0-0.1-0.2-0.2-0.7c-0.6-2-2.2-7.8-2.7-8.7c-0.5-1.1-6.3-2.1-6.3-2.1s3.8,2,4.6,2.7
			c0.8,0.7,4.7,9.5,4.7,9.5"/>
		<path class="st0" d="M53.1,118.1c0,0,0-0.2,0.1-0.7c0.3-2,1.3-7.8,1.6-8.7c0.3-1.1,3.8-2.1,3.8-2.1s-2.3,2-2.7,2.7
			s-2.8,9.5-2.8,9.5"/>
	</g>
	<g>
		<ellipse class="st0" cx="103" cy="83.8" rx="1.5" ry="5.5"/>
		<line class="st0" x1="103.1" y1="89.2" x2="103.1" y2="106.4"/>
		<path class="st0" d="M103,104.4c0,0-0.1-0.2-0.2-0.7c-0.6-2-2.2-7.8-2.7-8.7c-0.5-1.1-6.3-2.1-6.3-2.1s3.8,2,4.6,2.7
			c0.8,0.7,4.7,9.5,4.7,9.5"/>
		<path class="st0" d="M103.2,101.5c0,0,0-0.2,0.1-0.7c0.3-2,1.3-7.8,1.6-8.7c0.3-1.1,3.8-2.1,3.8-2.1s-2.3,2-2.7,2.7
			c-0.5,0.7-2.8,9.5-2.8,9.5"/>
	</g>
</g>
<g class="st13">
	<path class="st14" d="M37.9,10.4c-1.1,0-2.2,0.3-3.2,0.7c-1.6-3-4.8-5.1-8.4-5.1c-5.1,0-9.3,4.1-9.5,9.1c-0.2,0-0.4,0-0.5,0
		c-2.7,0-5,2.2-5,5s2.2,5,5,5h21.6c4.1,0,7.4-3.3,7.4-7.4C45.3,13.7,42,10.4,37.9,10.4z"/>
	<g>
		<polygon class="st14" points="26.6,27.3 26.6,16 24.3,16 24.3,27.3 22.1,27.3 25.4,33.1 28.8,27.3 		"/>
		<polygon class="st14" points="30.6,21.8 30.6,33.1 32.8,33.1 32.8,21.8 35,21.8 31.7,16 28.3,21.8 		"/>
	</g>
</g>
<g class="st13">
	<path class="st0" d="M101,66.1c0,2.2-4.9,4-10.9,4c-6,0-10.9-1.8-10.9-4"/>
	<path class="st0" d="M101,62.1c0,2.2-4.9,4-10.9,4c-6,0-10.9-1.8-10.9-4"/>
	<path class="st0" d="M101,58.1c0,2.2-4.9,4-10.9,4c-6,0-10.9-1.8-10.9-4"/>
	<ellipse class="st0" cx="90.1" cy="54.1" rx="10.9" ry="4"/>
	<line class="st0" x1="79.1" y1="54.1" x2="79.1" y2="66.1"/>
	<line class="st0" x1="101" y1="54.1" x2="101" y2="66.1"/>
</g>
<g>
	<path class="st19" d="M39.8,7.7c5-2.1,10.5-3.3,16.3-3.3c2.9,0,5.6,0.3,8.3,0.8c2.7,0.5,5.3,1.4,7.8,2.4"/>
	<path class="st19" d="M14.6,51.9c-0.2-1.8-0.4-3.7-0.4-5.7c0-6.2,1.3-12,3.7-17.3"/>
	<path class="st19" d="M43.8,86.3c-3.5-1.1-6.7-2.5-9.7-4.4"/>
	<path class="st19" d="M56,88.1c-0.3,0-0.7,0-1,0c-1.8,0-3.5-0.2-5.3-0.5"/>
	<path class="st19" d="M72.4,84.8c-3,1.3-6.2,2.2-9.5,2.8"/>
	<path class="st19" d="M88.1,73.2c-2.1,2.5-4.4,4.7-7,6.6"/>
	<path class="st19" d="M96.3,34.9c0.4,1.3,0.7,2.6,0.9,3.9c0.4,2.4,0.7,4.9,0.7,7.5c0,0.3,0,0.5,0,0.8"/>
</g>
<g class="st13">
	
		<rect x="27.5" y="57.3" transform="matrix(-1 -9.944014e-11 9.944014e-11 -1 59.1733 131.7319)" class="st15" width="4.2" height="17.1"/>
	
		<rect x="22" y="63.8" transform="matrix(-1 -4.488777e-11 4.488777e-11 -1 48.2526 138.2061)" class="st15" width="4.2" height="10.6"/>
	
		<rect x="16.5" y="61.5" transform="matrix(-1 -3.694124e-11 3.694124e-11 -1 37.3319 135.9268)" class="st15" width="4.2" height="12.9"/>
	
		<rect x="11.1" y="68" transform="matrix(-1 -1.589319e-11 1.589319e-11 -1 26.4111 142.4523)" class="st15" width="4.2" height="6.4"/>
	<line class="st14" x1="34.2" y1="76.6" x2="8.5" y2="76.6"/>
	<polyline class="st15" points="12.7,61.3 18.2,56.5 24.1,59.8 28.8,53.2 	"/>
	<circle class="st14" cx="12.7" cy="61.3" r="1.3"/>
	<circle class="st14" cx="18.3" cy="56.5" r="1.3"/>
	<circle class="st14" cx="24.1" cy="59.8" r="1.3"/>
	<circle class="st14" cx="28.8" cy="53.2" r="1.3"/>
</g>
<g class="st13">
	<path class="st3" d="M75.3,15.9C75.3,15.9,75.3,15.9,75.3,15.9C75.3,15.9,75.3,15.9,75.3,15.9C75.3,16,75.3,16,75.3,15.9
		c0,0.1,0.1,0.1,0.1,0.1c0,0,0,0,0,0l6,6.8v7c0,0.1,0.1,0.3,0.2,0.3c0.1,0.1,0.3,0,0.4,0l3.6-2.7c0.1-0.1,0.1-0.2,0.1-0.3v-0.3
		c0.2,0.2,0.4,0.4,0.7,0.6l0,1c0,0.2,0.1,0.3,0.2,0.4l2.1,0.8c0.1,0.1,0.3,0,0.4-0.1l0.7-0.8c0.6,0.1,1.2,0,1.9,0l0.7,0.8
		c0.1,0.1,0.3,0.1,0.4,0.1l2.1-0.9c0.1-0.1,0.2-0.2,0.2-0.4l-0.1-1.1c0.5-0.4,0.9-0.8,1.3-1.3l1,0c0.2,0,0.3-0.1,0.4-0.2l0.8-2.1
		c0.1-0.1,0-0.3-0.1-0.4l-0.8-0.7c0.1-0.6,0-1.2,0-1.9l0.8-0.7c0.1-0.1,0.1-0.3,0.1-0.4l-0.9-2.1c-0.1-0.1-0.2-0.2-0.4-0.2l-1.1,0.1
		c-0.4-0.5-0.8-0.9-1.3-1.3l0-1c0-0.2-0.1-0.3-0.2-0.4l-2.1-0.8c-0.1-0.1-0.3,0-0.4,0.1l-0.2,0.2v-0.6c0-0.2-0.2-0.4-0.4-0.4h-1.6
		c0.3-0.7,0-1.6-0.6-2.1c-0.6-0.5-1.5-0.5-2.2,0c-0.6,0.5-0.9,1.3-0.6,2.1h-11c-0.2,0-0.4,0.2-0.4,0.4v2.5
		C75.3,15.8,75.3,15.8,75.3,15.9C75.3,15.8,75.3,15.8,75.3,15.9C75.3,15.8,75.3,15.9,75.3,15.9z M85,26.8L82.2,29v-6.3
		c0-0.1,0-0.2-0.1-0.3l-5.6-6.2h14.1l-1,1.1c0,0,0,0,0,0l-4.6,5.1C85,22.4,85,22.5,85,22.6V26.8z M90.6,17.8c2,0,3.7,1.6,3.7,3.7
		c0,2-1.6,3.7-3.7,3.7c-2,0-3.7-1.6-3.7-3.7c0,0,0-0.1,0-0.1l3.2-3.5C90.3,17.9,90.4,17.8,90.6,17.8L90.6,17.8z M92.5,14.4l1.6,0.6
		l0,1c0,0.1,0.1,0.3,0.2,0.3c0.6,0.4,1.1,0.8,1.5,1.4c0.1,0.1,0.2,0.2,0.3,0.2l1-0.1l0.7,1.6L97,20c-0.1,0.1-0.1,0.2-0.1,0.3
		c0.1,0.7,0.1,1.4,0.1,2c0,0.1,0,0.3,0.1,0.3l0.7,0.6L97.1,25l-1,0c-0.1,0-0.3,0.1-0.3,0.2c-0.4,0.6-0.8,1.1-1.4,1.5
		c-0.1,0.1-0.2,0.2-0.2,0.3l0.1,1l-1.6,0.7l-0.7-0.7c-0.1-0.1-0.2-0.1-0.3-0.1c-0.7,0.1-1.4,0.1-2,0.1c-0.1,0-0.3,0-0.3,0.1
		l-0.6,0.7l-1.6-0.6l0-1c0-0.1-0.1-0.3-0.2-0.3c-0.5-0.3-0.9-0.7-1.3-1.2v-2.8l0.5-0.5c0.4,2.3,2.5,3.9,4.8,3.7
		c2.3-0.2,4.1-2.2,4-4.5c-0.1-2.3-1.9-4.2-4.2-4.3l1-1.1c0,0,0,0,0,0c0,0,0,0,0,0c0,0,0,0,0,0c0,0,0,0,0-0.1c0,0,0,0,0,0
		c0,0,0,0,0-0.1c0,0,0,0,0,0c0,0,0,0,0-0.1V15L92.5,14.4z M87.5,11.5c0.4-0.4,1-0.4,1.4,0c0.4,0.4,0.5,1,0.1,1.4h-1.6
		C87.1,12.5,87.2,11.9,87.5,11.5z M91.1,13.7v1.7H76v-1.7H91.1z"/>
	<path class="st3" d="M84.8,3.5c-0.7-0.7-1.8-0.7-2.5,0c-0.7,0.7-0.7,1.8,0,2.5c0.7,0.7,1.8,0.7,2.5,0C85.5,5.4,85.5,4.2,84.8,3.5z
		 M84.3,5.5c-0.4,0.4-1,0.4-1.4,0c-0.4-0.4-0.4-1,0-1.4c0.4-0.4,1-0.4,1.4,0C84.7,4.5,84.7,5.1,84.3,5.5z"/>
	<path class="st3" d="M76.2,8.2c-0.7,0.7-0.7,1.8,0,2.5c0.7,0.7,1.8,0.7,2.5,0c0.7-0.7,0.7-1.8,0-2.5C78.1,7.5,76.9,7.5,76.2,8.2z
		 M78.2,10.2c-0.4,0.4-1,0.4-1.4,0c-0.4-0.4-0.4-1,0-1.4c0.4-0.4,1-0.4,1.4,0C78.6,9.1,78.6,9.8,78.2,10.2z"/>
	<path class="st3" d="M82.6,31c-0.7,0.7-0.7,1.8,0,2.5c0.7,0.7,1.8,0.7,2.5,0c0.7-0.7,0.7-1.8,0-2.5C84.4,30.3,83.3,30.3,82.6,31z
		 M84.6,33c-0.4,0.4-1,0.4-1.4,0c-0.4-0.4-0.4-1,0-1.4c0.4-0.4,1-0.4,1.4,0C85,32,85,32.6,84.6,33z"/>
	<path class="st3" d="M87.4,5l-1.7,1.7c-0.1,0.1-0.1,0.4,0,0.5l1.7,1.7c0.1,0.1,0.4,0.1,0.5,0l1.7-1.7c0.1-0.1,0.1-0.4,0-0.5L87.9,5
		C87.8,4.9,87.5,4.9,87.4,5z M87.7,8.1L86.5,7l1.1-1.1L88.8,7L87.7,8.1z"/>
	<path class="st3" d="M85,9.4l-2.8-0.6c-0.1,0-0.2,0-0.3,0.1c-0.1,0.1-0.1,0.2-0.1,0.3L82,12c0,0.1,0.1,0.3,0.2,0.3
		c0.1,0.1,0.3,0,0.4-0.1l2.6-2.2c0.1-0.1,0.2-0.2,0.1-0.4C85.3,9.6,85.1,9.5,85,9.4z M82.7,11.2l-0.1-1.6l1.5,0.3L82.7,11.2z"/>
	<path class="st3" d="M100.6,13.4l1.3-1.3c0.1-0.1,0.1-0.2,0.1-0.4c0-0.1-0.2-0.2-0.3-0.3l-3.8-0.8c-0.1,0-0.3,0-0.3,0.1
		c-0.1,0.1-0.1,0.2-0.1,0.3l0.8,3.8c0,0.1,0.1,0.2,0.3,0.3c0.1,0,0.3,0,0.4-0.1l1.2-1.2c1.8,2.2,2.6,5,2.4,7.8
		c-0.2,2.6-1.3,5-2.9,6.7c-1.1,1.1-2.5,1.9-4.1,2.4c-1.7,0.5-3.4,0.7-5.2,0.4c-0.2,0-0.4,0.1-0.4,0.3c0,0.2,0.1,0.4,0.3,0.4
		c0.6,0.1,1.2,0.1,1.8,0.1c1.2,0,2.5-0.2,3.7-0.6c1.7-0.5,3.3-1.4,4.4-2.6c1.8-1.8,2.9-4.4,3.1-7.2
		C103.5,18.8,102.5,15.8,100.6,13.4C100.6,13.4,100.6,13.4,100.6,13.4z M98.9,14l-0.5-2.5l2.5,0.5L98.9,14z"/>
</g>
</svg>
