<?xml version="1.0" encoding="utf-8"?>
<!-- Generator: Adobe Illustrator 23.0.1, SVG Export Plug-In . SVG Version: 6.00 Build 0)  -->
<svg version="1.1" id="Layer_1" xmlns="http://www.w3.org/2000/svg" xmlns:xlink="http://www.w3.org/1999/xlink" x="0px" y="0px"
	 viewBox="0 0 110.5 67.6" style="enable-background:new 0 0 110.5 67.6;" xml:space="preserve">
<style type="text/css">
	.st0{fill:none;stroke:#0066FF;stroke-width:0.75;stroke-linejoin:round;stroke-miterlimit:10;}
	.st1{fill:#FFFFFF;stroke:#00C1A3;stroke-width:0.75;stroke-miterlimit:10;}
	.st2{fill:#FFFFFF;stroke:#0066FF;stroke-width:0.75;stroke-miterlimit:10;}
	.st3{fill:none;stroke:#00C1A3;stroke-width:0.75;stroke-miterlimit:10;}
	
		.st4{fill-rule:evenodd;clip-rule:evenodd;fill:none;stroke:#FF25F3;stroke-width:0.75;stroke-linecap:round;stroke-linejoin:round;stroke-miterlimit:10;}
	.st5{fill:none;stroke:#0066FF;stroke-width:0.75;stroke-miterlimit:10;}
	.st6{fill-rule:evenodd;clip-rule:evenodd;fill:none;stroke:#0066FF;stroke-width:0.75;stroke-miterlimit:10;}
	.st7{fill-rule:evenodd;clip-rule:evenodd;fill:none;stroke:#00C1A3;stroke-width:0.75;stroke-miterlimit:10;}
	.st8{fill:none;stroke:#FF25F3;stroke-width:0.75;stroke-linecap:round;stroke-linejoin:round;stroke-miterlimit:10;}
	.st9{fill:#FFFFFF;stroke:#FF25F3;stroke-width:0.75;stroke-linecap:round;stroke-linejoin:round;stroke-miterlimit:10;}
	.st10{fill-rule:evenodd;clip-rule:evenodd;fill:#FFFFFF;stroke:#0066FF;stroke-width:0.75;stroke-miterlimit:10;}
	
		.st11{fill-rule:evenodd;clip-rule:evenodd;fill:#FFFFFF;stroke:#FF25F3;stroke-width:0.75;stroke-linecap:round;stroke-linejoin:round;stroke-miterlimit:10;}
	.st12{fill-rule:evenodd;clip-rule:evenodd;fill:#FFFFFF;stroke:#00C1A3;stroke-width:0.75;stroke-miterlimit:10;}
	.st13{fill:none;stroke:#0066FF;stroke-width:0.75;stroke-linecap:round;stroke-linejoin:round;stroke-miterlimit:10;}
	.st14{fill:#FFFFFF;stroke:#00C1A3;stroke-width:0.75;stroke-linecap:round;stroke-linejoin:round;stroke-miterlimit:10;}
	
		.st15{fill-rule:evenodd;clip-rule:evenodd;fill:#FFFFFF;stroke:#0066FF;stroke-width:0.75;stroke-linecap:round;stroke-linejoin:round;stroke-miterlimit:10;}
	
		.st16{fill-rule:evenodd;clip-rule:evenodd;fill:none;stroke:#0066FF;stroke-width:0.75;stroke-linecap:round;stroke-linejoin:round;stroke-miterlimit:10;}
	.st17{fill:#FFFFFF;stroke:#0066FF;stroke-width:0.75;stroke-linejoin:round;stroke-miterlimit:10;}
	.st18{fill:none;stroke:#FF25F3;stroke-width:0.75;stroke-linecap:round;stroke-miterlimit:10;}
	.st19{fill:none;stroke:#00C1A3;stroke-width:0.75;stroke-miterlimit:10;stroke-dasharray:1.9953,1.9953;}
	.st20{fill:none;stroke:#FF25F3;stroke-width:0.75;stroke-linecap:round;stroke-miterlimit:10;stroke-dasharray:1.9953,1.9953;}
	.st21{fill:#FFFFFF;stroke:#000000;stroke-miterlimit:10;}
	.st22{fill:#0066FF;}
	.st23{fill:#FF25F3;}
	.st24{fill:none;stroke:#FF25F3;stroke-width:0.75;stroke-linejoin:round;stroke-miterlimit:10;}
	.st25{fill:none;stroke:#FF25F3;stroke-width:0.75;stroke-miterlimit:10;}
	.st26{fill:none;stroke:#0066FF;stroke-width:0.75;stroke-linecap:round;stroke-miterlimit:10;}
	.st27{fill:none;stroke:#FFFFFF;stroke-width:0.75;stroke-miterlimit:10;}
	.st28{fill:none;stroke:#0000FF;stroke-width:2;stroke-miterlimit:10;}
	.st29{fill:none;stroke:#00C1A3;stroke-width:2;stroke-miterlimit:10;}
	.st30{fill:none;stroke:#FF25F3;stroke-width:2;stroke-linecap:round;stroke-linejoin:round;stroke-miterlimit:10;}
	.st31{fill:none;stroke:#FF25F3;stroke-width:0.75;stroke-linejoin:round;}
	.st32{fill:none;stroke:#FF25F3;stroke-width:0.75;stroke-linejoin:round;stroke-dasharray:1.916,1.916;}
	.st33{fill:none;stroke:#FF25F3;stroke-width:0.75;stroke-miterlimit:10;stroke-dasharray:1.916,1.916;}
	.st34{fill:none;}
	.st35{fill-rule:evenodd;clip-rule:evenodd;fill:none;stroke:#FF25F3;stroke-width:0.75;stroke-miterlimit:10;}
	.st36{clip-path:url(#SVGID_2_);fill:#FF25F3;}
	.st37{clip-path:url(#SVGID_4_);fill:#00C1A3;}
	.st38{clip-path:url(#SVGID_6_);fill:#2935E8;}
</style>
<g>
	<g>
		<path class="st5" d="M43,57.4c0,0,0.3-4.7,7.1-5.4c6.9-0.7,10.1-0.3,12.5,0.2c4.4,1,5.3,4.6,5.3,4.6s1.2,0.1,0.8,0.7
			c-0.2,0.3-0.8-0.4-0.8-0.4s-0.7,3.5-5.1,3.1c-4.4-0.4-15,0.6-17,0.4C43,60.2,43,58,43,58l-0.8,0.1c0,0-0.2-0.5,0.1-0.8
			C42.5,57.2,43,57.4,43,57.4z"/>
		<path class="st5" d="M43.4,57.8c0,0,3.1,0.5,5.8,0c2.7-0.5,10.2-1.2,12.7-0.9c2.6,0.4,6.1,0.2,6.1,0.2"/>
	</g>
	<g>
		<path class="st5" d="M43,48.6c0,0,0.3-4.7,7.1-5.4c6.9-0.7,10.1-0.3,12.5,0.2c4.4,1,5.3,4.6,5.3,4.6s1.2,0.1,0.8,0.7
			c-0.2,0.3-0.8-0.4-0.8-0.4s-0.7,3.5-5.1,3.1c-4.4-0.4-15,0.6-17,0.4C43,51.5,43,49.2,43,49.2l-0.8,0.1c0,0-0.2-0.5,0.1-0.8
			C42.5,48.4,43,48.6,43,48.6z"/>
		<path class="st5" d="M43.4,49c0,0,3.1,0.5,5.8,0c2.7-0.5,10.2-1.2,12.7-0.9c2.6,0.4,6.1,0.2,6.1,0.2"/>
	</g>
	<g>
		<path class="st5" d="M43,39.5c0,0,0.3-4.7,7.1-5.4c6.9-0.7,10.1-0.3,12.5,0.2c4.4,1,5.3,4.6,5.3,4.6s1.2,0.1,0.8,0.7
			C68.6,40,68,39.3,68,39.3s-0.7,3.5-5.1,3.1c-4.4-0.4-15,0.6-17,0.4C43,42.4,43,40.1,43,40.1l-0.8,0.1c0,0-0.2-0.5,0.1-0.8
			C42.5,39.3,43,39.5,43,39.5z"/>
		<path class="st5" d="M43.4,39.9c0,0,3.1,0.5,5.8,0c2.7-0.5,10.2-1.2,12.7-0.9c2.6,0.4,6.1,0.2,6.1,0.2"/>
	</g>
	<g>
		<path class="st5" d="M43,30.7c0,0,0.3-4.7,7.1-5.4c6.9-0.7,10.1-0.3,12.5,0.2c4.4,1,5.3,4.6,5.3,4.6s1.2,0.1,0.8,0.7
			c-0.2,0.3-0.8-0.4-0.8-0.4s-0.7,3.5-5.1,3.1c-4.4-0.4-15,0.6-17,0.4C43,33.6,43,31.3,43,31.3l-0.8,0.1c0,0-0.2-0.5,0.1-0.8
			C42.5,30.5,43,30.7,43,30.7z"/>
		<path class="st5" d="M43.4,31.1c0,0,3.1,0.5,5.8,0c2.7-0.5,10.2-1.2,12.7-0.9c2.6,0.4,6.1,0.2,6.1,0.2"/>
	</g>
	<g>
		<path class="st5" d="M43,21.8c0,0,0.3-4.7,7.1-5.4c6.9-0.7,10.1-0.3,12.5,0.2c4.4,1,5.3,4.6,5.3,4.6s1.2,0.1,0.8,0.7
			c-0.2,0.3-0.8-0.4-0.8-0.4s-0.7,3.5-5.1,3.1c-4.4-0.4-15,0.6-17,0.4C43,24.6,43,22.4,43,22.4l-0.8,0.1c0,0-0.2-0.5,0.1-0.8
			C42.5,21.6,43,21.8,43,21.8z"/>
		<path class="st5" d="M43.4,22.2c0,0,3.1,0.5,5.8,0c2.7-0.5,10.2-1.2,12.7-0.9c2.6,0.4,6.1,0.2,6.1,0.2"/>
	</g>
	<g>
		<path class="st5" d="M43,13c0,0,0.3-4.7,7.1-5.4c6.9-0.7,10.1-0.3,12.5,0.2c4.4,1,5.3,4.6,5.3,4.6s1.2,0.1,0.8,0.7
			c-0.2,0.3-0.8-0.4-0.8-0.4s-0.7,3.5-5.1,3.1c-4.4-0.4-15,0.6-17,0.4C43,15.9,43,13.6,43,13.6l-0.8,0.1c0,0-0.2-0.5,0.1-0.8
			C42.5,12.8,43,13,43,13z"/>
		<path class="st5" d="M43.4,13.4c0,0,3.1,0.5,5.8,0c2.7-0.5,10.2-1.2,12.7-0.9c2.6,0.4,6.1,0.2,6.1,0.2"/>
	</g>
	<g>
		<path class="st5" d="M2.9,25.7c0,0,0.3-4.7,7.1-5.4c6.9-0.7,10.1-0.3,12.5,0.2c4.4,1,5.3,4.6,5.3,4.6s1.2,0.1,0.8,0.7
			c-0.2,0.3-0.8-0.4-0.8-0.4s-0.7,3.5-5.1,3.1c-4.4-0.4-15,0.6-17,0.4c-2.9-0.4-2.9-2.6-2.9-2.6l-0.8,0.1c0,0-0.2-0.5,0.1-0.8
			C2.4,25.5,2.9,25.7,2.9,25.7z"/>
		<path class="st5" d="M3.3,26.1c0,0,3.1,0.5,5.8,0c2.7-0.5,10.2-1.2,12.7-0.9c2.6,0.4,6.1,0.2,6.1,0.2"/>
	</g>
	<g>
		<path class="st5" d="M83.2,54.2c0,0,0.3-4.7,7.1-5.4c6.9-0.7,10.1-0.3,12.5,0.2c4.4,1,5.3,4.6,5.3,4.6s1.2,0.1,0.8,0.7
			c-0.2,0.3-0.8-0.4-0.8-0.4s-0.7,3.5-5.1,3.1c-4.4-0.4-15,0.6-17,0.4c-2.9-0.4-2.9-2.6-2.9-2.6l-0.8,0.1c0,0-0.2-0.5,0.1-0.8
			C82.7,54,83.2,54.2,83.2,54.2z"/>
		<path class="st5" d="M83.5,54.6c0,0,3.1,0.5,5.8,0c2.7-0.5,10.2-1.2,12.7-0.9c2.6,0.4,6.1,0.2,6.1,0.2"/>
	</g>
	<line class="st3" x1="38.7" y1="17.1" x2="27.2" y2="17.1"/>
	<line class="st3" x1="72.8" y1="13.6" x2="83.8" y2="13.6"/>
	<line class="st3" x1="38.7" y1="50.6" x2="28.4" y2="50.6"/>
	<line class="st3" x1="72.8" y1="46.1" x2="83.4" y2="46.1"/>
	<g>
		<path class="st5" d="M2.9,16.9c0,0,0.3-4.7,7.1-5.4c6.9-0.7,10.1-0.3,12.5,0.2c4.4,1,5.3,4.6,5.3,4.6s1.2,0.1,0.8,0.7
			c-0.2,0.3-0.8-0.4-0.8-0.4s-0.7,3.5-5.1,3.1c-4.4-0.4-15,0.6-17,0.4c-2.9-0.4-2.9-2.6-2.9-2.6l-0.8,0.1c0,0-0.2-0.5,0.1-0.8
			C2.4,16.7,2.9,16.9,2.9,16.9z"/>
		<path class="st5" d="M3.3,17.3c0,0,3.1,0.5,5.8,0c2.7-0.5,10.2-1.2,12.7-0.9c2.6,0.4,6.1,0.2,6.1,0.2"/>
	</g>
	<g>
		<path class="st5" d="M83.2,45.4c0,0,0.3-4.7,7.1-5.4c6.9-0.7,10.1-0.3,12.5,0.2c4.4,1,5.3,4.6,5.3,4.6s1.2,0.1,0.8,0.7
			c-0.2,0.3-0.8-0.4-0.8-0.4s-0.7,3.5-5.1,3.1c-4.4-0.4-15,0.6-17,0.4c-2.9-0.4-2.9-2.6-2.9-2.6l-0.8,0.1c0,0-0.2-0.5,0.1-0.8
			C82.7,45.2,83.2,45.4,83.2,45.4z"/>
		<path class="st5" d="M83.5,45.8c0,0,3.1,0.5,5.8,0c2.7-0.5,10.2-1.2,12.7-0.9c2.6,0.4,6.1,0.2,6.1,0.2"/>
	</g>
	<g>
		<path class="st5" d="M2.9,50.7c0,0,0.3-4.7,7.1-5.4c6.9-0.7,10.1-0.3,12.5,0.2c4.4,1,5.3,4.6,5.3,4.6s1.2,0.1,0.8,0.7
			c-0.2,0.3-0.8-0.4-0.8-0.4s-0.7,3.5-5.1,3.1c-4.4-0.4-15,0.6-17,0.4c-2.9-0.4-2.9-2.6-2.9-2.6l-0.8,0.1c0,0-0.2-0.5,0.1-0.8
			C2.4,50.5,2.9,50.7,2.9,50.7z"/>
		<path class="st5" d="M3.3,51c0,0,3.1,0.5,5.8,0c2.7-0.5,10.2-1.2,12.7-0.9c2.6,0.4,6.1,0.2,6.1,0.2"/>
	</g>
	<g>
		<path class="st5" d="M83.2,13.5c0,0,0.3-4.7,7.1-5.4c6.9-0.7,10.1-0.3,12.5,0.2c4.4,1,5.3,4.6,5.3,4.6s1.2,0.1,0.8,0.7
			c-0.2,0.3-0.8-0.4-0.8-0.4s-0.7,3.5-5.1,3.1c-4.4-0.4-15,0.6-17,0.4c-2.9-0.4-2.9-2.6-2.9-2.6l-0.8,0.1c0,0-0.2-0.5,0.1-0.8
			C82.7,13.3,83.2,13.5,83.2,13.5z"/>
		<path class="st5" d="M83.5,13.9c0,0,3.1,0.5,5.8,0c2.7-0.5,10.2-1.2,12.7-0.9c2.6,0.4,6.1,0.2,6.1,0.2"/>
	</g>
	<path class="st8" d="M62.7,66.2h-14c-5.6,0-10.1-4.5-10.1-10.1V11.5c0-5.6,4.5-10.1,10.1-10.1h14c5.6,0,10.1,4.5,10.1,10.1v44.6
		C72.8,61.7,68.3,66.2,62.7,66.2z"/>
</g>
</svg>
