<?xml version="1.0" encoding="utf-8"?>
<!-- Generator: Adobe Illustrator 23.0.1, SVG Export Plug-In . SVG Version: 6.00 Build 0)  -->
<svg version="1.1" id="Layer_1" xmlns="http://www.w3.org/2000/svg" xmlns:xlink="http://www.w3.org/1999/xlink" x="0px" y="0px"
	 viewBox="0 0 112.1 129.9" style="enable-background:new 0 0 112.1 129.9;" xml:space="preserve">
<style type="text/css">
	.st0{fill:none;stroke:#0066FF;stroke-width:0.75;stroke-miterlimit:10;}
	.st1{clip-path:url(#SVGID_2_);}
	.st2{opacity:0.3;}
	.st3{fill:none;stroke:#29B99F;stroke-width:0.75;stroke-miterlimit:10;}
	
		.st4{fill-rule:evenodd;clip-rule:evenodd;fill:none;stroke:#BF549F;stroke-width:0.75;stroke-linecap:round;stroke-linejoin:round;stroke-miterlimit:10;}
	.st5{fill:none;stroke:#4068B1;stroke-width:0.75;stroke-miterlimit:10;}
	.st6{fill:none;stroke:#00C1A3;stroke-width:0.75;stroke-miterlimit:10;}
	
		.st7{fill-rule:evenodd;clip-rule:evenodd;fill:none;stroke:#FF25F3;stroke-width:0.75;stroke-linecap:round;stroke-linejoin:round;stroke-miterlimit:10;}
	.st8{fill:none;stroke:#FF25F3;stroke-width:0.75;stroke-linecap:round;stroke-linejoin:round;stroke-miterlimit:10;}
	.st9{fill:none;stroke:#0066FF;stroke-width:0.75;stroke-linejoin:round;stroke-miterlimit:10;}
	.st10{opacity:0.5;}
	.st11{fill:#FFFFFF;stroke:#0066FF;stroke-width:0.75;stroke-miterlimit:10;}
	.st12{fill-rule:evenodd;clip-rule:evenodd;fill:#FFFFFF;stroke:#0066FF;stroke-width:0.75;stroke-miterlimit:10;}
	.st13{opacity:0.3;fill:none;stroke:#0066FF;stroke-width:0.75;stroke-miterlimit:10;}
	.st14{fill:none;stroke:#0066FF;stroke-width:0.75;stroke-linecap:round;stroke-miterlimit:10;}
	.st15{fill:#FFFFFF;stroke:#0066FF;stroke-miterlimit:10;}
	.st16{opacity:0.3;fill:none;stroke:#0066FF;stroke-miterlimit:10;}
	.st17{fill:#0066FF;}
	.st18{opacity:0.5;fill:none;stroke:#0066FF;stroke-width:0.75;stroke-miterlimit:10;}
	.st19{fill:none;stroke:#0066FF;stroke-width:0.75;stroke-miterlimit:10;stroke-dasharray:1.723,1.723;}
</style>
<g>
	<path class="st0" d="M66.1,47.6h21.4c1.3,0,2.4,1.1,2.4,2.4v34.8c0,1.3-1.1,2.4-2.4,2.4h-5.9"/>
	<path class="st0" d="M29.7,87.2h-5.1c-1.3,0-2.4-1.1-2.4-2.4V50c0-1.3,1.1-2.4,2.4-2.4h21.5"/>
	<polyline class="st8" points="67.7,49.9 87.5,49.9 87.5,84.9 79.7,84.9 	"/>
	<polyline class="st8" points="31.1,84.9 24.6,84.9 24.6,49.9 44.6,49.9 	"/>
</g>
<path class="st0" d="M62.4,73.8c2.8-2.8,5.1-10.3,5.9-15.3c1.8-11.1-5.5-15.4-12.3-15.4c-6.8,0-13.3,3.8-12.3,15.4
	c0.4,5.3,3,12.5,6.1,15.3"/>
<path class="st6" d="M46.4,79.4l0.9-4.3c0,0,4.1-2.6,9.2-2.4c4,0.1,8.5,2.3,8.5,2.3l1,4.6"/>
<path class="st0" d="M78.7,115.6c0,0,3.5,2.9,8.8,0s1.7-8.4,1.7-8.4s-4.9-11-6.2-16.3c-1.4-5.3-5.3-7.8-5.3-7.8s-15.2-5.5-21.5-5.5
	s-19.5,4.1-23,5.8c-3.5,1.7-3.8,5-4,5.6s-7.2,18.1-7.2,18.1s-1.5,5.1,1.2,7.4s8-0.5,9.3-1.7"/>
<path class="st0" d="M65,128.1H47.1c-7.9,0-14.4-6.5-14.4-14.4V105c0-7.9,6.5-14.4,14.4-14.4H65c7.9,0,14.4,6.5,14.4,14.4v8.7
	C79.4,121.6,72.9,128.1,65,128.1z"/>
<ellipse transform="matrix(0.9404 -0.3401 0.3401 0.9404 -18.7737 18.7709)" class="st0" cx="44.2" cy="62.9" rx="1.4" ry="4"/>
<ellipse transform="matrix(0.2415 -0.9704 0.9704 0.2415 -10.2416 112.7929)" class="st0" cx="67" cy="62.9" rx="4" ry="1.4"/>
<polyline class="st0" points="45.5,62.5 49.9,70.8 61.7,70.9 65.7,62.6 "/>
<g class="st10">
	<line class="st11" x1="9.6" y1="26.2" x2="9.6" y2="37.7"/>
	<line class="st11" x1="14.8" y1="26.3" x2="14.8" y2="42.2"/>
	<line class="st11" x1="20.1" y1="32.5" x2="20.1" y2="42.2"/>
	<line class="st11" x1="25.3" y1="24" x2="25.3" y2="37.6"/>
	<rect x="8.1" y="27.7" class="st11" width="3" height="8.6"/>
	<rect x="13.4" y="27.8" class="st11" width="3" height="12.7"/>
	<rect x="18.6" y="34.2" class="st11" width="3" height="6.3"/>
	<rect x="23.8" y="25.7" class="st11" width="3" height="9.8"/>
	<line class="st11" x1="6.1" y1="43.7" x2="28.1" y2="43.7"/>
</g>
<g class="st10">
	<polyline class="st0" points="47.8,6.9 57.7,13.6 70.1,2.7 	"/>
	<polyline class="st0" points="50.5,15.3 59.4,6.9 67.8,13.6 	"/>
	<line class="st0" x1="46.6" y1="20" x2="70.6" y2="20"/>
	<circle class="st0" cx="48.2" cy="7.1" r="1"/>
	<circle class="st0" cx="50.7" cy="15.3" r="1"/>
	<circle class="st0" cx="57.6" cy="13.6" r="1"/>
	<circle class="st0" cx="59.5" cy="7.1" r="1"/>
	<circle class="st0" cx="67.8" cy="13.6" r="1"/>
	<circle class="st0" cx="70.1" cy="2.7" r="1"/>
</g>
<g class="st10">
	
		<rect x="101.9" y="24.6" transform="matrix(-1 -9.944014e-11 9.944014e-11 -1 208.0418 66.2164)" class="st12" width="4.2" height="17.1"/>
	
		<rect x="96.4" y="31" transform="matrix(-1 -4.488777e-11 4.488777e-11 -1 197.1211 72.6906)" class="st12" width="4.2" height="10.6"/>
	
		<rect x="91" y="28.8" transform="matrix(-1 -3.694124e-11 3.694124e-11 -1 186.2004 70.4113)" class="st12" width="4.2" height="12.9"/>
	
		<rect x="85.5" y="35.3" transform="matrix(-1 -1.589319e-11 1.589319e-11 -1 175.2797 76.9368)" class="st12" width="4.2" height="6.4"/>
	<line class="st11" x1="108.6" y1="43.8" x2="82.9" y2="43.8"/>
	<polyline class="st12" points="87.2,28.6 92.7,23.8 98.6,27.1 103.2,20.5 	"/>
	<circle class="st11" cx="87.2" cy="28.6" r="1.3"/>
	<circle class="st11" cx="92.7" cy="23.8" r="1.3"/>
	<circle class="st11" cx="98.6" cy="27" r="1.3"/>
	<circle class="st11" cx="103.2" cy="20.5" r="1.3"/>
</g>
<path class="st13" d="M16.5,63.5c-1.3-4.1-2.1-8.4-2.1-13"/>
<path class="st13" d="M97.6,50.6c0,1.2,0,2.4-0.1,3.5c-0.5,5.8-2.1,11.2-4.8,16.1"/>
<path class="st13" d="M72.2,12.3c5.6,2.4,10.6,5.9,14.6,10.4"/>
<path class="st13" d="M27.4,20.5c2.8-2.6,5.9-4.9,9.3-6.7c3.1-1.6,6.5-2.9,10-3.7"/>
</svg>
