<?xml version="1.0" encoding="utf-8"?>
<!-- Generator: Adobe Illustrator 23.0.1, SVG Export Plug-In . SVG Version: 6.00 Build 0)  -->
<svg version="1.1" id="Layer_1" xmlns="http://www.w3.org/2000/svg" xmlns:xlink="http://www.w3.org/1999/xlink" x="0px" y="0px"
	 viewBox="0 0 55 61" style="enable-background:new 0 0 55 61;" xml:space="preserve">
<style type="text/css">
	.st0{fill:none;stroke:#0066FF;stroke-width:0.75;stroke-miterlimit:10;}
	.st1{fill:none;stroke:#FF25F3;stroke-width:0.75;stroke-linecap:round;stroke-linejoin:round;stroke-miterlimit:10;}
	.st2{fill:none;stroke:#00C1A3;stroke-width:0.75;stroke-miterlimit:10;}
</style>
<path class="st0" d="M52.1,37.1c-2.1,6.4-4.1,7.8-6.6,11c-1.6,2.1-3.4,6-5.6,8.6c-4.5,5.4-8.4,2.4-12.6,2.4
	c-4.2,0-10.4,3.5-13.3-2.4c-3.5-6.8-7.9-10.2-11.3-19.6c-3.8-10.5,0.2-21.5,10.5-23.8c8.4-1.9,23.8-2.2,28.6-0.4
	C51,16.5,55.4,27.1,52.1,37.1z"/>
<path class="st1" d="M16.6,16.5c2,1,6.4,3.1,12.3,2.7c4.2-0.2,7.4-1.6,9.2-2.5"/>
<path class="st0" d="M21.4,3.9c0,0,3.5,6.3,4.9,9.3c1.4,2.9,1.6,6.5,1.6,6.5"/>
<path class="st2" d="M34.07,9.13C30.22,7.21,30.76,1.35,35,0.58c0.32-0.06,0.65-0.09,1-0.08c0.97,0.02,2.12,0.33,3.32,0.78
	c4.07,1.54,3.92,7.44-0.27,8.63c-0.42,0.12-0.78,0.19-1.05,0.19C36.47,10.07,35.16,9.68,34.07,9.13z"/>
<path class="st0" d="M23.9,8.6c0,0-0.8-1,6.1-3.1c6.9-2.1,17.7,0.4,17.7,0.4"/>
</svg>
