<?xml version="1.0" encoding="utf-8"?>
<!-- Generator: Adobe Illustrator 23.0.1, SVG Export Plug-In . SVG Version: 6.00 Build 0)  -->
<svg version="1.1" id="Layer_1" xmlns="http://www.w3.org/2000/svg" xmlns:xlink="http://www.w3.org/1999/xlink" x="0px" y="0px"
	 viewBox="0 0 69.1 74.3" style="enable-background:new 0 0 69.1 74.3;" xml:space="preserve">
<style type="text/css">
	.st0{fill-rule:evenodd;clip-rule:evenodd;fill:none;stroke:#00C1A3;stroke-width:0.75;stroke-miterlimit:10;}
	.st1{fill:#FFFFFF;stroke:#0066FF;stroke-width:0.75;stroke-linecap:round;stroke-linejoin:round;stroke-miterlimit:10;}
	.st2{fill:none;stroke:#0066FF;stroke-width:0.75;stroke-linecap:round;stroke-linejoin:round;stroke-miterlimit:10;}
	.st3{fill:#FFFFFF;stroke:#0066FF;stroke-width:0.75;stroke-miterlimit:10;}
	.st4{fill:none;stroke:#0066FF;stroke-width:0.75;stroke-miterlimit:10;}
	.st5{fill:none;stroke:#00C1A3;stroke-width:0.75;stroke-miterlimit:10;}
	.st6{fill:none;stroke:#FF25F3;stroke-width:0.75;stroke-miterlimit:10;}
	.st7{fill:none;stroke:#FF25F3;stroke-width:0.75;stroke-linecap:round;stroke-linejoin:round;stroke-miterlimit:10;}
	.st8{fill-rule:evenodd;clip-rule:evenodd;fill:none;stroke:#0066FF;stroke-width:0.75;stroke-miterlimit:10;}
	.st9{clip-path:url(#SVGID_2_);fill-rule:evenodd;clip-rule:evenodd;fill:#FFFFFF;}
	.st10{fill-rule:evenodd;clip-rule:evenodd;fill:#FCFDFF;}
	.st11{fill-rule:evenodd;clip-rule:evenodd;fill:#FFFFFF;}
	.st12{fill-rule:evenodd;clip-rule:evenodd;fill:#3D6A9D;}
	.st13{fill:#FFFFFF;}
	.st14{fill:#0066FF;}
	.st15{fill-rule:evenodd;clip-rule:evenodd;fill:#FFFFFF;stroke:#0066FF;stroke-width:0.75;stroke-miterlimit:10;}
	.st16{fill-rule:evenodd;clip-rule:evenodd;fill:#FFFFFF;stroke:#44E0A0;stroke-width:0.75;stroke-miterlimit:10;}
	.st17{fill-rule:evenodd;clip-rule:evenodd;fill:#FFFFFF;stroke:#FF25F3;stroke-width:0.75;stroke-miterlimit:10;}
	.st18{fill:none;stroke:#FFFFFF;stroke-width:2.8774;stroke-miterlimit:10;}
	
		.st19{fill-rule:evenodd;clip-rule:evenodd;fill:none;stroke:#FF25F3;stroke-width:0.75;stroke-linecap:round;stroke-linejoin:round;stroke-miterlimit:10;}
	.st20{fill-rule:evenodd;clip-rule:evenodd;fill:#FFFFFF;stroke:#FFFFFF;stroke-width:0.7194;stroke-miterlimit:10;}
	.st21{fill:none;stroke:#FFFFFF;stroke-width:0.7194;stroke-miterlimit:10;}
	.st22{fill:none;stroke:#44E0A0;stroke-width:0.75;stroke-linecap:round;stroke-linejoin:round;stroke-miterlimit:10;}
	.st23{fill-rule:evenodd;clip-rule:evenodd;fill:#FFFFFF;stroke:#00C1A3;stroke-width:0.75;stroke-miterlimit:10;}
	.st24{fill:none;stroke:#0066FF;stroke-width:0.75;stroke-linecap:round;stroke-miterlimit:10;}
	.st25{fill:#FFFFFF;stroke:#00C1A3;stroke-width:0.75;stroke-miterlimit:10;}
	.st26{clip-path:url(#SVGID_4_);}
	
		.st27{fill-rule:evenodd;clip-rule:evenodd;fill:none;stroke:#0066FF;stroke-width:0.75;stroke-linecap:round;stroke-miterlimit:10;}
	.st28{fill:#FFFFFF;stroke:#FF25F3;stroke-width:0.75;stroke-miterlimit:10;}
	.st29{fill:#FFFFFF;stroke:#FF25F3;stroke-width:0.75;stroke-linecap:round;stroke-linejoin:round;stroke-miterlimit:10;}
	.st30{fill:none;stroke:#00FA9B;stroke-width:0.75;stroke-miterlimit:10;}
	.st31{fill:#87D73F;}
	.st32{fill:#3DED98;}
</style>
<path class="st4" d="M7,68.1c0.9-1.8,0.5-4,0.2-6c-0.4-2-0.6-4.3,0.5-6c1.1-1.7,3.2-2.3,5.1-3.1c1.9-0.8,3.8-2.1,4-4.2
	c0.1-1.1-1.1-6.3,2.3-9.4c3-2.8,5.9-2.4,7.6-6.1c1.9-4,0.3-7.3,3.1-10.8c1.7-2.1,3.3-1.6,5.3-3.4c2.6-2.5,0.9-6.9,2.1-10.3
	c0.9-2.5,3.3-4.3,5.8-5.3c2.5-1,5.2-1.4,7.7-2.5c-2.1,4.3,2.4,10.8,0,14.9c-2,3.4-2.7,1.5-6,6c-2.2,3,1.2,4.5-1.7,9.4
	c-1.8,3-6.4,4.7-7.5,5.9c-2.6,2.7-0.4,7.5-2,10.9C30.9,53,26,53,26.1,55.4c0.1,2.4,0.6,7.7-3.2,11c-4.4,3.8-3.6,2.1-7.5,3.5
	c-0.4,0.1-2.2,1.8-4.6,2.7c-3,1.1-6.9,1.2-10,0.2C5.6,70.6,6.6,68.9,7,68.1z"/>
<path class="st25" d="M32.1,22.9c-2.2,1.8-3,4.8-1.9,7.3c1.1,2.7,4,4.1,6.8,3.5"/>
<path class="st4" d="M20.7,40.6c-1.6,2-2.1,4.8-1.2,6.9c1.1,2.5,3.9,3.6,6.6,2.4"/>
<path class="st4" d="M12.5,55c-2.4,1.7-3.3,5.1-1.9,7.7c1.3,2.6,4.4,3.6,7.1,2.3"/>
<path class="st4" d="M39.1,11.6c-1.1,1.9-0.5,4.1,1.5,5.4c1.9,1.3,4.7,1.3,6.6,0.1"/>
<ellipse class="st3" cx="53.2" cy="50.8" rx="6.6" ry="5.5"/>
<path class="st4" d="M47.3,50.4c0.6,2.6,2.8,4.5,5.4,4.7c2.3,0.2,4.5-0.9,5.8-2.9"/>
<ellipse transform="matrix(0.9409 -0.3388 0.3388 0.9409 -15.0312 24.1707)" class="st3" cx="61.7" cy="55.1" rx="6.6" ry="5.5"/>
<path class="st4" d="M56,56.8c1.5,2.2,4.2,3.3,6.7,2.6c2.2-0.6,3.9-2.4,4.5-4.7"/>
<ellipse transform="matrix(8.109346e-02 -0.9967 0.9967 8.109346e-02 -16.8695 96.0057)" class="st28" cx="43.6" cy="57.2" rx="5.5" ry="6.6"/>
<path class="st6" d="M37.7,56.2c0.4,2.6,2.5,4.7,5,5.2c2.3,0.4,4.6-0.5,6-2.4"/>
<ellipse transform="matrix(0.981 -0.1941 0.1941 0.981 -12.0977 11.3789)" class="st3" cx="52" cy="67.4" rx="6.6" ry="5.5"/>
<path class="st4" d="M46.1,68.2c1.1,2.4,3.6,3.9,6.2,3.6c2.3-0.2,4.3-1.8,5.1-4"/>
</svg>
