<?xml version="1.0" encoding="utf-8"?>
<!-- Generator: Adobe Illustrator 23.0.1, SVG Export Plug-In . SVG Version: 6.00 Build 0)  -->
<svg version="1.1" id="Layer_1" xmlns="http://www.w3.org/2000/svg" xmlns:xlink="http://www.w3.org/1999/xlink" x="0px" y="0px"
	 viewBox="0 0 59.7 63.6" style="enable-background:new 0 0 59.7 63.6;" xml:space="preserve">
<style type="text/css">
	.st0{fill:#FF25F3;}
	.st1{fill:#2935E8;}
	.st2{fill:#00C1A3;}
	.st3{fill:none;stroke:#0066FF;stroke-width:0.75;stroke-linejoin:round;stroke-miterlimit:10;}
	.st4{fill:#FFFFFF;stroke:#00C1A3;stroke-width:0.75;stroke-miterlimit:10;}
	.st5{fill:#FFFFFF;stroke:#0066FF;stroke-width:0.75;stroke-miterlimit:10;}
	.st6{fill:none;stroke:#00C1A3;stroke-width:0.75;stroke-miterlimit:10;}
	
		.st7{fill-rule:evenodd;clip-rule:evenodd;fill:none;stroke:#FF25F3;stroke-width:0.75;stroke-linecap:round;stroke-linejoin:round;stroke-miterlimit:10;}
	.st8{fill:none;stroke:#0066FF;stroke-width:0.75;stroke-miterlimit:10;}
	.st9{fill-rule:evenodd;clip-rule:evenodd;fill:none;stroke:#0066FF;stroke-width:0.75;stroke-miterlimit:10;}
	.st10{fill-rule:evenodd;clip-rule:evenodd;fill:none;stroke:#00C1A3;stroke-width:0.75;stroke-miterlimit:10;}
	.st11{fill:none;stroke:#FF25F3;stroke-width:0.75;stroke-linecap:round;stroke-linejoin:round;stroke-miterlimit:10;}
	.st12{fill:#FFFFFF;stroke:#FF25F3;stroke-width:0.75;stroke-linecap:round;stroke-linejoin:round;stroke-miterlimit:10;}
	.st13{fill-rule:evenodd;clip-rule:evenodd;fill:#FFFFFF;stroke:#0066FF;stroke-width:0.75;stroke-miterlimit:10;}
	
		.st14{fill-rule:evenodd;clip-rule:evenodd;fill:#FFFFFF;stroke:#FF25F3;stroke-width:0.75;stroke-linecap:round;stroke-linejoin:round;stroke-miterlimit:10;}
	.st15{fill-rule:evenodd;clip-rule:evenodd;fill:#FFFFFF;stroke:#00C1A3;stroke-width:0.75;stroke-miterlimit:10;}
	.st16{fill:none;stroke:#0066FF;stroke-width:0.75;stroke-linecap:round;stroke-linejoin:round;stroke-miterlimit:10;}
	.st17{fill:#FFFFFF;stroke:#00C1A3;stroke-width:0.75;stroke-linecap:round;stroke-linejoin:round;stroke-miterlimit:10;}
	
		.st18{fill-rule:evenodd;clip-rule:evenodd;fill:#FFFFFF;stroke:#0066FF;stroke-width:0.75;stroke-linecap:round;stroke-linejoin:round;stroke-miterlimit:10;}
	
		.st19{fill-rule:evenodd;clip-rule:evenodd;fill:none;stroke:#0066FF;stroke-width:0.75;stroke-linecap:round;stroke-linejoin:round;stroke-miterlimit:10;}
	.st20{fill:#FFFFFF;stroke:#0066FF;stroke-width:0.75;stroke-linejoin:round;stroke-miterlimit:10;}
	.st21{fill:none;stroke:#FF25F3;stroke-width:0.75;stroke-linecap:round;stroke-miterlimit:10;}
	.st22{fill:none;stroke:#00C1A3;stroke-width:0.75;stroke-miterlimit:10;stroke-dasharray:1.9953,1.9953;}
	.st23{fill:none;stroke:#FF25F3;stroke-width:0.75;stroke-linecap:round;stroke-miterlimit:10;stroke-dasharray:1.9953,1.9953;}
	.st24{fill:#FFFFFF;stroke:#000000;stroke-miterlimit:10;}
	.st25{fill:#0066FF;}
	.st26{fill:none;stroke:#FF25F3;stroke-width:0.75;stroke-linejoin:round;stroke-miterlimit:10;}
	.st27{fill:none;stroke:#FF25F3;stroke-width:0.75;stroke-miterlimit:10;}
	.st28{fill:none;stroke:#0066FF;stroke-width:0.75;stroke-linecap:round;stroke-miterlimit:10;}
	.st29{fill:none;stroke:#FFFFFF;stroke-width:0.75;stroke-miterlimit:10;}
	.st30{fill:none;stroke:#0000FF;stroke-width:2;stroke-miterlimit:10;}
	.st31{fill:none;stroke:#00C1A3;stroke-width:2;stroke-miterlimit:10;}
	.st32{fill:none;stroke:#FF25F3;stroke-width:2;stroke-linecap:round;stroke-linejoin:round;stroke-miterlimit:10;}
	.st33{fill:none;stroke:#FF25F3;stroke-width:0.75;stroke-linejoin:round;}
	.st34{fill:none;stroke:#FF25F3;stroke-width:0.75;stroke-linejoin:round;stroke-dasharray:1.916,1.916;}
	.st35{fill:none;stroke:#FF25F3;stroke-width:0.75;stroke-miterlimit:10;stroke-dasharray:1.916,1.916;}
	.st36{fill:none;}
	.st37{fill-rule:evenodd;clip-rule:evenodd;fill:none;stroke:#FF25F3;stroke-width:0.75;stroke-miterlimit:10;}
	.st38{clip-path:url(#SVGID_2_);fill:#2935E8;}
	.st39{clip-path:url(#SVGID_4_);fill:#00C1A3;}
	.st40{clip-path:url(#SVGID_6_);fill:#FF25F3;}
	.st41{fill:#FFFFFF;}
	.st42{fill:none;stroke:#FF25F3;stroke-width:0.75;stroke-linecap:round;stroke-linejoin:round;}
	.st43{fill:none;stroke:#FF25F3;stroke-width:0.75;stroke-linecap:round;stroke-linejoin:round;stroke-dasharray:5.1058,5.1058;}
	.st44{fill:none;stroke:#FF25F3;stroke-width:0.75;stroke-miterlimit:10;stroke-dasharray:7.3935,7.3935;}
	.st45{fill:none;stroke:#00C1A3;stroke-width:0.75;stroke-miterlimit:10;stroke-dasharray:8.7323,8.7323;}
</style>
<g>
	<path class="st6" d="M37.8,26l0-4.2l-4,0c-0.1-0.4-0.2-0.8-0.3-1.2l3.4-2l-2.1-3.7l-3.4,2c-0.3-0.3-0.6-0.6-0.9-0.9l2-3.4l-3.7-2.1
		l-2,3.4c-0.4-0.1-0.8-0.2-1.2-0.3v-4h-4.2v4c-0.4,0.1-0.7,0.2-1.1,0.3l-1.9-3.5l-3.7,2.1l1.9,3.5c-0.3,0.3-0.6,0.6-0.9,0.9l-3.4-2
		l-2.2,3.7l3.4,2c-0.1,0.4-0.2,0.8-0.3,1.2l-4,0l0,4.2l4,0c0.1,0.4,0.2,0.8,0.3,1.2l-3.4,2l2.1,3.7l3.4-2c0.3,0.3,0.6,0.6,0.9,0.9
		l-2,3.4l3.7,2.2l2-3.4c0.4,0.1,0.8,0.2,1.2,0.3l0,4l4.2,0l0-4c0.4-0.1,0.8-0.2,1.2-0.3l2,3.4l3.7-2.1l-2-3.4
		c0.3-0.3,0.6-0.6,0.9-0.9l3.4,2l2.1-3.7l-3.4-2c0.1-0.4,0.2-0.8,0.3-1.2L37.8,26z"/>
	<circle class="st6" cx="23.6" cy="23.8" r="2.7"/>
</g>
<g>
	<path class="st11" d="M49.2,38l-1.8-2.3l-2.1,1.6c-0.2-0.2-0.4-0.4-0.7-0.5l1-2.5L43,33.3l-1,2.5c-0.3-0.1-0.6-0.1-0.8-0.1L40.8,33
		l-2.9,0.4l0.4,2.7c-0.3,0.1-0.5,0.2-0.8,0.3l-1.7-2.1l-2.3,1.8l1.7,2.1c-0.2,0.2-0.3,0.4-0.5,0.6l-2.5-1l-1.1,2.7l2.5,1
		c-0.1,0.3-0.1,0.6-0.1,0.8l-2.7,0.3l0.4,2.9l2.7-0.3c0.1,0.3,0.2,0.5,0.3,0.8l-2.1,1.6l1.8,2.3l2.1-1.6c0.2,0.2,0.4,0.4,0.7,0.5
		l-1,2.5l2.7,1.1l1-2.5c0.3,0.1,0.6,0.1,0.8,0.1l0.4,2.7l2.9-0.4L43,49.6c0.3-0.1,0.5-0.2,0.8-0.3l1.6,2.1l2.3-1.8l-1.6-2.1
		c0.2-0.2,0.4-0.4,0.5-0.7l2.5,1l1.1-2.7l-2.5-1c0.1-0.3,0.1-0.6,0.1-0.8l2.7-0.4l-0.4-2.9l-2.7,0.4c-0.1-0.3-0.2-0.5-0.3-0.8
		L49.2,38z"/>
	<circle class="st11" cx="40.7" cy="42.8" r="2"/>
</g>
<g>
	<g>
		<path class="st8" d="M4.8,18.5C11.8,4,29.3-2.2,43.9,4.8c5.5,2.6,9.7,6.7,12.6,11.6"/>
		<polyline class="st8" points="58,6.2 56.7,16.7 46.2,15.4 		"/>
	</g>
	<g>
		<path class="st8" d="M56,46.6C47.4,60.4,29.4,64.6,15.6,56c-5.2-3.2-9-7.7-11.3-12.9"/>
		<polyline class="st8" points="1.7,53.2 4.2,42.8 14.5,45.3 		"/>
	</g>
</g>
</svg>
