<?xml version="1.0" encoding="utf-8"?>
<!-- Generator: Adobe Illustrator 23.0.1, SVG Export Plug-In . SVG Version: 6.00 Build 0)  -->
<svg version="1.1" id="Layer_1" xmlns="http://www.w3.org/2000/svg" xmlns:xlink="http://www.w3.org/1999/xlink" x="0px" y="0px"
	 viewBox="0 0 36.9 69" style="enable-background:new 0 0 36.9 69;" xml:space="preserve">
<style type="text/css">
	.st0{fill-rule:evenodd;clip-rule:evenodd;fill:none;stroke:#00C1A3;stroke-width:0.75;stroke-miterlimit:10;}
	.st1{fill:#FFFFFF;stroke:#0066FF;stroke-width:0.75;stroke-linecap:round;stroke-linejoin:round;stroke-miterlimit:10;}
	.st2{fill:none;stroke:#0066FF;stroke-width:0.75;stroke-linecap:round;stroke-linejoin:round;stroke-miterlimit:10;}
	.st3{fill:#FFFFFF;stroke:#0066FF;stroke-width:0.75;stroke-miterlimit:10;}
	.st4{fill:none;stroke:#0066FF;stroke-width:0.75;stroke-miterlimit:10;}
	.st5{fill:none;stroke:#00C1A3;stroke-width:0.75;stroke-miterlimit:10;}
	.st6{fill:none;stroke:#FF25F3;stroke-width:0.75;stroke-miterlimit:10;}
	.st7{fill:none;stroke:#FF25F3;stroke-width:0.75;stroke-linecap:round;stroke-linejoin:round;stroke-miterlimit:10;}
	.st8{fill-rule:evenodd;clip-rule:evenodd;fill:none;stroke:#0066FF;stroke-width:0.75;stroke-miterlimit:10;}
	.st9{clip-path:url(#SVGID_2_);fill-rule:evenodd;clip-rule:evenodd;fill:#FFFFFF;}
	.st10{fill-rule:evenodd;clip-rule:evenodd;fill:#FCFDFF;}
	.st11{fill-rule:evenodd;clip-rule:evenodd;fill:#FFFFFF;}
	.st12{fill-rule:evenodd;clip-rule:evenodd;fill:#3D6A9D;}
	.st13{fill:#FFFFFF;}
	.st14{fill:#0066FF;}
	.st15{fill-rule:evenodd;clip-rule:evenodd;fill:#FFFFFF;stroke:#0066FF;stroke-width:0.75;stroke-miterlimit:10;}
	.st16{fill-rule:evenodd;clip-rule:evenodd;fill:#FFFFFF;stroke:#44E0A0;stroke-width:0.75;stroke-miterlimit:10;}
	.st17{fill-rule:evenodd;clip-rule:evenodd;fill:#FFFFFF;stroke:#FF25F3;stroke-width:0.75;stroke-miterlimit:10;}
	.st18{fill:none;stroke:#FFFFFF;stroke-width:2.8774;stroke-miterlimit:10;}
	
		.st19{fill-rule:evenodd;clip-rule:evenodd;fill:none;stroke:#FF25F3;stroke-width:0.75;stroke-linecap:round;stroke-linejoin:round;stroke-miterlimit:10;}
	.st20{fill-rule:evenodd;clip-rule:evenodd;fill:#FFFFFF;stroke:#FFFFFF;stroke-width:0.7194;stroke-miterlimit:10;}
	.st21{fill:none;stroke:#FFFFFF;stroke-width:0.7194;stroke-miterlimit:10;}
	.st22{fill:none;stroke:#44E0A0;stroke-width:0.75;stroke-linecap:round;stroke-linejoin:round;stroke-miterlimit:10;}
	.st23{fill-rule:evenodd;clip-rule:evenodd;fill:#FFFFFF;stroke:#00C1A3;stroke-width:0.75;stroke-miterlimit:10;}
	.st24{fill:none;stroke:#0066FF;stroke-width:0.75;stroke-linecap:round;stroke-miterlimit:10;}
	.st25{fill:#FFFFFF;stroke:#00C1A3;stroke-width:0.75;stroke-miterlimit:10;}
	.st26{clip-path:url(#SVGID_4_);}
	
		.st27{fill-rule:evenodd;clip-rule:evenodd;fill:none;stroke:#0066FF;stroke-width:0.75;stroke-linecap:round;stroke-miterlimit:10;}
	.st28{fill:#FFFFFF;stroke:#FF25F3;stroke-width:0.75;stroke-miterlimit:10;}
	.st29{fill:#FFFFFF;stroke:#FF25F3;stroke-width:0.75;stroke-linecap:round;stroke-linejoin:round;stroke-miterlimit:10;}
	.st30{fill:none;stroke:#00FA9B;stroke-width:0.75;stroke-miterlimit:10;}
	.st31{fill:#87D73F;}
	.st32{fill:#3DED98;}
</style>
<path class="st4" d="M10.4,1.2C7.6,1,2.8,21.9,2,29.8s-3.1,12.7,2.6,14.6c5.7,1.9,7.6-2.6,8.4-5.3c0.8-2.7,3-26.5,2.7-29.7
	C14.9-2,10.4,1.2,10.4,1.2z"/>
<line class="st4" x1="5.5" y1="44.5" x2="3" y2="67.5"/>
<line class="st4" x1="6.8" y1="45" x2="4.3" y2="68"/>
<circle class="st4" cx="13.4" cy="7.9" r="0.4"/>
<circle class="st4" cx="12.6" cy="4.5" r="0.4"/>
<circle class="st4" cx="14.4" cy="9.9" r="0.4"/>
<circle class="st4" cx="11.4" cy="10.9" r="0.4"/>
<circle class="st4" cx="10.4" cy="7.9" r="0.4"/>
<circle class="st4" cx="13.4" cy="12.9" r="0.4"/>
<circle class="st4" cx="11.4" cy="16.9" r="0.4"/>
<circle class="st4" cx="8.4" cy="13.9" r="0.4"/>
<circle class="st4" cx="13.4" cy="19.9" r="0.4"/>
<circle class="st4" cx="13.4" cy="15.9" r="0.4"/>
<circle class="st4" cx="11.4" cy="21.9" r="0.4"/>
<circle class="st4" cx="13.4" cy="23.9" r="0.4"/>
<circle class="st7" cx="10.4" cy="18.9" r="0.4"/>
<circle class="st4" cx="10.4" cy="24.9" r="0.4"/>
<circle class="st4" cx="12.4" cy="26.9" r="0.4"/>
<circle class="st4" cx="7.4" cy="21.9" r="0.4"/>
<circle class="st4" cx="5.4" cy="24.9" r="0.4"/>
<circle class="st4" cx="6.4" cy="17.9" r="0.4"/>
<circle class="st7" cx="10.4" cy="28.9" r="0.4"/>
<circle class="st4" cx="11.4" cy="31.9" r="0.4"/>
<circle class="st4" cx="5.4" cy="27.9" r="0.4"/>
<circle class="st4" cx="8.4" cy="33.9" r="0.4"/>
<circle class="st4" cx="11.4" cy="34.9" r="0.4"/>
<circle class="st4" cx="3.4" cy="32.9" r="0.4"/>
<circle class="st25" cx="7.4" cy="30.9" r="0.4"/>
<circle class="st4" cx="5.4" cy="34.9" r="0.4"/>
<circle class="st4" cx="9.4" cy="36.9" r="0.4"/>
<circle class="st4" cx="10.4" cy="39.9" r="0.4"/>
<circle class="st4" cx="7.4" cy="38.9" r="0.4"/>
<circle class="st4" cx="8.4" cy="41.9" r="0.4"/>
<circle class="st4" cx="3.4" cy="38.9" r="0.4"/>
<circle class="st4" cx="26.4" cy="50.9" r="0.4"/>
<circle class="st4" cx="29.4" cy="51.9" r="0.4"/>
<circle class="st4" cx="34.4" cy="50.9" r="0.4"/>
<circle class="st4" cx="32.4" cy="53.9" r="0.4"/>
<circle class="st4" cx="27.4" cy="53.9" r="0.4"/>
<circle class="st4" cx="25.4" cy="52.9" r="0.4"/>
<circle class="st4" cx="26.4" cy="55.9" r="0.4"/>
<circle class="st4" cx="30.4" cy="54.9" r="0.4"/>
<circle class="st4" cx="35.4" cy="52.9" r="0.4"/>
<circle class="st4" cx="29.4" cy="56.9" r="0.4"/>
<circle class="st7" cx="33.4" cy="55.9" r="0.4"/>
<circle class="st4" cx="27.4" cy="57.9" r="0.4"/>
<circle class="st4" cx="24.4" cy="56.9" r="0.4"/>
<circle class="st4" cx="24.4" cy="58.9" r="0.4"/>
<circle class="st4" cx="22.4" cy="57.9" r="0.4"/>
<circle class="st4" cx="21.4" cy="54.9" r="0.4"/>
<circle class="st4" cx="18.4" cy="59.9" r="0.4"/>
<circle class="st7" cx="23.4" cy="60.9" r="0.4"/>
<circle class="st4" cx="26.4" cy="59.9" r="0.4"/>
<circle class="st4" cx="24.4" cy="62.9" r="0.4"/>
<circle class="st4" cx="20.4" cy="61.9" r="0.4"/>
<circle class="st4" cx="17.4" cy="61.9" r="0.4"/>
<circle class="st4" cx="18.4" cy="64.9" r="0.4"/>
<circle class="st4" cx="21.4" cy="63.9" r="0.4"/>
<circle class="st4" cx="27.4" cy="61.9" r="0.4"/>
<circle class="st4" cx="21.4" cy="65.9" r="0.4"/>
<circle class="st25" cx="25.4" cy="64.9" r="0.4"/>
<circle class="st4" cx="19.4" cy="66.9" r="0.4"/>
<circle class="st4" cx="16.4" cy="65.9" r="0.4"/>
<circle class="st4" cx="16.4" cy="67.9" r="0.4"/>
<circle class="st4" cx="14.4" cy="66.9" r="0.4"/>
<circle class="st4" cx="14.4" cy="63.9" r="0.4"/>
</svg>
