<?xml version="1.0" encoding="utf-8"?>
<!-- Generator: Adobe Illustrator 23.0.1, SVG Export Plug-In . SVG Version: 6.00 Build 0)  -->
<svg version="1.1" id="Layer_1" xmlns="http://www.w3.org/2000/svg" xmlns:xlink="http://www.w3.org/1999/xlink" x="0px" y="0px"
	 viewBox="0 0 107 75.7" style="enable-background:new 0 0 107 75.7;" xml:space="preserve">
<style type="text/css">
	.st0{fill-rule:evenodd;clip-rule:evenodd;fill:none;stroke:#00C1A3;stroke-width:0.75;stroke-miterlimit:10;}
	.st1{fill:#FFFFFF;stroke:#0066FF;stroke-width:0.75;stroke-linecap:round;stroke-linejoin:round;stroke-miterlimit:10;}
	.st2{fill:none;stroke:#0066FF;stroke-width:0.75;stroke-linecap:round;stroke-linejoin:round;stroke-miterlimit:10;}
	.st3{fill:#FFFFFF;stroke:#0066FF;stroke-width:0.75;stroke-miterlimit:10;}
	.st4{fill:none;stroke:#0066FF;stroke-width:0.75;stroke-miterlimit:10;}
	.st5{fill:none;stroke:#00C1A3;stroke-width:0.75;stroke-miterlimit:10;}
	.st6{fill:none;stroke:#FF25F3;stroke-width:0.75;stroke-miterlimit:10;}
	.st7{fill:none;stroke:#FF25F3;stroke-width:0.75;stroke-linecap:round;stroke-linejoin:round;stroke-miterlimit:10;}
	.st8{fill-rule:evenodd;clip-rule:evenodd;fill:none;stroke:#0066FF;stroke-width:0.75;stroke-miterlimit:10;}
	.st9{clip-path:url(#SVGID_2_);fill-rule:evenodd;clip-rule:evenodd;fill:#FFFFFF;}
	.st10{fill-rule:evenodd;clip-rule:evenodd;fill:#FCFDFF;}
	.st11{fill-rule:evenodd;clip-rule:evenodd;fill:#FFFFFF;}
	.st12{fill-rule:evenodd;clip-rule:evenodd;fill:#3D6A9D;}
	.st13{fill:#FFFFFF;}
	.st14{fill:#0066FF;}
	.st15{fill-rule:evenodd;clip-rule:evenodd;fill:#FFFFFF;stroke:#0066FF;stroke-width:0.75;stroke-miterlimit:10;}
	.st16{fill-rule:evenodd;clip-rule:evenodd;fill:#FFFFFF;stroke:#44E0A0;stroke-width:0.75;stroke-miterlimit:10;}
	.st17{fill-rule:evenodd;clip-rule:evenodd;fill:#FFFFFF;stroke:#FF25F3;stroke-width:0.75;stroke-miterlimit:10;}
	.st18{fill:none;stroke:#FFFFFF;stroke-width:2.8774;stroke-miterlimit:10;}
	
		.st19{fill-rule:evenodd;clip-rule:evenodd;fill:none;stroke:#FF25F3;stroke-width:0.75;stroke-linecap:round;stroke-linejoin:round;stroke-miterlimit:10;}
	.st20{fill-rule:evenodd;clip-rule:evenodd;fill:#FFFFFF;stroke:#FFFFFF;stroke-width:0.7194;stroke-miterlimit:10;}
	.st21{fill:none;stroke:#FFFFFF;stroke-width:0.7194;stroke-miterlimit:10;}
	.st22{fill:none;stroke:#44E0A0;stroke-width:0.75;stroke-linecap:round;stroke-linejoin:round;stroke-miterlimit:10;}
	.st23{fill-rule:evenodd;clip-rule:evenodd;fill:#FFFFFF;stroke:#00C1A3;stroke-width:0.75;stroke-miterlimit:10;}
	.st24{fill:none;stroke:#0066FF;stroke-width:0.75;stroke-linecap:round;stroke-miterlimit:10;}
	.st25{fill:#FFFFFF;stroke:#00C1A3;stroke-width:0.75;stroke-miterlimit:10;}
	.st26{clip-path:url(#SVGID_4_);}
	
		.st27{fill-rule:evenodd;clip-rule:evenodd;fill:none;stroke:#0066FF;stroke-width:0.75;stroke-linecap:round;stroke-miterlimit:10;}
	.st28{fill:#FFFFFF;stroke:#FF25F3;stroke-width:0.75;stroke-miterlimit:10;}
	.st29{fill:#FFFFFF;stroke:#FF25F3;stroke-width:0.75;stroke-linecap:round;stroke-linejoin:round;stroke-miterlimit:10;}
	.st30{fill:none;stroke:#00FA9B;stroke-width:0.75;stroke-miterlimit:10;}
	.st31{fill:#87D73F;}
	.st32{fill:#3DED98;}
</style>
<path class="st3" d="M74.2,9.8c-1.5,2.4-4.2,0.8-8,1c-4.2,0.2-9.6,2.4-13.9,6.9C44.2,26.4,34.5,32,23.8,30.9
	c-10.8-1-19.8,3.5-19.8,3.5l-2.8,4.3c0,0,0.5,0.1,5.4,6.2c4.8,6.2,21.9,5,31.6,3.1C47.8,46,70,32.5,72.8,26.2
	c0.8-1.8,3.2-4.3,3.3-9.9c0-1.8,1.9-2.4,3.4-4.2c0.6-0.8,2.3-2.9,2-3.8c-0.4-1.1-1.4-1.4-2.6-1.4C77.9,7,75.2,8.2,74.2,9.8z"/>
<path class="st3" d="M81.6,20c-1.4,2.6-4.7,1.2-8.9,1.8c-4.8,0.7-10.6,3.3-15,8.3c-8.2,9.5-18.5,16.1-30.8,16.1s-22,5.5-22,5.5
	l-2.1,3.6c0,0,0,0.9,6.2,6.7s25.3,2.9,36.1,0c10.7-2.9,34.3-18.7,36.8-25.3c0.7-1.9,3.1-4.6,2.7-10.3c-0.1-1.8,3.4-4.5,4.9-6.5
	c1.5-1.9-0.3-5.1-2.8-4.8C85.5,15.2,82.5,18.3,81.6,20z"/>
<path class="st3" d="M91.4,26.1c-1.2,2.7-4.4,1.5-8.3,2.4c-4.4,0.9-9.8,3.9-13.6,9.2c-7.1,10-16.4,17.1-28,17.9
	C29.9,56.3,21,62.3,21,62.3l-2.2,4.7c0,0,0.6,0,6.7,5.3s24.1,1.3,34-2.2s31.2-20.7,33.2-27.5c0.6-2,2.7-4.8,1.9-10.4
	c-0.3-1.8,7.4-8.6,6.6-9.7c-1-1.3-3-3.5-4.8-3.1C94.4,19.8,92.7,23.1,91.4,26.1z"/>
<path class="st3" d="M84.1,2.5c0,0-3.8-3-6.9-0.4c-3.1,2.6-4.8,5.1-3.5,7.2c1.3,2.1,6.2,3.4,10.7,7.3c4.5,3.9,7,5.7,9.9,9.8
	s8.7,4,11-1.2s-0.8-7.3-3.9-9.7c-3.1-2.3-9.1-5.4-11.9-7.8C86.7,5.3,84.1,2.5,84.1,2.5z"/>
<path class="st6" d="M87.5,30.7c0,0-4.1,1.2-5.1,4.2s-9.2,15.8-17,20.4s-21.2,8.8-28.1,8.2s-9.9,1.5-9.9,1.5"/>
<polyline class="st4" points="22.7,62.8 25.9,65.2 23,67.9 "/>
<polyline class="st25" points="6.4,53.1 8.7,54.5 6.4,57.8 "/>
<polyline class="st4" points="6.5,35.8 8.7,37.5 6.5,40.2 "/>
<path class="st25" d="M104,20.3c-0.5-0.7-1.5-0.8-2.2-0.5c-0.8,0.3-1.3,0.9-1.9,1.5c-1.1,1.2-2.2,2.5-2.2,4.1"/>
<path class="st4" d="M9.6,37.2c0,0,12.3-3,19.1-2.1s11.3,0.6,16.6-3s13.5-12,17.9-14.2s7.1-2.7,7.1-2.7"/>
<path class="st4" d="M13.1,53.7c0,0,5.1-1.8,11.8-1.9c6.8-0.1,21.5-0.8,24.8-2.9c3.3-2.2,13.6-10,16.6-13.6c3-3.6,9.4-9.3,12.2-9.1"
	/>
</svg>
