<?xml version="1.0" encoding="utf-8"?>
<!-- Generator: Adobe Illustrator 23.0.1, SVG Export Plug-In . SVG Version: 6.00 Build 0)  -->
<svg version="1.1" id="Layer_1" xmlns="http://www.w3.org/2000/svg" xmlns:xlink="http://www.w3.org/1999/xlink" x="0px" y="0px"
	 viewBox="0 0 105.8 83.5" style="enable-background:new 0 0 105.8 83.5;" xml:space="preserve">
<style type="text/css">
	.st0{fill-rule:evenodd;clip-rule:evenodd;fill:none;stroke:#00C1A3;stroke-width:0.75;stroke-miterlimit:10;}
	.st1{fill:#FFFFFF;stroke:#0066FF;stroke-width:0.75;stroke-linecap:round;stroke-linejoin:round;stroke-miterlimit:10;}
	.st2{fill:none;stroke:#0066FF;stroke-width:0.75;stroke-linecap:round;stroke-linejoin:round;stroke-miterlimit:10;}
	.st3{fill:#FFFFFF;stroke:#0066FF;stroke-width:0.75;stroke-miterlimit:10;}
	.st4{fill:none;stroke:#0066FF;stroke-width:0.75;stroke-miterlimit:10;}
	.st5{fill:none;stroke:#00C1A3;stroke-width:0.75;stroke-miterlimit:10;}
	.st6{fill:none;stroke:#FF25F3;stroke-width:0.75;stroke-miterlimit:10;}
	.st7{fill:none;stroke:#FF25F3;stroke-width:0.75;stroke-linecap:round;stroke-linejoin:round;stroke-miterlimit:10;}
	.st8{fill-rule:evenodd;clip-rule:evenodd;fill:none;stroke:#0066FF;stroke-width:0.75;stroke-miterlimit:10;}
	.st9{clip-path:url(#SVGID_2_);fill-rule:evenodd;clip-rule:evenodd;fill:#FFFFFF;}
	.st10{fill-rule:evenodd;clip-rule:evenodd;fill:#FCFDFF;}
	.st11{fill-rule:evenodd;clip-rule:evenodd;fill:#FFFFFF;}
	.st12{fill-rule:evenodd;clip-rule:evenodd;fill:#3D6A9D;}
	.st13{fill:#FFFFFF;}
	.st14{fill:#0066FF;}
	.st15{fill-rule:evenodd;clip-rule:evenodd;fill:#FFFFFF;stroke:#0066FF;stroke-width:0.75;stroke-miterlimit:10;}
	.st16{fill-rule:evenodd;clip-rule:evenodd;fill:#FFFFFF;stroke:#44E0A0;stroke-width:0.75;stroke-miterlimit:10;}
	.st17{fill-rule:evenodd;clip-rule:evenodd;fill:#FFFFFF;stroke:#FF25F3;stroke-width:0.75;stroke-miterlimit:10;}
	.st18{fill:none;stroke:#FFFFFF;stroke-width:2.8774;stroke-miterlimit:10;}
	
		.st19{fill-rule:evenodd;clip-rule:evenodd;fill:none;stroke:#FF25F3;stroke-width:0.75;stroke-linecap:round;stroke-linejoin:round;stroke-miterlimit:10;}
	.st20{fill-rule:evenodd;clip-rule:evenodd;fill:#FFFFFF;stroke:#FFFFFF;stroke-width:0.7194;stroke-miterlimit:10;}
	.st21{fill:none;stroke:#FFFFFF;stroke-width:0.7194;stroke-miterlimit:10;}
	.st22{fill:none;stroke:#44E0A0;stroke-width:0.75;stroke-linecap:round;stroke-linejoin:round;stroke-miterlimit:10;}
	.st23{fill-rule:evenodd;clip-rule:evenodd;fill:#FFFFFF;stroke:#00C1A3;stroke-width:0.75;stroke-miterlimit:10;}
	.st24{fill:none;stroke:#0066FF;stroke-width:0.75;stroke-linecap:round;stroke-miterlimit:10;}
	.st25{fill:#FFFFFF;stroke:#00C1A3;stroke-width:0.75;stroke-miterlimit:10;}
	.st26{clip-path:url(#SVGID_4_);}
	
		.st27{fill-rule:evenodd;clip-rule:evenodd;fill:none;stroke:#0066FF;stroke-width:0.75;stroke-linecap:round;stroke-miterlimit:10;}
	.st28{fill:#FFFFFF;stroke:#FF25F3;stroke-width:0.75;stroke-miterlimit:10;}
	.st29{fill:#FFFFFF;stroke:#FF25F3;stroke-width:0.75;stroke-linecap:round;stroke-linejoin:round;stroke-miterlimit:10;}
	.st30{fill:none;stroke:#00FA9B;stroke-width:0.75;stroke-miterlimit:10;}
	.st31{fill:#87D73F;}
	.st32{fill:#3DED98;}
</style>
<g>
	<path class="st4" d="M91.4,5.9C89.8,5.5,87.3,5,84.7,6c-3.6,1.4-3.3,2.5-6.6,4c-3.2,1.4-4.1,0.7-7.6,2c-3.4,1.3-3.5,2.5-7.3,4.1
		c-2.9,1.2-2.9,1-6,2.1c-4.5,1.5-4.6,3.1-8.6,4.3c-3.7,1.1-4.3,0.1-7.5,1.4c-3.7,1.5-3.8,3.6-7.5,5c-2.9,1-3.3,0.4-6.3,1.7
		c-2.6,1.1-2.9,2.5-5.8,3.9c-2.7,1.3-2.7,0.3-5.5,1.4c-3.4,1.4-3.1,3.3-7.6,6c-2.4,1.5-4.2,2-4.1,2.4c0.1,0.4,2,0.1,6.2-0.2
		c4.9-0.3,4.6,0,6-0.3c3.4-0.8,3.4-2.3,7.4-3.8c3.3-1.2,3.7-0.4,6.3-1.7c3-1.5,2.7-2.8,5.5-4.1c2.7-1.3,3.4-0.3,6.7-1.5
		c3.4-1.2,3.2-2.4,6.7-4c3.7-1.6,4.2-0.5,8.8-2.1c3.9-1.4,3.4-2.1,7.9-3.8c3.5-1.3,4.4-1,7.2-2.4c2.8-1.4,2.5-2,5.1-3.3
		c4.3-2.2,5.3-0.7,8.4-2.8c2.5-1.6,2.1-2.7,5.4-4.7c1.7-1.1,3-1.5,3-2.2C94.7,6.6,92.3,6.1,91.4,5.9z"/>
	<path class="st4" d="M84,7.6c0,0-2.6,1.5-2.2,4c0.4,2.5,0,1.6,0,1.6"/>
	<path class="st4" d="M69.2,14.3c0,0-1.3,1.6-1.5,2.7c-0.2,1.1,0,2.4,0,2.4"/>
	<path class="st4" d="M55.7,19.9c0,0-1.9,1.3-2,3.7C53.5,26,53.5,26,53.5,26"/>
	<path class="st4" d="M40.2,26.2c0,0-2.3,1.3-2.4,2.9c0,1.6,0,1.6,0,1.6"/>
	<path class="st4" d="M26.4,32.3c0,0-1.7,0.8-1.4,2.6c0.3,1.8,0.3,1.8,0.3,1.8"/>
</g>
<g>
	<path class="st4" d="M101.4,27.7c-1.6-0.4-4.1-1-6.7-0.1c-3.7,1.3-3.4,2.4-6.8,3.7c-3.3,1.3-4.1,0.6-7.7,1.7
		c-3.4,1.1-3.6,2.4-7.5,3.8c-2.9,1.1-2.9,0.9-6.1,1.9c-4.5,1.4-4.7,2.9-8.8,3.9c-3.8,1-4.3,0-7.5,1.2c-3.8,1.4-3.9,3.5-7.7,4.7
		c-3,0.9-3.4,0.3-6.4,1.5c-2.6,1-3,2.4-5.9,3.7c-2.7,1.2-2.7,0.2-5.6,1.2c-3.4,1.2-3.3,3.2-7.8,5.7c-2.5,1.4-4.3,1.8-4.2,2.2
		c0.1,0.4,2,0.1,6.2,0.1c4.9-0.1,4.6,0.2,6-0.1c3.4-0.7,3.5-2.2,7.6-3.5c3.3-1.1,3.7-0.2,6.3-1.4c3-1.4,2.8-2.7,5.7-3.9
		c2.7-1.2,3.4-0.2,6.7-1.2c3.5-1,3.3-2.3,6.9-3.7c3.7-1.5,4.2-0.3,8.8-1.8c3.9-1.2,3.5-2,8.1-3.5c3.6-1.2,4.4-0.9,7.3-2.2
		c2.9-1.3,2.6-1.9,5.2-3.1c4.4-2,5.3-0.5,8.5-2.5c2.5-1.5,2.2-2.6,5.5-4.5c1.8-1,3.1-1.4,3.1-2.1C104.7,28.5,102.3,27.9,101.4,27.7z
		"/>
	<path class="st4" d="M94,29.2c0,0-2.7,1.4-2.3,3.9c0.3,2.5-0.1,1.6-0.1,1.6"/>
	<path class="st4" d="M78.9,35.3c0,0-1.3,1.6-1.6,2.7c-0.3,1.1-0.1,2.4-0.1,2.4"/>
	<path class="st4" d="M65.2,40.4c0,0-1.9,1.3-2.2,3.6c-0.2,2.4-0.2,2.4-0.2,2.4"/>
	<path class="st4" d="M49.4,46.1c0,0-2.4,1.2-2.5,2.8c-0.1,1.6-0.1,1.6-0.1,1.6"/>
	<path class="st4" d="M35.5,51.7c0,0-1.8,0.8-1.5,2.6c0.2,1.8,0.2,1.8,0.2,1.8"/>
</g>
<g>
	<path class="st5" d="M96.8,37.3c-1.4-0.2-3.7-0.4-6,0.7c-3.1,1.5-2.7,2.5-5.6,4c-2.8,1.5-3.6,1-6.6,2.4c-2.9,1.4-2.9,2.5-6.2,4.2
		c-2.5,1.3-2.5,1.1-5.2,2.3c-3.9,1.7-3.9,3.1-7.4,4.5c-3.3,1.3-3.8,0.5-6.6,1.9c-3.2,1.7-3.1,3.5-6.3,5c-2.5,1.2-2.9,0.6-5.5,2
		c-2.2,1.2-2.4,2.4-4.9,3.9c-2.3,1.4-2.4,0.5-4.8,1.7c-2.9,1.5-2.6,3.2-6.3,5.9c-2,1.5-3.6,2.1-3.5,2.4c0.1,0.3,1.7-0.1,5.5-0.6
		c4.4-0.6,4.1-0.3,5.3-0.7c3-1,2.8-2.3,6.3-4c2.8-1.3,3.3-0.6,5.5-2c2.5-1.6,2.2-2.7,4.6-4.1c2.3-1.3,3-0.5,5.8-1.8
		c3-1.3,2.7-2.4,5.7-4c3.1-1.7,3.7-0.8,7.7-2.5c3.4-1.5,2.9-2.2,6.8-4c3-1.4,3.8-1.2,6.2-2.7c2.4-1.5,2.1-2,4.3-3.3
		c3.7-2.3,4.6-1.1,7.3-3.1c2.1-1.6,1.7-2.6,4.4-4.6c1.4-1.1,2.6-1.6,2.5-2.2C99.9,37.7,97.7,37.4,96.8,37.3z"/>
	<path class="st5" d="M90.4,39.5c0,0-2.2,1.5-1.7,3.8c0.6,2.2,0.1,1.5,0.1,1.5"/>
	<path class="st5" d="M77.7,46.5c0,0-1,1.5-1.1,2.6s0.1,2.1,0.1,2.1"/>
	<path class="st5" d="M66.1,52.6c0,0-1.6,1.3-1.5,3.4c0,2.1,0,2.1,0,2.1"/>
	<path class="st5" d="M52.7,59.3c0,0-2,1.3-1.9,2.8s0.1,1.5,0.1,1.5"/>
	<path class="st5" d="M40.9,65.8c0,0-1.5,0.9-1.1,2.5s0.4,1.6,0.4,1.6"/>
</g>
<g>
	<path class="st7" d="M76.8,21.2c-1.4-0.2-3.7-0.4-6,0.7c-3.1,1.5-2.7,2.5-5.6,4c-2.8,1.5-3.6,1-6.6,2.4c-2.9,1.4-2.9,2.5-6.2,4.2
		c-2.5,1.3-2.5,1.1-5.2,2.3c-3.9,1.7-3.9,3.1-7.4,4.5c-3.3,1.3-3.8,0.5-6.6,1.9c-3.2,1.7-3.1,3.5-6.3,5c-2.5,1.2-2.9,0.6-5.5,2
		c-2.2,1.2-2.4,2.4-4.9,3.9c-2.3,1.4-2.4,0.5-4.8,1.7c-2.9,1.5-2.6,3.2-6.3,5.9c-2,1.5-3.6,2.1-3.5,2.4c0.1,0.3,1.7-0.1,5.5-0.6
		c4.4-0.6,4.1-0.3,5.3-0.7c3-1,2.8-2.3,6.3-4c2.8-1.3,3.3-0.6,5.5-2c2.5-1.6,2.2-2.7,4.6-4.1c2.3-1.3,3-0.5,5.8-1.8
		c3-1.3,2.7-2.4,5.7-4c3.1-1.7,3.7-0.8,7.7-2.5c3.4-1.5,2.9-2.2,6.8-4c3-1.4,3.8-1.2,6.2-2.7c2.4-1.5,2.1-2,4.3-3.3
		c3.7-2.3,4.6-1.1,7.3-3.1c2.1-1.6,1.7-2.6,4.4-4.6c1.4-1.1,2.6-1.6,2.5-2.2C79.8,21.5,77.6,21.3,76.8,21.2z"/>
	<path class="st7" d="M70.4,23.3c0,0-2.2,1.5-1.7,3.8c0.6,2.2,0.1,1.5,0.1,1.5"/>
	<path class="st7" d="M57.6,30.4c0,0-1,1.5-1.1,2.6c-0.1,1,0.1,2.1,0.1,2.1"/>
	<path class="st7" d="M46,36.4c0,0-1.6,1.3-1.5,3.4s0,2.1,0,2.1"/>
	<path class="st7" d="M32.7,43.2c0,0-2,1.3-1.9,2.8s0.1,1.5,0.1,1.5"/>
	<path class="st7" d="M20.9,49.7c0,0-1.5,0.9-1.1,2.5c0.4,1.6,0.4,1.6,0.4,1.6"/>
</g>
</svg>
