<?xml version="1.0" encoding="utf-8"?>
<!-- Generator: Adobe Illustrator 23.0.1, SVG Export Plug-In . SVG Version: 6.00 Build 0)  -->
<svg version="1.1" id="Layer_1" xmlns="http://www.w3.org/2000/svg" xmlns:xlink="http://www.w3.org/1999/xlink" x="0px" y="0px"
	 viewBox="0 0 52.9 60" style="enable-background:new 0 0 52.9 60;" xml:space="preserve">
<style type="text/css">
	.st0{fill:none;stroke:#0066FF;stroke-width:0.75;stroke-linejoin:round;stroke-miterlimit:10;}
	.st1{fill:#FFFFFF;stroke:#0066FF;stroke-width:0.75;stroke-miterlimit:10;}
	.st2{fill:#FFFFFF;stroke:#00C1A3;stroke-width:0.75;stroke-miterlimit:10;}
	.st3{fill:none;stroke:#00C1A3;stroke-width:0.75;stroke-miterlimit:10;}
	
		.st4{fill-rule:evenodd;clip-rule:evenodd;fill:none;stroke:#FF25F3;stroke-width:0.75;stroke-linecap:round;stroke-linejoin:round;stroke-miterlimit:10;}
	.st5{fill:none;stroke:#0066FF;stroke-width:0.75;stroke-miterlimit:10;}
	.st6{fill-rule:evenodd;clip-rule:evenodd;fill:none;stroke:#0066FF;stroke-width:0.75;stroke-miterlimit:10;}
	.st7{fill-rule:evenodd;clip-rule:evenodd;fill:none;stroke:#00C1A3;stroke-width:0.75;stroke-miterlimit:10;}
	.st8{fill:none;stroke:#FF25F3;stroke-width:0.75;stroke-linecap:round;stroke-linejoin:round;stroke-miterlimit:10;}
	.st9{fill:#FFFFFF;stroke:#FF25F3;stroke-width:0.75;stroke-linecap:round;stroke-linejoin:round;stroke-miterlimit:10;}
	.st10{fill-rule:evenodd;clip-rule:evenodd;fill:#FFFFFF;stroke:#0066FF;stroke-width:0.75;stroke-miterlimit:10;}
	
		.st11{fill-rule:evenodd;clip-rule:evenodd;fill:#FFFFFF;stroke:#FF25F3;stroke-width:0.75;stroke-linecap:round;stroke-linejoin:round;stroke-miterlimit:10;}
	.st12{fill-rule:evenodd;clip-rule:evenodd;fill:#FFFFFF;stroke:#00C1A3;stroke-width:0.75;stroke-miterlimit:10;}
	.st13{fill:none;stroke:#0066FF;stroke-width:0.75;stroke-linecap:round;stroke-linejoin:round;stroke-miterlimit:10;}
	.st14{fill:#FFFFFF;stroke:#00C1A3;stroke-width:0.75;stroke-linecap:round;stroke-linejoin:round;stroke-miterlimit:10;}
	
		.st15{fill-rule:evenodd;clip-rule:evenodd;fill:#FFFFFF;stroke:#0066FF;stroke-width:0.75;stroke-linecap:round;stroke-linejoin:round;stroke-miterlimit:10;}
	
		.st16{fill-rule:evenodd;clip-rule:evenodd;fill:none;stroke:#0066FF;stroke-width:0.75;stroke-linecap:round;stroke-linejoin:round;stroke-miterlimit:10;}
	.st17{fill:#FFFFFF;stroke:#0066FF;stroke-width:0.75;stroke-linejoin:round;stroke-miterlimit:10;}
</style>
<g>
	<line class="st6" x1="41.6" y1="15.3" x2="32" y2="9.7"/>
	<line class="st6" x1="46.8" y1="35.4" x2="46.8" y2="25.2"/>
	<line class="st6" x1="32" y1="50.1" x2="41.1" y2="44.7"/>
	<line class="st6" x1="11.9" y1="44.9" x2="20.8" y2="50"/>
	<line class="st6" x1="6.2" y1="24" x2="6.2" y2="35.8"/>
	<line class="st6" x1="21" y1="9.6" x2="11.6" y2="15"/>
	<line class="st5" x1="11.7" y1="21.4" x2="21" y2="26.7"/>
	<line class="st5" x1="32" y1="26.7" x2="41.3" y2="21.4"/>
	<line class="st5" x1="26.5" y1="23.5" x2="26.5" y2="12.8"/>
	<line class="st5" x1="21" y1="33" x2="11.7" y2="38.3"/>
	<line class="st5" x1="26.5" y1="36.2" x2="26.5" y2="47"/>
	<line class="st5" x1="32" y1="33" x2="41.3" y2="38.3"/>
	<g>
		<polygon class="st6" points="0.7,15 0.7,21.4 6.2,24.5 11.7,21.4 11.7,15 6.2,11.9 		"/>
		<line class="st5" x1="0.7" y1="15" x2="6.2" y2="18.1"/>
		<line class="st5" x1="11.7" y1="15" x2="6.2" y2="18.1"/>
		<line class="st5" x1="6.2" y1="24.5" x2="6.2" y2="18.1"/>
	</g>
	<g>
		<polygon class="st6" points="0.8,38.4 0.8,44.7 6.3,47.9 11.8,44.7 11.8,38.4 6.3,35.2 		"/>
		<line class="st5" x1="0.8" y1="38.4" x2="6.3" y2="41.5"/>
		<line class="st5" x1="11.8" y1="38.4" x2="6.3" y2="41.5"/>
		<line class="st5" x1="6.3" y1="47.9" x2="6.3" y2="41.5"/>
	</g>
	<g>
		<polygon class="st6" points="21,49.7 21,56.1 26.5,59.2 32,56.1 32,49.7 26.5,46.6 		"/>
		<line class="st5" x1="26.5" y1="52.8" x2="21" y2="49.7"/>
		<line class="st5" x1="32" y1="49.7" x2="26.5" y2="52.8"/>
		<line class="st5" x1="26.5" y1="59.2" x2="26.5" y2="52.8"/>
	</g>
	<g>
		<polygon class="st7" points="41.2,38.4 41.2,44.7 46.7,47.9 52.2,44.7 52.2,38.4 46.7,35.2 		"/>
		<line class="st3" x1="41.2" y1="38.4" x2="46.7" y2="41.5"/>
		<line class="st3" x1="52.2" y1="38.4" x2="46.7" y2="41.5"/>
		<line class="st3" x1="46.7" y1="47.9" x2="46.7" y2="41.5"/>
	</g>
	<g>
		<polygon class="st6" points="41.2,15.5 41.2,21.8 46.7,25 52.2,21.8 52.2,15.5 46.7,12.3 		"/>
		<line class="st5" x1="41.2" y1="15.5" x2="46.7" y2="18.6"/>
		<line class="st5" x1="52.2" y1="15.5" x2="46.7" y2="18.6"/>
		<line class="st5" x1="46.7" y1="25" x2="46.7" y2="18.6"/>
	</g>
	<g>
		<polygon class="st4" points="21,3.9 21,10.3 26.5,13.4 32,10.3 32,3.9 26.5,0.8 		"/>
		<line class="st8" x1="21" y1="3.9" x2="26.5" y2="7"/>
		<line class="st8" x1="32" y1="3.9" x2="26.5" y2="7"/>
		<line class="st8" x1="26.5" y1="13.4" x2="26.5" y2="7"/>
	</g>
	<g>
		<polygon class="st6" points="21,26.4 21,32.8 26.5,35.9 32,32.8 32,26.4 26.5,23.3 		"/>
		<line class="st5" x1="21" y1="26.4" x2="26.5" y2="29.5"/>
		<line class="st5" x1="32" y1="26.4" x2="26.5" y2="29.5"/>
		<line class="st5" x1="26.5" y1="35.9" x2="26.5" y2="29.5"/>
	</g>
</g>
</svg>
