<?xml version="1.0" encoding="utf-8"?>
<!-- Generator: Adobe Illustrator 23.0.1, SVG Export Plug-In . SVG Version: 6.00 Build 0)  -->
<svg version="1.1" id="Layer_1" xmlns="http://www.w3.org/2000/svg" xmlns:xlink="http://www.w3.org/1999/xlink" x="0px" y="0px"
	 viewBox="0 0 80.3 82.8" style="enable-background:new 0 0 80.3 82.8;" xml:space="preserve">
<style type="text/css">
	.st0{fill-rule:evenodd;clip-rule:evenodd;fill:none;stroke:#00C1A3;stroke-width:0.75;stroke-miterlimit:10;}
	.st1{fill:#FFFFFF;stroke:#0066FF;stroke-width:0.75;stroke-linecap:round;stroke-linejoin:round;stroke-miterlimit:10;}
	.st2{fill:none;stroke:#0066FF;stroke-width:0.75;stroke-linecap:round;stroke-linejoin:round;stroke-miterlimit:10;}
	.st3{fill:#FFFFFF;stroke:#0066FF;stroke-width:0.75;stroke-miterlimit:10;}
	.st4{fill:none;stroke:#0066FF;stroke-width:0.75;stroke-miterlimit:10;}
	.st5{fill:none;stroke:#00C1A3;stroke-width:0.75;stroke-miterlimit:10;}
	.st6{fill:none;stroke:#FF25F3;stroke-width:0.75;stroke-miterlimit:10;}
	.st7{fill:none;stroke:#FF25F3;stroke-width:0.75;stroke-linecap:round;stroke-linejoin:round;stroke-miterlimit:10;}
	.st8{fill-rule:evenodd;clip-rule:evenodd;fill:none;stroke:#0066FF;stroke-width:0.75;stroke-miterlimit:10;}
	.st9{clip-path:url(#SVGID_2_);fill-rule:evenodd;clip-rule:evenodd;fill:#FFFFFF;}
	.st10{fill-rule:evenodd;clip-rule:evenodd;fill:#FCFDFF;}
	.st11{fill-rule:evenodd;clip-rule:evenodd;fill:#FFFFFF;}
	.st12{fill-rule:evenodd;clip-rule:evenodd;fill:#3D6A9D;}
	.st13{fill:#FFFFFF;}
	.st14{fill:#0066FF;}
	.st15{fill-rule:evenodd;clip-rule:evenodd;fill:#FFFFFF;stroke:#0066FF;stroke-width:0.75;stroke-miterlimit:10;}
	.st16{fill-rule:evenodd;clip-rule:evenodd;fill:#FFFFFF;stroke:#44E0A0;stroke-width:0.75;stroke-miterlimit:10;}
	.st17{fill-rule:evenodd;clip-rule:evenodd;fill:#FFFFFF;stroke:#FF25F3;stroke-width:0.75;stroke-miterlimit:10;}
	.st18{fill:none;stroke:#FFFFFF;stroke-width:2.8774;stroke-miterlimit:10;}
	
		.st19{fill-rule:evenodd;clip-rule:evenodd;fill:none;stroke:#FF25F3;stroke-width:0.75;stroke-linecap:round;stroke-linejoin:round;stroke-miterlimit:10;}
	.st20{fill-rule:evenodd;clip-rule:evenodd;fill:#FFFFFF;stroke:#FFFFFF;stroke-width:0.7194;stroke-miterlimit:10;}
	.st21{fill:none;stroke:#FFFFFF;stroke-width:0.7194;stroke-miterlimit:10;}
	.st22{fill:none;stroke:#44E0A0;stroke-width:0.75;stroke-linecap:round;stroke-linejoin:round;stroke-miterlimit:10;}
	.st23{fill-rule:evenodd;clip-rule:evenodd;fill:#FFFFFF;stroke:#00C1A3;stroke-width:0.75;stroke-miterlimit:10;}
	.st24{fill:none;stroke:#0066FF;stroke-width:0.75;stroke-linecap:round;stroke-miterlimit:10;}
	.st25{fill:#FFFFFF;stroke:#00C1A3;stroke-width:0.75;stroke-miterlimit:10;}
	.st26{clip-path:url(#SVGID_4_);}
	
		.st27{fill-rule:evenodd;clip-rule:evenodd;fill:none;stroke:#0066FF;stroke-width:0.75;stroke-linecap:round;stroke-miterlimit:10;}
	.st28{fill:#FFFFFF;stroke:#FF25F3;stroke-width:0.75;stroke-miterlimit:10;}
	.st29{fill:#FFFFFF;stroke:#FF25F3;stroke-width:0.75;stroke-linecap:round;stroke-linejoin:round;stroke-miterlimit:10;}
	.st30{fill:none;stroke:#00FA9B;stroke-width:0.75;stroke-miterlimit:10;}
	.st31{fill:#87D73F;}
	.st32{fill:#3DED98;}
</style>
<path class="st2" d="M35.4,78.1C18.6,74.9,5.9,60.2,5.9,42.5c0-20,16.2-36.3,36.3-36.3c10.3,0,19.6,4.3,26.3,11.2"/>
<path class="st2" d="M76.4,30.4c1.3,3.8,2.1,7.8,2.1,12.1c0,19-14.6,34.6-33.2,36.1"/>
<path class="st2" d="M76.4,30.4c-0.2-0.5,0.3-1.7-0.9-5.8c-0.3-1.2-1.5-1.4-2.1-3.1c-0.4-1-0.2-3.5-0.8-4.7
	c-0.9-2.1-10.5,6.3-12.7,6.2c-2.3-0.1-5.1,0.1-5.9,2.3c-0.6,1.7,0.3,4-1.2,5c-0.7,0.5-1.7,0.3-2.5,0.3c-0.9,0-1.9,0.3-2.1,1.1
	c-0.2,0.6,0.2,1.3,0.3,1.9c0.3,1.9-2,3.1-3.8,3.9c-2,0.9-4,2.3-4.7,4.4c-0.6,1.9-0.1,4.2-0.9,6c-0.4,0.9-1.2,1.7-1.4,2.7
	c-0.4,1.7,0.9,3.4,1.5,5c1.4,3.6-0.7,8.1-4.4,9.3c-1.8,0.6-3.4,1.5-4.4,3.1c-1,1.6-1,4,0.5,5.2c1.2,1,3.1,1.1,4,2.4
	c0.7,1.1,0.3,2.7,1,3.8c0.4,0.6,1,1,1.7,1.4c1.3,0.7,2.8,1.2,4.2,0.8c1.5-0.4,2.5-1.7,3.5-3"/>
<path class="st28" d="M29.4,8.5c0.8,0.5,1.8,0.4,2.7,0.7c0.9,0.2,1.8,1.1,1.5,2c-0.1,0.3-0.4,0.5-0.6,0.7c-1,0.9-2.3,1.7-2.6,3
	c-0.3,1.5,0.7,2.9,1.7,3.9c1.7,1.8,3.7,3.3,5.9,4.5c0.3,0.2,0.6,0.4,0.8,0.6c0.2,0.3,0.2,0.7,0.3,1.1c0.1,1.5,2.6,3.1,2.8,4.6
	S42,38.9,41,40.1"/>
<path class="st25" d="M69.4,26.8c1.8,0.6,2.9,2.5,3.5,4.3c2.5,7,1.3,14.9-1.2,22c-1,2.7-2.1,5.5-3.8,7.8
	c-3.5,4.8-17.7,12.6-27.4,16.3"/>
<path class="st2" d="M59.7,63.7c1.7-6.6,2.5-13.4,2.4-20.2"/>
<path class="st2" d="M57.6,59.2c0.2-3.6-0.2-7.3-1.3-10.8"/>
<path class="st2" d="M64.7,34.1c2.3,2.5,3.7,5.8,4,9.2"/>
<path class="st2" d="M10,37.7c-1.7,6.2,1.1,12.7,4.4,18.2c3.3,5.5,7.7,10.9,13.9,12.5"/>
<path class="st2" d="M20.9,31.4c1,7.8,0.3,15.8-2,23.3"/>
<path class="st2" d="M28.5,34.4c1.9,6.9,0.9,14.6-2.7,20.8"/>
<path class="st2" d="M33.6,47.7c-0.2,5.3-1.7,10.5-4.4,15.1"/>
<path class="st2" d="M44.6,8.8c1.1,0.4,2.3,0.9,2.5,2c0.1,0.7-0.2,1.4,0,2c0.1,0.3,0.4,0.6,0.6,0.8c0.9,0.8,1.7,1.6,2.7,2.2
	c0.5,0.3,1.1,0.6,1.6,1c0.8,0.7,1.3,1.7,1.4,2.8"/>
<path class="st2" d="M54,11.6c1,0.5,2.1,1,2.7,2c0.9,1.4,0.5,3.5,1.5,4.8c0.1,0.2,0.3,0.4,0.4,0.6c0.1,0.4-0.2,0.8-0.4,1
	c-0.5,0.6-1.1,1-1.8,1.4"/>
<path class="st2" d="M42.5,18.6c2.5,0.9,4.6,3,5.5,5.5c0.4,1,0.5,2.1,0.1,3.1"/>
<path class="st2" d="M21.9,16.5c-1.4,0.2-2.6,1.5-3,2.8c-0.4,1.4-0.1,2.9,0.5,4.2"/>
<path class="st2" d="M27.2,21.9c0-0.1,0.1-0.2,0.1-0.3c-0.5,0.8-1,1.6-1.3,2.5c-0.3,0.9-0.3,1.9,0,2.8c0.4,1,1.2,1.8,2,2.6"/>
<path class="st2" d="M33.9,29.6c0.5,0.3,0.8,0.9,1,1.5c1.2,2.9,1.3,6.2,0.4,9.2"/>
<path class="st2" d="M58,28.4c-0.5,0.7-0.1,1.6,0.2,2.4c1.1,2.3,2.3,4.5,3.8,6.5"/>
<path class="st2" d="M52.4,35.4c0.5,1.8,1.7,3.5,3,4.8c1.4,1.3,2.9,2.5,4.5,3.6"/>
<path class="st2" d="M45.6,46.3c2.3,0.7,3.9,3,4.4,5.4c0.5,2.4,0.2,4.9-0.1,7.3"/>
<path class="st2" d="M46.4,60.1c0.6,0.6,0.7,1.5,0.7,2.4c0,2.5-0.5,5.2-2.1,7.2"/>
<path class="st2" d="M48.3,6.2c0.6-0.9-1.1-2.5-1.7-3.4s-1.8-1.4-2.8-1.2C43.4,1.6,43,1.8,42.6,2c-1,0.4-2.1,0.9-3.1,1.3
	c-0.7,0.3-1.4,0.6-2.2,0.6c-0.5,0-1-0.2-1.4-0.3c-2.4-0.4-4.7,1-6.8,2.4c-1.6,1.1-3.2,2.1-4.8,3.2c-1.6,1-3.2-0.2-5.1-0.1
	c-1.1,0.1-2.2,0.2-3.2,0.6c-2.1,0.8-3.7,2.6-5.2,4.3c-0.4,0.4-0.7,0.9-1.1,1.3c-0.3,0.4-0.7,0.8-0.9,1.3c-0.2,0.4-0.2,0.8-0.5,1.1
	c-0.3,0.3-0.7,0.5-1.1,0.6c-3.1,1.2-5.1,5-4.3,8.3c0.1,0.4,0.2,0.9,0.2,1.3c0,0.4-0.2,0.7-0.4,1.1c-0.7,1.7-0.9,3.6-0.5,5.3
	C2.3,35,2.5,35.8,2,36.2c-0.3,0.3-0.8,0.3-1,0.7c-0.2,0.5,0.4,0.8,0.6,1.3c0.3,0.7-0.2,1.4-0.2,2.1c0,1.3,1.5,2.1,1.9,3.4
	c0.2,0.5,0.2,1,0.3,1.5c0.2,0.9-1.3,4.8-0.8,5.6c2,3.3,4.6,7.1,7.7,9.3"/>
</svg>
