<?xml version="1.0" encoding="utf-8"?>
<!-- Generator: Adobe Illustrator 23.0.1, SVG Export Plug-In . SVG Version: 6.00 Build 0)  -->
<svg version="1.1" id="Layer_1" xmlns="http://www.w3.org/2000/svg" xmlns:xlink="http://www.w3.org/1999/xlink" x="0px" y="0px"
	 viewBox="0 0 68.1 40.2" style="enable-background:new 0 0 68.1 40.2;" xml:space="preserve">
<style type="text/css">
	.st0{fill-rule:evenodd;clip-rule:evenodd;fill:none;stroke:#00C1A3;stroke-width:0.75;stroke-miterlimit:10;}
	.st1{fill:#FFFFFF;stroke:#0066FF;stroke-width:0.75;stroke-linecap:round;stroke-linejoin:round;stroke-miterlimit:10;}
	.st2{fill:none;stroke:#0066FF;stroke-width:0.75;stroke-linecap:round;stroke-linejoin:round;stroke-miterlimit:10;}
	.st3{fill:#FFFFFF;stroke:#0066FF;stroke-width:0.75;stroke-miterlimit:10;}
	.st4{fill:none;stroke:#0066FF;stroke-width:0.75;stroke-miterlimit:10;}
	.st5{fill:none;stroke:#00C1A3;stroke-width:0.75;stroke-miterlimit:10;}
	.st6{fill:none;stroke:#FF25F3;stroke-width:0.75;stroke-miterlimit:10;}
	.st7{fill:none;stroke:#FF25F3;stroke-width:0.75;stroke-linecap:round;stroke-linejoin:round;stroke-miterlimit:10;}
	.st8{fill-rule:evenodd;clip-rule:evenodd;fill:none;stroke:#0066FF;stroke-width:0.75;stroke-miterlimit:10;}
	.st9{clip-path:url(#SVGID_2_);fill-rule:evenodd;clip-rule:evenodd;fill:#FFFFFF;}
	.st10{fill-rule:evenodd;clip-rule:evenodd;fill:#FCFDFF;}
	.st11{fill-rule:evenodd;clip-rule:evenodd;fill:#FFFFFF;}
	.st12{fill-rule:evenodd;clip-rule:evenodd;fill:#3D6A9D;}
	.st13{fill:#FFFFFF;}
	.st14{fill:#0066FF;}
	.st15{fill-rule:evenodd;clip-rule:evenodd;fill:#FFFFFF;stroke:#0066FF;stroke-width:0.75;stroke-miterlimit:10;}
	.st16{fill-rule:evenodd;clip-rule:evenodd;fill:#FFFFFF;stroke:#44E0A0;stroke-width:0.75;stroke-miterlimit:10;}
	.st17{fill-rule:evenodd;clip-rule:evenodd;fill:#FFFFFF;stroke:#FF25F3;stroke-width:0.75;stroke-miterlimit:10;}
	.st18{fill:none;stroke:#FFFFFF;stroke-width:2.8774;stroke-miterlimit:10;}
	
		.st19{fill-rule:evenodd;clip-rule:evenodd;fill:none;stroke:#FF25F3;stroke-width:0.75;stroke-linecap:round;stroke-linejoin:round;stroke-miterlimit:10;}
	.st20{fill-rule:evenodd;clip-rule:evenodd;fill:#FFFFFF;stroke:#FFFFFF;stroke-width:0.7194;stroke-miterlimit:10;}
	.st21{fill:none;stroke:#FFFFFF;stroke-width:0.7194;stroke-miterlimit:10;}
	.st22{fill:none;stroke:#44E0A0;stroke-width:0.75;stroke-linecap:round;stroke-linejoin:round;stroke-miterlimit:10;}
	.st23{fill-rule:evenodd;clip-rule:evenodd;fill:#FFFFFF;stroke:#00C1A3;stroke-width:0.75;stroke-miterlimit:10;}
	.st24{fill:none;stroke:#0066FF;stroke-width:0.75;stroke-linecap:round;stroke-miterlimit:10;}
	.st25{fill:#FFFFFF;stroke:#00C1A3;stroke-width:0.75;stroke-miterlimit:10;}
	.st26{clip-path:url(#SVGID_4_);}
	
		.st27{fill-rule:evenodd;clip-rule:evenodd;fill:none;stroke:#0066FF;stroke-width:0.75;stroke-linecap:round;stroke-miterlimit:10;}
	.st28{fill:#FFFFFF;stroke:#FF25F3;stroke-width:0.75;stroke-miterlimit:10;}
	.st29{fill:#FFFFFF;stroke:#FF25F3;stroke-width:0.75;stroke-linecap:round;stroke-linejoin:round;stroke-miterlimit:10;}
	.st30{fill:none;stroke:#00FA9B;stroke-width:0.75;stroke-miterlimit:10;}
	.st31{fill:#87D73F;}
	.st32{fill:#3DED98;}
</style>
<path class="st4" d="M18.4,28.3c-1,4.3-4.4,7-7.9,8.2c-4.6,1.6-9.3-2.2-8.8-5.3c-1.1-1.6,0-2.9,0.5-4.7c0.9-3.4,3.3-6.9,6.3-8.6
	c3.5-2,7.3-3.3,11.2-4.3s8.9-1.2,12.6,0.4c1.4,0.6,4,1.4,2.9,4c1.2,1.8,0.2,2.9-0.5,3.7c-2.2,2.8-5.5,2.4-8.8,3
	C22.7,25.2,19.2,25.2,18.4,28.3z"/>
<path class="st5" d="M35.4,17.3c0,0,0,2.4-3,3.6c-1.6,0.7-7.7,1-9.6,1.3c-2,0.3-5.5,1.8-6.5,3.6c-1,1.8-1.2,6.4-4,7.7
	c-2.7,1.3-4,1.3-7.1,0.2c-3.2-1.1-3.7-3.2-3.7-3.2"/>
<path class="st4" d="M21.1,20.5c0.3-0.9,0.1-2-0.5-2.6"/>
<path class="st4" d="M19.4,21.2c-0.5-0.9-1.3-1.7-2.3-2"/>
<path class="st4" d="M16.1,23.1c-1.1-0.6-2.2-1-3.4-1.3"/>
<path class="st4" d="M13.6,26.9c-2-1-4.4-1.2-6.5-0.3"/>
<path class="st4" d="M24.8,15.6c0.8,0.9,1.1,2.2,0.8,3.3"/>
<path class="st4" d="M29.4,15.6c0.2,0.9,0.2,1.9,0.1,2.8"/>
<g>
	<path class="st4" d="M49.4,19.8c0.5,5,3.6,8.4,6.9,10.1c4.4,2.2,9.5-1.6,9.3-5.2c1.2-1.7,0.3-3.3,0-5.5c-0.5-3.9-2.5-8.2-5.3-10.5
		c-3.3-2.6-6.9-4.4-10.7-6S40.9,0.6,37.1,2c-1.4,0.6-4.2,1.2-3.4,4.3c-1.4,1.9-0.5,3.3,0.1,4.3c1.9,3.5,5.2,3.3,8.4,4.2
		C45.5,15.8,49,16.2,49.4,19.8z"/>
	<path class="st4" d="M33.8,5.6c0,0-0.3,2.7,2.6,4.4c1.5,0.9,7.5,1.9,9.4,2.4s5.2,2.6,6,4.7c0.8,2.2,0.5,7.5,3.1,9.2
		c2.6,1.8,3.8,1.9,7.1,1s4-3.3,4-3.3"/>
	<path class="st4" d="M47.6,10.6c-0.2-1,0.1-2.2,0.8-3"/>
	<path class="st4" d="M49.2,11.6c0.6-1,1.5-1.8,2.5-2.1"/>
	<path class="st4" d="M52.3,14c1.1-0.5,2.3-0.9,3.5-1.1"/>
	<path class="st4" d="M54.4,18.7c2.1-1,4.5-0.9,6.5,0.2"/>
	<path class="st4" d="M44.5,4.7c-0.9,0.9-1.4,2.4-1.1,3.7"/>
	<path class="st4" d="M39.8,4.2c-0.3,1-0.4,2.1-0.4,3.2"/>
</g>
<path class="st4" d="M49.3,26.7c-0.4-0.9-1.1-1.5-1.9-2.1c-1.3-1-2.7-2-4.2-2.5c-1.6-0.5-3.3-0.6-4.8,0.2c-2.1,1.1-3,3.9-2.1,6
	c-2.9,1.4-6.3,1-9.5,1.1c-1.3,0-2.7,0.2-3.9,0.8c-1.2,0.6-2.1,1.9-1.9,3.2c0.2,1.4,1.5,2.4,2.8,3.1c3.8,2,8.1,2.6,12.4,2.3
	c3.2-0.2,8.4-0.7,11-2.9C49.2,34.3,50.2,29,49.3,26.7z"/>
<path class="st7" d="M41.7,24.2c1.9,0.6,3.2,2.4,3.4,4.3c0.1,1.2-0.2,2.5-1,3.4c-0.8,0.9-2,1.3-3.1,1.6c-3.6,1-7.4,0.9-10.9-0.1"/>
</svg>
