<?xml version="1.0" encoding="utf-8"?>
<!-- Generator: Adobe Illustrator 23.0.1, SVG Export Plug-In . SVG Version: 6.00 Build 0)  -->
<svg version="1.1" id="Layer_1" xmlns="http://www.w3.org/2000/svg" xmlns:xlink="http://www.w3.org/1999/xlink" x="0px" y="0px"
	 viewBox="0 0 59.3 34.1" style="enable-background:new 0 0 59.3 34.1;" xml:space="preserve">
<style type="text/css">
	.st0{fill-rule:evenodd;clip-rule:evenodd;fill:none;stroke:#00C1A3;stroke-width:0.75;stroke-miterlimit:10;}
	.st1{fill:#FFFFFF;stroke:#0066FF;stroke-width:0.75;stroke-linecap:round;stroke-linejoin:round;stroke-miterlimit:10;}
	.st2{fill:none;stroke:#0066FF;stroke-width:0.75;stroke-linecap:round;stroke-linejoin:round;stroke-miterlimit:10;}
	.st3{fill:#FFFFFF;stroke:#0066FF;stroke-width:0.75;stroke-miterlimit:10;}
	.st4{fill:none;stroke:#0066FF;stroke-width:0.75;stroke-miterlimit:10;}
	.st5{fill:none;stroke:#00C1A3;stroke-width:0.75;stroke-miterlimit:10;}
	.st6{fill:none;stroke:#FF25F3;stroke-width:0.75;stroke-miterlimit:10;}
	.st7{fill:none;stroke:#FF25F3;stroke-width:0.75;stroke-linecap:round;stroke-linejoin:round;stroke-miterlimit:10;}
	.st8{fill-rule:evenodd;clip-rule:evenodd;fill:none;stroke:#0066FF;stroke-width:0.75;stroke-miterlimit:10;}
	.st9{clip-path:url(#SVGID_2_);fill-rule:evenodd;clip-rule:evenodd;fill:#FFFFFF;}
	.st10{fill-rule:evenodd;clip-rule:evenodd;fill:#FCFDFF;}
	.st11{fill-rule:evenodd;clip-rule:evenodd;fill:#FFFFFF;}
	.st12{fill-rule:evenodd;clip-rule:evenodd;fill:#3D6A9D;}
	.st13{fill:#FFFFFF;}
	.st14{fill:#0066FF;}
	.st15{fill-rule:evenodd;clip-rule:evenodd;fill:#FFFFFF;stroke:#0066FF;stroke-width:0.75;stroke-miterlimit:10;}
	.st16{fill-rule:evenodd;clip-rule:evenodd;fill:#FFFFFF;stroke:#44E0A0;stroke-width:0.75;stroke-miterlimit:10;}
	.st17{fill-rule:evenodd;clip-rule:evenodd;fill:#FFFFFF;stroke:#FF25F3;stroke-width:0.75;stroke-miterlimit:10;}
	.st18{fill:none;stroke:#FFFFFF;stroke-width:2.8774;stroke-miterlimit:10;}
	
		.st19{fill-rule:evenodd;clip-rule:evenodd;fill:none;stroke:#FF25F3;stroke-width:0.75;stroke-linecap:round;stroke-linejoin:round;stroke-miterlimit:10;}
	.st20{fill-rule:evenodd;clip-rule:evenodd;fill:#FFFFFF;stroke:#FFFFFF;stroke-width:0.7194;stroke-miterlimit:10;}
	.st21{fill:none;stroke:#FFFFFF;stroke-width:0.7194;stroke-miterlimit:10;}
	.st22{fill:none;stroke:#44E0A0;stroke-width:0.75;stroke-linecap:round;stroke-linejoin:round;stroke-miterlimit:10;}
	.st23{fill-rule:evenodd;clip-rule:evenodd;fill:#FFFFFF;stroke:#00C1A3;stroke-width:0.75;stroke-miterlimit:10;}
	.st24{fill:none;stroke:#0066FF;stroke-width:0.75;stroke-linecap:round;stroke-miterlimit:10;}
	.st25{fill:#FFFFFF;stroke:#00C1A3;stroke-width:0.75;stroke-miterlimit:10;}
	.st26{clip-path:url(#SVGID_4_);}
	
		.st27{fill-rule:evenodd;clip-rule:evenodd;fill:none;stroke:#0066FF;stroke-width:0.75;stroke-linecap:round;stroke-miterlimit:10;}
	.st28{fill:#FFFFFF;stroke:#FF25F3;stroke-width:0.75;stroke-miterlimit:10;}
	.st29{fill:#FFFFFF;stroke:#FF25F3;stroke-width:0.75;stroke-linecap:round;stroke-linejoin:round;stroke-miterlimit:10;}
	.st30{fill:none;stroke:#00FA9B;stroke-width:0.75;stroke-miterlimit:10;}
	.st31{fill:#87D73F;}
	.st32{fill:#3DED98;}
</style>
<g>
	
		<ellipse transform="matrix(0.9964 -8.479138e-02 8.479138e-02 0.9964 -0.4239 1.4992)" class="st3" cx="17.4" cy="5.7" rx="9.2" ry="5.1"/>
	<path class="st3" d="M8.3,7.2c0-0.3-0.1-1-0.1-1.3c0-0.6-0.5-1-1.1-0.9C6.6,5,6.2,5.5,6.2,6c0,0.3,0.1,0.5,0.3,0.6
		C6.4,6.9,6.3,7.1,6.3,7.3c0,0.6,0.5,1,1.1,0.9S8.4,7.7,8.3,7.2z"/>
</g>
<g>
	
		<ellipse transform="matrix(0.9959 -9.075793e-02 9.075793e-02 0.9959 -1.0023 1.1242)" class="st3" cx="11.9" cy="11.6" rx="9.2" ry="5.1"/>
	<path class="st3" d="M2.8,13.1c0-0.3-0.1-1-0.1-1.3c-0.1-0.6-0.5-1-1.1-0.9c-0.6,0.1-1,0.5-0.9,1.1c0,0.3,0.1,0.5,0.3,0.6
		c-0.1,0.2-0.2,0.4-0.2,0.7c0.1,0.6,0.5,1,1.1,0.9C2.4,14.1,2.8,13.6,2.8,13.1z"/>
</g>
<g>
	
		<ellipse transform="matrix(0.9997 -2.335937e-02 2.335937e-02 0.9997 -0.1897 0.7646)" class="st3" cx="32.6" cy="8.5" rx="9.2" ry="5.1"/>
	<path class="st3" d="M41.8,7.6c0,0.3,0,1.1,0,1.3c0,0.6,0.5,1,1,1s1-0.5,1-1c0-0.3-0.1-0.5-0.3-0.6c0.1-0.2,0.2-0.4,0.2-0.7
		c0-0.6-0.5-1-1-1C42.2,6.6,41.8,7.1,41.8,7.6z"/>
</g>
<g>
	
		<ellipse transform="matrix(6.795126e-02 -0.9977 0.9977 6.795126e-02 25.6868 55.1048)" class="st3" cx="42.3" cy="13.8" rx="5.1" ry="9.2"/>
	<path class="st3" d="M51.6,13.8c0,0.3-0.1,1-0.1,1.3c0,0.6,0.4,1,0.9,1.1c0.6,0,1-0.4,1.1-0.9c0-0.3-0.1-0.5-0.2-0.7
		c0.2-0.2,0.3-0.4,0.3-0.6c0-0.6-0.4-1-0.9-1.1C52.1,12.8,51.6,13.2,51.6,13.8z"/>
</g>
<g>
	<ellipse transform="matrix(0.9933 -0.1154 0.1154 0.9933 -1.8318 2.484)" class="st28" cx="20.5" cy="17.1" rx="9.2" ry="5.1"/>
	<path class="st28" d="M11.5,18.8c0-0.3-0.1-1-0.2-1.3c-0.1-0.5-0.6-0.9-1.1-0.9c-0.5,0.1-0.9,0.6-0.9,1.1c0,0.3,0.2,0.5,0.3,0.6
		c-0.1,0.2-0.2,0.4-0.2,0.7c0.1,0.5,0.6,0.9,1.1,0.9C11.2,19.8,11.5,19.3,11.5,18.8z"/>
</g>
<g>
	<ellipse transform="matrix(0.3005 -0.9538 0.9538 0.3005 12.1098 61.0474)" class="st25" cx="47.7" cy="22.3" rx="5.1" ry="9.2"/>
	<path class="st25" d="M56.6,24.4c-0.1,0.2-0.3,1-0.4,1.2c-0.2,0.5,0.1,1.1,0.7,1.3c0.5,0.2,1.1-0.1,1.3-0.7c0.1-0.2,0-0.5,0-0.7
		c0.2-0.1,0.4-0.3,0.4-0.5c0.2-0.5-0.1-1.1-0.7-1.3C57.4,23.6,56.8,23.9,56.6,24.4z"/>
</g>
<g>
	<ellipse transform="matrix(0.4437 -0.8962 0.8962 0.4437 -11.7396 35.2422)" class="st3" cx="22.5" cy="27.1" rx="5.1" ry="9.2"/>
	<path class="st3" d="M31.1,30.6c-0.1,0.2-0.5,0.9-0.6,1.2c-0.2,0.5,0,1.1,0.5,1.3c0.5,0.2,1.1,0,1.3-0.5c0.1-0.2,0.1-0.5,0.1-0.7
		c0.2-0.1,0.4-0.2,0.5-0.5c0.2-0.5,0-1.1-0.5-1.3C31.9,29.9,31.3,30.1,31.1,30.6z"/>
</g>
<g>
	<ellipse transform="matrix(0.4437 -0.8962 0.8962 0.4437 -0.5238 44.6211)" class="st3" cx="35.7" cy="22.7" rx="5.1" ry="9.2"/>
	<path class="st3" d="M44.2,26.2c-0.1,0.2-0.5,0.9-0.6,1.2c-0.2,0.5,0,1.1,0.5,1.3c0.5,0.2,1.1,0,1.3-0.5c0.1-0.2,0.1-0.5,0.1-0.7
		c0.2-0.1,0.4-0.2,0.5-0.5c0.2-0.5,0-1.1-0.5-1.3C45.1,25.5,44.5,25.7,44.2,26.2z"/>
</g>
</svg>
