<?xml version="1.0" encoding="utf-8"?>
<!-- Generator: Adobe Illustrator 23.0.1, SVG Export Plug-In . SVG Version: 6.00 Build 0)  -->
<svg version="1.1" id="Layer_1" xmlns="http://www.w3.org/2000/svg" xmlns:xlink="http://www.w3.org/1999/xlink" x="0px" y="0px"
	 viewBox="0 0 80.3 73.2" style="enable-background:new 0 0 80.3 73.2;" xml:space="preserve">
<style type="text/css">
	.st0{fill-rule:evenodd;clip-rule:evenodd;fill:none;stroke:#00C1A3;stroke-width:0.75;stroke-miterlimit:10;}
	.st1{fill:#FFFFFF;stroke:#0066FF;stroke-width:0.75;stroke-linecap:round;stroke-linejoin:round;stroke-miterlimit:10;}
	.st2{fill:none;stroke:#0066FF;stroke-width:0.75;stroke-linecap:round;stroke-linejoin:round;stroke-miterlimit:10;}
	.st3{fill:#FFFFFF;stroke:#0066FF;stroke-width:0.75;stroke-miterlimit:10;}
	.st4{fill:none;stroke:#0066FF;stroke-width:0.75;stroke-miterlimit:10;}
	.st5{fill:none;stroke:#00C1A3;stroke-width:0.75;stroke-miterlimit:10;}
	.st6{fill:none;stroke:#FF25F3;stroke-width:0.75;stroke-miterlimit:10;}
	.st7{fill:none;stroke:#FF25F3;stroke-width:0.75;stroke-linecap:round;stroke-linejoin:round;stroke-miterlimit:10;}
	.st8{fill-rule:evenodd;clip-rule:evenodd;fill:none;stroke:#0066FF;stroke-width:0.75;stroke-miterlimit:10;}
	.st9{clip-path:url(#SVGID_2_);fill-rule:evenodd;clip-rule:evenodd;fill:#FFFFFF;}
	.st10{fill-rule:evenodd;clip-rule:evenodd;fill:#FCFDFF;}
	.st11{fill-rule:evenodd;clip-rule:evenodd;fill:#FFFFFF;}
	.st12{fill-rule:evenodd;clip-rule:evenodd;fill:#3D6A9D;}
	.st13{fill:#FFFFFF;}
	.st14{fill:#0066FF;}
	.st15{fill-rule:evenodd;clip-rule:evenodd;fill:#FFFFFF;stroke:#0066FF;stroke-width:0.75;stroke-miterlimit:10;}
	.st16{fill-rule:evenodd;clip-rule:evenodd;fill:#FFFFFF;stroke:#44E0A0;stroke-width:0.75;stroke-miterlimit:10;}
	.st17{fill-rule:evenodd;clip-rule:evenodd;fill:#FFFFFF;stroke:#FF25F3;stroke-width:0.75;stroke-miterlimit:10;}
	.st18{fill:none;stroke:#FFFFFF;stroke-width:2.8774;stroke-miterlimit:10;}
	
		.st19{fill-rule:evenodd;clip-rule:evenodd;fill:none;stroke:#FF25F3;stroke-width:0.75;stroke-linecap:round;stroke-linejoin:round;stroke-miterlimit:10;}
	.st20{fill-rule:evenodd;clip-rule:evenodd;fill:#FFFFFF;stroke:#FFFFFF;stroke-width:0.7194;stroke-miterlimit:10;}
	.st21{fill:none;stroke:#FFFFFF;stroke-width:0.7194;stroke-miterlimit:10;}
	.st22{fill:none;stroke:#44E0A0;stroke-width:0.75;stroke-linecap:round;stroke-linejoin:round;stroke-miterlimit:10;}
	.st23{fill-rule:evenodd;clip-rule:evenodd;fill:#FFFFFF;stroke:#00C1A3;stroke-width:0.75;stroke-miterlimit:10;}
	.st24{fill:none;stroke:#0066FF;stroke-width:0.75;stroke-linecap:round;stroke-miterlimit:10;}
	.st25{fill:#FFFFFF;stroke:#00C1A3;stroke-width:0.75;stroke-miterlimit:10;}
	.st26{clip-path:url(#SVGID_4_);}
	
		.st27{fill-rule:evenodd;clip-rule:evenodd;fill:none;stroke:#0066FF;stroke-width:0.75;stroke-linecap:round;stroke-miterlimit:10;}
	.st28{fill:#FFFFFF;stroke:#FF25F3;stroke-width:0.75;stroke-miterlimit:10;}
	.st29{fill:#FFFFFF;stroke:#FF25F3;stroke-width:0.75;stroke-linecap:round;stroke-linejoin:round;stroke-miterlimit:10;}
	.st30{fill:none;stroke:#00FA9B;stroke-width:0.75;stroke-miterlimit:10;}
	.st31{fill:#87D73F;}
	.st32{fill:#3DED98;}
</style>
<g>
	<path class="st2" d="M14.5,48.1c0,0,4.1,8.1,5.7,10.9c4.1,7.7,8,9.6,10.9,13.2c4.7,0.2,7.5,0,14-0.4c3.7-5,14.6-20.2,14.7-22.2
		S56.3,46,53,51.3c-3.2,5.3-6.8,11.8-7.1,6.3c-0.3-5.5,5.2-8.2,2.2-10.6c-3-2.4-9.2,10-9.9,11.5s-2.4,1.9-4.5-0.8
		c-2.1-2.7-2-11.2-4.2-11.9s-6,2.8-4.1,4.5c1.9,1.6,5.5,10.6,2.8,11.1c-2.6,0.5-8.4-12.5-9.1-13.3C18.4,47,14.5,48.1,14.5,48.1z"/>
	<path class="st1" d="M71,32.9c0,0,2.6-4.3,0.2-7c-2.4-2.7-4.5-2-4.5-2s0.3-4-3.5-5.7c-2.8-1.3-4.3-0.5-4.3-0.5s1.8-2.6-1.8-6.1
		c-2.9-2.8-5.1-1.4-5.1-1.4S51.4,6.9,48.3,6C44.7,5,43,8.3,43,8.3s1.3-5.3-5.1-7.1c-4.4-1.2-6,1.5-6,1.5s-4.1-1.6-6.6,0.9
		C20.6,8.5,23.1,14,23.1,14s-6.2-3.8-10,1.4c-3.7,5-1.4,8.9-1.4,8.9s-5.6,1.1-5.9,5.9s1.9,6.9,1.9,6.9s-8.3,0.7-6.6,8.9
		C2.2,51.2,6,50.1,6,50.1s-0.2,5.7,5.7,7c4.7,1,7.3-5.9,7.3-5.9s1.7,4.8,7.9,4.5s8.3-7,8.3-7s3.5,5.6,9.1,5c7.5-0.8,8.3-4.7,8.3-4.7
		s-0.1,7.5,7.3,7.2s7.6-6.3,7.6-6.3s4.1,2.2,6.6,0.2c3.5-2.8,2-6.9,2-6.9s4.3-1.2,2.6-6.6C77.4,32.6,71,32.9,71,32.9z"/>
	<path class="st28" d="M37.5,22c-1.3-3.1-6-6.5-10-1.2c-6-0.9-9,5.2-7,8c-6.5,0.4-4.7,9.4-4.1,9.6"/>
	<path class="st2" d="M33,15.7c2.6-6.4,7.9-1.7,7.9-1.7s4-3.6,7-2c3.6,1.9,4,7,4,7s3.7-0.9,5.3,0.4c2.7,2.2,2.5,8,0.2,8.9"/>
	<path class="st25" d="M65,42c2.6-5.3,0-8.8-1.5-9.7c-2.7-1.8-5.2,0.5-6.9,0.7c-1.1-4-7.1-5-9.4-1.6"/>
</g>
</svg>
