<?xml version="1.0" encoding="utf-8"?>
<!-- Generator: Adobe Illustrator 23.0.1, SVG Export Plug-In . SVG Version: 6.00 Build 0)  -->
<svg version="1.1" id="Layer_1" xmlns="http://www.w3.org/2000/svg" xmlns:xlink="http://www.w3.org/1999/xlink" x="0px" y="0px"
	 viewBox="0 0 66.1 61" style="enable-background:new 0 0 66.1 61;" xml:space="preserve">
<style type="text/css">
	.st0{fill:#FF25F3;}
	.st1{fill:#2935E8;}
	.st2{fill:#00C1A3;}
	.st3{fill:none;stroke:#0066FF;stroke-width:0.75;stroke-linejoin:round;stroke-miterlimit:10;}
	.st4{fill:#FFFFFF;stroke:#00C1A3;stroke-width:0.75;stroke-miterlimit:10;}
	.st5{fill:#FFFFFF;stroke:#0066FF;stroke-width:0.75;stroke-miterlimit:10;}
	.st6{fill:none;stroke:#00C1A3;stroke-width:0.75;stroke-miterlimit:10;}
	
		.st7{fill-rule:evenodd;clip-rule:evenodd;fill:none;stroke:#FF25F3;stroke-width:0.75;stroke-linecap:round;stroke-linejoin:round;stroke-miterlimit:10;}
	.st8{fill:none;stroke:#0066FF;stroke-width:0.75;stroke-miterlimit:10;}
	.st9{fill-rule:evenodd;clip-rule:evenodd;fill:none;stroke:#0066FF;stroke-width:0.75;stroke-miterlimit:10;}
	.st10{fill-rule:evenodd;clip-rule:evenodd;fill:none;stroke:#00C1A3;stroke-width:0.75;stroke-miterlimit:10;}
	.st11{fill:none;stroke:#FF25F3;stroke-width:0.75;stroke-linecap:round;stroke-linejoin:round;stroke-miterlimit:10;}
	.st12{fill:#FFFFFF;stroke:#FF25F3;stroke-width:0.75;stroke-linecap:round;stroke-linejoin:round;stroke-miterlimit:10;}
	.st13{fill-rule:evenodd;clip-rule:evenodd;fill:#FFFFFF;stroke:#0066FF;stroke-width:0.75;stroke-miterlimit:10;}
	
		.st14{fill-rule:evenodd;clip-rule:evenodd;fill:#FFFFFF;stroke:#FF25F3;stroke-width:0.75;stroke-linecap:round;stroke-linejoin:round;stroke-miterlimit:10;}
	.st15{fill-rule:evenodd;clip-rule:evenodd;fill:#FFFFFF;stroke:#00C1A3;stroke-width:0.75;stroke-miterlimit:10;}
	.st16{fill:none;stroke:#0066FF;stroke-width:0.75;stroke-linecap:round;stroke-linejoin:round;stroke-miterlimit:10;}
	.st17{fill:#FFFFFF;stroke:#00C1A3;stroke-width:0.75;stroke-linecap:round;stroke-linejoin:round;stroke-miterlimit:10;}
	
		.st18{fill-rule:evenodd;clip-rule:evenodd;fill:#FFFFFF;stroke:#0066FF;stroke-width:0.75;stroke-linecap:round;stroke-linejoin:round;stroke-miterlimit:10;}
	
		.st19{fill-rule:evenodd;clip-rule:evenodd;fill:none;stroke:#0066FF;stroke-width:0.75;stroke-linecap:round;stroke-linejoin:round;stroke-miterlimit:10;}
	.st20{fill:#FFFFFF;stroke:#0066FF;stroke-width:0.75;stroke-linejoin:round;stroke-miterlimit:10;}
	.st21{fill:none;stroke:#FF25F3;stroke-width:0.75;stroke-linecap:round;stroke-miterlimit:10;}
	.st22{fill:none;stroke:#00C1A3;stroke-width:0.75;stroke-miterlimit:10;stroke-dasharray:1.9953,1.9953;}
	.st23{fill:none;stroke:#FF25F3;stroke-width:0.75;stroke-linecap:round;stroke-miterlimit:10;stroke-dasharray:1.9953,1.9953;}
	.st24{fill:#FFFFFF;stroke:#000000;stroke-miterlimit:10;}
	.st25{fill:#0066FF;}
	.st26{fill:none;stroke:#FF25F3;stroke-width:0.75;stroke-linejoin:round;stroke-miterlimit:10;}
	.st27{fill:none;stroke:#FF25F3;stroke-width:0.75;stroke-miterlimit:10;}
	.st28{fill:none;stroke:#0066FF;stroke-width:0.75;stroke-linecap:round;stroke-miterlimit:10;}
	.st29{fill:none;stroke:#FFFFFF;stroke-width:0.75;stroke-miterlimit:10;}
	.st30{fill:none;stroke:#0000FF;stroke-width:2;stroke-miterlimit:10;}
	.st31{fill:none;stroke:#00C1A3;stroke-width:2;stroke-miterlimit:10;}
	.st32{fill:none;stroke:#FF25F3;stroke-width:2;stroke-linecap:round;stroke-linejoin:round;stroke-miterlimit:10;}
	.st33{fill:none;stroke:#FF25F3;stroke-width:0.75;stroke-linejoin:round;}
	.st34{fill:none;stroke:#FF25F3;stroke-width:0.75;stroke-linejoin:round;stroke-dasharray:1.916,1.916;}
	.st35{fill:none;stroke:#FF25F3;stroke-width:0.75;stroke-miterlimit:10;stroke-dasharray:1.916,1.916;}
	.st36{fill:none;}
	.st37{fill-rule:evenodd;clip-rule:evenodd;fill:none;stroke:#FF25F3;stroke-width:0.75;stroke-miterlimit:10;}
	.st38{clip-path:url(#SVGID_2_);fill:#2935E8;}
	.st39{clip-path:url(#SVGID_4_);fill:#00C1A3;}
	.st40{clip-path:url(#SVGID_6_);fill:#FF25F3;}
	.st41{fill:#FFFFFF;}
	.st42{fill:none;stroke:#FF25F3;stroke-width:0.75;stroke-linecap:round;stroke-linejoin:round;}
	.st43{fill:none;stroke:#FF25F3;stroke-width:0.75;stroke-linecap:round;stroke-linejoin:round;stroke-dasharray:5.1058,5.1058;}
	.st44{fill:none;stroke:#FF25F3;stroke-width:0.75;stroke-miterlimit:10;stroke-dasharray:7.3935,7.3935;}
	.st45{fill:none;stroke:#00C1A3;stroke-width:0.75;stroke-miterlimit:10;stroke-dasharray:8.7323,8.7323;}
</style>
<g>
	<g>
		<polyline class="st8" points="64.1,22.4 64.1,56.9 26.3,56.9 26.3,3.2 57.3,3.2 64.1,10.1 64.1,20.9 64.1,22.4 		"/>
		<polyline class="st8" points="64.1,10.1 57.1,10.1 57.1,3.2 		"/>
	</g>
	<g>
		<polygon class="st8" points="45.3,25.4 42.1,30.9 48.5,30.9 		"/>
		<g>
			
				<rect x="36.2" y="21.4" transform="matrix(0.9675 -0.2529 0.2529 0.9675 -4.7297 10.4873)" class="st26" width="4.5" height="4.5"/>
			<rect x="52.6" y="19" transform="matrix(0.9675 -0.2529 0.2529 0.9675 -3.4057 14.3314)" class="st8" width="2.9" height="2.9"/>
			<line class="st8" x1="57.8" y1="20.9" x2="34" y2="27.1"/>
		</g>
	</g>
	<line class="st8" x1="60" y1="39.7" x2="30.4" y2="39.7"/>
	<line class="st6" x1="60" y1="44.3" x2="30.4" y2="44.3"/>
	<line class="st8" x1="60" y1="49" x2="30.4" y2="49"/>
</g>
<g>
	<g>
		<path class="st6" d="M8.7,37.5c1.9,2.5,2.4,5.3,1.1,6.3c-1.3,1-3.9-0.2-5.8-2.7c-1.9-2.5-1.1-6.3-1.1-6.3S6.8,35,8.7,37.5z"/>
		<path class="st6" d="M8.7,27.5c1.9,2.5,2.4,5.3,1.1,6.3c-1.3,1-3.9-0.2-5.8-2.7s-1.1-6.3-1.1-6.3S6.8,25,8.7,27.5z"/>
		<path class="st6" d="M8.7,17.4c1.9,2.5,2.4,5.3,1.1,6.3c-1.3,1-3.9-0.2-5.8-2.7s-1.1-6.3-1.1-6.3S6.8,14.9,8.7,17.4z"/>
		<path class="st6" d="M8.7,7.3c1.9,2.5,2.4,5.3,1.1,6.3S5.9,13.5,4,11S2.9,4.6,2.9,4.6S6.8,4.8,8.7,7.3z"/>
	</g>
	<g>
		<path class="st6" d="M14.6,37.2c-1.9,2.5-2.4,5.3-1.1,6.3s3.9-0.2,5.8-2.7s1.1-6.3,1.1-6.3S16.5,34.7,14.6,37.2z"/>
		<path class="st6" d="M14.6,27.1c-1.9,2.5-2.4,5.3-1.1,6.3c1.3,1,3.9-0.2,5.8-2.7s1.1-6.3,1.1-6.3S16.5,24.6,14.6,27.1z"/>
		<path class="st6" d="M14.6,17.1c-1.9,2.5-2.4,5.3-1.1,6.3s3.9-0.2,5.8-2.7s1.1-6.3,1.1-6.3S16.5,14.6,14.6,17.1z"/>
		<path class="st6" d="M14.6,7c-1.9,2.5-2.4,5.3-1.1,6.3s3.9-0.2,5.8-2.7s1.1-6.3,1.1-6.3S16.5,4.5,14.6,7z"/>
	</g>
	<line class="st6" x1="11.6" y1="45.6" x2="11.6" y2="57.2"/>
</g>
</svg>
