<?xml version="1.0" encoding="utf-8"?>
<!-- Generator: Adobe Illustrator 23.0.1, SVG Export Plug-In . SVG Version: 6.00 Build 0)  -->
<svg version="1.1" id="Layer_1" xmlns="http://www.w3.org/2000/svg" xmlns:xlink="http://www.w3.org/1999/xlink" x="0px" y="0px"
	 viewBox="0 0 74.6 53.4" style="enable-background:new 0 0 74.6 53.4;" xml:space="preserve">
<style type="text/css">
	.st0{fill-rule:evenodd;clip-rule:evenodd;fill:none;stroke:#00C1A3;stroke-width:0.75;stroke-miterlimit:10;}
	.st1{fill:#FFFFFF;stroke:#0066FF;stroke-width:0.75;stroke-linecap:round;stroke-linejoin:round;stroke-miterlimit:10;}
	.st2{fill:none;stroke:#0066FF;stroke-width:0.75;stroke-linecap:round;stroke-linejoin:round;stroke-miterlimit:10;}
	.st3{fill:#FFFFFF;stroke:#0066FF;stroke-width:0.75;stroke-miterlimit:10;}
	.st4{fill:none;stroke:#0066FF;stroke-width:0.75;stroke-miterlimit:10;}
	.st5{fill:none;stroke:#00C1A3;stroke-width:0.75;stroke-miterlimit:10;}
	.st6{fill:none;stroke:#FF25F3;stroke-width:0.75;stroke-miterlimit:10;}
	.st7{fill:none;stroke:#FF25F3;stroke-width:0.75;stroke-linecap:round;stroke-linejoin:round;stroke-miterlimit:10;}
	.st8{fill-rule:evenodd;clip-rule:evenodd;fill:none;stroke:#0066FF;stroke-width:0.75;stroke-miterlimit:10;}
	.st9{clip-path:url(#SVGID_2_);fill-rule:evenodd;clip-rule:evenodd;fill:#FFFFFF;}
	.st10{fill-rule:evenodd;clip-rule:evenodd;fill:#FCFDFF;}
	.st11{fill-rule:evenodd;clip-rule:evenodd;fill:#FFFFFF;}
	.st12{fill-rule:evenodd;clip-rule:evenodd;fill:#3D6A9D;}
	.st13{fill:#FFFFFF;}
	.st14{fill:#0066FF;}
	.st15{fill-rule:evenodd;clip-rule:evenodd;fill:#FFFFFF;stroke:#0066FF;stroke-width:0.75;stroke-miterlimit:10;}
	.st16{fill-rule:evenodd;clip-rule:evenodd;fill:#FFFFFF;stroke:#44E0A0;stroke-width:0.75;stroke-miterlimit:10;}
	.st17{fill-rule:evenodd;clip-rule:evenodd;fill:#FFFFFF;stroke:#FF25F3;stroke-width:0.75;stroke-miterlimit:10;}
	.st18{fill:none;stroke:#FFFFFF;stroke-width:2.8774;stroke-miterlimit:10;}
	
		.st19{fill-rule:evenodd;clip-rule:evenodd;fill:none;stroke:#FF25F3;stroke-width:0.75;stroke-linecap:round;stroke-linejoin:round;stroke-miterlimit:10;}
	.st20{fill-rule:evenodd;clip-rule:evenodd;fill:#FFFFFF;stroke:#FFFFFF;stroke-width:0.7194;stroke-miterlimit:10;}
	.st21{fill:none;stroke:#FFFFFF;stroke-width:0.7194;stroke-miterlimit:10;}
	.st22{fill:none;stroke:#44E0A0;stroke-width:0.75;stroke-linecap:round;stroke-linejoin:round;stroke-miterlimit:10;}
	.st23{fill-rule:evenodd;clip-rule:evenodd;fill:#FFFFFF;stroke:#00C1A3;stroke-width:0.75;stroke-miterlimit:10;}
	.st24{fill:none;stroke:#0066FF;stroke-width:0.75;stroke-linecap:round;stroke-miterlimit:10;}
	.st25{fill:#FFFFFF;stroke:#00C1A3;stroke-width:0.75;stroke-miterlimit:10;}
	.st26{clip-path:url(#SVGID_4_);}
	
		.st27{fill-rule:evenodd;clip-rule:evenodd;fill:none;stroke:#0066FF;stroke-width:0.75;stroke-linecap:round;stroke-miterlimit:10;}
	.st28{fill:#FFFFFF;stroke:#FF25F3;stroke-width:0.75;stroke-miterlimit:10;}
	.st29{fill:#FFFFFF;stroke:#FF25F3;stroke-width:0.75;stroke-linecap:round;stroke-linejoin:round;stroke-miterlimit:10;}
	.st30{fill:none;stroke:#00FA9B;stroke-width:0.75;stroke-miterlimit:10;}
	.st31{fill:#87D73F;}
	.st32{fill:#3DED98;}
</style>
<g>
	<ellipse class="st3" cx="33.5" cy="7" rx="7.1" ry="6.2"/>
	<polyline class="st3" points="23.8,4.6 26.4,7.8 23.8,9.9 	"/>
	<path class="st3" d="M29,8.2c0,0,2,2.4,5.1,2.5S38.7,8,38.7,8"/>
	<path class="st3" d="M29.6,4.6c0,0,1.9-1.9,4.4-1.9c2.2,0,4.4,1.9,4.4,1.9"/>
	<line class="st3" x1="29.6" y1="6.4" x2="37.5" y2="6.4"/>
</g>
<g>
	<ellipse transform="matrix(0.9757 -0.2191 0.2191 0.9757 -2.3744 6.1479)" class="st3" cx="26.5" cy="13.8" rx="7.1" ry="6.2"/>
	<polyline class="st3" points="16.6,13.6 19.8,16.1 17.8,18.8 	"/>
	<path class="st3" d="M22.4,15.9c0,0,2.5,1.9,5.5,1.4s3.9-3.7,3.9-3.7"/>
	<path class="st3" d="M22.2,12.3c0,0,1.5-2.2,3.9-2.8c2.2-0.5,4.7,0.8,4.7,0.8"/>
	<line class="st3" x1="22.6" y1="14.1" x2="30.3" y2="12.3"/>
</g>
<g>
	
		<ellipse transform="matrix(7.224727e-02 -0.9974 0.9974 7.224727e-02 31.9332 55.5475)" class="st3" cx="45.8" cy="10.6" rx="6.2" ry="7.1"/>
	<polyline class="st3" points="55.2,13.7 53,10.3 55.6,8.4 	"/>
	<path class="st3" d="M50.4,9.7c0,0-1.8-2.5-4.9-2.9c-3.1-0.4-4.8,2.4-4.8,2.4"/>
	<path class="st3" d="M49.5,13.3c0,0-2,1.7-4.5,1.5c-2.2-0.2-4.3-2.2-4.3-2.2"/>
	<line class="st3" x1="49.7" y1="11.5" x2="41.8" y2="10.9"/>
</g>
<g>
	<ellipse transform="matrix(0.3003 -0.9539 0.9539 0.3003 12.9342 57.813)" class="st3" cx="45.9" cy="20.1" rx="6.2" ry="7.1"/>
	<polyline class="st3" points="54.3,25.3 52.9,21.4 55.9,20.2 	"/>
	<path class="st3" d="M50.5,20.3c0,0-1.2-2.9-4.1-3.9c-2.9-1.1-5.2,1.2-5.2,1.2"/>
	<path class="st3" d="M48.9,23.5c0,0-2.4,1.2-4.8,0.4c-2.1-0.7-3.7-3.1-3.7-3.1"/>
	<line class="st3" x1="49.4" y1="21.8" x2="41.9" y2="19.4"/>
</g>
<g>
	<ellipse class="st25" cx="18.7" cy="20.2" rx="7.1" ry="6.2"/>
	<polyline class="st25" points="9.1,17.8 11.6,21 9.1,23.1 	"/>
	<path class="st25" d="M14.3,21.4c0,0,2,2.4,5.1,2.5s4.6-2.7,4.6-2.7"/>
	<path class="st25" d="M14.8,17.8c0,0,1.9-1.9,4.4-1.9c2.2,0,4.4,1.9,4.4,1.9"/>
	<line class="st25" x1="14.8" y1="19.6" x2="22.7" y2="19.6"/>
</g>
<g>
	<ellipse transform="matrix(0.9427 -0.3338 0.3338 0.9427 -5.6236 10.8938)" class="st3" cx="28.9" cy="21.8" rx="7.1" ry="6.2"/>
	<polyline class="st4" points="19,22.8 22.5,25 20.8,27.8 	"/>
	<path class="st3" d="M25.1,24.4c0,0,2.7,1.6,5.6,0.7c2.9-0.9,3.4-4.1,3.4-4.1"/>
	<path class="st3" d="M24.4,20.9c0,0,1.2-2.4,3.5-3.2c2.1-0.7,4.8,0.3,4.8,0.3"/>
	<line class="st3" x1="25" y1="22.6" x2="32.5" y2="19.9"/>
</g>
<g>
	<ellipse transform="matrix(0.2838 -0.9589 0.9589 0.2838 4.5685 68.3254)" class="st28" cx="48" cy="31.1" rx="6.2" ry="7.1"/>
	<polyline class="st6" points="56.6,36.1 55.1,32.3 58.1,31 	"/>
	<path class="st28" d="M52.6,31.2c0,0-1.3-2.9-4.2-3.9c-2.9-1-5.2,1.3-5.2,1.3"/>
	<path class="st28" d="M51.1,34.5c0,0-2.4,1.2-4.8,0.5c-2.1-0.6-3.7-3-3.7-3"/>
	<line class="st28" x1="51.6" y1="32.8" x2="44" y2="30.5"/>
</g>
<g>
	<ellipse transform="matrix(0.9427 -0.3338 0.3338 0.9427 -8.2752 12.7596)" class="st3" cx="33" cy="30.5" rx="7.1" ry="6.2"/>
	<polyline class="st4" points="23.1,31.4 26.6,33.6 24.9,36.4 	"/>
	<path class="st3" d="M29.2,33.1c0,0,2.7,1.6,5.6,0.7s3.4-4.1,3.4-4.1"/>
	<path class="st3" d="M28.5,29.5c0,0,1.2-2.4,3.5-3.2c2.1-0.7,4.8,0.3,4.8,0.3"/>
	<line class="st3" x1="29.1" y1="31.2" x2="36.6" y2="28.6"/>
</g>
<g>
	<ellipse transform="matrix(0.9427 -0.3338 0.3338 0.9427 -11.4546 5.582)" class="st3" cx="10.5" cy="36.1" rx="7.1" ry="6.2"/>
	<polyline class="st4" points="0.6,37.1 4.1,39.3 2.4,42.1 	"/>
	<path class="st3" d="M6.7,38.7c0,0,2.7,1.6,5.6,0.7s3.4-4.1,3.4-4.1"/>
	<path class="st3" d="M6.1,35.2c0,0,1.2-2.4,3.5-3.2c2.1-0.7,4.8,0.3,4.8,0.3"/>
	<line class="st3" x1="6.7" y1="36.9" x2="14.1" y2="34.2"/>
</g>
<g>
	<ellipse transform="matrix(0.5242 -0.8516 0.8516 0.5242 -26.0787 40.4074)" class="st3" cx="23.1" cy="43.5" rx="6.2" ry="7.1"/>
	<polyline class="st4" points="30.1,50.6 29.6,46.6 32.9,46.1 	"/>
	<path class="st3" d="M27.5,44.9c0,0-0.5-3.1-3-4.8s-5.3-0.1-5.3-0.1"/>
	<path class="st3" d="M25.2,47.6c0,0-2.6,0.6-4.7-0.7c-1.9-1.2-2.8-3.9-2.8-3.9"/>
	<line class="st3" x1="26.1" y1="46.1" x2="19.4" y2="41.9"/>
</g>
<g>
	<ellipse transform="matrix(0.5242 -0.8516 0.8516 0.5242 -17.994 59.3093)" class="st3" cx="44.1" cy="45.8" rx="6.2" ry="7.1"/>
	<polyline class="st4" points="51,52.8 50.6,48.8 53.8,48.3 	"/>
	<path class="st3" d="M48.5,47.1c0,0-0.5-3.1-3-4.8c-2.5-1.7-5.3-0.1-5.3-0.1"/>
	<path class="st3" d="M46.1,49.8c0,0-2.6,0.6-4.7-0.7c-1.9-1.2-2.8-3.9-2.8-3.9"/>
	<line class="st3" x1="47.1" y1="48.3" x2="40.4" y2="44.2"/>
</g>
<g>
	<ellipse transform="matrix(0.2838 -0.9589 0.9589 0.2838 24.1564 79.557)" class="st3" cx="65.3" cy="23.6" rx="5.4" ry="6.2"/>
	<polyline class="st4" points="72.8,28 71.5,24.7 74.1,23.5 	"/>
	<path class="st3" d="M69.4,23.7c0,0-1.1-2.5-3.6-3.4s-4.5,1.1-4.5,1.1"/>
	<path class="st3" d="M68,26.6c0,0-2.1,1.1-4.2,0.5c-1.9-0.6-3.2-2.6-3.2-2.6"/>
	<line class="st3" x1="68.4" y1="25.1" x2="61.8" y2="23.1"/>
</g>
</svg>
