<?xml version="1.0" encoding="utf-8"?>
<!-- Generator: Adobe Illustrator 23.0.1, SVG Export Plug-In . SVG Version: 6.00 Build 0)  -->
<svg version="1.1" id="Layer_1" xmlns="http://www.w3.org/2000/svg" xmlns:xlink="http://www.w3.org/1999/xlink" x="0px" y="0px"
	 viewBox="0 0 75.8 40.2" style="enable-background:new 0 0 75.8 40.2;" xml:space="preserve">
<style type="text/css">
	.st0{fill-rule:evenodd;clip-rule:evenodd;fill:none;stroke:#00C1A3;stroke-width:0.75;stroke-miterlimit:10;}
	.st1{fill:#FFFFFF;stroke:#0066FF;stroke-width:0.75;stroke-linecap:round;stroke-linejoin:round;stroke-miterlimit:10;}
	.st2{fill:none;stroke:#0066FF;stroke-width:0.75;stroke-linecap:round;stroke-linejoin:round;stroke-miterlimit:10;}
	.st3{fill:#FFFFFF;stroke:#0066FF;stroke-width:0.75;stroke-miterlimit:10;}
	.st4{fill:none;stroke:#0066FF;stroke-width:0.75;stroke-miterlimit:10;}
	.st5{fill:none;stroke:#00C1A3;stroke-width:0.75;stroke-miterlimit:10;}
	.st6{fill:none;stroke:#FF25F3;stroke-width:0.75;stroke-miterlimit:10;}
	.st7{fill:none;stroke:#FF25F3;stroke-width:0.75;stroke-linecap:round;stroke-linejoin:round;stroke-miterlimit:10;}
	.st8{fill-rule:evenodd;clip-rule:evenodd;fill:none;stroke:#0066FF;stroke-width:0.75;stroke-miterlimit:10;}
	.st9{clip-path:url(#SVGID_2_);fill-rule:evenodd;clip-rule:evenodd;fill:#FFFFFF;}
	.st10{fill-rule:evenodd;clip-rule:evenodd;fill:#FCFDFF;}
	.st11{fill-rule:evenodd;clip-rule:evenodd;fill:#FFFFFF;}
	.st12{fill-rule:evenodd;clip-rule:evenodd;fill:#3D6A9D;}
	.st13{fill:#FFFFFF;}
	.st14{fill:#0066FF;}
	.st15{fill-rule:evenodd;clip-rule:evenodd;fill:#FFFFFF;stroke:#0066FF;stroke-width:0.75;stroke-miterlimit:10;}
	.st16{fill-rule:evenodd;clip-rule:evenodd;fill:#FFFFFF;stroke:#44E0A0;stroke-width:0.75;stroke-miterlimit:10;}
	.st17{fill-rule:evenodd;clip-rule:evenodd;fill:#FFFFFF;stroke:#FF25F3;stroke-width:0.75;stroke-miterlimit:10;}
	.st18{fill:none;stroke:#FFFFFF;stroke-width:2.8774;stroke-miterlimit:10;}
	
		.st19{fill-rule:evenodd;clip-rule:evenodd;fill:none;stroke:#FF25F3;stroke-width:0.75;stroke-linecap:round;stroke-linejoin:round;stroke-miterlimit:10;}
	.st20{fill-rule:evenodd;clip-rule:evenodd;fill:#FFFFFF;stroke:#FFFFFF;stroke-width:0.7194;stroke-miterlimit:10;}
	.st21{fill:none;stroke:#FFFFFF;stroke-width:0.7194;stroke-miterlimit:10;}
	.st22{fill:none;stroke:#44E0A0;stroke-width:0.75;stroke-linecap:round;stroke-linejoin:round;stroke-miterlimit:10;}
	.st23{fill-rule:evenodd;clip-rule:evenodd;fill:#FFFFFF;stroke:#00C1A3;stroke-width:0.75;stroke-miterlimit:10;}
	.st24{fill:none;stroke:#0066FF;stroke-width:0.75;stroke-linecap:round;stroke-miterlimit:10;}
	.st25{fill:#FFFFFF;stroke:#00C1A3;stroke-width:0.75;stroke-miterlimit:10;}
	.st26{clip-path:url(#SVGID_4_);}
	
		.st27{fill-rule:evenodd;clip-rule:evenodd;fill:none;stroke:#0066FF;stroke-width:0.75;stroke-linecap:round;stroke-miterlimit:10;}
	.st28{fill:#FFFFFF;stroke:#FF25F3;stroke-width:0.75;stroke-miterlimit:10;}
	.st29{fill:#FFFFFF;stroke:#FF25F3;stroke-width:0.75;stroke-linecap:round;stroke-linejoin:round;stroke-miterlimit:10;}
	.st30{fill:none;stroke:#00FA9B;stroke-width:0.75;stroke-miterlimit:10;}
	.st31{fill:#87D73F;}
	.st32{fill:#3DED98;}
</style>
<g>
	<path class="st4" d="M29.2,1.9c-4.6,0.4-10.5,1.7-16.9,7.5S2.3,21.3,1.9,25.1S1,33.6,5.5,36.5c4.4,2.9,10.2,0,12.2-2.3
		c2.4-2.8,4.5-9.5,7.6-12.4s8.1-5.1,12.4-7s7.7-6.6,7.2-8.8c-0.5-2.2-3.2-5.2-6-4.9C35,1.5,31.6,1.7,29.2,1.9z"/>
	<path class="st4" d="M6.9,30.1c0,0-0.2-3.8,0.1-5.8c0.8-5.7,7.9-10.3,9-11.8c2-2.7,11.8-8.3,14.7-8.7C33.5,3.3,41,1.6,42.5,2.3"/>
	<path class="st5" d="M10.8,33.4c0,0,1.8,0.5,4.6-3c2.7-3.5,3.5-8.8,6.8-11s8.1-5.9,10.8-6.7c2.7-0.8,9.1-3.7,10-4.6
		s1.8-2.2,1.8-2.2"/>
	<circle class="st4" cx="7.6" cy="33.3" r="1.2"/>
	<path class="st4" d="M4.6,33.3c0,0-0.8,0.3-1.4-0.7c-0.6-1-1.5-2.5-1.5-2.5"/>
	<path class="st4" d="M8.9,35.3c0,0-0.3,1.4,1.5,2c1.8,0.7,2.2,0,2.2,0"/>
	<path class="st4" d="M68.5,22.5c-2.1,4.1-5.6,9.1-13.4,12.7s-14.9,4.7-18.6,3.6s-8.2-2.5-9.2-7.7c-0.9-5.2,3.9-9.4,6.9-10.4
		c3.5-1.1,10.5-0.5,14.4-2.2c3.9-1.8,7.9-5.5,11.3-8.8c3.4-3.2,9.1-4.6,10.9-3.2c1.8,1.3,3.6,5,2.2,7.4C71,17.3,69.6,20.3,68.5,22.5
		z"/>
	<path class="st4" d="M33.9,32.3c0,0,3.5,1.7,5.4,2.2c5.6,1.5,12.6-3.4,14.4-3.8c3.2-0.8,12.2-7.7,13.7-10.2
		c1.5-2.5,5.9-8.7,5.9-10.4"/>
	<path class="st7" d="M32.3,27.4c0,0,0.2-1.9,4.5-3.1s9.5,0.1,12.8-2s8.6-5.2,10.3-7.4c1.8-2.2,6.9-7,8.1-7.5s2.8-0.8,2.8-0.8"/>
	<circle class="st4" cx="31.1" cy="30.4" r="1.2"/>
	<path class="st4" d="M30,33.1c0,0-0.5,0.6,0.1,1.5c0.7,0.9,1.8,2.4,1.8,2.4"/>
	<path class="st4" d="M29.8,28.5c0,0-1.4-0.3-1.3-2.2c0.1-1.9,0.8-2,0.8-2"/>
</g>
</svg>
