<?xml version="1.0" encoding="utf-8"?>
<!-- Generator: Adobe Illustrator 23.0.1, SVG Export Plug-In . SVG Version: 6.00 Build 0)  -->
<svg version="1.1" id="Layer_1" xmlns="http://www.w3.org/2000/svg" xmlns:xlink="http://www.w3.org/1999/xlink" x="0px" y="0px"
	 viewBox="0 0 78 44" style="enable-background:new 0 0 78 44;" xml:space="preserve">
<style type="text/css">
	.st0{fill:none;stroke:#0066FF;stroke-width:0.75;stroke-linecap:round;stroke-linejoin:round;stroke-miterlimit:10;}
	.st1{fill:none;stroke:#0066FF;stroke-width:0.75;stroke-miterlimit:10;}
	.st2{fill:none;stroke:#00C1A3;stroke-width:0.75;stroke-miterlimit:10;}
	.st3{fill:none;stroke:#FF25F3;stroke-width:0.75;stroke-linecap:round;stroke-linejoin:round;stroke-miterlimit:10;}
</style>
<g>
	<path class="st0" d="M33.3,6.3c3.5,0.8,9,4,9,4s-6.9,1.1-10.4,0.3S26.2,7,26.2,7S29.8,5.5,33.3,6.3z"/>
	<line class="st0" x1="26.2" y1="7" x2="17.8" y2="5.1"/>
</g>
<g>
	<path class="st1" d="M40.9,3.3c3,1.2,7.6,4.9,7.6,4.9s-6.2,0.3-9.2-0.8c-3-1.2-4.7-4.2-4.7-4.2S37.8,2.2,40.9,3.3z"/>
	<line class="st1" x1="34.6" y1="3.3" x2="27.2" y2="0.5"/>
</g>
<g>
	<path class="st1" d="M37.3,16.8c-3.6-0.4-9.4-3-9.4-3s6.7-1.8,10.3-1.5c3.6,0.4,6,2.9,6,2.9S40.8,17.2,37.3,16.8z"/>
	<line class="st1" x1="44.2" y1="15.3" x2="52.8" y2="16.2"/>
</g>
<g>
	<path class="st1" d="M50.6,13.8c-2.4,0.4-6.8-1-6.8-1s4.1-3.2,6.6-3.5c2.4-0.4,4.5,1.6,4.5,1.6S53.1,13.4,50.6,13.8z"/>
	<line class="st1" x1="55" y1="10.9" x2="60.8" y2="10"/>
</g>
<g>
	<path class="st1" d="M41.6,23c-2.4,0.4-6.8-1-6.8-1s4.1-3.2,6.6-3.5s4.5,1.6,4.5,1.6S44,22.7,41.6,23z"/>
	<line class="st1" x1="45.9" y1="20.1" x2="51.7" y2="19.3"/>
</g>
<path class="st0" d="M26.5,7.3c0,0,5.5,0.4,9.9,1.6c4.4,1.2,4.4,1.2,4.4,1.2"/>
<path class="st1" d="M34.6,3.3c0,0,7.4,2,9.6,3.2C46.4,7.6,47.5,8,47.5,8"/>
<path class="st1" d="M43.7,15.5c0,0-4.4-1.7-7.2-1.7c-1.4,0-7.9,0.3-7.9,0.3"/>
<line class="st1" x1="55" y1="10.9" x2="45" y2="12.7"/>
<line class="st1" x1="45.9" y1="20.1" x2="35.5" y2="21.8"/>
<path class="st0" d="M16.6,18.2c3.5,0.8,9,4,9,4s-6.9,1.1-10.4,0.3s-5.7-3.6-5.7-3.6S13.1,17.4,16.6,18.2z"/>
<line class="st0" x1="9.5" y1="18.9" x2="1.1" y2="17"/>
<g>
	<path class="st1" d="M24.2,15.3c3,1.2,7.6,4.9,7.6,4.9s-6.2,0.3-9.2-0.8s-4.7-4.2-4.7-4.2S21.1,14.1,24.2,15.3z"/>
	<line class="st1" x1="17.8" y1="15.2" x2="10.5" y2="12.4"/>
</g>
<g>
	<path class="st2" d="M28.8,29.1c-3.6,0-9.7-1.9-9.7-1.9s6.4-2.6,10-2.6s6.3,2.2,6.3,2.2S32.4,29,28.8,29.1z"/>
	<line class="st2" x1="35.5" y1="26.8" x2="44.2" y2="26.7"/>
</g>
<g>
	<path class="st1" d="M31.9,40.7c-2.4,0.4-6.8-1-6.8-1s4.1-3.2,6.6-3.5c2.4-0.4,4.5,1.6,4.5,1.6S34.4,40.3,31.9,40.7z"/>
	<line class="st1" x1="36.2" y1="37.8" x2="42.1" y2="36.9"/>
</g>
<g>
	<path class="st1" d="M24.9,35c-2.4,0.4-6.8-1-6.8-1s4.1-3.2,6.6-3.5c2.4-0.4,4.5,1.6,4.5,1.6S27.3,34.6,24.9,35z"/>
	<line class="st1" x1="29.2" y1="32.1" x2="35" y2="31.2"/>
</g>
<path class="st0" d="M9.8,19.2c0,0,5.5,0.4,9.9,1.6s4.4,1.2,4.4,1.2"/>
<path class="st1" d="M17.8,15.2c0,0,7.4,2,9.6,3.2c2.2,1.1,3.3,1.5,3.3,1.5"/>
<path class="st2" d="M35.1,27c0,0-4.5-1.2-7.4-0.8c-1.4,0.2-7.8,1.2-7.8,1.2"/>
<line class="st1" x1="36.2" y1="37.8" x2="26.3" y2="39.6"/>
<line class="st1" x1="29.2" y1="32.1" x2="18.8" y2="33.7"/>
<g>
	<path class="st3" d="M61.3,37.7c-3.5-0.8-9-4-9-4s6.9-1.1,10.4-0.3s5.7,3.6,5.7,3.6S64.8,38.5,61.3,37.7z"/>
	<line class="st3" x1="68.3" y1="37" x2="76.7" y2="38.9"/>
</g>
<g>
	<path class="st1" d="M53.7,40.6c-3-1.2-7.6-4.9-7.6-4.9s6.2-0.3,9.2,0.8s4.7,4.2,4.7,4.2S56.7,41.8,53.7,40.6z"/>
	<line class="st1" x1="60" y1="40.7" x2="67.3" y2="43.4"/>
</g>
<g>
	<path class="st1" d="M57.3,27.2c3.6,0.4,9.4,3,9.4,3S60,32,56.4,31.7c-3.6-0.4-6-2.9-6-2.9S53.7,26.8,57.3,27.2z"/>
	<line class="st1" x1="50.4" y1="28.7" x2="41.8" y2="27.8"/>
</g>
<g>
	<path class="st1" d="M43.9,30.2c2.4-0.4,6.8,1,6.8,1s-4.1,3.2-6.6,3.5c-2.4,0.4-4.5-1.6-4.5-1.6S41.5,30.6,43.9,30.2z"/>
	<line class="st1" x1="39.6" y1="33.1" x2="33.7" y2="34"/>
</g>
<g>
	<path class="st1" d="M53,20.9c2.4-0.4,6.8,1,6.8,1s-4.1,3.2-6.6,3.5c-2.4,0.4-4.5-1.6-4.5-1.6S50.6,21.3,53,20.9z"/>
	<line class="st1" x1="48.7" y1="23.8" x2="42.8" y2="24.7"/>
</g>
<path class="st3" d="M68.1,36.7c0,0-5.5-0.4-9.9-1.6c-4.4-1.2-4.4-1.2-4.4-1.2"/>
<path class="st1" d="M60,40.7c0,0-7.4-2-9.6-3.2c-2.2-1.1-3.3-1.5-3.3-1.5"/>
<path class="st1" d="M50.8,28.5c0,0,4.4,1.7,7.2,1.7c1.4,0,7.9-0.3,7.9-0.3"/>
<line class="st1" x1="39.6" y1="33.1" x2="49.5" y2="31.3"/>
<line class="st1" x1="48.7" y1="23.8" x2="59.1" y2="22.2"/>
</svg>
