<?xml version="1.0" encoding="utf-8"?>
<!-- Generator: Adobe Illustrator 23.0.1, SVG Export Plug-In . SVG Version: 6.00 Build 0)  -->
<svg version="1.1" id="Layer_1" xmlns="http://www.w3.org/2000/svg" xmlns:xlink="http://www.w3.org/1999/xlink" x="0px" y="0px"
	 viewBox="0 0 61.4 56.7" style="enable-background:new 0 0 61.4 56.7;" xml:space="preserve">
<style type="text/css">
	.st0{fill-rule:evenodd;clip-rule:evenodd;fill:none;stroke:#00C1A3;stroke-width:0.75;stroke-miterlimit:10;}
	.st1{fill:#FFFFFF;stroke:#0066FF;stroke-width:0.75;stroke-linecap:round;stroke-linejoin:round;stroke-miterlimit:10;}
	.st2{fill:none;stroke:#0066FF;stroke-width:0.75;stroke-linecap:round;stroke-linejoin:round;stroke-miterlimit:10;}
	.st3{fill:#FFFFFF;stroke:#0066FF;stroke-width:0.75;stroke-miterlimit:10;}
	.st4{fill:none;stroke:#0066FF;stroke-width:0.75;stroke-miterlimit:10;}
	.st5{fill:none;stroke:#00C1A3;stroke-width:0.75;stroke-miterlimit:10;}
	.st6{fill:none;stroke:#FF25F3;stroke-width:0.75;stroke-miterlimit:10;}
	.st7{fill:none;stroke:#FF25F3;stroke-width:0.75;stroke-linecap:round;stroke-linejoin:round;stroke-miterlimit:10;}
	.st8{fill-rule:evenodd;clip-rule:evenodd;fill:none;stroke:#0066FF;stroke-width:0.75;stroke-miterlimit:10;}
	.st9{clip-path:url(#SVGID_2_);fill-rule:evenodd;clip-rule:evenodd;fill:#FFFFFF;}
	.st10{fill-rule:evenodd;clip-rule:evenodd;fill:#FCFDFF;}
	.st11{fill-rule:evenodd;clip-rule:evenodd;fill:#FFFFFF;}
	.st12{fill-rule:evenodd;clip-rule:evenodd;fill:#3D6A9D;}
	.st13{fill:#FFFFFF;}
	.st14{fill:#0066FF;}
	.st15{fill-rule:evenodd;clip-rule:evenodd;fill:#FFFFFF;stroke:#0066FF;stroke-width:0.75;stroke-miterlimit:10;}
	.st16{fill-rule:evenodd;clip-rule:evenodd;fill:#FFFFFF;stroke:#44E0A0;stroke-width:0.75;stroke-miterlimit:10;}
	.st17{fill-rule:evenodd;clip-rule:evenodd;fill:#FFFFFF;stroke:#FF25F3;stroke-width:0.75;stroke-miterlimit:10;}
	.st18{fill:none;stroke:#FFFFFF;stroke-width:2.8774;stroke-miterlimit:10;}
	
		.st19{fill-rule:evenodd;clip-rule:evenodd;fill:none;stroke:#FF25F3;stroke-width:0.75;stroke-linecap:round;stroke-linejoin:round;stroke-miterlimit:10;}
	.st20{fill-rule:evenodd;clip-rule:evenodd;fill:#FFFFFF;stroke:#FFFFFF;stroke-width:0.7194;stroke-miterlimit:10;}
	.st21{fill:none;stroke:#FFFFFF;stroke-width:0.7194;stroke-miterlimit:10;}
	.st22{fill:none;stroke:#44E0A0;stroke-width:0.75;stroke-linecap:round;stroke-linejoin:round;stroke-miterlimit:10;}
	.st23{fill-rule:evenodd;clip-rule:evenodd;fill:#FFFFFF;stroke:#00C1A3;stroke-width:0.75;stroke-miterlimit:10;}
	.st24{fill:none;stroke:#0066FF;stroke-width:0.75;stroke-linecap:round;stroke-miterlimit:10;}
	.st25{fill:#FFFFFF;stroke:#00C1A3;stroke-width:0.75;stroke-miterlimit:10;}
	.st26{clip-path:url(#SVGID_4_);}
	
		.st27{fill-rule:evenodd;clip-rule:evenodd;fill:none;stroke:#0066FF;stroke-width:0.75;stroke-linecap:round;stroke-miterlimit:10;}
	.st28{fill:#FFFFFF;stroke:#FF25F3;stroke-width:0.75;stroke-miterlimit:10;}
	.st29{fill:#FFFFFF;stroke:#FF25F3;stroke-width:0.75;stroke-linecap:round;stroke-linejoin:round;stroke-miterlimit:10;}
	.st30{fill:none;stroke:#00FA9B;stroke-width:0.75;stroke-miterlimit:10;}
	.st31{fill:#87D73F;}
	.st32{fill:#3DED98;}
</style>
<g>
	<g>
		<path class="st28" d="M41.4,17c0,0-3.9,0.2-7.4,5.4s-5.9,5.9-8,7.3s-4.6,4.2-5.8,5c-1.2,0.8-4.7,3.6-7.1,2.9
			c-2.4-0.7-7.1,1.5-7.7,1.4c-0.7-0.1-4.5-0.3-4.5-0.3s1.1,3.7,3,4.2s2.5,1,3.3,1.5c0.9,0.4,4.3,1.8,9.5-0.2c5.3-2,3.3-1.1,8.1-2.4
			c4.5-1.2,6.7-5.4,11.2-8.2c2.3-1.4,4.8-5.2,6.7-8.6c1.4-2.3,2.9-4.5,2.4-5.4C44.1,17.5,44.8,17.2,41.4,17z"/>
		<path class="st24" d="M41.3,1.6c0,0,1.8-0.7,2.3,0S44,4.4,44,6.4c-0.1,2,0.4,5.4-0.3,7.3s-4.1,3.3-4.1,3.3l2.1-0.6l1.8,0.4
			c0,0,1.3,0.8,1.7,1.8c0.4,1,0.5,2.8,0.5,2.8s1.6-0.5,1-2.4c-0.9-2.7-1.5-3.5-1.4-4c0.1-0.5-0.3-1.2-0.1-3s0-4.7,0.1-6.9
			c0.2-2.2-0.7-4.1-1.2-4.5c-0.5-0.5-1.3,0-2.1,0.3C41.2,1.2,41.3,1.6,41.3,1.6z"/>
	</g>
	<g>
		<path class="st24" d="M54.1,33.8c-0.1,0-3.9-1.5-8.2,2.9c-4.4,4.5-5.5,5-7.8,6c-2.3,1-4.7,2.7-6,3.2c-1.3,0.5-5.9,1.8-8.2,2.8
			c-2.4,1-6.1,1.5-8.6,0c-2-1.2-5.2-1.4-5.2-1.4s0.3,3.9,2.2,4.7s2.2,1.5,3,2.1c0.8,0.6,3.9,2.6,9.3,1.7c5.6-1,5.3-1.7,10.3-2.1
			c4.6-0.3,7.7-4.9,12.6-6.7c2.5-0.9,4.3-1.5,6.9-4.4c1.8-2,3.1-4.4,2.9-5.3C56.8,34.9,57.5,34.7,54.1,33.8z"/>
		<path class="st25" d="M56.7,18.4c0,0,1.9-0.3,2.3,0.5c0.3,0.8,0.8,3.8,0.4,5.7c-0.4,1.9-1.7,4.4-2.7,6.2c-0.4,0.7-2.4,0.8-3.6,1.2
			c-1.8,0.7-2.3,1.2-2.3,1.2l2.4-0.3l2.8,0.9c0,0,1.6,0.9,1.8,1.9s0.1,3.3,0.1,3.3s1.1-0.5,0.9-2.5c-0.3-2.8-0.4-4,0.1-5.7
			s1.3-4.3,1.9-6.4s-0.5-5.9-0.9-6.5c-0.4-0.5-1.3-0.3-2.2-0.1C56.7,18,56.7,18.4,56.7,18.4z"/>
	</g>
</g>
</svg>
