<?xml version="1.0" encoding="utf-8"?>
<!-- Generator: Adobe Illustrator 23.0.1, SVG Export Plug-In . SVG Version: 6.00 Build 0)  -->
<svg version="1.1" id="Layer_1" xmlns="http://www.w3.org/2000/svg" xmlns:xlink="http://www.w3.org/1999/xlink" x="0px" y="0px"
	 viewBox="0 0 61.8 56.5" style="enable-background:new 0 0 61.8 56.5;" xml:space="preserve">
<style type="text/css">
	.st0{fill:none;stroke:#FF25F3;stroke-width:0.75;stroke-linecap:round;stroke-linejoin:round;stroke-miterlimit:10;}
	.st1{fill:none;stroke:#0066FF;stroke-width:0.75;stroke-miterlimit:10;}
	.st2{fill-rule:evenodd;clip-rule:evenodd;fill:none;stroke:#00C1A3;stroke-width:0.75;stroke-miterlimit:10;}
</style>
<polyline class="st0" points="2.5,55.2 22.7,46.3 31,55.7 54.8,39.4 "/>
<path class="st1" d="M38.6,34.1h0.9c0.2-3.5-0.6-2.3,1-4.1c0.7-0.9,2.1-2.6,2.5-3.7c0-0.2,0.1-0.4,0-0.6c-1.3,0-3.1,1.7-4,3.2
	c-1-1.3-2.8-3.3-4.1-3.2c-0.1,1.1,1.9,3.6,2.5,4.2C39.1,31.7,38.5,30.5,38.6,34.1L38.6,34.1z"/>
<path class="st1" d="M39.1,22.6c1.2-1.3,4.1-4.4,4-6c-1.3-0.1-3.1,1.8-4,3.2c-0.8-1.4-2.8-3.3-4-3.2C34.9,18.2,37.9,21.2,39.1,22.6
	L39.1,22.6z"/>
<path class="st2" d="M39.1,18c1.6-1.7,3.6-3.9,4.1-5.9c-0.2,0,0,0-0.2,0c-0.3,0-0.5,0.1-0.8,0.3c-0.4,0.2-0.7,0.4-1.1,0.7
	c-1,0.8-1.2,1.3-2,2.2c-0.7-1.1-3-3.5-4.1-3.2C35,13.7,37.8,16.6,39.1,18L39.1,18z"/>
<path class="st1" d="M39.1,27.1c1.1-1.2,4.2-4.5,4-6c-1.1-0.1-3.2,2-4,3.2c-0.8-1.2-2.9-3.4-4.1-3.2C34.8,22.6,38,25.9,39.1,27.1
	L39.1,27.1z"/>
<path class="st1" d="M39.1,13.5c1.3-1.4,4.2-4.6,2.7-6c-1,1.2-1.8,2.1-2.7,3.4c-0.9-1.3-1.7-2.2-2.7-3.4C35,8.9,37.9,12.2,39.1,13.5
	L39.1,13.5z"/>
<path class="st1" d="M25,34h0.9c0.2-3.5-0.6-2.3,1-4.1c0.7-0.9,2.1-2.6,2.5-3.7c0-0.2,0.1-0.4,0-0.6c-1.3,0-3.1,1.8-4,3.2
	c-1-1.3-2.8-3.3-4.1-3.2c-0.2,1.2,1.9,3.6,2.5,4.3C25.5,31.6,24.8,30.3,25,34L25,34z"/>
<path class="st1" d="M25.4,22.4c1.2-1.3,4.1-4.4,4-6c-1.3-0.1-3.1,1.8-4,3.2c-0.8-1.4-2.8-3.3-4-3.2C21.3,18,24.3,21.1,25.4,22.4
	L25.4,22.4z"/>
<path class="st1" d="M25.4,26.9c1.1-1.2,4.2-4.5,4-6c-1.1-0.1-3.2,2-4,3.2c-0.8-1.2-2.9-3.4-4.1-3.2C21.2,22.4,24.3,25.7,25.4,26.9
	L25.4,26.9z"/>
<path class="st1" d="M11.4,33.8h0.9c0.2-3.4-0.6-2.2,1-4.1c0.7-0.9,2.1-2.6,2.5-3.7c0-0.2,0.1-0.4,0-0.6c-1.3,0-3.1,1.8-4,3.2
	c-1-1.3-2.8-3.3-4.1-3.2c-0.2,1.2,1.9,3.6,2.5,4.3C11.9,31.4,11.2,30.1,11.4,33.8L11.4,33.8z"/>
<path class="st1" d="M53.1,34.2h0.8c0.2-3.5-0.5-2.3,1.1-4.1c0.7-0.9,2.1-2.6,2.5-3.7c0-0.2,0.1-0.4,0.1-0.6c-1.3,0-3.2,1.8-4,3.2
	c-0.9-1.3-2.7-3.3-4.1-3.2c-0.1,1.2,1.9,3.6,2.5,4.3C53.6,31.8,52.9,30.5,53.1,34.2L53.1,34.2z"/>
<path class="st1" d="M53.5,22.6c1.1-1.3,4.1-4.4,4-6c-1.3-0.1-3.1,1.8-4,3.2c-0.9-1.4-2.8-3.3-4.1-3.2
	C49.4,18.2,52.3,21.3,53.5,22.6L53.5,22.6z"/>
<path class="st1" d="M53.5,18.1c1.6-1.8,3.6-3.9,4.1-5.9c-0.2,0,0,0-0.2,0c-0.3,0-0.5,0.1-0.8,0.3c-0.4,0.2-0.7,0.4-1.1,0.7
	c-1.1,0.8-1.2,1.3-2,2.2c-0.6-1.1-3-3.5-4-3.2C49.5,13.8,52.3,16.7,53.5,18.1L53.5,18.1z"/>
<path class="st1" d="M53.5,27.1c1.1-1.2,4.2-4.5,4-6c-1.1-0.1-3.3,2-4,3.2c-0.8-1.2-2.9-3.4-4.1-3.2C49.3,22.6,52.4,25.9,53.5,27.1
	L53.5,27.1z"/>
<path class="st1" d="M53.5,13.6c1.3-1.4,4.2-4.6,2.7-6c-1,1.2-1.8,2.1-2.7,3.4c-0.9-1.3-1.7-2.2-2.7-3.4C49.4,9,52.3,12.2,53.5,13.6
	L53.5,13.6z"/>
<path class="st1" d="M53.5,8.3c1.7-2.5,1.7-4.9,0-7.4C51.9,3.5,51.9,5.8,53.5,8.3L53.5,8.3z"/>
<line class="st1" x1="0.6" y1="34.5" x2="61.2" y2="34.5"/>
</svg>
