<?xml version="1.0" encoding="utf-8"?>
<!-- Generator: Adobe Illustrator 23.0.1, SVG Export Plug-In . SVG Version: 6.00 Build 0)  -->
<svg version="1.1" id="Layer_1" xmlns="http://www.w3.org/2000/svg" xmlns:xlink="http://www.w3.org/1999/xlink" x="0px" y="0px"
	 viewBox="0 0 66.1 64.2" style="enable-background:new 0 0 66.1 64.2;" xml:space="preserve">
<style type="text/css">
	.st0{fill:none;stroke:#0066FF;stroke-width:0.75;stroke-linejoin:round;stroke-miterlimit:10;}
	.st1{fill:#FFFFFF;stroke:#00C1A3;stroke-width:0.75;stroke-miterlimit:10;}
	.st2{fill:#FFFFFF;stroke:#0066FF;stroke-width:0.75;stroke-miterlimit:10;}
	.st3{fill:none;stroke:#00C1A3;stroke-width:0.75;stroke-miterlimit:10;}
	
		.st4{fill-rule:evenodd;clip-rule:evenodd;fill:none;stroke:#FF25F3;stroke-width:0.75;stroke-linecap:round;stroke-linejoin:round;stroke-miterlimit:10;}
	.st5{fill:none;stroke:#0066FF;stroke-width:0.75;stroke-miterlimit:10;}
	.st6{fill-rule:evenodd;clip-rule:evenodd;fill:none;stroke:#0066FF;stroke-width:0.75;stroke-miterlimit:10;}
	.st7{fill-rule:evenodd;clip-rule:evenodd;fill:none;stroke:#00C1A3;stroke-width:0.75;stroke-miterlimit:10;}
	.st8{fill:none;stroke:#FF25F3;stroke-width:0.75;stroke-linecap:round;stroke-linejoin:round;stroke-miterlimit:10;}
	.st9{fill:#FFFFFF;stroke:#FF25F3;stroke-width:0.75;stroke-linecap:round;stroke-linejoin:round;stroke-miterlimit:10;}
	.st10{fill-rule:evenodd;clip-rule:evenodd;fill:#FFFFFF;stroke:#0066FF;stroke-width:0.75;stroke-miterlimit:10;}
	
		.st11{fill-rule:evenodd;clip-rule:evenodd;fill:#FFFFFF;stroke:#FF25F3;stroke-width:0.75;stroke-linecap:round;stroke-linejoin:round;stroke-miterlimit:10;}
	.st12{fill-rule:evenodd;clip-rule:evenodd;fill:#FFFFFF;stroke:#00C1A3;stroke-width:0.75;stroke-miterlimit:10;}
	.st13{fill:none;stroke:#0066FF;stroke-width:0.75;stroke-linecap:round;stroke-linejoin:round;stroke-miterlimit:10;}
	.st14{fill:#FFFFFF;stroke:#00C1A3;stroke-width:0.75;stroke-linecap:round;stroke-linejoin:round;stroke-miterlimit:10;}
	
		.st15{fill-rule:evenodd;clip-rule:evenodd;fill:#FFFFFF;stroke:#0066FF;stroke-width:0.75;stroke-linecap:round;stroke-linejoin:round;stroke-miterlimit:10;}
	
		.st16{fill-rule:evenodd;clip-rule:evenodd;fill:none;stroke:#0066FF;stroke-width:0.75;stroke-linecap:round;stroke-linejoin:round;stroke-miterlimit:10;}
	.st17{fill:#FFFFFF;stroke:#0066FF;stroke-width:0.75;stroke-linejoin:round;stroke-miterlimit:10;}
	.st18{fill:none;stroke:#FF25F3;stroke-width:0.75;stroke-linecap:round;stroke-miterlimit:10;}
	.st19{fill:none;stroke:#00C1A3;stroke-width:0.75;stroke-miterlimit:10;stroke-dasharray:1.9953,1.9953;}
	.st20{fill:none;stroke:#FF25F3;stroke-width:0.75;stroke-linecap:round;stroke-miterlimit:10;stroke-dasharray:1.9953,1.9953;}
	.st21{fill:#0066FF;}
	.st22{fill:#FF25F3;}
	.st23{fill:none;stroke:#FF25F3;stroke-width:0.75;stroke-linejoin:round;stroke-miterlimit:10;}
	.st24{fill:none;stroke:#FF25F3;stroke-width:0.75;stroke-miterlimit:10;}
	.st25{fill:none;stroke:#0066FF;stroke-width:0.75;stroke-linecap:round;stroke-miterlimit:10;}
</style>
<g>
	<path class="st6" d="M22.8,45.3H7.1c-2.6,0-4.6-2.1-4.6-4.6V22.6c0-2.6,2.1-4.6,4.6-4.6h15.7c2.6,0,4.6,2.1,4.6,4.6v18.1
		C27.4,43.3,25.4,45.3,22.8,45.3z"/>
	<path class="st6" d="M23.3,28.2H6.6c-1,0-1.8-0.8-1.8-1.8v-4.1c0-1,0.8-1.8,1.8-1.8h16.7c1,0,1.8,0.8,1.8,1.8v4.1
		C25.1,27.4,24.3,28.2,23.3,28.2z"/>
	<path class="st6" d="M8.5,35.1h-2c-0.9,0-1.7-0.8-1.7-1.7v-2c0-0.9,0.8-1.7,1.7-1.7h2c0.9,0,1.7,0.8,1.7,1.7v2
		C10.2,34.4,9.5,35.1,8.5,35.1z"/>
	<path class="st6" d="M16,35.1h-2.3c-0.9,0-1.6-0.7-1.6-1.6v-2.3c0-0.9,0.7-1.6,1.6-1.6H16c0.9,0,1.6,0.7,1.6,1.6v2.3
		C17.6,34.4,16.9,35.1,16,35.1z"/>
	<path class="st6" d="M8.6,42.5H6.4c-0.9,0-1.6-0.7-1.6-1.6v-2.2c0-0.9,0.7-1.6,1.6-1.6h2.2c0.9,0,1.6,0.7,1.6,1.6v2.2
		C10.2,41.7,9.5,42.5,8.6,42.5z"/>
	<path class="st4" d="M15.9,42.5h-2c-1,0-1.7-0.8-1.7-1.7v-2c0-1,0.8-1.7,1.7-1.7h2c1,0,1.7,0.8,1.7,1.7v2
		C17.6,41.7,16.9,42.5,15.9,42.5z"/>
	<path class="st6" d="M23.3,42.5h-2c-1,0-1.8-0.8-1.8-1.8v-9.2c0-1,0.8-1.8,1.8-1.8h2c1,0,1.8,0.8,1.8,1.8v9.2
		C25.1,41.7,24.3,42.5,23.3,42.5z"/>
</g>
<g>
	<polyline class="st5" points="40.3,6.2 40.3,14.6 31,14.6 31,1.5 38.6,1.5 40.3,3.2 40.3,5.8 40.3,6.2 	"/>
	<polyline class="st5" points="40.3,3.2 38.6,3.2 38.6,1.5 	"/>
</g>
<g>
	<polyline class="st3" points="64.4,31.2 64.4,39.6 55.2,39.6 55.2,26.5 62.7,26.5 64.4,28.2 64.4,30.8 64.4,31.2 	"/>
	<polyline class="st3" points="64.4,28.2 62.7,28.2 62.7,26.5 	"/>
</g>
<g>
	<polyline class="st5" points="39.5,54.4 39.5,62.9 30.3,62.9 30.3,49.7 37.8,49.7 39.5,51.4 39.5,54.1 39.5,54.4 	"/>
	<polyline class="st5" points="39.5,51.4 37.8,51.4 37.8,49.7 	"/>
</g>
<path class="st6" d="M25.9,56.3c-4.4-1.8-8.1-4.8-10.8-8.6"/>
<path class="st6" d="M59.2,42.5c-2.6,6.3-7.6,11.3-13.8,13.9"/>
<path class="st6" d="M45.4,9.3c5.8,2.4,10.5,6.8,13.2,12.4"/>
<path class="st6" d="M17.6,14.9c2.7-2.7,6.1-4.9,9.8-6.2"/>
<g>
	<path class="st5" d="M60.2,30c0,0,0.2,1.5-0.8,2.4c-0.4,0.3-1.2,0.7-1.2,0.7l2.4,3.1"/>
	<line class="st5" x1="57.7" y1="30" x2="61.8" y2="30"/>
	<line class="st5" x1="57.7" y1="31.4" x2="61.8" y2="31.4"/>
</g>
<g>
	<path class="st5" d="M36.1,5.7c0,0,0.2,1.5-0.8,2.4c-0.4,0.3-1.2,0.7-1.2,0.7l2.4,3.1"/>
	<line class="st5" x1="33.6" y1="5.7" x2="37.7" y2="5.7"/>
	<line class="st5" x1="33.6" y1="7" x2="37.7" y2="7"/>
</g>
<g>
	<path class="st5" d="M35.3,53.3c0,0,0.2,1.5-0.8,2.4c-0.4,0.3-1.2,0.7-1.2,0.7l2.4,3.1"/>
	<line class="st5" x1="32.8" y1="53.3" x2="36.9" y2="53.3"/>
	<line class="st5" x1="32.8" y1="54.6" x2="36.9" y2="54.6"/>
</g>
</svg>
