<?xml version="1.0" encoding="utf-8"?>
<!-- Generator: Adobe Illustrator 23.0.1, SVG Export Plug-In . SVG Version: 6.00 Build 0)  -->
<svg version="1.1" id="Layer_1" xmlns="http://www.w3.org/2000/svg" xmlns:xlink="http://www.w3.org/1999/xlink" x="0px" y="0px"
	 viewBox="0 0 102.1 49.5" style="enable-background:new 0 0 102.1 49.5;" xml:space="preserve">
<style type="text/css">
	.st0{fill:none;stroke:#0066FF;stroke-width:0.75;stroke-linejoin:round;stroke-miterlimit:10;}
	.st1{fill:#FFFFFF;stroke:#00C1A3;stroke-width:0.75;stroke-miterlimit:10;}
	.st2{fill:#FFFFFF;stroke:#0066FF;stroke-width:0.75;stroke-miterlimit:10;}
	.st3{fill:none;stroke:#00C1A3;stroke-width:0.75;stroke-miterlimit:10;}
	
		.st4{fill-rule:evenodd;clip-rule:evenodd;fill:none;stroke:#FF25F3;stroke-width:0.75;stroke-linecap:round;stroke-linejoin:round;stroke-miterlimit:10;}
	.st5{fill:none;stroke:#0066FF;stroke-width:0.75;stroke-miterlimit:10;}
	.st6{fill-rule:evenodd;clip-rule:evenodd;fill:none;stroke:#0066FF;stroke-width:0.75;stroke-miterlimit:10;}
	.st7{fill-rule:evenodd;clip-rule:evenodd;fill:none;stroke:#00C1A3;stroke-width:0.75;stroke-miterlimit:10;}
	.st8{fill:none;stroke:#FF25F3;stroke-width:0.75;stroke-linecap:round;stroke-linejoin:round;stroke-miterlimit:10;}
	.st9{fill:#FFFFFF;stroke:#FF25F3;stroke-width:0.75;stroke-linecap:round;stroke-linejoin:round;stroke-miterlimit:10;}
	.st10{fill-rule:evenodd;clip-rule:evenodd;fill:#FFFFFF;stroke:#0066FF;stroke-width:0.75;stroke-miterlimit:10;}
	
		.st11{fill-rule:evenodd;clip-rule:evenodd;fill:#FFFFFF;stroke:#FF25F3;stroke-width:0.75;stroke-linecap:round;stroke-linejoin:round;stroke-miterlimit:10;}
	.st12{fill-rule:evenodd;clip-rule:evenodd;fill:#FFFFFF;stroke:#00C1A3;stroke-width:0.75;stroke-miterlimit:10;}
	.st13{fill:none;stroke:#0066FF;stroke-width:0.75;stroke-linecap:round;stroke-linejoin:round;stroke-miterlimit:10;}
	.st14{fill:#FFFFFF;stroke:#00C1A3;stroke-width:0.75;stroke-linecap:round;stroke-linejoin:round;stroke-miterlimit:10;}
	
		.st15{fill-rule:evenodd;clip-rule:evenodd;fill:#FFFFFF;stroke:#0066FF;stroke-width:0.75;stroke-linecap:round;stroke-linejoin:round;stroke-miterlimit:10;}
	
		.st16{fill-rule:evenodd;clip-rule:evenodd;fill:none;stroke:#0066FF;stroke-width:0.75;stroke-linecap:round;stroke-linejoin:round;stroke-miterlimit:10;}
	.st17{fill:#FFFFFF;stroke:#0066FF;stroke-width:0.75;stroke-linejoin:round;stroke-miterlimit:10;}
	.st18{fill:none;stroke:#FF25F3;stroke-width:0.75;stroke-linecap:round;stroke-miterlimit:10;}
	.st19{fill:none;stroke:#00C1A3;stroke-width:0.75;stroke-miterlimit:10;stroke-dasharray:1.9953,1.9953;}
	.st20{fill:none;stroke:#FF25F3;stroke-width:0.75;stroke-linecap:round;stroke-miterlimit:10;stroke-dasharray:1.9953,1.9953;}
	.st21{fill:#0066FF;}
	.st22{fill:#FF25F3;}
	.st23{fill:none;stroke:#FF25F3;stroke-width:0.75;stroke-linejoin:round;stroke-miterlimit:10;}
	.st24{fill:none;stroke:#FF25F3;stroke-width:0.75;stroke-miterlimit:10;}
	.st25{fill:none;stroke:#0066FF;stroke-width:0.75;stroke-linecap:round;stroke-miterlimit:10;}
</style>
<g>
	<polygon class="st5" points="27.4,29.7 15,29.7 15,25.3 1.2,34.8 15,44.3 15,39.9 27.4,39.9 	"/>
	<polygon class="st5" points="100.4,28 88,28 88,23.6 74.2,33.1 88,42.5 88,38.2 100.4,38.2 	"/>
	<path class="st8" d="M78,16c-0.4,0-0.8,0-1.2,0.1C73.5,7.5,65.4,1.5,56,1.5c-12.3,0-22.3,10.2-22.5,22.9c-1.5-0.7-3.2-1.2-5-1.2
		c-6.6,0-12,5.6-12,12.5s5.4,12.5,12,12.5c0.2,0,0.4,0,0.5,0c0.2,0,0.4,0,0.5,0h47.1c0.2,0,0.5,0,0.7,0c0.2,0,0.5,0,0.7,0
		c8.6,0,15.5-7.2,15.5-16.1C93.5,23.2,86.6,16,78,16z"/>
</g>
<g>
	<path class="st5" d="M63.2,44.7H47.6c-5,0-9-4.1-9-9V20.2c0-4.9,4-9,9-9h15.5c4.9,0,9,4.1,9,9v15.5C72.2,40.6,68.1,44.7,63.2,44.7z
		"/>
	<path class="st5" d="M63.5,42.2H47.3c-3.4,0-6.2-2.8-6.2-6.2V19.8c0-3.4,2.8-6.2,6.2-6.2h16.2c3.4,0,6.2,2.8,6.2,6.2V36
		C69.7,39.4,66.9,42.2,63.5,42.2z"/>
	<g>
		<rect x="43.8" y="44.7" class="st5" width="4.2" height="2.8"/>
		<polygon class="st5" points="67,47.5 65.6,47.5 62.8,47.5 62.8,44.7 67,44.7 		"/>
	</g>
	<g>
		<circle class="st3" cx="52.4" cy="27.9" r="5"/>
		<rect x="52" y="20" class="st5" width="0.8" height="2.9"/>
		<rect x="52" y="32.9" class="st5" width="0.8" height="2.9"/>
		
			<rect x="58.5" y="26.5" transform="matrix(-1.836970e-16 1 -1 -1.836970e-16 86.8202 -30.9608)" class="st5" width="0.8" height="2.9"/>
		
			<rect x="45.6" y="26.5" transform="matrix(-1.836970e-16 1 -1 -1.836970e-16 73.9735 -18.1142)" class="st5" width="0.8" height="2.9"/>
		<circle class="st5" cx="52.4" cy="27.9" r="3.7"/>
	</g>
	<path class="st8" d="M66.4,26.6c0-0.8-0.6-1.4-1.4-1.4c-0.8,0-1.4,0.6-1.4,1.4c0,0.6,0.4,1.1,1,1.3v2.7h0.8v-2.7
		C66,27.8,66.4,27.3,66.4,26.6z"/>
</g>
</svg>
