<?xml version="1.0" encoding="utf-8"?>
<!-- Generator: Adobe Illustrator 23.0.1, SVG Export Plug-In . SVG Version: 6.00 Build 0)  -->
<svg version="1.1" id="Layer_1" xmlns="http://www.w3.org/2000/svg" xmlns:xlink="http://www.w3.org/1999/xlink" x="0px" y="0px"
	 viewBox="0 0 43.6 79.4" style="enable-background:new 0 0 43.6 79.4;" xml:space="preserve">
<style type="text/css">
	.st0{fill:#FF25F3;}
	.st1{fill:#2935E8;}
	.st2{fill:#00C1A3;}
	.st3{fill:none;stroke:#0066FF;stroke-width:0.75;stroke-linejoin:round;stroke-miterlimit:10;}
	.st4{fill:#FFFFFF;stroke:#00C1A3;stroke-width:0.75;stroke-miterlimit:10;}
	.st5{fill:#FFFFFF;stroke:#0066FF;stroke-width:0.75;stroke-miterlimit:10;}
	.st6{fill:none;stroke:#00C1A3;stroke-width:0.75;stroke-miterlimit:10;}
	
		.st7{fill-rule:evenodd;clip-rule:evenodd;fill:none;stroke:#FF25F3;stroke-width:0.75;stroke-linecap:round;stroke-linejoin:round;stroke-miterlimit:10;}
	.st8{fill:none;stroke:#0066FF;stroke-width:0.75;stroke-miterlimit:10;}
	.st9{fill-rule:evenodd;clip-rule:evenodd;fill:none;stroke:#0066FF;stroke-width:0.75;stroke-miterlimit:10;}
	.st10{fill-rule:evenodd;clip-rule:evenodd;fill:none;stroke:#00C1A3;stroke-width:0.75;stroke-miterlimit:10;}
	.st11{fill:none;stroke:#FF25F3;stroke-width:0.75;stroke-linecap:round;stroke-linejoin:round;stroke-miterlimit:10;}
	.st12{fill:#FFFFFF;stroke:#FF25F3;stroke-width:0.75;stroke-linecap:round;stroke-linejoin:round;stroke-miterlimit:10;}
	.st13{fill-rule:evenodd;clip-rule:evenodd;fill:#FFFFFF;stroke:#0066FF;stroke-width:0.75;stroke-miterlimit:10;}
	
		.st14{fill-rule:evenodd;clip-rule:evenodd;fill:#FFFFFF;stroke:#FF25F3;stroke-width:0.75;stroke-linecap:round;stroke-linejoin:round;stroke-miterlimit:10;}
	.st15{fill-rule:evenodd;clip-rule:evenodd;fill:#FFFFFF;stroke:#00C1A3;stroke-width:0.75;stroke-miterlimit:10;}
	.st16{fill:none;stroke:#0066FF;stroke-width:0.75;stroke-linecap:round;stroke-linejoin:round;stroke-miterlimit:10;}
	.st17{fill:#FFFFFF;stroke:#00C1A3;stroke-width:0.75;stroke-linecap:round;stroke-linejoin:round;stroke-miterlimit:10;}
	
		.st18{fill-rule:evenodd;clip-rule:evenodd;fill:#FFFFFF;stroke:#0066FF;stroke-width:0.75;stroke-linecap:round;stroke-linejoin:round;stroke-miterlimit:10;}
	
		.st19{fill-rule:evenodd;clip-rule:evenodd;fill:none;stroke:#0066FF;stroke-width:0.75;stroke-linecap:round;stroke-linejoin:round;stroke-miterlimit:10;}
	.st20{fill:#FFFFFF;stroke:#0066FF;stroke-width:0.75;stroke-linejoin:round;stroke-miterlimit:10;}
	.st21{fill:none;stroke:#FF25F3;stroke-width:0.75;stroke-linecap:round;stroke-miterlimit:10;}
	.st22{fill:none;stroke:#00C1A3;stroke-width:0.75;stroke-miterlimit:10;stroke-dasharray:1.9953,1.9953;}
	.st23{fill:none;stroke:#FF25F3;stroke-width:0.75;stroke-linecap:round;stroke-miterlimit:10;stroke-dasharray:1.9953,1.9953;}
	.st24{fill:#FFFFFF;stroke:#000000;stroke-miterlimit:10;}
	.st25{fill:#0066FF;}
	.st26{fill:none;stroke:#FF25F3;stroke-width:0.75;stroke-linejoin:round;stroke-miterlimit:10;}
	.st27{fill:none;stroke:#FF25F3;stroke-width:0.75;stroke-miterlimit:10;}
	.st28{fill:none;stroke:#0066FF;stroke-width:0.75;stroke-linecap:round;stroke-miterlimit:10;}
	.st29{fill:none;stroke:#FFFFFF;stroke-width:0.75;stroke-miterlimit:10;}
	.st30{fill:none;stroke:#0000FF;stroke-width:2;stroke-miterlimit:10;}
	.st31{fill:none;stroke:#00C1A3;stroke-width:2;stroke-miterlimit:10;}
	.st32{fill:none;stroke:#FF25F3;stroke-width:2;stroke-linecap:round;stroke-linejoin:round;stroke-miterlimit:10;}
	.st33{fill:none;stroke:#FF25F3;stroke-width:0.75;stroke-linejoin:round;}
	.st34{fill:none;stroke:#FF25F3;stroke-width:0.75;stroke-linejoin:round;stroke-dasharray:1.916,1.916;}
	.st35{fill:none;stroke:#FF25F3;stroke-width:0.75;stroke-miterlimit:10;stroke-dasharray:1.916,1.916;}
	.st36{fill:none;}
	.st37{fill-rule:evenodd;clip-rule:evenodd;fill:none;stroke:#FF25F3;stroke-width:0.75;stroke-miterlimit:10;}
	.st38{clip-path:url(#SVGID_2_);fill:#2935E8;}
	.st39{clip-path:url(#SVGID_4_);fill:#00C1A3;}
	.st40{clip-path:url(#SVGID_6_);fill:#FF25F3;}
	.st41{fill:#FFFFFF;}
	.st42{fill:none;stroke:#FF25F3;stroke-width:0.75;stroke-linecap:round;stroke-linejoin:round;}
	.st43{fill:none;stroke:#FF25F3;stroke-width:0.75;stroke-linecap:round;stroke-linejoin:round;stroke-dasharray:5.1058,5.1058;}
	.st44{fill:none;stroke:#FF25F3;stroke-width:0.75;stroke-miterlimit:10;stroke-dasharray:7.3935,7.3935;}
	.st45{fill:none;stroke:#00C1A3;stroke-width:0.75;stroke-miterlimit:10;stroke-dasharray:8.7323,8.7323;}
</style>
<path class="st8" d="M12.9,66.9H5.1c-1.8,0-3.2-1.4-3.2-3.2V5.5c0-1.8,1.4-3.2,3.2-3.2H35c1.8,0,3.2,1.4,3.2,3.2v42.2"/>
<path class="st8" d="M11.4,19.6H8.1c-1.3,0-2.3-1-2.3-2.3V14c0-1.3,1-2.3,2.3-2.3h3.3c1.3,0,2.3,1,2.3,2.3v3.3
	C13.7,18.6,12.7,19.6,11.4,19.6z"/>
<path class="st8" d="M21.8,19.6h-3.3c-1.3,0-2.3-1-2.3-2.3V14c0-1.3,1-2.3,2.3-2.3h3.3c1.3,0,2.3,1,2.3,2.3v3.3
	C24.1,18.6,23.1,19.6,21.8,19.6z"/>
<path class="st8" d="M32.3,19.2h-3.3c-1.3,0-2.3-1-2.3-2.3v-3.3c0-1.3,1-2.3,2.3-2.3h3.3c1.3,0,2.3,1,2.3,2.3v3.3
	C34.6,18.2,33.5,19.2,32.3,19.2z"/>
<path class="st8" d="M11.3,30.9H8c-1.3,0-2.3-1-2.3-2.3v-3.3C5.7,24,6.7,23,8,23h3.3c1.3,0,2.3,1,2.3,2.3v3.3
	C13.6,29.9,12.6,30.9,11.3,30.9z"/>
<path class="st11" d="M21.7,30.9h-3.3c-1.3,0-2.3-1-2.3-2.3v-3.3c0-1.3,1-2.3,2.3-2.3h3.3c1.3,0,2.3,1,2.3,2.3v3.3
	C24,29.9,23,30.9,21.7,30.9z"/>
<path class="st8" d="M32.2,30.5h-3.3c-1.3,0-2.3-1-2.3-2.3v-3.3c0-1.3,1-2.3,2.3-2.3h3.3c1.3,0,2.3,1,2.3,2.3v3.3
	C34.5,29.5,33.4,30.5,32.2,30.5z"/>
<path class="st8" d="M11.2,42.2H7.9c-1.3,0-2.3-1-2.3-2.3v-3.3c0-1.3,1-2.3,2.3-2.3h3.3c1.3,0,2.3,1,2.3,2.3v3.3
	C13.5,41.1,12.5,42.2,11.2,42.2z"/>
<line class="st8" x1="38.2" y1="6.5" x2="2" y2="6.5"/>
<line class="st8" x1="11.2" y1="62.7" x2="2" y2="62.7"/>
<path class="st6" d="M38.9,48.4c-1.5,0-2.7,1.2-2.7,2.7v3.1h-1v-5.1c0-1.5-1.2-2.7-2.7-2.7c-1.5,0-2.7,1.2-2.7,2.7v5.1h-1v-7.1
	c0-1.5-1.2-2.7-2.7-2.7c-1.5,0-2.7,1.2-2.7,2.7v7.1h-1.1V35.8c0-1.5-1.2-2.7-2.7-2.7c-1.5,0-2.7,1.2-2.7,2.7v18.3v1.5v6l-5.3-9.2
	c-0.7-1.3-2.4-1.7-3.7-1s-1.7,2.4-1,3.7l9.9,17.1c0.1,0.2,0.2,0.3,0.3,0.5c0.5,1.3,4.7,5.9,12.3,5.3c8.7-0.7,12.2-7.7,12.2-10.3
	V54.9v-0.8v-3.1C41.6,49.6,40.4,48.4,38.9,48.4z"/>
<circle class="st8" cx="20.4" cy="4.3" r="1.1"/>
</svg>
