<?xml version="1.0" encoding="utf-8"?>
<!-- Generator: Adobe Illustrator 23.0.1, SVG Export Plug-In . SVG Version: 6.00 Build 0)  -->
<svg version="1.1" id="Layer_1" xmlns="http://www.w3.org/2000/svg" xmlns:xlink="http://www.w3.org/1999/xlink" x="0px" y="0px"
	 viewBox="0 0 74 78" style="enable-background:new 0 0 74 78;" xml:space="preserve">
<style type="text/css">
	.st0{fill:none;stroke:#0066FF;stroke-width:0.75;stroke-miterlimit:10;}
	.st1{fill:none;stroke:#00C1A3;stroke-width:0.75;stroke-miterlimit:10;}
	.st2{fill:none;stroke:#0066FF;stroke-width:0.75;stroke-linejoin:round;stroke-miterlimit:10;}
	.st3{fill:none;stroke:#FF25F3;stroke-width:0.75;stroke-linecap:round;stroke-linejoin:round;stroke-miterlimit:10;}
	.st4{fill-rule:evenodd;clip-rule:evenodd;fill:none;stroke:#0066FF;stroke-width:0.75;stroke-miterlimit:10;}
	.st5{fill-rule:evenodd;clip-rule:evenodd;fill:none;stroke:#00C1A3;stroke-width:0.75;stroke-miterlimit:10;}
	
		.st6{fill-rule:evenodd;clip-rule:evenodd;fill:none;stroke:#FF25F3;stroke-width:0.75;stroke-linecap:round;stroke-linejoin:round;stroke-miterlimit:10;}
	.st7{fill:none;stroke:#0066FF;stroke-width:0.75;stroke-linecap:round;stroke-miterlimit:10;}
</style>
<g>
	<path class="st0" d="M32.7,38.8c0,0,2.4,2.3,4.4,2.3s4.2-1.8,4.2-1.8"/>
	<path class="st0" d="M51.5,60.5l10.6-5.2c0,0-1-2-2.1-4.4c-1.5-3.1-3.3-7-3.7-8.3c-0.7-2.4-3.3-3.4-3.3-3.4l-8.7-2.1"/>
	<path class="st0" d="M43.6,60.8l0.9-23.7c0,0-0.5-1.9-0.9-2.5c-0.3-0.5-1.8-1.4-1.8-1.4l-2.3,27.3"/>
	<path class="st0" d="M29.3,36.2l-9.6,1.6c0,0-2.2,0.4-3.5,2.4c-1.3,2-6.5,14.3-6.5,14.3l9.8,4.4"/>
	<line class="st0" x1="31.1" y1="60.6" x2="32.7" y2="34.7"/>
	<path class="st0" d="M31,32.9c0,0-3,3.5-3.3,17.6c-0.2,11,0,10.3,0,10.3"/>
	<path class="st0" d="M30.1,23.2c-0.4-0.6-1.4-0.7-1.8-0.6c-0.6,0.2-0.8,1.8-0.4,3.3c0.4,1.5,1.2,2.6,1.8,2.4c0.1,0,0.2-0.1,0.3-0.2
		l0.2,1.9c0,0,0.9,5.4,6.7,5.4c2.8,0,5.7-3.3,6.2-5.2c0.2-0.7,0.3-1.3,0.5-2c0.1,0.1,0.2,0.2,0.3,0.2c0.6,0.2,1.5-0.8,2.1-2.2
		c0.5-1.5,0.6-3.2-0.1-3.4c-0.3-0.1-1-0.2-1.3,0.1"/>
	<path class="st0" d="M30.2,23c-2-1.6-3.8-4-3.8-6.5c0-4.9,4.9-8.9,11.1-8.9s11.1,4,11.1,8.9c0,2.8-1.6,4.8-4.1,6.5"/>
	<line class="st0" x1="46.8" y1="11.7" x2="29.9" y2="23"/>
	<line class="st0" x1="39.3" y1="16.7" x2="44.9" y2="23.4"/>
	<polyline class="st0" points="44.2,9.4 45.8,3 52.3,5.7 46.8,11.7 	"/>
	<line class="st0" x1="19.5" y1="46" x2="19.5" y2="60.4"/>
	<line class="st0" x1="52.3" y1="47" x2="51.5" y2="60.5"/>
	<line class="st0" x1="13.4" y1="56.2" x2="12.5" y2="60.5"/>
	<line class="st0" x1="58.5" y1="57.5" x2="59.5" y2="60.5"/>
	<path class="st7" d="M38.9,24.4c0,0,0.8-0.2,1.3-0.2c0.6,0,1.3,0.2,1.3,0.2"/>
	<path class="st7" d="M32.7,24.1c0,0,0.8-0.2,1.3-0.2c0.6,0,1.3,0.2,1.3,0.2"/>
	<path class="st7" d="M34.5,30.4c0,0,1.1,0.5,2.2,0.5c1.2,0,2.2-0.5,2.2-0.5"/>
	<line class="st0" x1="3" y1="60.5" x2="71" y2="60.5"/>
	<polygon class="st0" points="9.1,64 10.9,67.6 14.9,68.2 12,71 12.7,75 9.1,73.1 5.6,75 6.3,71 3.4,68.2 7.4,67.6 	"/>
	<polygon class="st3" points="64.8,64 66.6,67.6 70.6,68.2 67.7,71 68.4,75 64.8,73.1 61.3,75 62,71 59.1,68.2 63.1,67.6 	"/>
	<polygon class="st1" points="50.9,64 52.7,67.6 56.7,68.2 53.8,71 54.5,75 50.9,73.1 47.3,75 48,71 45.1,68.2 49.1,67.6 	"/>
	<polygon class="st1" points="37,64 38.8,67.6 42.8,68.2 39.9,71 40.6,75 37,73.1 33.4,75 34.1,71 31.2,68.2 35.2,67.6 	"/>
	<polygon class="st0" points="23.1,64 24.8,67.6 28.8,68.2 25.9,71 26.6,75 23.1,73.1 19.5,75 20.2,71 17.3,68.2 21.3,67.6 	"/>
</g>
</svg>
