<?xml version="1.0" encoding="utf-8"?>
<!-- Generator: Adobe Illustrator 23.0.1, SVG Export Plug-In . SVG Version: 6.00 Build 0)  -->
<svg version="1.1" id="Layer_1" xmlns="http://www.w3.org/2000/svg" xmlns:xlink="http://www.w3.org/1999/xlink" x="0px" y="0px"
	 viewBox="0 0 66.8 40.1" style="enable-background:new 0 0 66.8 40.1;" xml:space="preserve">
<style type="text/css">
	.st0{fill-rule:evenodd;clip-rule:evenodd;fill:none;stroke:#00C1A3;stroke-width:0.75;stroke-miterlimit:10;}
	.st1{fill:#FFFFFF;stroke:#0066FF;stroke-width:0.75;stroke-linecap:round;stroke-linejoin:round;stroke-miterlimit:10;}
	.st2{fill:none;stroke:#0066FF;stroke-width:0.75;stroke-linecap:round;stroke-linejoin:round;stroke-miterlimit:10;}
	.st3{fill:#FFFFFF;stroke:#0066FF;stroke-width:0.75;stroke-miterlimit:10;}
	.st4{fill:none;stroke:#0066FF;stroke-width:0.75;stroke-miterlimit:10;}
	.st5{fill:none;stroke:#00C1A3;stroke-width:0.75;stroke-miterlimit:10;}
	.st6{fill:none;stroke:#FF25F3;stroke-width:0.75;stroke-miterlimit:10;}
	.st7{fill:none;stroke:#FF25F3;stroke-width:0.75;stroke-linecap:round;stroke-linejoin:round;stroke-miterlimit:10;}
	.st8{fill-rule:evenodd;clip-rule:evenodd;fill:none;stroke:#0066FF;stroke-width:0.75;stroke-miterlimit:10;}
	.st9{clip-path:url(#SVGID_2_);fill-rule:evenodd;clip-rule:evenodd;fill:#FFFFFF;}
	.st10{fill-rule:evenodd;clip-rule:evenodd;fill:#FCFDFF;}
	.st11{fill-rule:evenodd;clip-rule:evenodd;fill:#FFFFFF;}
	.st12{fill-rule:evenodd;clip-rule:evenodd;fill:#3D6A9D;}
	.st13{fill:#FFFFFF;}
	.st14{fill:#0066FF;}
	.st15{fill-rule:evenodd;clip-rule:evenodd;fill:#FFFFFF;stroke:#0066FF;stroke-width:0.75;stroke-miterlimit:10;}
	.st16{fill-rule:evenodd;clip-rule:evenodd;fill:#FFFFFF;stroke:#44E0A0;stroke-width:0.75;stroke-miterlimit:10;}
	.st17{fill-rule:evenodd;clip-rule:evenodd;fill:#FFFFFF;stroke:#FF25F3;stroke-width:0.75;stroke-miterlimit:10;}
	.st18{fill:none;stroke:#FFFFFF;stroke-width:2.8774;stroke-miterlimit:10;}
	
		.st19{fill-rule:evenodd;clip-rule:evenodd;fill:none;stroke:#FF25F3;stroke-width:0.75;stroke-linecap:round;stroke-linejoin:round;stroke-miterlimit:10;}
	.st20{fill-rule:evenodd;clip-rule:evenodd;fill:#FFFFFF;stroke:#FFFFFF;stroke-width:0.7194;stroke-miterlimit:10;}
	.st21{fill:none;stroke:#FFFFFF;stroke-width:0.7194;stroke-miterlimit:10;}
	.st22{fill:none;stroke:#44E0A0;stroke-width:0.75;stroke-linecap:round;stroke-linejoin:round;stroke-miterlimit:10;}
	.st23{fill-rule:evenodd;clip-rule:evenodd;fill:#FFFFFF;stroke:#00C1A3;stroke-width:0.75;stroke-miterlimit:10;}
	.st24{fill:none;stroke:#0066FF;stroke-width:0.75;stroke-linecap:round;stroke-miterlimit:10;}
	.st25{fill:#FFFFFF;stroke:#00C1A3;stroke-width:0.75;stroke-miterlimit:10;}
	.st26{clip-path:url(#SVGID_4_);}
	
		.st27{fill-rule:evenodd;clip-rule:evenodd;fill:none;stroke:#0066FF;stroke-width:0.75;stroke-linecap:round;stroke-miterlimit:10;}
	.st28{fill:#FFFFFF;stroke:#FF25F3;stroke-width:0.75;stroke-miterlimit:10;}
	.st29{fill:#FFFFFF;stroke:#FF25F3;stroke-width:0.75;stroke-linecap:round;stroke-linejoin:round;stroke-miterlimit:10;}
	.st30{fill:none;stroke:#00FA9B;stroke-width:0.75;stroke-miterlimit:10;}
	.st31{fill:#87D73F;}
	.st32{fill:#3DED98;}
</style>
<g>
	<path class="st3" d="M38.6,7.8c0.2-0.7-2.6-2.8-5.6-2.7c-4.8,0.1-8.1,5.6-7.6,6.2c0.3,0.4,2.2-1.7,6.3-2.7
		C35.7,7.6,38.5,8.5,38.6,7.8z"/>
	<path class="st4" d="M37,7c-0.9-0.3-2.3-0.6-3.9-0.4c-3.5,0.3-5.7,2.5-6.4,3.2"/>
</g>
<g>
	<path class="st3" d="M41.5,5.7C42,5.1,40.2,2.1,37.4,1c-4.5-1.7-9.6,2.1-9.4,2.8c0.1,0.4,2.7-0.8,6.8-0.1C39,4.3,41.1,6.2,41.5,5.7
		z"/>
	<path class="st4" d="M40.4,4.3c-0.7-0.6-1.9-1.4-3.4-1.9c-3.3-1-6.2,0.1-7.1,0.5"/>
</g>
<g>
	<path class="st3" d="M31.4,7.8c-0.4,0.6,1.4,3.5,4.3,4.5c4.5,1.6,9.6-2.5,9.3-3.1c-0.2-0.4-2.6,0.9-6.8,0.4
		C34.1,9,31.8,7.2,31.4,7.8z"/>
	<path class="st4" d="M32.7,9.1c0.7,0.6,1.9,1.3,3.5,1.7c3.4,0.9,6.2-0.3,7.1-0.8"/>
</g>
<g>
	<path class="st3" d="M54.8,11.2c0.5-0.5-0.9-3.7-3.5-5.1c-4.2-2.3-9.8,0.9-9.7,1.6c0.1,0.5,2.7-0.4,6.8,0.7
		C52.5,9.5,54.4,11.7,54.8,11.2z"/>
	<path class="st4" d="M53.8,9.7c-0.6-0.7-1.7-1.6-3.2-2.3C47.5,6,44.5,6.8,43.5,7"/>
</g>
<g>
	<path class="st3" d="M13.3,5.9c-0.2,0.7,2.4,3,5.4,3.1c4.8,0.2,8.5-5.1,8.1-5.6C26.5,3,24.5,5,20.4,5.7C16.2,6.4,13.6,5.3,13.3,5.9
		z"/>
	<path class="st4" d="M14.9,6.8c0.9,0.3,2.2,0.7,3.9,0.7c3.5-0.1,5.8-2.1,6.6-2.8"/>
</g>
<g>
	<path class="st3" d="M27.9,12.4c-0.3,0.7,2.2,3.1,5.2,3.5c4.8,0.5,8.8-4.5,8.4-5.1c-0.2-0.4-2.4,1.4-6.6,1.8
		C30.7,13.1,28.2,11.8,27.9,12.4z"/>
	<path class="st4" d="M29.4,13.5c0.9,0.4,2.2,0.9,3.8,0.9c3.5,0.1,6-1.7,6.8-2.3"/>
</g>
<g>
	<path class="st3" d="M48.5,17.2c0.7-0.1,1.4-3.5,0-6.2c-2.2-4.3-8.6-4.8-8.9-4.2c-0.2,0.4,2.5,1.2,5.2,4.4
		C47.5,14.4,47.8,17.3,48.5,17.2z"/>
	<path class="st4" d="M48.6,15.4c-0.1-0.9-0.5-2.3-1.3-3.7c-1.8-3-4.7-4.1-5.7-4.4"/>
</g>
<g>
	<path class="st3" d="M59.4,15.9c0.2-0.7-2.6-2.8-5.6-2.7c-4.8,0.1-8.1,5.6-7.6,6.2c0.3,0.4,2.2-1.7,6.3-2.7
		C56.5,15.6,59.2,16.6,59.4,15.9z"/>
	<path class="st4" d="M57.8,15.1c-0.9-0.3-2.3-0.6-3.9-0.4c-3.5,0.3-5.7,2.5-6.4,3.2"/>
</g>
<g>
	<path class="st3" d="M51.3,21.3c-0.4,0.6,1.4,3.5,4.3,4.5c4.5,1.6,9.6-2.5,9.3-3.1c-0.2-0.4-2.6,0.9-6.8,0.4
		C53.9,22.6,51.7,20.8,51.3,21.3z"/>
	<path class="st4" d="M52.5,22.6c0.7,0.6,1.9,1.3,3.5,1.7c3.4,0.9,6.2-0.3,7.1-0.8"/>
</g>
<g>
	<path class="st3" d="M66,17.6c0.5-0.5-0.9-3.7-3.5-5.1c-4.2-2.3-9.8,0.9-9.7,1.6c0.1,0.5,2.7-0.4,6.8,0.7
		C63.6,15.9,65.5,18.1,66,17.6z"/>
	<path class="st4" d="M65,16.1c-0.6-0.7-1.7-1.6-3.2-2.3c-3.2-1.4-6.2-0.6-7.1-0.4"/>
</g>
<g>
	<path class="st3" d="M32.5,16.5c-0.2,0.7,2.4,3,5.4,3.1c4.8,0.2,8.5-5.1,8.1-5.6c-0.3-0.4-2.3,1.6-6.4,2.3
		C35.4,17,32.7,15.9,32.5,16.5z"/>
	<path class="st4" d="M34,17.4c0.9,0.3,2.2,0.7,3.9,0.7c3.5-0.1,5.8-2.1,6.6-2.8"/>
</g>
<g>
	<path class="st3" d="M39,18.9c-0.3,0.7,2.2,3.1,5.2,3.5c4.8,0.5,8.8-4.5,8.4-5.1c-0.2-0.4-2.4,1.4-6.6,1.8
		C41.9,19.6,39.3,18.3,39,18.9z"/>
	<path class="st4" d="M40.5,19.9c0.9,0.4,2.2,0.9,3.8,0.9c3.5,0.1,6-1.7,6.8-2.3"/>
</g>
<g>
	<path class="st3" d="M59.7,23.6c0.7-0.1,1.4-3.5,0-6.2c-2.2-4.3-8.6-4.8-8.9-4.2c-0.2,0.4,2.5,1.2,5.2,4.4
		C58.7,20.9,59,23.7,59.7,23.6z"/>
	<path class="st4" d="M59.7,21.8c-0.1-0.9-0.5-2.3-1.3-3.7c-1.8-3-4.7-4.1-5.7-4.4"/>
</g>
<g>
	<path class="st3" d="M18.3,12.2c0.2-0.7-2.6-2.8-5.6-2.7C8,9.6,4.7,15.1,5.1,15.6c0.3,0.4,2.2-1.7,6.3-2.7
		C15.4,11.9,18.2,12.9,18.3,12.2z"/>
	<path class="st4" d="M16.7,11.4c-0.9-0.3-2.3-0.6-3.9-0.4c-3.5,0.3-5.7,2.5-6.4,3.2"/>
</g>
<g>
	<path class="st3" d="M14.5,15.2c-0.4,0.6,1.4,3.5,4.3,4.5c4.5,1.6,9.6-2.5,9.3-3.1c-0.2-0.4-2.6,0.9-6.8,0.4
		C17.1,16.5,14.9,14.6,14.5,15.2z"/>
	<path class="st4" d="M15.7,16.5c0.7,0.6,1.9,1.3,3.5,1.7c3.4,0.9,6.2-0.3,7.1-0.8"/>
</g>
<g>
	<path class="st3" d="M37.9,18.6c0.5-0.5-0.9-3.7-3.5-5.1c-4.2-2.3-9.8,0.9-9.7,1.6c0.1,0.5,2.7-0.4,6.8,0.7
		C35.5,16.9,37.4,19.1,37.9,18.6z"/>
	<path class="st4" d="M36.9,17.1c-0.6-0.7-1.7-1.6-3.2-2.3c-3.2-1.4-6.2-0.6-7.1-0.4"/>
</g>
<g>
	<path class="st3" d="M4.4,17.5c-0.2,0.7,2.4,3,5.4,3.1c4.8,0.2,8.5-5.1,8.1-5.6c-0.3-0.4-2.3,1.6-6.4,2.3C7.3,18,4.6,16.8,4.4,17.5
		z"/>
	<path class="st4" d="M5.9,18.4c0.9,0.3,2.2,0.7,3.9,0.7c3.5-0.1,5.8-2.1,6.6-2.8"/>
</g>
<g>
	<path class="st3" d="M0.8,24.6c-0.3,0.7,2.2,3.1,5.2,3.5c4.8,0.5,8.8-4.5,8.4-5.1c-0.2-0.4-2.4,1.4-6.6,1.8
		C3.6,25.3,1.1,24,0.8,24.6z"/>
	<path class="st4" d="M2.3,25.6c0.9,0.4,2.2,0.9,3.8,0.9c3.5,0.1,6-1.7,6.8-2.3"/>
</g>
<g>
	<path class="st3" d="M31.6,24.6c0.7-0.1,1.4-3.5,0-6.2c-2.2-4.3-8.6-4.8-8.9-4.2c-0.2,0.4,2.5,1.2,5.2,4.4
		C30.6,21.9,30.9,24.7,31.6,24.6z"/>
	<path class="st4" d="M31.6,22.8c-0.1-0.9-0.5-2.3-1.3-3.7c-1.8-3-4.7-4.1-5.7-4.4"/>
</g>
<g>
	<path class="st3" d="M28.8,11.5c0.2-0.7-2.6-2.8-5.6-2.7c-4.8,0.1-8.1,5.6-7.6,6.2c0.3,0.4,2.2-1.7,6.3-2.7
		C25.9,11.2,28.6,12.2,28.8,11.5z"/>
	<path class="st4" d="M27.2,10.7c-0.9-0.3-2.3-0.6-3.9-0.4c-3.5,0.3-5.7,2.5-6.4,3.2"/>
</g>
<g>
	<path class="st3" d="M29,20.6c-0.4,0.6,1.4,3.5,4.3,4.5c4.5,1.6,9.6-2.5,9.3-3.1c-0.2-0.4-2.6,0.9-6.8,0.4
		C31.6,21.9,29.4,20,29,20.6z"/>
	<path class="st4" d="M30.2,21.9c0.7,0.6,1.9,1.3,3.5,1.7c3.4,0.9,6.2-0.3,7.1-0.8"/>
</g>
<g>
	<path class="st25" d="M62.2,33.3c0.5-0.5-0.9-3.7-3.5-5.1c-4.2-2.3-9.8,0.9-9.7,1.6c0.1,0.5,2.7-0.4,6.8,0.7
		C59.8,31.6,61.7,33.8,62.2,33.3z"/>
	<path class="st25" d="M61.2,31.8c-0.6-0.7-1.7-1.6-3.2-2.3c-3.2-1.4-6.2-0.6-7.1-0.4"/>
</g>
<g>
	<path class="st3" d="M15.5,24c-0.2,0.7,2.4,3,5.4,3.1c4.8,0.2,8.5-5.1,8.1-5.6c-0.3-0.4-2.3,1.6-6.4,2.3
		C18.4,24.4,15.8,23.3,15.5,24z"/>
	<path class="st4" d="M17.1,24.9c0.9,0.3,2.2,0.7,3.9,0.7c3.5-0.1,5.8-2.1,6.6-2.8"/>
</g>
<g>
	<path class="st3" d="M31.9,32c-0.3,0.7,2.2,3.1,5.2,3.5c4.8,0.5,8.8-4.5,8.4-5.1c-0.2-0.4-2.4,1.4-6.6,1.8
		C34.7,32.7,32.1,31.4,31.9,32z"/>
	<path class="st4" d="M33.3,33.1c0.9,0.4,2.2,0.9,3.8,0.9c3.5,0.1,6-1.7,6.8-2.3"/>
</g>
<g>
	<path class="st3" d="M18.6,33.2c-0.6,0.5,0.6,3.8,3.2,5.3c4.1,2.5,9.9-0.3,9.8-1c-0.1-0.5-2.8,0.3-6.7-1.1
		C20.9,35.1,19.1,32.8,18.6,33.2z"/>
	<path class="st4" d="M19.5,34.8c0.6,0.7,1.6,1.7,3,2.5c3.1,1.6,6.1,1.1,7.1,0.8"/>
</g>
<g>
	<path class="st28" d="M20,26.5c-0.3,0.7,2.2,3.1,5.2,3.5c4.8,0.5,8.8-4.5,8.4-5.1c-0.2-0.4-2.4,1.4-6.6,1.8
		C22.8,27.2,20.2,25.8,20,26.5z"/>
	<path class="st6" d="M21.4,27.5c0.9,0.4,2.2,0.9,3.8,0.9c3.5,0.1,6-1.7,6.8-2.3"/>
</g>
<g>
	<path class="st3" d="M47.5,34.3c0.7-0.1,1.4-3.5,0-6.2c-2.2-4.3-8.6-4.8-8.9-4.2c-0.2,0.4,2.5,1.2,5.2,4.4
		C46.5,31.6,46.8,34.5,47.5,34.3z"/>
	<path class="st4" d="M47.6,32.5c-0.1-0.9-0.5-2.3-1.3-3.7c-1.8-3-4.7-4.1-5.7-4.4"/>
</g>
</svg>
