<?xml version="1.0" encoding="utf-8"?>
<!-- Generator: Adobe Illustrator 23.0.1, SVG Export Plug-In . SVG Version: 6.00 Build 0)  -->
<svg version="1.1" id="Layer_1" xmlns="http://www.w3.org/2000/svg" xmlns:xlink="http://www.w3.org/1999/xlink" x="0px" y="0px"
	 viewBox="0 0 84.5 51.2" style="enable-background:new 0 0 84.5 51.2;" xml:space="preserve">
<style type="text/css">
	.st0{fill-rule:evenodd;clip-rule:evenodd;fill:none;stroke:#00C1A3;stroke-width:0.75;stroke-miterlimit:10;}
	.st1{fill:#FFFFFF;stroke:#0066FF;stroke-width:0.75;stroke-linecap:round;stroke-linejoin:round;stroke-miterlimit:10;}
	.st2{fill:none;stroke:#0066FF;stroke-width:0.75;stroke-linecap:round;stroke-linejoin:round;stroke-miterlimit:10;}
	.st3{fill:#FFFFFF;stroke:#0066FF;stroke-width:0.75;stroke-miterlimit:10;}
	.st4{fill:none;stroke:#0066FF;stroke-width:0.75;stroke-miterlimit:10;}
	.st5{fill:none;stroke:#00C1A3;stroke-width:0.75;stroke-miterlimit:10;}
	.st6{fill:none;stroke:#FF25F3;stroke-width:0.75;stroke-miterlimit:10;}
	.st7{fill:none;stroke:#FF25F3;stroke-width:0.75;stroke-linecap:round;stroke-linejoin:round;stroke-miterlimit:10;}
	.st8{fill-rule:evenodd;clip-rule:evenodd;fill:none;stroke:#0066FF;stroke-width:0.75;stroke-miterlimit:10;}
	.st9{clip-path:url(#SVGID_2_);fill-rule:evenodd;clip-rule:evenodd;fill:#FFFFFF;}
	.st10{fill-rule:evenodd;clip-rule:evenodd;fill:#FCFDFF;}
	.st11{fill-rule:evenodd;clip-rule:evenodd;fill:#FFFFFF;}
	.st12{fill-rule:evenodd;clip-rule:evenodd;fill:#3D6A9D;}
	.st13{fill:#FFFFFF;}
	.st14{fill:#0066FF;}
	.st15{fill-rule:evenodd;clip-rule:evenodd;fill:#FFFFFF;stroke:#0066FF;stroke-width:0.75;stroke-miterlimit:10;}
	.st16{fill-rule:evenodd;clip-rule:evenodd;fill:#FFFFFF;stroke:#44E0A0;stroke-width:0.75;stroke-miterlimit:10;}
	.st17{fill-rule:evenodd;clip-rule:evenodd;fill:#FFFFFF;stroke:#FF25F3;stroke-width:0.75;stroke-miterlimit:10;}
	.st18{fill:none;stroke:#FFFFFF;stroke-width:2.8774;stroke-miterlimit:10;}
	
		.st19{fill-rule:evenodd;clip-rule:evenodd;fill:none;stroke:#FF25F3;stroke-width:0.75;stroke-linecap:round;stroke-linejoin:round;stroke-miterlimit:10;}
	.st20{fill-rule:evenodd;clip-rule:evenodd;fill:#FFFFFF;stroke:#FFFFFF;stroke-width:0.7194;stroke-miterlimit:10;}
	.st21{fill:none;stroke:#FFFFFF;stroke-width:0.7194;stroke-miterlimit:10;}
	.st22{fill:none;stroke:#44E0A0;stroke-width:0.75;stroke-linecap:round;stroke-linejoin:round;stroke-miterlimit:10;}
	.st23{fill-rule:evenodd;clip-rule:evenodd;fill:#FFFFFF;stroke:#00C1A3;stroke-width:0.75;stroke-miterlimit:10;}
	.st24{fill:none;stroke:#0066FF;stroke-width:0.75;stroke-linecap:round;stroke-miterlimit:10;}
	.st25{fill:#FFFFFF;stroke:#00C1A3;stroke-width:0.75;stroke-miterlimit:10;}
	.st26{clip-path:url(#SVGID_4_);}
	
		.st27{fill-rule:evenodd;clip-rule:evenodd;fill:none;stroke:#0066FF;stroke-width:0.75;stroke-linecap:round;stroke-miterlimit:10;}
	.st28{fill:#FFFFFF;stroke:#FF25F3;stroke-width:0.75;stroke-miterlimit:10;}
	.st29{fill:#FFFFFF;stroke:#FF25F3;stroke-width:0.75;stroke-linecap:round;stroke-linejoin:round;stroke-miterlimit:10;}
	.st30{fill:none;stroke:#00FA9B;stroke-width:0.75;stroke-miterlimit:10;}
	.st31{fill:#87D73F;}
	.st32{fill:#3DED98;}
</style>
<g>
	<path class="st3" d="M26.8,12.6l-2.3,2.5c-1.4,1.5-3.7,1.6-5.2,0.2l-6.4-5.9c-1.5-1.4-1.6-3.7-0.2-5.2L15,1.8
		c1.4-1.5,3.7-1.6,5.2-0.2l6.4,5.9C28,8.8,28.1,11.1,26.8,12.6z"/>
	<path class="st4" d="M18.2,2.5c0,0,2.9,1.9,2.8,4.7s1.2,6.4,1.2,6.4"/>
</g>
<g>
	<path class="st3" d="M23.3,11.8l0.3,3.4c0.1,2-1.4,3.8-3.4,3.9l-8.6,0.6c-2,0.1-3.8-1.4-3.9-3.4l-0.3-3.4c-0.1-2,1.4-3.8,3.4-3.9
		l8.6-0.6C21.4,8.2,23.1,9.8,23.3,11.8z"/>
	<path class="st4" d="M10.1,11.2c0,0,3.4-0.9,5.4,1.1s5.4,3.5,5.4,3.5"/>
</g>
<path class="st3" d="M39.1,10.8l-1.2,3.2c-0.7,1.9-2.8,2.8-4.7,2.1l-8.1-3.1c-1.9-0.7-2.8-2.8-2.1-4.7L24.2,5
	c0.7-1.9,2.8-2.8,4.7-2.1L37,6C38.9,6.8,39.8,8.9,39.1,10.8z"/>
<path class="st4" d="M27.4,4.6c0,0,3.4,0.7,4.4,3.3c1,2.7,3.4,5.5,3.4,5.5"/>
<g>
	<path class="st3" d="M40.9,15.1l-1.5-3.1c-0.9-1.8-0.1-4,1.7-4.9l7.8-3.7c1.8-0.9,4-0.1,4.9,1.7l1.5,3.1c0.9,1.8,0.1,4-1.7,4.9
		l-7.8,3.7C44,17.7,41.8,16.9,40.9,15.1z"/>
	<path class="st4" d="M53.4,10.9c0,0-2.8,2-5.4,0.9s-6.3-1.3-6.3-1.3"/>
</g>
<g>
	<path class="st3" d="M29.7,21.7l-0.9-3.3c-0.5-1.9,0.6-4,2.5-4.5l8.3-2.3c1.9-0.5,4,0.6,4.5,2.5l0.9,3.3c0.5,1.9-0.6,4-2.5,4.5
		l-8.3,2.3C32.2,24.8,30.2,23.6,29.7,21.7z"/>
	<path class="st4" d="M42.7,19.7c0,0-3.1,1.5-5.5,0c-2.4-1.6-6-2.3-6-2.3"/>
</g>
<g>
	<path class="st3" d="M18.7,26.5l-0.3-3.4c-0.2-2,1.3-3.8,3.3-4l8.6-0.9c2-0.2,3.8,1.3,4,3.3l0.3,3.4c0.2,2-1.3,3.8-3.3,4l-8.6,0.9
		C20.7,30,18.9,28.5,18.7,26.5z"/>
	<path class="st4" d="M31.9,26.7c0,0-3.3,1-5.4-1s-5.5-3.3-5.5-3.3"/>
</g>
<g>
	<path class="st3" d="M0.8,29.5l0.8-3.3C2,24.2,4,23,5.9,23.4l8.4,2c2,0.5,3.2,2.4,2.7,4.4l-0.8,3.3c-0.5,2-2.4,3.2-4.4,2.7l-8.4-2
		C1.5,33.4,0.3,31.4,0.8,29.5z"/>
	<path class="st3" d="M13.2,34c0,0-3.5-0.2-4.8-2.7s-4.1-5-4.1-5"/>
</g>
<g>
	<path class="st3" d="M43.7,26.6l0.8-3.3c0.5-2,2.4-3.2,4.4-2.7l8.4,2c2,0.5,3.2,2.4,2.7,4.4l-0.8,3.3c-0.5,2-2.4,3.2-4.4,2.7
		l-8.4-2C44.5,30.5,43.3,28.5,43.7,26.6z"/>
	<path class="st4" d="M56.2,31.1c0,0-3.5-0.2-4.8-2.7c-1.3-2.5-4.1-5-4.1-5"/>
</g>
<g>
	<path class="st3" d="M50.5,27.3l-2.3,2.5c-1.4,1.5-3.7,1.6-5.2,0.2l-6.4-5.9c-1.5-1.4-1.6-3.7-0.2-5.2l2.3-2.5
		c1.4-1.5,3.7-1.6,5.2-0.2l6.4,5.9C51.8,23.5,51.9,25.8,50.5,27.3z"/>
	<path class="st4" d="M41.9,17.3c0,0,2.9,1.9,2.8,4.7c-0.1,2.8,1.2,6.4,1.2,6.4"/>
</g>
<g>
	<path class="st28" d="M40.5,33.7l-1.3,3.1c-0.8,1.9-2.9,2.8-4.8,2l-8-3.2c-1.9-0.8-2.8-2.9-2-4.8l1.3-3.1c0.8-1.9,2.9-2.8,4.8-2
		l8,3.2C40.4,29.7,41.3,31.9,40.5,33.7z"/>
	<path class="st6" d="M28.9,27.4c0,0,3.4,0.7,4.3,3.4s3.3,5.5,3.3,5.5"/>
</g>
<g>
	<path class="st25" d="M61.9,19.9l0.1,3.4c0,2-1.6,3.7-3.6,3.7l-8.7,0.1c-2,0-3.7-1.6-3.7-3.6L46,20.2c0-2,1.6-3.7,3.6-3.7l8.7-0.1
		C60.3,16.3,61.9,17.9,61.9,19.9z"/>
	<path class="st25" d="M49,19.7c0,0,3.4-0.7,5.3,1.5c1.9,2.1,5.2,3.8,5.2,3.8"/>
</g>
<g>
	<path class="st3" d="M64.6,29.9l-1.5-3.1c-0.9-1.8-0.1-4,1.7-4.9l7.8-3.7c1.8-0.9,4-0.1,4.9,1.7l1.5,3.1c0.9,1.8,0.1,4-1.7,4.9
		l-7.8,3.7C67.7,32.4,65.5,31.7,64.6,29.9z"/>
	<path class="st4" d="M77.1,25.6c0,0-2.8,2-5.4,0.9c-2.6-1.1-6.3-1.3-6.3-1.3"/>
</g>
<g>
	<path class="st3" d="M53.4,36.4l-0.9-3.3c-0.5-1.9,0.6-4,2.5-4.5l8.3-2.3c1.9-0.5,4,0.6,4.5,2.5l0.9,3.3c0.5,1.9-0.6,4-2.5,4.5
		L57.9,39C56,39.5,54,38.4,53.4,36.4z"/>
	<path class="st4" d="M66.5,34.4c0,0-3.1,1.5-5.5,0c-2.4-1.6-6-2.3-6-2.3"/>
</g>
<g>
	<path class="st3" d="M42.4,41.3l-0.3-3.4c-0.2-2,1.3-3.8,3.3-4l8.6-0.9c2-0.2,3.8,1.3,4,3.3l0.3,3.4c0.2,2-1.3,3.8-3.3,4l-8.6,0.9
		C44.4,44.7,42.6,43.3,42.4,41.3z"/>
	<path class="st4" d="M55.6,41.5c0,0-3.3,1-5.4-1c-2.1-2-5.5-3.3-5.5-3.3"/>
</g>
<g>
	<path class="st3" d="M24.5,44.2l0.8-3.3c0.5-2,2.4-3.2,4.4-2.7l8.4,2c2,0.5,3.2,2.4,2.7,4.4l-0.8,3.3c-0.5,2-2.4,3.2-4.4,2.7
		l-8.4-2C25.3,48.1,24.1,46.1,24.5,44.2z"/>
	<path class="st4" d="M36.9,48.7c0,0-3.5-0.2-4.8-2.7c-1.3-2.5-4.1-5-4.1-5"/>
</g>
<g>
	<path class="st3" d="M67.5,41.3l0.8-3.3c0.5-2,2.4-3.2,4.4-2.7l8.4,2c2,0.5,3.2,2.4,2.7,4.4L83,45c-0.5,2-2.4,3.2-4.4,2.7l-8.4-2
		C68.3,45.2,67,43.3,67.5,41.3z"/>
	<path class="st4" d="M79.9,45.8c0,0-3.5-0.2-4.8-2.7c-1.3-2.5-4.1-5-4.1-5"/>
</g>
</svg>
