<?xml version="1.0" encoding="utf-8"?>
<!-- Generator: Adobe Illustrator 23.0.1, SVG Export Plug-In . SVG Version: 6.00 Build 0)  -->
<svg version="1.1" id="Layer_1" xmlns="http://www.w3.org/2000/svg" xmlns:xlink="http://www.w3.org/1999/xlink" x="0px" y="0px"
	 viewBox="0 0 71.9 63.5" style="enable-background:new 0 0 71.9 63.5;" xml:space="preserve">
<style type="text/css">
	.st0{fill-rule:evenodd;clip-rule:evenodd;fill:none;stroke:#00C1A3;stroke-width:0.75;stroke-miterlimit:10;}
	.st1{fill:#FFFFFF;stroke:#0066FF;stroke-width:0.75;stroke-linecap:round;stroke-linejoin:round;stroke-miterlimit:10;}
	.st2{fill:none;stroke:#0066FF;stroke-width:0.75;stroke-linecap:round;stroke-linejoin:round;stroke-miterlimit:10;}
	.st3{fill:#FFFFFF;stroke:#0066FF;stroke-width:0.75;stroke-miterlimit:10;}
	.st4{fill:none;stroke:#0066FF;stroke-width:0.75;stroke-miterlimit:10;}
	.st5{fill:none;stroke:#00C1A3;stroke-width:0.75;stroke-miterlimit:10;}
	.st6{fill:none;stroke:#FF25F3;stroke-width:0.75;stroke-miterlimit:10;}
	.st7{fill:none;stroke:#FF25F3;stroke-width:0.75;stroke-linecap:round;stroke-linejoin:round;stroke-miterlimit:10;}
	.st8{fill-rule:evenodd;clip-rule:evenodd;fill:none;stroke:#0066FF;stroke-width:0.75;stroke-miterlimit:10;}
	.st9{clip-path:url(#SVGID_2_);fill-rule:evenodd;clip-rule:evenodd;fill:#FFFFFF;}
	.st10{fill-rule:evenodd;clip-rule:evenodd;fill:#FCFDFF;}
	.st11{fill-rule:evenodd;clip-rule:evenodd;fill:#FFFFFF;}
	.st12{fill-rule:evenodd;clip-rule:evenodd;fill:#3D6A9D;}
	.st13{fill:#FFFFFF;}
	.st14{fill:#0066FF;}
	.st15{fill-rule:evenodd;clip-rule:evenodd;fill:#FFFFFF;stroke:#0066FF;stroke-width:0.75;stroke-miterlimit:10;}
	.st16{fill-rule:evenodd;clip-rule:evenodd;fill:#FFFFFF;stroke:#44E0A0;stroke-width:0.75;stroke-miterlimit:10;}
	.st17{fill-rule:evenodd;clip-rule:evenodd;fill:#FFFFFF;stroke:#FF25F3;stroke-width:0.75;stroke-miterlimit:10;}
	.st18{fill:none;stroke:#FFFFFF;stroke-width:2.8774;stroke-miterlimit:10;}
	
		.st19{fill-rule:evenodd;clip-rule:evenodd;fill:none;stroke:#FF25F3;stroke-width:0.75;stroke-linecap:round;stroke-linejoin:round;stroke-miterlimit:10;}
	.st20{fill-rule:evenodd;clip-rule:evenodd;fill:#FFFFFF;stroke:#FFFFFF;stroke-width:0.7194;stroke-miterlimit:10;}
	.st21{fill:none;stroke:#FFFFFF;stroke-width:0.7194;stroke-miterlimit:10;}
	.st22{fill:none;stroke:#44E0A0;stroke-width:0.75;stroke-linecap:round;stroke-linejoin:round;stroke-miterlimit:10;}
	.st23{fill-rule:evenodd;clip-rule:evenodd;fill:#FFFFFF;stroke:#00C1A3;stroke-width:0.75;stroke-miterlimit:10;}
	.st24{fill:none;stroke:#0066FF;stroke-width:0.75;stroke-linecap:round;stroke-miterlimit:10;}
	.st25{fill:#FFFFFF;stroke:#00C1A3;stroke-width:0.75;stroke-miterlimit:10;}
	.st26{clip-path:url(#SVGID_4_);}
	
		.st27{fill-rule:evenodd;clip-rule:evenodd;fill:none;stroke:#0066FF;stroke-width:0.75;stroke-linecap:round;stroke-miterlimit:10;}
	.st28{fill:#FFFFFF;stroke:#FF25F3;stroke-width:0.75;stroke-miterlimit:10;}
	.st29{fill:#FFFFFF;stroke:#FF25F3;stroke-width:0.75;stroke-linecap:round;stroke-linejoin:round;stroke-miterlimit:10;}
	.st30{fill:none;stroke:#00FA9B;stroke-width:0.75;stroke-miterlimit:10;}
	.st31{fill:#87D73F;}
	.st32{fill:#3DED98;}
</style>
<path class="st4" d="M48.2,44.9c5.9-2,6.4-7.4,6.4-11.9c0-7.8-8.8-11.7-18.6-16.6c-1.3-0.7-2.1-2-2.5-3c-1.2-2.8-1.6-9.1-1.3-10.6
	c0.3-1.5-1.6-1.9-2.6-2s-0.8,3-1.8,7c-0.7,2.7-4.1,7-7,8.4C10.1,21,0.8,24.9,0.8,33c0,5.6,4.2,10.3,10.6,13.5"/>
<path class="st4" d="M28.3,1.9c0,0-0.2,12.4-3,15.6s-6.7,15-6.9,18.5c-0.7,8.6-0.1,10.2,3.7,14.5s8.9-1.1,8.9-1.1s3.1-3.5,2-10.9
	c-0.6-4-2.7-14.5-2.1-20.1s0-14,0-14S31.2-0.1,28.3,1.9z"/>
<path class="st4" d="M34.2,14.8c0,0,6.3,10.5,7.6,15.3c0.7,2.6,1.8,8.1-0.4,13.9c-1.8,4.7-7.5,9.1-11.7,6.4"/>
<path class="st4" d="M35.9,16.4c0,0,11.9,9.5,13.5,14.4c1.6,5,0.6,9.5-1,13.2c-1.5,3.3-7,7.7-10.6,5.3"/>
<path class="st7" d="M24.9,12.5c0,0-4.1,6.7-9,10.5S8.3,35.6,9.1,40.8s4.7,8,7,9.1c2.3,1,5.9,0.6,5.9,0.6"/>
<g>
	<path class="st4" d="M64,42.2c0,0-7.5,1.1-10.9,4.4s-10.5,6.1-15.9,6.1s-5.4,0-5.4,0l-2.1,3.4c0,0,4.8,7.3,17.3,6.6
		c12.5-0.8,16.2-15.1,19.4-17c3.1-2,0.4-0.6,3.1-2c2.7-1.4-0.8-3.7-0.8-3.7L64,42.2z"/>
	<path class="st5" d="M62,45.6c0,0-4.9,4.3-9,7.6c-4.1,3.3-17,1.9-17,1.9"/>
	<polyline class="st4" points="32.6,53.8 34.8,55.5 33.1,57.4 	"/>
</g>
</svg>
