<?xml version="1.0" encoding="utf-8"?>
<!-- Generator: Adobe Illustrator 23.0.1, SVG Export Plug-In . SVG Version: 6.00 Build 0)  -->
<svg version="1.1" id="Layer_1" xmlns="http://www.w3.org/2000/svg" xmlns:xlink="http://www.w3.org/1999/xlink" x="0px" y="0px"
	 viewBox="0 0 67.1 41.5" style="enable-background:new 0 0 67.1 41.5;" xml:space="preserve">
<style type="text/css">
	.st0{fill-rule:evenodd;clip-rule:evenodd;fill:none;stroke:#00C1A3;stroke-width:0.75;stroke-miterlimit:10;}
	.st1{fill:#FFFFFF;stroke:#0066FF;stroke-width:0.75;stroke-linecap:round;stroke-linejoin:round;stroke-miterlimit:10;}
	.st2{fill:none;stroke:#0066FF;stroke-width:0.75;stroke-linecap:round;stroke-linejoin:round;stroke-miterlimit:10;}
	.st3{fill:#FFFFFF;stroke:#0066FF;stroke-width:0.75;stroke-miterlimit:10;}
	.st4{fill:none;stroke:#0066FF;stroke-width:0.75;stroke-miterlimit:10;}
	.st5{fill:none;stroke:#00C1A3;stroke-width:0.75;stroke-miterlimit:10;}
	.st6{fill:none;stroke:#FF25F3;stroke-width:0.75;stroke-miterlimit:10;}
	.st7{fill:none;stroke:#FF25F3;stroke-width:0.75;stroke-linecap:round;stroke-linejoin:round;stroke-miterlimit:10;}
	.st8{fill-rule:evenodd;clip-rule:evenodd;fill:none;stroke:#0066FF;stroke-width:0.75;stroke-miterlimit:10;}
	.st9{clip-path:url(#SVGID_2_);fill-rule:evenodd;clip-rule:evenodd;fill:#FFFFFF;}
	.st10{fill-rule:evenodd;clip-rule:evenodd;fill:#FCFDFF;}
	.st11{fill-rule:evenodd;clip-rule:evenodd;fill:#FFFFFF;}
	.st12{fill-rule:evenodd;clip-rule:evenodd;fill:#3D6A9D;}
	.st13{fill:#FFFFFF;}
	.st14{fill:#0066FF;}
	.st15{fill-rule:evenodd;clip-rule:evenodd;fill:#FFFFFF;stroke:#0066FF;stroke-width:0.75;stroke-miterlimit:10;}
	.st16{fill-rule:evenodd;clip-rule:evenodd;fill:#FFFFFF;stroke:#44E0A0;stroke-width:0.75;stroke-miterlimit:10;}
	.st17{fill-rule:evenodd;clip-rule:evenodd;fill:#FFFFFF;stroke:#FF25F3;stroke-width:0.75;stroke-miterlimit:10;}
	.st18{fill:none;stroke:#FFFFFF;stroke-width:2.8774;stroke-miterlimit:10;}
	
		.st19{fill-rule:evenodd;clip-rule:evenodd;fill:none;stroke:#FF25F3;stroke-width:0.75;stroke-linecap:round;stroke-linejoin:round;stroke-miterlimit:10;}
	.st20{fill-rule:evenodd;clip-rule:evenodd;fill:#FFFFFF;stroke:#FFFFFF;stroke-width:0.7194;stroke-miterlimit:10;}
	.st21{fill:none;stroke:#FFFFFF;stroke-width:0.7194;stroke-miterlimit:10;}
	.st22{fill:none;stroke:#44E0A0;stroke-width:0.75;stroke-linecap:round;stroke-linejoin:round;stroke-miterlimit:10;}
	.st23{fill-rule:evenodd;clip-rule:evenodd;fill:#FFFFFF;stroke:#00C1A3;stroke-width:0.75;stroke-miterlimit:10;}
	.st24{fill:none;stroke:#0066FF;stroke-width:0.75;stroke-linecap:round;stroke-miterlimit:10;}
	.st25{fill:#FFFFFF;stroke:#00C1A3;stroke-width:0.75;stroke-miterlimit:10;}
	.st26{clip-path:url(#SVGID_4_);}
	
		.st27{fill-rule:evenodd;clip-rule:evenodd;fill:none;stroke:#0066FF;stroke-width:0.75;stroke-linecap:round;stroke-miterlimit:10;}
	.st28{fill:#FFFFFF;stroke:#FF25F3;stroke-width:0.75;stroke-miterlimit:10;}
	.st29{fill:#FFFFFF;stroke:#FF25F3;stroke-width:0.75;stroke-linecap:round;stroke-linejoin:round;stroke-miterlimit:10;}
	.st30{fill:none;stroke:#00FA9B;stroke-width:0.75;stroke-miterlimit:10;}
	.st31{fill:#87D73F;}
	.st32{fill:#3DED98;}
</style>
<path class="st2" d="M51,3.9c-2.4-2-5.6-2.7-8.7-2.7c-2,0-4.2,0.3-5.9,1.5c-1.2,0.8-2,2-3.2,2.7c-2,1.2-4.5,1.1-6.8,1.6
	c-6.2,1.4-10.5,7.7-16.7,9c-3.9,1.2-2,4-4.1,5.1c-2,1.1-4.4,2.5-4.6,4.8c0,0.9,0.3,1.8,0.6,2.6c1,2.5,2.2,5,4.3,6.8
	c2.1,1.7,5.2,2.4,7.5,1c0.5-1.9,3.2-2.3,5-1.5c1.8,0.7,3.4,2.2,5.3,2.6c2.2,0.5,4.6-0.4,6.1-2c1.4-1.5,4.8-2.5,3.9-5.4
	c-0.6-0.5-1.1-0.9-1.7-1.4c2.4,0.1,5.1,0.2,6.9-1.4c1.9-1.6,2.7-4.6,5.1-5c1.5-0.2,3.1,0.7,4.4-0.1c0.7-0.4,1-1.3,1.3-2
	C51.6,15,56.3,8.5,51,3.9z"/>
<path class="st2" d="M8.6,20.4c1.3-0.4,3.2-0.2,3.5-0.1c2.4,0.3,4.5,2.1,5.6,4.1"/>
<path class="st2" d="M32,28.3c-1.1-0.7-2.3-1.3-3.5-1.8C27.8,26.3,27,26,26.2,26c-0.8,0-1.6,0.3-2.1,1"/>
<path class="st28" d="M21.4,12.7c2.4,0.5,4.6,1.9,6.5,3.5c1.9,1.7,3.4,3.6,5,5.6"/>
<path class="st25" d="M31.4,12.4c1.9,0.5,3.5,1.9,4.8,3.5c1.2,1.6,2,3.4,2.9,5.3"/>
<path class="st2" d="M44.3,8.2C42,7,39.5,6.2,36.9,5.7"/>
<path class="st2" d="M49.8,14.2c-1-1.3-4.1-1.3-5.7-0.3c-1.6,1-2,2.6-1.9,4"/>
<path class="st2" d="M1.3,25.5C0.9,25.5,0.8,25,1,24.7s0.5-0.4,0.8-0.6c2.2-0.8,4.7-0.8,6.9,0.1c2.2,0.9,4,2.7,4.9,4.8
	c0.3,0.6,0.5,1.3,0.4,2c-0.1,0.8-0.5,1.5-0.7,2.3c-0.2,0.8-0.7,2.6,0.1,2.9"/>
<path class="st2" d="M16.9,14.8c2.3,0.2,4.5,0.7,6.6,1.7"/>
<path class="st2" d="M50.7,17.8c-0.1-0.4-1.1-1.9-1.5-2c-0.4-0.1-0.8-0.2-1.2-0.1c-1.6,0.1-3.1,0.8-4,2.1c-0.9,1.3-0.8,3.3,0.4,4.2"
	/>
<path class="st2" d="M52.9,27.6c-2.3,1.1-4.1,3-5.3,5.3c-0.3,0.7-0.6,1.5-0.4,2.3c0.2,0.5,0.6,0.9,1,1.2c3.2,2.8,11.3,5.7,15.3,2.5
	c3-2.4,1.8-11.5,1.1-15.3c-0.7-4-2.7-7.2-7.3-5.3C51.2,21,58.5,24.9,52.9,27.6z"/>
<path class="st2" d="M61,39.8c0.4,0.2,1.7-1.2,2-1.5c0.3-0.3,0-2.3,0.1-2.8c0.2-0.9,0.2-1.8-0.3-2.5c-0.3-0.5-0.8-0.8-1.4-1.1
	c-1.7-1-3.5-1.8-5.4-1.9c-1.9-0.1-6.8,0.7-8,2.4"/>
<path class="st2" d="M61.7,24.7c-1.2-0.5-2.7-0.5-3.9,0"/>
<path class="st2" d="M59.1,21.4c-1,0.1-1.9,0.4-2.8,0.9"/>
</svg>
