<?xml version="1.0" encoding="utf-8"?>
<!-- Generator: Adobe Illustrator 23.0.1, SVG Export Plug-In . SVG Version: 6.00 Build 0)  -->
<svg version="1.1" id="Layer_1" xmlns="http://www.w3.org/2000/svg" xmlns:xlink="http://www.w3.org/1999/xlink" x="0px" y="0px"
	 viewBox="0 0 71.8 46.5" style="enable-background:new 0 0 71.8 46.5;" xml:space="preserve">
<style type="text/css">
	.st0{fill-rule:evenodd;clip-rule:evenodd;fill:none;stroke:#00C1A3;stroke-width:0.75;stroke-miterlimit:10;}
	.st1{fill:#FFFFFF;stroke:#0066FF;stroke-width:0.75;stroke-linecap:round;stroke-linejoin:round;stroke-miterlimit:10;}
	.st2{fill:none;stroke:#0066FF;stroke-width:0.75;stroke-linecap:round;stroke-linejoin:round;stroke-miterlimit:10;}
	.st3{fill:#FFFFFF;stroke:#0066FF;stroke-width:0.75;stroke-miterlimit:10;}
	.st4{fill:none;stroke:#0066FF;stroke-width:0.75;stroke-miterlimit:10;}
	.st5{fill:none;stroke:#00C1A3;stroke-width:0.75;stroke-miterlimit:10;}
	.st6{fill:none;stroke:#FF25F3;stroke-width:0.75;stroke-miterlimit:10;}
	.st7{fill:none;stroke:#FF25F3;stroke-width:0.75;stroke-linecap:round;stroke-linejoin:round;stroke-miterlimit:10;}
	.st8{fill-rule:evenodd;clip-rule:evenodd;fill:none;stroke:#0066FF;stroke-width:0.75;stroke-miterlimit:10;}
	.st9{clip-path:url(#SVGID_2_);fill-rule:evenodd;clip-rule:evenodd;fill:#FFFFFF;}
	.st10{fill-rule:evenodd;clip-rule:evenodd;fill:#FCFDFF;}
	.st11{fill-rule:evenodd;clip-rule:evenodd;fill:#FFFFFF;}
	.st12{fill-rule:evenodd;clip-rule:evenodd;fill:#3D6A9D;}
	.st13{fill:#FFFFFF;}
	.st14{fill:#0066FF;}
	.st15{fill-rule:evenodd;clip-rule:evenodd;fill:#FFFFFF;stroke:#0066FF;stroke-width:0.75;stroke-miterlimit:10;}
	.st16{fill-rule:evenodd;clip-rule:evenodd;fill:#FFFFFF;stroke:#44E0A0;stroke-width:0.75;stroke-miterlimit:10;}
	.st17{fill-rule:evenodd;clip-rule:evenodd;fill:#FFFFFF;stroke:#FF25F3;stroke-width:0.75;stroke-miterlimit:10;}
	.st18{fill:none;stroke:#FFFFFF;stroke-width:2.8774;stroke-miterlimit:10;}
	
		.st19{fill-rule:evenodd;clip-rule:evenodd;fill:none;stroke:#FF25F3;stroke-width:0.75;stroke-linecap:round;stroke-linejoin:round;stroke-miterlimit:10;}
	.st20{fill-rule:evenodd;clip-rule:evenodd;fill:#FFFFFF;stroke:#FFFFFF;stroke-width:0.7194;stroke-miterlimit:10;}
	.st21{fill:none;stroke:#FFFFFF;stroke-width:0.7194;stroke-miterlimit:10;}
	.st22{fill:none;stroke:#44E0A0;stroke-width:0.75;stroke-linecap:round;stroke-linejoin:round;stroke-miterlimit:10;}
	.st23{fill-rule:evenodd;clip-rule:evenodd;fill:#FFFFFF;stroke:#00C1A3;stroke-width:0.75;stroke-miterlimit:10;}
	.st24{fill:none;stroke:#0066FF;stroke-width:0.75;stroke-linecap:round;stroke-miterlimit:10;}
	.st25{fill:#FFFFFF;stroke:#00C1A3;stroke-width:0.75;stroke-miterlimit:10;}
	.st26{clip-path:url(#SVGID_4_);}
	
		.st27{fill-rule:evenodd;clip-rule:evenodd;fill:none;stroke:#0066FF;stroke-width:0.75;stroke-linecap:round;stroke-miterlimit:10;}
	.st28{fill:#FFFFFF;stroke:#FF25F3;stroke-width:0.75;stroke-miterlimit:10;}
	.st29{fill:#FFFFFF;stroke:#FF25F3;stroke-width:0.75;stroke-linecap:round;stroke-linejoin:round;stroke-miterlimit:10;}
	.st30{fill:none;stroke:#00FA9B;stroke-width:0.75;stroke-miterlimit:10;}
	.st31{fill:#87D73F;}
	.st32{fill:#3DED98;}
</style>
<path class="st3" d="M40.5,12.6c0,4-3.6,5.6-7.6,5.6c-4,0-8.8-5.4-7.3-9.2c1.4-3.5,2.7-5.1,5.8-5.9c0.6-0.2,1.2-2.2,3.1-2.2
	c1.6,0,0.3,2.1,1.9,2.8C40,5.3,40.5,8.2,40.5,12.6z"/>
<path class="st3" d="M35.6,7.1c1.2,1.3-0.2,10.8-2.8,11.1"/>
<g>
	<path class="st25" d="M59.8,11.3c2,3.4-0.2,6.7-3.6,8.8c-3.4,2.1-10.3-0.1-11-4.1c-0.6-3.7-0.3-5.7,1.9-8c0.4-0.4-0.2-2.5,1.5-3.5
		c1.4-0.8,1.4,1.7,3,1.4C55.6,5.3,57.5,7.5,59.8,11.3z"/>
	<path class="st25" d="M52.8,9.1c1.7,0.5,5.5,9.3,3.3,11"/>
</g>
<path class="st3" d="M47.2,21.1c-1.1,3.8-5,4.4-8.9,3.3c-3.8-1.1-7-7.6-4.6-10.8c2.3-3,4-4.2,7.2-4.1c0.6,0,1.7-1.8,3.6-1.3
	c1.6,0.4-0.3,2.1,1,3.2C48.7,13.9,48.4,16.9,47.2,21.1z"/>
<path class="st4" d="M45.6,12.7c0.8,1.5-3.1,10.4-5.7,9.9"/>
<path class="st3" d="M31.9,14.2c2.1,3.4-0.1,6.7-3.5,8.8c-3.4,2.1-10.3,0.1-11.1-3.9c-0.7-3.7-0.4-5.7,1.8-8.1
	c0.4-0.4-0.2-2.5,1.5-3.6C22,6.6,22,9.1,23.7,8.8C27.6,8.2,29.6,10.4,31.9,14.2z"/>
<path class="st4" d="M24.9,12.1c1.7,0.4,5.6,9.3,3.5,10.9"/>
<g>
	<path class="st3" d="M60.5,25.5c-3.9,0.6-6.1-2.6-6.8-6.6c-0.7-3.9,3.9-9.6,7.8-8.8c3.7,0.8,5.5,1.8,6.8,4.7
		c0.3,0.6,2.4,0.8,2.7,2.7c0.3,1.6-2,0.7-2.4,2.3C67.6,23.8,64.8,24.8,60.5,25.5z"/>
	<path class="st4" d="M65.1,19.8c-1,1.4-10.7,1.7-11.4-0.9"/>
</g>
<g>
	<path class="st28" d="M30.7,33.6c-3.9,0.6-6.1-2.6-6.8-6.6c-0.7-3.9,3.9-9.6,7.8-8.8c3.7,0.8,5.5,1.8,6.8,4.7
		c0.3,0.6,2.4,0.8,2.7,2.7c0.3,1.6-2,0.7-2.4,2.3C37.8,31.9,35,32.9,30.7,33.6z"/>
	<path class="st28" d="M35.3,28c-1,1.4-10.7,1.7-11.4-0.9"/>
</g>
<g>
	<path class="st3" d="M34.7,45.4c-3.8,1.2-6.5-1.7-7.7-5.5c-1.3-3.8,2.4-10.1,6.4-9.9c3.7,0.2,5.7,1,7.4,3.6
		c0.3,0.5,2.5,0.4,3.1,2.3c0.5,1.6-1.9,1-2.1,2.6C41.4,42.7,38.9,44.1,34.7,45.4z"/>
	<path class="st4" d="M38.4,39.1C37.5,40.7,28,42.4,26.9,40"/>
</g>
<g>
	<path class="st3" d="M13.3,21.8c3.9,0.6,5,4.4,4.5,8.4c-0.6,4-6.6,7.9-10.1,5.9c-3.3-1.8-4.6-3.4-5-6.6C2.6,28.8,0.6,28,0.9,26
		c0.2-1.6,2.1,0,3-1.4C6,21.2,9,21.1,13.3,21.8z"/>
	<path class="st4" d="M7.2,25.7c1.4-1,10.7,1.7,10.6,4.4"/>
</g>
<g>
	<path class="st3" d="M45.1,32.3c-3.5-1.9-3.2-5.9-1.4-9.4c1.9-3.5,8.9-5.2,11.5-2.1c2.4,2.8,3.2,4.8,2.5,7.9
		c-0.1,0.6,1.4,2.1,0.5,3.8c-0.8,1.4-2-0.7-3.3,0.3C51.8,35.3,49,34.4,45.1,32.3z"/>
	<path class="st4" d="M52.2,30.6c-1.7,0.5-9.5-5.2-8.5-7.7"/>
</g>
</svg>
