<?xml version="1.0" encoding="utf-8"?>
<!-- Generator: Adobe Illustrator 23.0.1, SVG Export Plug-In . SVG Version: 6.00 Build 0)  -->
<svg version="1.1" id="Layer_1" xmlns="http://www.w3.org/2000/svg" xmlns:xlink="http://www.w3.org/1999/xlink" x="0px" y="0px"
	 viewBox="0 0 46 73.4" style="enable-background:new 0 0 46 73.4;" xml:space="preserve">
<style type="text/css">
	.st0{fill-rule:evenodd;clip-rule:evenodd;fill:none;stroke:#00C1A3;stroke-width:0.75;stroke-miterlimit:10;}
	.st1{fill:#FFFFFF;stroke:#0066FF;stroke-width:0.75;stroke-linecap:round;stroke-linejoin:round;stroke-miterlimit:10;}
	.st2{fill:none;stroke:#0066FF;stroke-width:0.75;stroke-linecap:round;stroke-linejoin:round;stroke-miterlimit:10;}
	.st3{fill:#FFFFFF;stroke:#0066FF;stroke-width:0.75;stroke-miterlimit:10;}
	.st4{fill:none;stroke:#0066FF;stroke-width:0.75;stroke-miterlimit:10;}
	.st5{fill:none;stroke:#00C1A3;stroke-width:0.75;stroke-miterlimit:10;}
	.st6{fill:none;stroke:#FF25F3;stroke-width:0.75;stroke-miterlimit:10;}
	.st7{fill:none;stroke:#FF25F3;stroke-width:0.75;stroke-linecap:round;stroke-linejoin:round;stroke-miterlimit:10;}
	.st8{fill-rule:evenodd;clip-rule:evenodd;fill:none;stroke:#0066FF;stroke-width:0.75;stroke-miterlimit:10;}
	.st9{clip-path:url(#SVGID_2_);fill-rule:evenodd;clip-rule:evenodd;fill:#FFFFFF;}
	.st10{fill-rule:evenodd;clip-rule:evenodd;fill:#FCFDFF;}
	.st11{fill-rule:evenodd;clip-rule:evenodd;fill:#FFFFFF;}
	.st12{fill-rule:evenodd;clip-rule:evenodd;fill:#3D6A9D;}
	.st13{fill:#FFFFFF;}
	.st14{fill:#0066FF;}
	.st15{fill-rule:evenodd;clip-rule:evenodd;fill:#FFFFFF;stroke:#0066FF;stroke-width:0.75;stroke-miterlimit:10;}
	.st16{fill-rule:evenodd;clip-rule:evenodd;fill:#FFFFFF;stroke:#44E0A0;stroke-width:0.75;stroke-miterlimit:10;}
	.st17{fill-rule:evenodd;clip-rule:evenodd;fill:#FFFFFF;stroke:#FF25F3;stroke-width:0.75;stroke-miterlimit:10;}
	.st18{fill:none;stroke:#FFFFFF;stroke-width:2.8774;stroke-miterlimit:10;}
	
		.st19{fill-rule:evenodd;clip-rule:evenodd;fill:none;stroke:#FF25F3;stroke-width:0.75;stroke-linecap:round;stroke-linejoin:round;stroke-miterlimit:10;}
	.st20{fill-rule:evenodd;clip-rule:evenodd;fill:#FFFFFF;stroke:#FFFFFF;stroke-width:0.7194;stroke-miterlimit:10;}
	.st21{fill:none;stroke:#FFFFFF;stroke-width:0.7194;stroke-miterlimit:10;}
	.st22{fill:none;stroke:#44E0A0;stroke-width:0.75;stroke-linecap:round;stroke-linejoin:round;stroke-miterlimit:10;}
	.st23{fill-rule:evenodd;clip-rule:evenodd;fill:#FFFFFF;stroke:#00C1A3;stroke-width:0.75;stroke-miterlimit:10;}
	.st24{fill:none;stroke:#0066FF;stroke-width:0.75;stroke-linecap:round;stroke-miterlimit:10;}
	.st25{fill:#FFFFFF;stroke:#00C1A3;stroke-width:0.75;stroke-miterlimit:10;}
	.st26{clip-path:url(#SVGID_4_);}
	
		.st27{fill-rule:evenodd;clip-rule:evenodd;fill:none;stroke:#0066FF;stroke-width:0.75;stroke-linecap:round;stroke-miterlimit:10;}
	.st28{fill:#FFFFFF;stroke:#FF25F3;stroke-width:0.75;stroke-miterlimit:10;}
	.st29{fill:#FFFFFF;stroke:#FF25F3;stroke-width:0.75;stroke-linecap:round;stroke-linejoin:round;stroke-miterlimit:10;}
	.st30{fill:none;stroke:#00FA9B;stroke-width:0.75;stroke-miterlimit:10;}
	.st31{fill:#87D73F;}
	.st32{fill:#3DED98;}
</style>
<ellipse transform="matrix(0.4051 -0.9143 0.9143 0.4051 -17.0597 19.0138)" class="st3" cx="6.1" cy="22.6" rx="8.2" ry="4.8"/>
<ellipse transform="matrix(0.9361 -0.3517 0.3517 0.9361 -5.1525 15.3851)" class="st3" cx="39.8" cy="21.9" rx="4.8" ry="8.2"/>
<ellipse transform="matrix(0.2534 -0.9674 0.9674 0.2534 -12.6288 30.0814)" class="st3" cx="13.2" cy="23.2" rx="8.2" ry="4.8"/>
<ellipse transform="matrix(0.2534 -0.9674 0.9674 0.2534 -29.8848 37.4)" class="st3" cx="9.3" cy="38.1" rx="8.2" ry="4.8"/>
<ellipse class="st3" cx="14.9" cy="48" rx="4.8" ry="8.2"/>
<ellipse transform="matrix(0.9361 -0.3517 0.3517 0.9361 -9.8852 15.1192)" class="st3" cx="36.7" cy="34.8" rx="4.8" ry="8.2"/>
<ellipse transform="matrix(0.9871 -0.1602 0.1602 0.9871 -7.0409 5.6545)" class="st3" cx="31.6" cy="46.5" rx="4.8" ry="8.2"/>
<ellipse class="st3" cx="17" cy="62.2" rx="4.8" ry="8.2"/>
<ellipse transform="matrix(0.9871 -0.1602 0.1602 0.9871 -8.8828 5.6067)" class="st25" cx="30.3" cy="57.9" rx="4.8" ry="8.2"/>
<ellipse transform="matrix(0.9871 -0.1602 0.1602 0.9871 -10.0031 4.678)" class="st3" cx="24" cy="64.4" rx="4.8" ry="8.2"/>
<ellipse class="st3" cx="23.1" cy="48" rx="4.8" ry="8.2"/>
<ellipse class="st3" cx="27.1" cy="34.8" rx="4.8" ry="8.2"/>
<ellipse transform="matrix(0.1876 -0.9822 0.9822 0.1876 -20.3349 44.952)" class="st28" cx="17" cy="34.8" rx="8.2" ry="4.8"/>
<ellipse class="st3" cx="21.9" cy="21.9" rx="4.8" ry="8.2"/>
<ellipse transform="matrix(0.975 -0.2222 0.2222 0.975 -4.1021 7.2864)" class="st3" cx="30.3" cy="21.9" rx="4.8" ry="8.2"/>
<path class="st4" d="M15.3,15.3c0,0,0-2.5,1.8-4c1.5-1.3,5.7-2.9,5.7-2.9"/>
<path class="st4" d="M8.8,15.2c0,0,1.7-4.1,4.9-5.4s9-1.4,9-1.4s5.7,0.6,7.6,0.9c2.9,0.4,6,5,6,5"/>
<path class="st4" d="M21.5,13.7l1.3-5.3c0,0,2.3,0.3,4,1.9s1.8,3.6,1.8,3.6"/>
<line class="st4" x1="22.7" y1="0.4" x2="22.7" y2="8.4"/>
</svg>
