<?xml version="1.0" encoding="utf-8"?>
<!-- Generator: Adobe Illustrator 23.0.1, SVG Export Plug-In . SVG Version: 6.00 Build 0)  -->
<svg version="1.1" id="Layer_1" xmlns="http://www.w3.org/2000/svg" xmlns:xlink="http://www.w3.org/1999/xlink" x="0px" y="0px"
	 viewBox="0 0 61.4 47.3" style="enable-background:new 0 0 61.4 47.3;" xml:space="preserve">
<style type="text/css">
	.st0{fill-rule:evenodd;clip-rule:evenodd;fill:none;stroke:#00C1A3;stroke-width:0.75;stroke-miterlimit:10;}
	.st1{fill:#FFFFFF;stroke:#0066FF;stroke-width:0.75;stroke-linecap:round;stroke-linejoin:round;stroke-miterlimit:10;}
	.st2{fill:none;stroke:#0066FF;stroke-width:0.75;stroke-linecap:round;stroke-linejoin:round;stroke-miterlimit:10;}
	.st3{fill:#FFFFFF;stroke:#0066FF;stroke-width:0.75;stroke-miterlimit:10;}
	.st4{fill:none;stroke:#0066FF;stroke-width:0.75;stroke-miterlimit:10;}
	.st5{fill:none;stroke:#00C1A3;stroke-width:0.75;stroke-miterlimit:10;}
	.st6{fill:none;stroke:#FF25F3;stroke-width:0.75;stroke-miterlimit:10;}
	.st7{fill:none;stroke:#FF25F3;stroke-width:0.75;stroke-linecap:round;stroke-linejoin:round;stroke-miterlimit:10;}
	.st8{fill-rule:evenodd;clip-rule:evenodd;fill:none;stroke:#0066FF;stroke-width:0.75;stroke-miterlimit:10;}
	.st9{clip-path:url(#SVGID_2_);fill-rule:evenodd;clip-rule:evenodd;fill:#FFFFFF;}
	.st10{fill-rule:evenodd;clip-rule:evenodd;fill:#FCFDFF;}
	.st11{fill-rule:evenodd;clip-rule:evenodd;fill:#FFFFFF;}
	.st12{fill-rule:evenodd;clip-rule:evenodd;fill:#3D6A9D;}
	.st13{fill:#FFFFFF;}
	.st14{fill:#0066FF;}
	.st15{fill-rule:evenodd;clip-rule:evenodd;fill:#FFFFFF;stroke:#0066FF;stroke-width:0.75;stroke-miterlimit:10;}
	.st16{fill-rule:evenodd;clip-rule:evenodd;fill:#FFFFFF;stroke:#44E0A0;stroke-width:0.75;stroke-miterlimit:10;}
	.st17{fill-rule:evenodd;clip-rule:evenodd;fill:#FFFFFF;stroke:#FF25F3;stroke-width:0.75;stroke-miterlimit:10;}
	.st18{fill:none;stroke:#FFFFFF;stroke-width:2.8774;stroke-miterlimit:10;}
	
		.st19{fill-rule:evenodd;clip-rule:evenodd;fill:none;stroke:#FF25F3;stroke-width:0.75;stroke-linecap:round;stroke-linejoin:round;stroke-miterlimit:10;}
	.st20{fill-rule:evenodd;clip-rule:evenodd;fill:#FFFFFF;stroke:#FFFFFF;stroke-width:0.7194;stroke-miterlimit:10;}
	.st21{fill:none;stroke:#FFFFFF;stroke-width:0.7194;stroke-miterlimit:10;}
	.st22{fill:none;stroke:#44E0A0;stroke-width:0.75;stroke-linecap:round;stroke-linejoin:round;stroke-miterlimit:10;}
	.st23{fill-rule:evenodd;clip-rule:evenodd;fill:#FFFFFF;stroke:#00C1A3;stroke-width:0.75;stroke-miterlimit:10;}
	.st24{fill:none;stroke:#0066FF;stroke-width:0.75;stroke-linecap:round;stroke-miterlimit:10;}
	.st25{fill:#FFFFFF;stroke:#00C1A3;stroke-width:0.75;stroke-miterlimit:10;}
	.st26{clip-path:url(#SVGID_4_);}
	
		.st27{fill-rule:evenodd;clip-rule:evenodd;fill:none;stroke:#0066FF;stroke-width:0.75;stroke-linecap:round;stroke-miterlimit:10;}
	.st28{fill:#FFFFFF;stroke:#FF25F3;stroke-width:0.75;stroke-miterlimit:10;}
	.st29{fill:#FFFFFF;stroke:#FF25F3;stroke-width:0.75;stroke-linecap:round;stroke-linejoin:round;stroke-miterlimit:10;}
	.st30{fill:none;stroke:#00FA9B;stroke-width:0.75;stroke-miterlimit:10;}
	.st31{fill:#87D73F;}
	.st32{fill:#3DED98;}
</style>
<path class="st4" d="M25.2,3.9c-5.4,5.8-3.9,6.9-8.8,11S4,19.4,1.5,27.2S1.3,38.4,3.9,40.8c4.6,4.2,11.5,5.9,20.4-1.9
	c6-5.3,4-6.8,7-11.7c3.1-4.9,6.6-3.9,11-7.3c7.2-5.6,4.3-14.7,0.2-17S30.5-1.8,25.2,3.9z"/>
<path class="st4" d="M21.5,19C16.6,22.7,9,27.7,6.9,32.8s-0.8,9.7-0.8,9.7"/>
<path class="st4" d="M46.3,8.4c0,0,0.8,7.5-6.5,9.7s-11.6,9.3-12.4,11.2c-0.8,1.9-3.2,11.4-10,14"/>
<line class="st4" x1="46.1" y1="11.2" x2="38.4" y2="7.6"/>
<line class="st4" x1="39.2" y1="18" x2="35.7" y2="11.2"/>
<line class="st4" x1="36.9" y1="8.9" x2="31.9" y2="5.9"/>
<line class="st4" x1="28.1" y1="11.9" x2="32.8" y2="14.5"/>
<line class="st4" x1="35.2" y1="2.7" x2="28.6" y2="2.7"/>
<line class="st4" x1="37.7" y1="1.7" x2="41.1" y2="5.8"/>
<line class="st4" x1="31.9" y1="17" x2="35.2" y2="20.3"/>
<line class="st4" x1="40.7" y1="8.7" x2="43.1" y2="16.4"/>
<line class="st4" x1="40.7" y1="17.8" x2="40.1" y2="21.3"/>
<line class="st4" x1="24.9" y1="15.8" x2="28.9" y2="20.3"/>
<line class="st4" x1="24.1" y1="7.6" x2="22.1" y2="7.6"/>
<line class="st4" x1="19.3" y1="12" x2="22.4" y2="12.2"/>
<line class="st4" x1="20.9" y1="14.5" x2="23.1" y2="17"/>
<line class="st4" x1="29.6" y1="19.6" x2="31.9" y2="23"/>
<line class="st4" x1="36.9" y1="19.6" x2="36.2" y2="23"/>
<line class="st4" x1="33" y1="22" x2="33" y2="25.1"/>
<line class="st4" x1="30" y1="25.2" x2="26.1" y2="22.7"/>
<line class="st4" x1="21.5" y1="19" x2="24.1" y2="23.9"/>
<line class="st4" x1="20.2" y1="20.1" x2="17.2" y2="18"/>
<line class="st4" x1="19.5" y1="15.7" x2="16.4" y2="14.9"/>
<line class="st4" x1="14.4" y1="19.4" x2="11.6" y2="17.8"/>
<line class="st4" x1="11.6" y1="20.5" x2="15.4" y2="23.6"/>
<line class="st4" x1="17.9" y1="22.3" x2="22.1" y2="25.6"/>
<line class="st4" x1="23.6" y1="24.8" x2="27.4" y2="29.3"/>
<line class="st4" x1="28.9" y1="26.7" x2="30.7" y2="28.3"/>
<line class="st4" x1="28.9" y1="32.8" x2="26.9" y2="31.8"/>
<line class="st4" x1="17.2" y1="29.3" x2="13" y2="25.9"/>
<line class="st4" x1="8.9" y1="22" x2="7" y2="20.3"/>
<line class="st4" x1="41.6" y1="13.2" x2="37.7" y2="14.5"/>
<line class="st4" x1="13.9" y1="34.1" x2="8.9" y2="30.8"/>
<line class="st4" x1="10.9" y1="26.7" x2="6.5" y2="23.7"/>
<line class="st4" x1="19.5" y1="34.8" x2="20.9" y2="41.4"/>
<line class="st4" x1="12.6" y1="38.1" x2="20.2" y2="38.1"/>
<line class="st4" x1="12.2" y1="42.2" x2="6.5" y2="34.8"/>
<line class="st4" x1="3.1" y1="27.6" x2="7.4" y2="31.8"/>
<line class="st4" x1="5.7" y1="24.8" x2="2.6" y2="24.8"/>
<line class="st4" x1="2" y1="35.3" x2="5.7" y2="38.5"/>
<path class="st4" d="M31.9,0.3c0,0-5.6,3.3-7.6,8.1c-1.8,4.3-4.9,9.4-9.9,11S3.7,25,2.5,29S2.4,39.1,2.4,39.1"/>
<path class="st4" d="M15.3,31.4c-3.2,4.8-3.5,10.6-2.9,12.9"/>
<path class="st4" d="M15.3,31.4c0.5-0.7,6.6-6.1,10.1-8.3s6.8-6.7,10.9-13.1c0.6-1,1.3-1.8,2-2.4c3.5-3.4,6.7-2.1,6.7-2.1"/>
<path class="st28" d="M60.9,23.8c0,0-2.2-5.2-6.9-3.8c-4.7,1.4-10.3,1.2-12.9,4.9c-1.6,2.2-1.2,6.3-1.2,6.3s3.6,2.1,7.7,1.9
	c5-0.2,11.2-3.9,12.1-4.8C61.2,26.6,60.9,23.8,60.9,23.8z"/>
<path class="st4" d="M50.3,40.2c0,0-1-5.6-5.9-5.1S34,34.2,30.7,37.2c-2,1.9-2.4,5.9-2.4,5.9"/>
<path class="st4" d="M28.3,43.1c0,0,3.1,2.8,7.2,3.4c5,0.8,11.8-1.5,12.8-2.3c1.7-1.3,2-4.1,2-4.1"/>
<path class="st4" d="M42.5,2.8c0,0-5.1-4.4-10.6,3.1s-5.6,9.3-10.4,13"/>
<polygon class="st25" points="30.2,7.4 25.5,5.8 23.4,10.4 26.9,13.5 "/>
<polygon class="st7" points="26,33.3 20.2,27.4 15.1,31.8 19.5,34.8 25.2,35 "/>
</svg>
