<?xml version="1.0" encoding="utf-8"?>
<!-- Generator: Adobe Illustrator 23.0.1, SVG Export Plug-In . SVG Version: 6.00 Build 0)  -->
<svg version="1.1" id="Layer_1" xmlns="http://www.w3.org/2000/svg" xmlns:xlink="http://www.w3.org/1999/xlink" x="0px" y="0px"
	 viewBox="0 0 74.2 44.5" style="enable-background:new 0 0 74.2 44.5;" xml:space="preserve">
<style type="text/css">
	.st0{fill-rule:evenodd;clip-rule:evenodd;fill:none;stroke:#00C1A3;stroke-width:0.75;stroke-miterlimit:10;}
	.st1{fill:#FFFFFF;stroke:#0066FF;stroke-width:0.75;stroke-linecap:round;stroke-linejoin:round;stroke-miterlimit:10;}
	.st2{fill:none;stroke:#0066FF;stroke-width:0.75;stroke-linecap:round;stroke-linejoin:round;stroke-miterlimit:10;}
	.st3{fill:#FFFFFF;stroke:#0066FF;stroke-width:0.75;stroke-miterlimit:10;}
	.st4{fill:none;stroke:#0066FF;stroke-width:0.75;stroke-miterlimit:10;}
	.st5{fill:none;stroke:#00C1A3;stroke-width:0.75;stroke-miterlimit:10;}
	.st6{fill:none;stroke:#FF25F3;stroke-width:0.75;stroke-miterlimit:10;}
	.st7{fill:none;stroke:#FF25F3;stroke-width:0.75;stroke-linecap:round;stroke-linejoin:round;stroke-miterlimit:10;}
	.st8{fill-rule:evenodd;clip-rule:evenodd;fill:none;stroke:#0066FF;stroke-width:0.75;stroke-miterlimit:10;}
	.st9{clip-path:url(#SVGID_2_);fill-rule:evenodd;clip-rule:evenodd;fill:#FFFFFF;}
	.st10{fill-rule:evenodd;clip-rule:evenodd;fill:#FCFDFF;}
	.st11{fill-rule:evenodd;clip-rule:evenodd;fill:#FFFFFF;}
	.st12{fill-rule:evenodd;clip-rule:evenodd;fill:#3D6A9D;}
	.st13{fill:#FFFFFF;}
	.st14{fill:#0066FF;}
	.st15{fill-rule:evenodd;clip-rule:evenodd;fill:#FFFFFF;stroke:#0066FF;stroke-width:0.75;stroke-miterlimit:10;}
	.st16{fill-rule:evenodd;clip-rule:evenodd;fill:#FFFFFF;stroke:#44E0A0;stroke-width:0.75;stroke-miterlimit:10;}
	.st17{fill-rule:evenodd;clip-rule:evenodd;fill:#FFFFFF;stroke:#FF25F3;stroke-width:0.75;stroke-miterlimit:10;}
	.st18{fill:none;stroke:#FFFFFF;stroke-width:2.8774;stroke-miterlimit:10;}
	
		.st19{fill-rule:evenodd;clip-rule:evenodd;fill:none;stroke:#FF25F3;stroke-width:0.75;stroke-linecap:round;stroke-linejoin:round;stroke-miterlimit:10;}
	.st20{fill-rule:evenodd;clip-rule:evenodd;fill:#FFFFFF;stroke:#FFFFFF;stroke-width:0.7194;stroke-miterlimit:10;}
	.st21{fill:none;stroke:#FFFFFF;stroke-width:0.7194;stroke-miterlimit:10;}
	.st22{fill:none;stroke:#44E0A0;stroke-width:0.75;stroke-linecap:round;stroke-linejoin:round;stroke-miterlimit:10;}
	.st23{fill-rule:evenodd;clip-rule:evenodd;fill:#FFFFFF;stroke:#00C1A3;stroke-width:0.75;stroke-miterlimit:10;}
	.st24{fill:none;stroke:#0066FF;stroke-width:0.75;stroke-linecap:round;stroke-miterlimit:10;}
	.st25{fill:#FFFFFF;stroke:#00C1A3;stroke-width:0.75;stroke-miterlimit:10;}
	.st26{clip-path:url(#SVGID_4_);}
	
		.st27{fill-rule:evenodd;clip-rule:evenodd;fill:none;stroke:#0066FF;stroke-width:0.75;stroke-linecap:round;stroke-miterlimit:10;}
	.st28{fill:#FFFFFF;stroke:#FF25F3;stroke-width:0.75;stroke-miterlimit:10;}
	.st29{fill:#FFFFFF;stroke:#FF25F3;stroke-width:0.75;stroke-linecap:round;stroke-linejoin:round;stroke-miterlimit:10;}
	.st30{fill:none;stroke:#00FA9B;stroke-width:0.75;stroke-miterlimit:10;}
	.st31{fill:#87D73F;}
	.st32{fill:#3DED98;}
</style>
<g>
	<g>
		<ellipse class="st3" cx="35.1" cy="6.8" rx="9" ry="5.9"/>
		<path class="st3" d="M31.5,9.6c0.4,0.3,1.8,1.3,3.8,1.2c1.9,0,3.3-1,3.7-1.3"/>
	</g>
	<g>
		<ellipse class="st3" cx="29.1" cy="14.8" rx="9" ry="5.9"/>
		<path class="st3" d="M25.5,17.6c0.4,0.3,1.8,1.3,3.8,1.2c1.9,0,3.3-1,3.7-1.3"/>
	</g>
	<g>
		<ellipse transform="matrix(0.1723 -0.985 0.985 0.1723 27.1046 55.404)" class="st3" cx="46.5" cy="11.6" rx="5.9" ry="9"/>
		<path class="st3" d="M42.5,13.7c0.4,0.4,1.6,1.6,3.6,1.9c1.9,0.3,3.4-0.4,3.9-0.6"/>
	</g>
	<g>
		<ellipse transform="matrix(0.1723 -0.985 0.985 0.1723 10.8771 59.0686)" class="st3" cx="40.6" cy="23.1" rx="5.9" ry="9"/>
		<path class="st3" d="M36.6,25.1c0.4,0.4,1.6,1.6,3.6,1.9c1.9,0.3,3.4-0.4,3.9-0.6"/>
	</g>
	<g>
		<ellipse transform="matrix(0.9745 -0.2243 0.2243 0.9745 -3.1236 14.0011)" class="st25" cx="60.1" cy="20.7" rx="9" ry="5.9"/>
	</g>
	<g>
		<ellipse transform="matrix(0.9745 -0.2243 0.2243 0.9745 -5.9317 11.8433)" class="st3" cx="49.2" cy="32" rx="9" ry="5.9"/>
	</g>
	<g>
		<ellipse transform="matrix(0.1452 -0.9894 0.9894 0.1452 -23.6102 37.3076)" class="st3" cx="9.8" cy="32.3" rx="5.9" ry="9"/>
	</g>
	<g>
		<ellipse transform="matrix(0.1723 -0.985 0.985 0.1723 -5.7117 49.3862)" class="st28" cx="26.5" cy="28.1" rx="5.9" ry="9"/>
		<path class="st28" d="M22.5,30.2c0.4,0.4,1.6,1.6,3.6,1.9c1.9,0.3,3.4-0.4,3.9-0.6"/>
	</g>
	<g>
		<ellipse transform="matrix(0.9848 -0.1735 0.1735 0.9848 -2.8043 2.9115)" class="st3" cx="15.2" cy="17.5" rx="9" ry="5.9"/>
		<path class="st3" d="M12.2,20.8c0.5,0.2,2,0.9,4,0.5c1.9-0.4,3.1-1.5,3.4-1.9"/>
	</g>
	<g>
		<ellipse transform="matrix(0.9696 -0.2447 0.2447 0.9696 -5.1833 16.6979)" class="st3" cx="64.6" cy="29.2" rx="9" ry="5.9"/>
		<path class="st3" d="M61.8,32.7c0.5,0.2,2.1,0.8,4,0.3c1.9-0.5,2.9-1.7,3.3-2.2"/>
	</g>
	<g>
		<ellipse transform="matrix(0.993 -0.1178 0.1178 0.993 -4.2325 4.1584)" class="st3" cx="33.1" cy="37.9" rx="9" ry="5.9"/>
	</g>
</g>
</svg>
