<?xml version="1.0" encoding="utf-8"?>
<!-- Generator: Adobe Illustrator 23.0.1, SVG Export Plug-In . SVG Version: 6.00 Build 0)  -->
<svg version="1.1" id="Layer_1" xmlns="http://www.w3.org/2000/svg" xmlns:xlink="http://www.w3.org/1999/xlink" x="0px" y="0px"
	 viewBox="0 0 55 75" style="enable-background:new 0 0 55 75;" xml:space="preserve">
<style type="text/css">
	.st0{fill:none;stroke:#0066FF;stroke-width:0.75;stroke-miterlimit:10;}
	.st1{fill:none;stroke:#FF25F3;stroke-width:0.75;stroke-linecap:round;stroke-linejoin:round;stroke-miterlimit:10;}
	.st2{fill:none;stroke:#00C1A3;stroke-width:0.75;stroke-miterlimit:10;}
	.st3{fill-rule:evenodd;clip-rule:evenodd;fill:none;stroke:#0066FF;stroke-width:0.75;stroke-miterlimit:10;}
	.st4{fill:none;stroke:#FF25F3;stroke-width:0.75;stroke-linejoin:round;stroke-miterlimit:10;}
	.st5{fill:none;stroke:#FF25F3;stroke-width:0.75;stroke-miterlimit:10;}
	
		.st6{fill-rule:evenodd;clip-rule:evenodd;fill:none;stroke:#FF25F3;stroke-width:0.75;stroke-linejoin:round;stroke-miterlimit:10;}
	.st7{fill-rule:evenodd;clip-rule:evenodd;fill:none;stroke:#00C1A3;stroke-width:0.75;stroke-miterlimit:10;}
	
		.st8{fill-rule:evenodd;clip-rule:evenodd;fill:none;stroke:#FF25F3;stroke-width:0.75;stroke-linecap:round;stroke-linejoin:round;stroke-miterlimit:10;}
</style>
<g>
	<g>
		<g>
			<g>
				<path class="st3" d="M23.4,43.9c2.2,1.6,2.5,4.5,1.3,5.5c-1.1,1-3.9,0.6-5.4-1.8c-1.6-2.6-2.5-4.5-1.3-5.5
					C19.1,41.1,21,42.1,23.4,43.9z"/>
				<path class="st3" d="M23.7,36.8c2.2,1.6,2.5,4.5,1.3,5.5c-1.1,1-3.9,0.6-5.4-1.8C18,37.9,17.2,36,18.3,35
					C19.4,34,21.4,35,23.7,36.8z"/>
				<path class="st6" d="M24,29.6c2.2,1.6,2.5,4.5,1.3,5.5c-1.1,1-3.9,0.6-5.4-1.8c-1.6-2.6-2.5-4.5-1.3-5.5
					C19.8,26.9,21.7,27.9,24,29.6z"/>
				<path class="st3" d="M24.4,22.7c2.1,1.6,2.4,4.3,1.3,5.3c-1.1,1-3.8,0.5-5.2-1.7C18.8,23.8,18,22,19.1,21
					C20.2,20,22.1,21,24.4,22.7z"/>
				<path class="st3" d="M24.6,16.6c1.8,1.4,2.1,3.7,1.1,4.6c-0.9,0.9-3.3,0.5-4.5-1.5c-1.4-2.2-2.1-3.7-1.1-4.6
					C21,14.3,22.7,15.1,24.6,16.6z"/>
			</g>
			<g>
				<path class="st3" d="M30.1,43.9c-2.2,1.6-2.5,4.5-1.3,5.5c1.1,1,3.9,0.6,5.4-1.8c1.6-2.6,2.5-4.5,1.3-5.5
					C34.4,41.1,32.5,42.1,30.1,43.9z"/>
				<path class="st3" d="M29.8,36.7c-2.2,1.6-2.5,4.5-1.3,5.5c1.1,1,3.9,0.6,5.4-1.8c1.6-2.6,2.5-4.5,1.3-5.5
					C34.1,33.9,32.1,35,29.8,36.7z"/>
				<path class="st3" d="M29.5,29.6c-2.2,1.6-2.5,4.5-1.3,5.5c1.1,1,3.9,0.6,5.4-1.8c1.6-2.6,2.5-4.5,1.3-5.5
					C33.7,26.8,31.8,27.9,29.5,29.6z"/>
				<path class="st7" d="M29.1,22.7C27,24.3,26.7,27,27.8,28c1.1,1,3.8,0.5,5.2-1.7c1.6-2.6,2.4-4.3,1.3-5.3
					C33.3,20,31.4,21,29.1,22.7z"/>
				<path class="st3" d="M28.9,16.6c-1.8,1.4-2.1,3.7-1.1,4.6c0.9,0.9,3.3,0.5,4.5-1.5c1.4-2.2,2.1-3.7,1.1-4.6
					C32.5,14.2,30.8,15.1,28.9,16.6z"/>
			</g>
			<line class="st0" x1="24" y1="13.6" x2="24" y2="6.9"/>
			<line class="st0" x1="26.8" y1="16.7" x2="26.8" y2="1.6"/>
			<line class="st0" x1="29.3" y1="6.9" x2="29.3" y2="13.6"/>
		</g>
		<path class="st3" d="M42.8,26.3c0,0.2,0,0.5,0.1,0.7l0.6,1.7c0,0.1,0,0.1,0.1,0.2l0.3,0.7c0,0,0,0.1,0,0.1l0.7,1.9c0,0,0,0,0,0
			l0.9,2.4c0.2,0.4,0.3,0.8,0.4,1.2l0.9,2.5c0.1,0.1,0,0,0.1,0.2l1,2.9c0,0.1,0,0.2,0,0.2c0,0.1,0,0.1,0,0.2c0.2,0.6,0.2,2,0.1,2.7
			L47.9,44c0,0,0,0,0,0c0,0.1,0,0.2-0.1,0.2c-0.1,0.3-0.1,0.2-0.1,0.4l-0.2,0.6c0,0,0,0,0,0l0,0.1c0,0,0,0.1,0,0.1
			c-0.1,0.2-0.1,0.2-0.2,0.4l-0.3,0.7c0,0.1-0.1,0.1-0.1,0.2l-1.4,2.5c-0.2,0.4-0.4,0.9-0.8,1.2c-0.1,0.1,0,0-0.2,0.1
			c-0.2,0.1-0.4,0.2-0.6,0.2c-0.3,0.1-0.5,0-0.8-0.1c-0.1,0-0.2-0.1-0.3-0.1c-0.6-0.4-0.7-1.3-0.3-1.9l0.3-0.5
			c0.3-0.5,0.6-1,0.9-1.6l1-1.9c0.2-0.4,0.2-0.4,0.3-0.8c0-0.1,0.1-0.2,0.1-0.3c0-0.2-0.2-0.7-0.3-0.9c0,0-0.1-0.2-0.2-0.2L44.2,42
			c0,0,0,0,0,0c-0.1-0.1-0.2-0.2-0.4-0.2l-0.5-0.2c0,0,0,0,0,0c-0.2-0.1-0.7,0-0.9,0l-0.4,0.1c0,0,0,0,0,0c-0.2,0.1-0.4,0.2-0.6,0.4
			c0,0-0.1,0.1-0.1,0.1c-0.1,0.2-0.3,0.3-0.4,0.5L39.6,45c-0.1,0.1-0.1,0.2-0.1,0.3l-0.8,1.3c-0.4,0.6-0.4,0.6-0.8,1.3
			c-0.1,0.2,0.1-0.1,0,0.1L37,49.4c-0.1,0.1,0,0-0.1,0.1l-0.6,1c-0.1,0.1-0.1,0.1-0.2,0.2l-2,3.3c0,0,0,0,0,0l-0.3,0.4
			c-0.3,0.4-0.5,0.9-0.8,1.3c0,0,0,0.1,0,0.1l-0.2,0.4c0,0,0,0.1,0,0.1L32.6,57c-0.2,0.5-0.2,0.9-0.3,1.4c0,0.1,0,0.3,0,0.4
			c0,0.3-0.1,0.5,0,0.7c0,0.2,0,0.4,0,0.7c0,0.3,0.1,0.2,0.1,0.5c0.1,0.7,0,0.3,0.1,0.9c0,0.2,0,0.3,0.1,0.5l0.2,0.6
			c0.2,0.5,0.3,1.1,0.5,1.5l0.3,1c0,0.1,0,0.1,0,0.2l0.3,0.9c0,0.1,0,0.1,0.1,0.1l0.2,0.5c0,0.1,0.1,0.2,0.1,0.3l0.4,1
			c0,0,0,0.1,0,0.2l0.9,2.3c0,0.1,0,0.1,0.1,0.1l0.2,0.6c0,0.1,0,0.1,0,0.1l0.3,0.9c0.1,0.3-0.1-0.2,0,0.1c0.1,0.3,0.4,0.9,0.4,1.1
			c0.4,0,0.7-0.2,1.1-0.3c0.1,0,0.1,0,0.2,0l1.7-0.5c0.1,0,0.2,0,0.2,0l1.7-0.5c0.6-0.2,1.2-0.3,1.8-0.5l0.1,0l1.2-0.4
			c0.2-0.1,0,0,0.2-0.1l0.4-0.1c0,0,0,0,0.1,0l1.4-0.4c0,0,0,0,0,0l0.4-0.1c0.4-0.2,1-0.2,1.4-0.4c0-0.2-0.4-1.1-0.5-1.3
			c0-0.1,0,0,0-0.1c0-0.1,0,0,0-0.1L47.4,67c-0.3-0.6-0.5-1.4-0.7-2l-0.4-1.3c0-0.1,0,0-0.1-0.2c-0.1-0.8-0.1,0-0.1-1.5
			c0-0.2,0,0,0.1-0.2l0.9-1.9c0,0,0,0,0,0l1.3-2.9c0,0,0,0,0,0c0.2-0.4,0.4-0.9,0.6-1.3l2.7-6.4c0-0.1,0-0.1,0.1-0.2l0.1-0.3
			c0-0.1,0.1-0.2,0.1-0.3c0-0.1,0-0.1,0.1-0.1c0.2-0.4,0.2-0.7,0.4-1l0.2-0.5c0-0.1,0.1-0.2,0.1-0.3l0.1-0.4c0,0,0,0,0,0l0.1-0.6
			c0.1-0.2,0.1-0.1,0.1-0.3c0.1-0.7,0.1-1.6,0-2.3c0-0.1,0-0.1-0.1-0.3c-0.1-0.3-0.2-0.6-0.3-1l-0.4-1.1c0,0,0,0,0,0l0-0.1
			c0,0,0-0.1,0-0.1l-1.1-3c0,0,0,0,0,0l0-0.1c-0.1-0.2,0.1,0.2,0-0.1c0,0,0-0.1,0-0.1l-0.4-1c-0.1-0.1,0-0.2-0.1-0.3l-0.2-0.6
			c0-0.1,0-0.1,0-0.2L49.9,34c-0.1-0.2-0.1-0.1-0.1-0.3l-0.7-1.8c-0.1-0.1,0,0-0.1-0.1l-1.1-3c-0.1-0.3-0.2-0.7-0.3-1l0-0.1
			l-0.3-0.8c-0.1-0.1-0.1-0.2-0.1-0.3l-0.1-0.3c-0.1-0.2-0.2-0.5-0.3-0.8c-0.1-0.1-0.1-0.2-0.3-0.3c-0.1-0.1-0.1-0.1-0.2-0.2
			c-0.3-0.2-0.6-0.3-0.9-0.3l-0.6-0.1c-0.2,0,0,0-0.1,0.1c-0.1,0-0.1,0-0.2,0.1c-0.3,0.1-0.6,0.2-0.9,0.4c0,0,0,0-0.1,0
			c-0.1,0.1,0,0-0.1,0.1c-0.1,0.1-0.1,0.1-0.1,0.1C43,25.6,42.8,25.9,42.8,26.3L42.8,26.3z"/>
		<path class="st3" d="M11.5,26.3c0,0.2,0,0.5-0.1,0.7l-0.6,1.7c0,0.1,0,0.1-0.1,0.2l-0.3,0.7c0,0,0,0.1,0,0.1l-0.7,1.9c0,0,0,0,0,0
			L8.9,34c-0.2,0.4-0.3,0.8-0.4,1.2l-0.9,2.5c-0.1,0.1,0,0-0.1,0.2l-1,2.9c0,0.1,0,0.2,0,0.2c0,0.1,0,0.1,0,0.2
			c-0.2,0.6-0.2,2-0.1,2.7L6.4,44c0,0,0,0,0,0c0,0.1,0,0.2,0.1,0.2c0.1,0.3,0.1,0.2,0.1,0.4l0.2,0.6c0,0,0,0,0,0l0,0.1
			c0,0,0,0.1,0,0.1C7,45.7,7,45.7,7.1,45.9l0.3,0.7c0,0.1,0.1,0.1,0.1,0.2l1.4,2.5c0.2,0.4,0.4,0.9,0.8,1.2c0.1,0.1,0,0,0.2,0.1
			c0.2,0.1,0.4,0.2,0.6,0.2c0.3,0.1,0.5,0,0.8-0.1c0.1,0,0.2-0.1,0.3-0.1c0.6-0.4,0.7-1.3,0.3-1.9l-0.3-0.5c-0.3-0.5-0.6-1-0.9-1.6
			l-1-1.9c-0.2-0.4-0.2-0.4-0.3-0.8c0-0.1-0.1-0.2-0.1-0.3c0-0.2,0.2-0.7,0.3-0.9c0,0,0.1-0.2,0.2-0.2l0.3-0.3c0,0,0,0,0,0
			c0.1-0.1,0.2-0.2,0.4-0.2l0.5-0.2c0,0,0,0,0,0c0.2-0.1,0.7,0,0.9,0l0.4,0.1c0,0,0,0,0,0c0.2,0.1,0.4,0.2,0.6,0.4
			c0,0,0.1,0.1,0.1,0.1c0.1,0.2,0.3,0.3,0.4,0.5l1.3,2.2c0.1,0.1,0.1,0.2,0.1,0.3l0.8,1.3c0.4,0.6,0.4,0.6,0.8,1.3
			c0.1,0.2-0.1-0.1,0,0.1l0.9,1.5c0.1,0.1,0,0,0.1,0.1l0.6,1c0.1,0.1,0.1,0.1,0.1,0.2l2,3.3c0,0,0,0,0,0l0.3,0.4
			c0.3,0.4,0.5,0.9,0.8,1.3c0,0,0,0.1,0,0.1l0.2,0.4c0,0,0,0.1,0,0.1l0.3,0.6c0.2,0.5,0.2,0.9,0.3,1.4c0,0.1,0,0.3,0,0.4
			c0,0.3,0.1,0.5,0,0.7c0,0.2,0,0.4,0,0.7c0,0.3-0.1,0.2-0.1,0.5c-0.1,0.7,0,0.3-0.1,0.9c0,0.2,0,0.3-0.1,0.5l-0.2,0.6
			c-0.2,0.5-0.3,1.1-0.5,1.5l-0.3,1c0,0.1,0,0.1,0,0.2l-0.3,0.9c0,0.1,0,0.1-0.1,0.1l-0.2,0.5c0,0.1-0.1,0.2-0.1,0.3l-0.4,1
			c0,0,0,0.1,0,0.2l-0.9,2.3c0,0.1,0,0.1-0.1,0.1l-0.2,0.6c0,0.1,0,0.1,0,0.1l-0.3,0.9c-0.1,0.3,0.1-0.2,0,0.1
			c-0.1,0.3-0.4,0.9-0.4,1.1c-0.4,0-0.7-0.2-1.1-0.3c-0.1,0-0.1,0-0.2,0l-1.7-0.5c-0.1,0-0.2,0-0.2,0l-1.7-0.5
			c-0.6-0.2-1.2-0.3-1.8-0.5l-0.1,0l-1.2-0.4c-0.2-0.1,0,0-0.2-0.1l-0.4-0.1c0,0,0,0-0.1,0l-1.4-0.4c0,0,0,0,0,0l-0.4-0.1
			c-0.4-0.2-1-0.2-1.4-0.4c0-0.2,0.4-1.1,0.5-1.3c0-0.1,0,0,0-0.1c0-0.1,0,0,0-0.1L6.9,67c0.3-0.6,0.5-1.4,0.7-2l0.4-1.3
			c0-0.1,0,0,0.1-0.2c0.2-0.8,0.1,0,0.1-1.5c0-0.2,0,0-0.1-0.2l-0.9-1.9c0,0,0,0,0,0L6,56.9c0,0,0,0,0,0c-0.2-0.4-0.4-0.9-0.6-1.3
			l-2.7-6.4c0-0.1,0-0.1-0.1-0.2l-0.1-0.3c0-0.1-0.1-0.2-0.1-0.3c0-0.1,0-0.1-0.1-0.1c-0.2-0.4-0.2-0.7-0.4-1l-0.2-0.5
			c0-0.1-0.1-0.2-0.1-0.3L1.6,46c0,0,0,0,0,0l-0.1-0.6c-0.1-0.2-0.1-0.1-0.1-0.3c-0.1-0.7-0.1-1.6,0-2.3c0-0.1,0-0.1,0.1-0.3
			c0.1-0.3,0.2-0.6,0.3-1l0.4-1.1c0,0,0,0,0,0l0-0.1c0,0,0-0.1,0-0.1l1.1-3c0,0,0,0,0,0l0-0.1c0.1-0.2-0.1,0.2,0-0.1
			c0,0,0-0.1,0-0.1l0.4-1c0.1-0.1,0-0.2,0.1-0.3l0.2-0.6c0-0.1,0-0.1,0-0.2L4.5,34c0.1-0.2,0.1-0.1,0.1-0.3l0.7-1.8
			c0.1-0.1,0,0,0.1-0.1l1.1-3c0.1-0.3,0.2-0.7,0.3-1l0-0.1L7,26.9c0.1-0.1,0.1-0.2,0.1-0.3l0.1-0.3c0.1-0.2,0.2-0.5,0.3-0.8
			c0.1-0.1,0.1-0.2,0.3-0.3C8,25,8,25,8.1,24.9c0.3-0.2,0.6-0.3,0.9-0.3l0.6-0.1c0.2,0,0,0,0.1,0.1c0.1,0,0.1,0,0.2,0.1
			c0.3,0.1,0.6,0.2,0.9,0.4c0,0,0,0,0.1,0c0.1,0.1,0,0,0.1,0.1c0.1,0.1,0.1,0.1,0.1,0.1C11.3,25.6,11.5,25.9,11.5,26.3L11.5,26.3z"
			/>
	</g>
</g>
</svg>
