<?xml version="1.0" encoding="utf-8"?>
<!-- Generator: Adobe Illustrator 23.0.1, SVG Export Plug-In . SVG Version: 6.00 Build 0)  -->
<svg version="1.1" id="Layer_1" xmlns="http://www.w3.org/2000/svg" xmlns:xlink="http://www.w3.org/1999/xlink" x="0px" y="0px"
	 viewBox="0 0 39.8 64" style="enable-background:new 0 0 39.8 64;" xml:space="preserve">
<style type="text/css">
	.st0{fill-rule:evenodd;clip-rule:evenodd;fill:none;stroke:#00C1A3;stroke-width:0.75;stroke-miterlimit:10;}
	.st1{fill:#FFFFFF;stroke:#0066FF;stroke-width:0.75;stroke-linecap:round;stroke-linejoin:round;stroke-miterlimit:10;}
	.st2{fill:none;stroke:#0066FF;stroke-width:0.75;stroke-linecap:round;stroke-linejoin:round;stroke-miterlimit:10;}
	.st3{fill:#FFFFFF;stroke:#0066FF;stroke-width:0.75;stroke-miterlimit:10;}
	.st4{fill:none;stroke:#0066FF;stroke-width:0.75;stroke-miterlimit:10;}
	.st5{fill:none;stroke:#00C1A3;stroke-width:0.75;stroke-miterlimit:10;}
	.st6{fill:none;stroke:#FF25F3;stroke-width:0.75;stroke-miterlimit:10;}
	.st7{fill:none;stroke:#FF25F3;stroke-width:0.75;stroke-linecap:round;stroke-linejoin:round;stroke-miterlimit:10;}
	.st8{fill-rule:evenodd;clip-rule:evenodd;fill:none;stroke:#0066FF;stroke-width:0.75;stroke-miterlimit:10;}
	.st9{clip-path:url(#SVGID_2_);fill-rule:evenodd;clip-rule:evenodd;fill:#FFFFFF;}
	.st10{fill-rule:evenodd;clip-rule:evenodd;fill:#FCFDFF;}
	.st11{fill-rule:evenodd;clip-rule:evenodd;fill:#FFFFFF;}
	.st12{fill-rule:evenodd;clip-rule:evenodd;fill:#3D6A9D;}
	.st13{fill:#FFFFFF;}
	.st14{fill:#0066FF;}
	.st15{fill-rule:evenodd;clip-rule:evenodd;fill:#FFFFFF;stroke:#0066FF;stroke-width:0.75;stroke-miterlimit:10;}
	.st16{fill-rule:evenodd;clip-rule:evenodd;fill:#FFFFFF;stroke:#44E0A0;stroke-width:0.75;stroke-miterlimit:10;}
	.st17{fill-rule:evenodd;clip-rule:evenodd;fill:#FFFFFF;stroke:#FF25F3;stroke-width:0.75;stroke-miterlimit:10;}
	.st18{fill:none;stroke:#FFFFFF;stroke-width:2.8774;stroke-miterlimit:10;}
	
		.st19{fill-rule:evenodd;clip-rule:evenodd;fill:none;stroke:#FF25F3;stroke-width:0.75;stroke-linecap:round;stroke-linejoin:round;stroke-miterlimit:10;}
	.st20{fill-rule:evenodd;clip-rule:evenodd;fill:#FFFFFF;stroke:#FFFFFF;stroke-width:0.7194;stroke-miterlimit:10;}
	.st21{fill:none;stroke:#FFFFFF;stroke-width:0.7194;stroke-miterlimit:10;}
	.st22{fill:none;stroke:#44E0A0;stroke-width:0.75;stroke-linecap:round;stroke-linejoin:round;stroke-miterlimit:10;}
	.st23{fill-rule:evenodd;clip-rule:evenodd;fill:#FFFFFF;stroke:#00C1A3;stroke-width:0.75;stroke-miterlimit:10;}
	.st24{fill:none;stroke:#0066FF;stroke-width:0.75;stroke-linecap:round;stroke-miterlimit:10;}
	.st25{fill:#FFFFFF;stroke:#00C1A3;stroke-width:0.75;stroke-miterlimit:10;}
	.st26{clip-path:url(#SVGID_4_);}
	
		.st27{fill-rule:evenodd;clip-rule:evenodd;fill:none;stroke:#0066FF;stroke-width:0.75;stroke-linecap:round;stroke-miterlimit:10;}
	.st28{fill:#FFFFFF;stroke:#FF25F3;stroke-width:0.75;stroke-miterlimit:10;}
	.st29{fill:#FFFFFF;stroke:#FF25F3;stroke-width:0.75;stroke-linecap:round;stroke-linejoin:round;stroke-miterlimit:10;}
	.st30{fill:none;stroke:#00FA9B;stroke-width:0.75;stroke-miterlimit:10;}
	.st31{fill:#87D73F;}
	.st32{fill:#3DED98;}
</style>
<circle class="st3" cx="9.8" cy="2.4" r="1.6"/>
<circle class="st3" cx="7.9" cy="4.8" r="1.6"/>
<circle class="st3" cx="12.1" cy="4.3" r="1.6"/>
<circle class="st3" cx="9.9" cy="5.4" r="1.6"/>
<circle class="st3" cx="12.1" cy="7.3" r="1.6"/>
<circle class="st3" cx="9.4" cy="8.5" r="1.6"/>
<circle class="st3" cx="6.7" cy="10.4" r="1.6"/>
<circle class="st3" cx="9" cy="11.3" r="1.6"/>
<circle class="st3" cx="12.1" cy="10.6" r="1.6"/>
<circle class="st3" cx="13.7" cy="9.2" r="1.6"/>
<circle class="st3" cx="13.7" cy="13.2" r="1.6"/>
<circle class="st3" cx="11.2" cy="13.2" r="1.6"/>
<circle class="st3" cx="8.7" cy="14.1" r="1.6"/>
<circle class="st3" cx="6.7" cy="13.7" r="1.6"/>
<circle class="st3" cx="6.3" cy="17" r="1.6"/>
<circle class="st3" cx="9.4" cy="17.2" r="1.6"/>
<circle class="st3" cx="7.7" cy="19.5" r="1.6"/>
<circle class="st3" cx="10.3" cy="20.4" r="1.6"/>
<circle class="st3" cx="11.9" cy="16.1" r="1.6"/>
<circle class="st3" cx="14.8" cy="16.6" r="1.6"/>
<circle class="st3" cx="15.3" cy="21" r="1.6"/>
<circle class="st3" cx="12.8" cy="22.4" r="1.6"/>
<circle class="st3" cx="10.1" cy="23.5" r="1.6"/>
<circle class="st3" cx="7.5" cy="22.6" r="1.6"/>
<circle class="st3" cx="4.7" cy="20.2" r="1.6"/>
<circle class="st3" cx="4.3" cy="23.5" r="1.6"/>
<circle class="st3" cx="6.7" cy="25.3" r="1.6"/>
<circle class="st3" cx="9.3" cy="26.5" r="1.6"/>
<circle class="st3" cx="6.7" cy="28.4" r="1.6"/>
<circle class="st3" cx="9.3" cy="29.5" r="1.6"/>
<circle class="st3" cx="14.6" cy="27.6" r="1.6"/>
<circle class="st3" cx="14" cy="30.5" r="1.6"/>
<circle class="st3" cx="11.2" cy="31.6" r="1.6"/>
<circle class="st3" cx="8.2" cy="32.4" r="1.6"/>
<circle class="st3" cx="9.3" cy="37.2" r="1.6"/>
<circle class="st3" cx="5.1" cy="37" r="1.6"/>
<circle class="st3" cx="7.2" cy="38.6" r="1.6"/>
<circle class="st3" cx="12.1" cy="37.2" r="1.6"/>
<circle class="st3" cx="22" cy="48.9" r="1.6"/>
<circle class="st3" cx="26.5" cy="48.3" r="1.6"/>
<circle class="st3" cx="21.8" cy="51.4" r="1.6"/>
<circle class="st3" cx="17.7" cy="50.4" r="1.6"/>
<circle class="st3" cx="26.5" cy="51.2" r="1.6"/>
<circle class="st25" cx="33.6" cy="49.8" r="1.6"/>
<circle class="st3" cx="30.9" cy="52.3" r="1.6"/>
<circle class="st3" cx="24.9" cy="54.3" r="1.6"/>
<circle class="st3" cx="18.7" cy="55.9" r="1.6"/>
<circle class="st3" cx="22.6" cy="56.8" r="1.6"/>
<circle class="st28" cx="28.1" cy="55.2" r="1.6"/>
<circle class="st3" cx="33.2" cy="54.3" r="1.6"/>
<circle class="st3" cx="37.2" cy="52.3" r="1.6"/>
<circle class="st3" cx="13.2" cy="33.9" r="1.6"/>
<circle class="st3" cx="7.3" cy="35" r="1.6"/>
<circle class="st3" cx="4.6" cy="33.9" r="1.6"/>
<circle class="st3" cx="2.8" cy="31" r="1.6"/>
<circle class="st3" cx="5.9" cy="31" r="1.6"/>
<circle class="st3" cx="4.3" cy="28.4" r="1.6"/>
<circle class="st3" cx="11.7" cy="28.4" r="1.6"/>
<circle class="st3" cx="12.1" cy="25.4" r="1.6"/>
<circle class="st3" cx="15" cy="24.5" r="1.6"/>
<circle class="st25" cx="7.2" cy="7.6" r="1.6"/>
<line class="st4" x1="8.1" y1="40.2" x2="5.6" y2="63.1"/>
<line class="st4" x1="6.9" y1="40.2" x2="4.3" y2="63.2"/>
<circle class="st28" cx="12.8" cy="19.2" r="1.6"/>
<circle class="st28" cx="10.3" cy="34.7" r="1.6"/>
<circle class="st28" cx="3.8" cy="26" r="1.6"/>
</svg>
