<?xml version="1.0" encoding="utf-8"?>
<!-- Generator: Adobe Illustrator 23.0.1, SVG Export Plug-In . SVG Version: 6.00 Build 0)  -->
<svg version="1.1" id="Layer_1" xmlns="http://www.w3.org/2000/svg" xmlns:xlink="http://www.w3.org/1999/xlink" x="0px" y="0px"
	 viewBox="0 0 51.7 56.1" style="enable-background:new 0 0 51.7 56.1;" xml:space="preserve">
<style type="text/css">
	.st0{fill-rule:evenodd;clip-rule:evenodd;fill:none;stroke:#00C1A3;stroke-width:0.75;stroke-miterlimit:10;}
	.st1{fill:#FFFFFF;stroke:#0066FF;stroke-width:0.75;stroke-linecap:round;stroke-linejoin:round;stroke-miterlimit:10;}
	.st2{fill:none;stroke:#0066FF;stroke-width:0.75;stroke-linecap:round;stroke-linejoin:round;stroke-miterlimit:10;}
	.st3{fill:#FFFFFF;stroke:#0066FF;stroke-width:0.75;stroke-miterlimit:10;}
	.st4{fill:none;stroke:#0066FF;stroke-width:0.75;stroke-miterlimit:10;}
	.st5{fill:none;stroke:#00C1A3;stroke-width:0.75;stroke-miterlimit:10;}
	.st6{fill:none;stroke:#FF25F3;stroke-width:0.75;stroke-miterlimit:10;}
	.st7{fill:none;stroke:#FF25F3;stroke-width:0.75;stroke-linecap:round;stroke-linejoin:round;stroke-miterlimit:10;}
	.st8{fill-rule:evenodd;clip-rule:evenodd;fill:none;stroke:#0066FF;stroke-width:0.75;stroke-miterlimit:10;}
	.st9{clip-path:url(#SVGID_2_);fill-rule:evenodd;clip-rule:evenodd;fill:#FFFFFF;}
	.st10{fill-rule:evenodd;clip-rule:evenodd;fill:#FCFDFF;}
	.st11{fill-rule:evenodd;clip-rule:evenodd;fill:#FFFFFF;}
	.st12{fill-rule:evenodd;clip-rule:evenodd;fill:#3D6A9D;}
	.st13{fill:#FFFFFF;}
	.st14{fill:#0066FF;}
	.st15{fill-rule:evenodd;clip-rule:evenodd;fill:#FFFFFF;stroke:#0066FF;stroke-width:0.75;stroke-miterlimit:10;}
	.st16{fill-rule:evenodd;clip-rule:evenodd;fill:#FFFFFF;stroke:#44E0A0;stroke-width:0.75;stroke-miterlimit:10;}
	.st17{fill-rule:evenodd;clip-rule:evenodd;fill:#FFFFFF;stroke:#FF25F3;stroke-width:0.75;stroke-miterlimit:10;}
	.st18{fill:none;stroke:#FFFFFF;stroke-width:2.8774;stroke-miterlimit:10;}
	
		.st19{fill-rule:evenodd;clip-rule:evenodd;fill:none;stroke:#FF25F3;stroke-width:0.75;stroke-linecap:round;stroke-linejoin:round;stroke-miterlimit:10;}
	.st20{fill-rule:evenodd;clip-rule:evenodd;fill:#FFFFFF;stroke:#FFFFFF;stroke-width:0.7194;stroke-miterlimit:10;}
	.st21{fill:none;stroke:#FFFFFF;stroke-width:0.7194;stroke-miterlimit:10;}
	.st22{fill:none;stroke:#44E0A0;stroke-width:0.75;stroke-linecap:round;stroke-linejoin:round;stroke-miterlimit:10;}
	.st23{fill-rule:evenodd;clip-rule:evenodd;fill:#FFFFFF;stroke:#00C1A3;stroke-width:0.75;stroke-miterlimit:10;}
	.st24{fill:none;stroke:#0066FF;stroke-width:0.75;stroke-linecap:round;stroke-miterlimit:10;}
	.st25{fill:#FFFFFF;stroke:#00C1A3;stroke-width:0.75;stroke-miterlimit:10;}
	.st26{clip-path:url(#SVGID_4_);}
	
		.st27{fill-rule:evenodd;clip-rule:evenodd;fill:none;stroke:#0066FF;stroke-width:0.75;stroke-linecap:round;stroke-miterlimit:10;}
	.st28{fill:#FFFFFF;stroke:#FF25F3;stroke-width:0.75;stroke-miterlimit:10;}
	.st29{fill:#FFFFFF;stroke:#FF25F3;stroke-width:0.75;stroke-linecap:round;stroke-linejoin:round;stroke-miterlimit:10;}
	.st30{fill:none;stroke:#00FA9B;stroke-width:0.75;stroke-miterlimit:10;}
	.st31{fill:#87D73F;}
	.st32{fill:#3DED98;}
</style>
<ellipse class="st28" cx="25.7" cy="25.5" rx="20.7" ry="24.7"/>
<path class="st1" d="M48.8,20.9c-0.7-1,2.3-2.2,1.8-3.6c-0.5-1.5-2.4-0.6-2.7-2.2c-0.3-1.6,1.3-2.3,0.4-3.3c-0.9-1-2.7-1.1-3-2
	C45,9,46.3,7.2,45.1,5.5c-0.4-0.6-1.9,0.4-2.9-0.5c-1-0.8,0.4-2.4-1.3-3.6c-1.6-1.3-2,0.3-3.4-0.2c-0.1,0-0.3-0.1-0.4-0.2l-9.4,33.6
	l-15-32.8C11.7,1.9,11,0.6,9.8,1.4c-1.5,1,0.7,2.5-0.4,3.9S7.2,4.8,6,6.8s0.8,2.6,0,3.9c-0.8,1.3-2.3,0.7-3.1,2.2
	c-0.8,1.5,1.1,1.9,0.7,3.4c-0.4,1.5-2.1-0.1-2.3,1.9c-0.2,2,1.3,2.9,1.2,4.3c-0.1,1.4-2,0.9-2,2.8s1.5,1.9,1.9,3.6
	c0.4,1.7-1.6,1.4-1.4,3.4s2.1,0.7,2.7,2.4c0.6,1.7-1.9,2.5-0.9,4.2c1,1.7,2.6,0.3,3.1,1.1c0.5,0.9-0.8,2.4-0.5,3.3s2.5,0.2,3.4,1.2
	c0.9,1-0.9,2.5,0.1,3.6c0.9,1.1,2.6-0.9,3.6,0c1.1,0.9,0,3,1,3.7c1,0.7,2.9-1,3.9-0.6s1.2,3.2,2.5,3.4c1.4,0.2,2.2-1.6,3.7-1.6
	c1.5,0,2.1,2.9,3.3,2.4c1.2-0.5,1.3-2,2.5-2.4c1.2-0.3,1.3,1.5,3,0.8c1.4-0.6,0.7-1.8,1.8-2.5c0.7-0.5,1.6,1,3,0.7
	c0.7-0.1,0.6-2,1.1-2.4c0.6-0.5,2.2-0.2,2.4-0.6c0.3-0.6-0.4-2.1,0.3-2.9c1.2-1.3,1.7,0.9,3-0.7c1.3-1.6-0.8-1.8,0-3.1
	c0.8-1.3,2.5,0.5,3.5-1.1c0.9-1.6-1.2-3-0.7-4.2c0.4-1.2,2.1,0.4,2.9-1.8c0.8-2.2-1.6-2.1-1.4-3.1c0.2-1,1.6-0.8,2.3-3
	c0.6-2.2-1.5-1.2-1.5-2.5c0-1.3,1.6-2.3,1.7-3.6C50.7,21.5,49.5,21.9,48.8,20.9z"/>
<path class="st2" d="M13.5,12.6c0,0-2.9,1.7-2.4,3.2s3.2,2.6,3.2,2.6"/>
<path class="st2" d="M8.7,19.7c-1.6,1.3-2.1,3.5-1.6,4.4c0.5,0.9,3.2,1.4,3.2,1.4"/>
<path class="st2" d="M17.4,21.5c0,0-3.2,1.6-1.6,4.9c1.2,2.5,4.5,1.8,4.5,1.8"/>
<path class="st2" d="M11.8,4.7c-1,1.3-1.9,2.6-1.6,3.9c0.5,1.8,3.7,1.7,3.7,1.7"/>
<path class="st2" d="M8.1,11.9c0,0-2,1.3-1.8,3.5c0.2,2.2,2.9,2,2.9,2"/>
<path class="st2" d="M21.9,31.2c-1.3,2.1-0.8,3.4,0,4.2c0.8,0.8,3.7,0,3.7,0"/>
<path class="st2" d="M14.3,31.2c0,0-1.6,1.3-0.6,3.3c1,2,4.4,1.2,4.4,1.2"/>
<path class="st25" d="M8.6,28.1c-1.7,1.9-2,3.9-1,4.7c1,0.8,3.4,0.7,3.4,0.7"/>
<path class="st2" d="M12,35.9c0,0-1.8,2.3-0.7,4.4c1.1,2,4.5,0.4,4.5,0.4"/>
<path class="st2" d="M40.2,8.2c0,0,2.3,0.2,1.5,3.3s-3.4,1.9-3.4,1.9"/>
<path class="st2" d="M36.6,18.4c0,0,2.7,2.3,1.6,4.2c-1.1,1.9-4,2.3-4,2.3"/>
<path class="st2" d="M43.3,15.2c0,0,1.6,1.5,1.1,3.2s-2.6,2.1-2.6,2.1"/>
<path class="st2" d="M40.4,24.8c0,0,2.4,2.3,1.2,4.6c-1.6,3.3-3.9,2-3.9,2"/>
<path class="st2" d="M34.2,28.1c0,0,1.3,2.1,0.6,4c-0.6,1.9-3.1,1.4-3.1,1.4"/>
<path class="st2" d="M46.3,22.6c0,0,1,2.1,0.2,3.8c-0.9,1.7-1.9,1.7-1.9,1.7"/>
<path class="st25" d="M43.1,33.6c0,0,1.9,1.1,1.1,3.5c-0.8,2.4-3.9,2.9-3.9,2.9"/>
<path class="st2" d="M37.4,35.7c0,0,1.5,2.7,0,3.7s-4,0-4,0"/>
<path class="st2" d="M31.8,37.8c0,0-0.8,3.8-2.9,3.9c-2.1,0.1-3.8-3.4-3.8-3.4"/>
<path class="st2" d="M19.8,38.6c0,0-1.1,1.9,0.4,4c1.4,2.1,4.6,0,4.6,0"/>
<path class="st2" d="M34.4,43.5c0,0,0.4,2.1-1.5,2.9s-3.7-2.1-3.7-2.1"/>
<path class="st2" d="M39.1,43c0,0,1.1,3.6-0.5,4c-1.6,0.3-2.8-0.8-2.8-0.8"/>
<path class="st2" d="M23.7,47.5c0,0,1.2,2.6,2.5,2.6s3.3-1.3,3.3-1.3"/>
<path class="st2" d="M16.8,41.7c0,0-2.2,2.2-0.2,4.4c1.9,2.3,4.5-0.1,4.5-0.1"/>
</svg>
