<?xml version="1.0" encoding="utf-8"?>
<!-- Generator: Adobe Illustrator 23.0.1, SVG Export Plug-In . SVG Version: 6.00 Build 0)  -->
<svg version="1.1" id="Layer_1" xmlns="http://www.w3.org/2000/svg" xmlns:xlink="http://www.w3.org/1999/xlink" x="0px" y="0px"
	 viewBox="0 0 40.2 70.3" style="enable-background:new 0 0 40.2 70.3;" xml:space="preserve">
<style type="text/css">
	.st0{fill-rule:evenodd;clip-rule:evenodd;fill:none;stroke:#00C1A3;stroke-width:0.75;stroke-miterlimit:10;}
	.st1{fill:#FFFFFF;stroke:#0066FF;stroke-width:0.75;stroke-linecap:round;stroke-linejoin:round;stroke-miterlimit:10;}
	.st2{fill:none;stroke:#0066FF;stroke-width:0.75;stroke-linecap:round;stroke-linejoin:round;stroke-miterlimit:10;}
	.st3{fill:#FFFFFF;stroke:#0066FF;stroke-width:0.75;stroke-miterlimit:10;}
	.st4{fill:none;stroke:#0066FF;stroke-width:0.75;stroke-miterlimit:10;}
	.st5{fill:none;stroke:#00C1A3;stroke-width:0.75;stroke-miterlimit:10;}
	.st6{fill:none;stroke:#FF25F3;stroke-width:0.75;stroke-miterlimit:10;}
	.st7{fill:none;stroke:#FF25F3;stroke-width:0.75;stroke-linecap:round;stroke-linejoin:round;stroke-miterlimit:10;}
	.st8{fill-rule:evenodd;clip-rule:evenodd;fill:none;stroke:#0066FF;stroke-width:0.75;stroke-miterlimit:10;}
	.st9{clip-path:url(#SVGID_2_);fill-rule:evenodd;clip-rule:evenodd;fill:#FFFFFF;}
	.st10{fill-rule:evenodd;clip-rule:evenodd;fill:#FCFDFF;}
	.st11{fill-rule:evenodd;clip-rule:evenodd;fill:#FFFFFF;}
	.st12{fill-rule:evenodd;clip-rule:evenodd;fill:#3D6A9D;}
	.st13{fill:#FFFFFF;}
	.st14{fill:#0066FF;}
	.st15{fill-rule:evenodd;clip-rule:evenodd;fill:#FFFFFF;stroke:#0066FF;stroke-width:0.75;stroke-miterlimit:10;}
	.st16{fill-rule:evenodd;clip-rule:evenodd;fill:#FFFFFF;stroke:#44E0A0;stroke-width:0.75;stroke-miterlimit:10;}
	.st17{fill-rule:evenodd;clip-rule:evenodd;fill:#FFFFFF;stroke:#FF25F3;stroke-width:0.75;stroke-miterlimit:10;}
	.st18{fill:none;stroke:#FFFFFF;stroke-width:2.8774;stroke-miterlimit:10;}
	
		.st19{fill-rule:evenodd;clip-rule:evenodd;fill:none;stroke:#FF25F3;stroke-width:0.75;stroke-linecap:round;stroke-linejoin:round;stroke-miterlimit:10;}
	.st20{fill-rule:evenodd;clip-rule:evenodd;fill:#FFFFFF;stroke:#FFFFFF;stroke-width:0.7194;stroke-miterlimit:10;}
	.st21{fill:none;stroke:#FFFFFF;stroke-width:0.7194;stroke-miterlimit:10;}
	.st22{fill:none;stroke:#44E0A0;stroke-width:0.75;stroke-linecap:round;stroke-linejoin:round;stroke-miterlimit:10;}
	.st23{fill-rule:evenodd;clip-rule:evenodd;fill:#FFFFFF;stroke:#00C1A3;stroke-width:0.75;stroke-miterlimit:10;}
	.st24{fill:none;stroke:#0066FF;stroke-width:0.75;stroke-linecap:round;stroke-miterlimit:10;}
	.st25{fill:#FFFFFF;stroke:#00C1A3;stroke-width:0.75;stroke-miterlimit:10;}
	.st26{clip-path:url(#SVGID_4_);}
	
		.st27{fill-rule:evenodd;clip-rule:evenodd;fill:none;stroke:#0066FF;stroke-width:0.75;stroke-linecap:round;stroke-miterlimit:10;}
	.st28{fill:#FFFFFF;stroke:#FF25F3;stroke-width:0.75;stroke-miterlimit:10;}
	.st29{fill:#FFFFFF;stroke:#FF25F3;stroke-width:0.75;stroke-linecap:round;stroke-linejoin:round;stroke-miterlimit:10;}
	.st30{fill:none;stroke:#00FA9B;stroke-width:0.75;stroke-miterlimit:10;}
	.st31{fill:#87D73F;}
	.st32{fill:#3DED98;}
</style>
<path class="st4" d="M11.5,9.4h-0.3c-0.6,0-1.1-0.5-1.1-1.1V8c0-0.6,0.5-1.1,1.1-1.1h0.3c0.6,0,1.1,0.5,1.1,1.1v0.3
	C12.6,8.9,12.1,9.4,11.5,9.4z"/>
<path class="st4" d="M13.8,9.4h-0.3c-0.5,0-0.9-0.4-0.9-0.9V7.8c0-0.5,0.4-0.9,0.9-0.9h0.3c0.5,0,0.9,0.4,0.9,0.9v0.7
	C14.7,9,14.3,9.4,13.8,9.4z"/>
<path class="st4" d="M9.1,9.4H8.8C8.3,9.4,7.9,9,7.9,8.5V7.8c0-0.5,0.4-0.9,0.9-0.9h0.3c0.5,0,0.9,0.4,0.9,0.9v0.7
	C10,9,9.6,9.4,9.1,9.4z"/>
<path class="st4" d="M7,9.4H6.7C6.3,9.4,5.9,9,5.9,8.6V7.7c0-0.5,0.4-0.8,0.8-0.8H7c0.5,0,0.8,0.4,0.8,0.8v0.9C7.8,9,7.4,9.4,7,9.4z
	"/>
<path class="st4" d="M15.9,9.4h-0.2c-0.5,0-0.8-0.4-0.8-0.8V7.7c0-0.5,0.4-0.8,0.8-0.8h0.2c0.5,0,0.8,0.4,0.8,0.8v0.9
	C16.7,9,16.3,9.4,15.9,9.4z"/>
<path class="st4" d="M11.6,6.7H11c-0.5,0-0.9-0.4-0.9-0.9V5.6c0-0.5,0.4-0.9,0.9-0.9h0.5c0.5,0,0.9,0.4,0.9,0.9v0.3
	C12.5,6.3,12.1,6.7,11.6,6.7z"/>
<path class="st4" d="M13.6,6.7h-0.2c-0.5,0-0.8-0.4-0.8-0.8l0-0.4c0-0.5,0.4-0.8,0.8-0.8h0.2c0.5,0,0.8,0.4,0.8,0.8v0.4
	C14.4,6.4,14,6.7,13.6,6.7z"/>
<path class="st4" d="M9.4,6.7H9.1c-0.5,0-0.8-0.4-0.8-0.8V5.6c0-0.5,0.4-0.8,0.8-0.8h0.2c0.5,0,0.8,0.4,0.8,0.8v0.4
	C10.2,6.4,9.8,6.7,9.4,6.7z"/>
<path class="st4" d="M7.4,6.7H7.2C6.8,6.7,6.5,6.4,6.5,6V5.5c0-0.4,0.3-0.7,0.7-0.7h0.2c0.4,0,0.7,0.3,0.7,0.7V6
	C8.2,6.4,7.8,6.7,7.4,6.7z"/>
<path class="st4" d="M15.4,6.7h-0.2c-0.4,0-0.7-0.3-0.7-0.7V5.5c0-0.4,0.3-0.7,0.7-0.7h0.2c0.4,0,0.7,0.3,0.7,0.7V6
	C16.2,6.4,15.9,6.7,15.4,6.7z"/>
<path class="st4" d="M11.4,12.3h-0.4c-0.7,0-1.2-0.5-1.2-1.2v-0.5c0-0.7,0.5-1.2,1.2-1.2h0.4c0.7,0,1.2,0.5,1.2,1.2v0.5
	C12.7,11.8,12.1,12.3,11.4,12.3z"/>
<path class="st4" d="M8.9,12.3H8.6c-0.6,0-1-0.4-1-1v-0.9c0-0.6,0.4-1,1-1h0.3c0.6,0,1,0.4,1,1l0,0.9C9.9,11.9,9.4,12.3,8.9,12.3z"
	/>
<path class="st4" d="M6.5,12.3H6.2c-0.5,0-0.9-0.4-0.9-0.9v-1.1c0-0.5,0.4-0.9,0.9-0.9h0.3c0.5,0,0.9,0.4,0.9,0.9v1.1
	C7.4,11.9,7,12.3,6.5,12.3z"/>
<path class="st4" d="M16.3,12.3H16c-0.5,0-0.9-0.4-0.9-0.9v-1.1c0-0.5,0.4-0.9,0.9-0.9h0.3c0.5,0,0.9,0.4,0.9,0.9v1.1
	C17.2,11.9,16.8,12.3,16.3,12.3z"/>
<path class="st4" d="M11.5,15.7h-0.4c-0.7,0-1.3-0.6-1.3-1.3v-0.7c0-0.7,0.6-1.3,1.3-1.3h0.4c0.7,0,1.3,0.6,1.3,1.3v0.7
	C12.8,15.1,12.2,15.7,11.5,15.7z"/>
<path class="st4" d="M14.4,15.7H14c-0.6,0-1.1-0.5-1.1-1.1v-1.2c0-0.6,0.5-1.1,1.1-1.1h0.3c0.6,0,1.1,0.5,1.1,1.1v1.2
	C15.5,15.2,15,15.7,14.4,15.7z"/>
<path class="st4" d="M6.1,15.7H5.8c-0.5,0-1-0.4-1-1v-1.4c0-0.5,0.4-1,1-1h0.3c0.5,0,1,0.4,1,1v1.4C7.1,15.2,6.6,15.7,6.1,15.7z"/>
<path class="st4" d="M16.9,15.7h-0.3c-0.5,0-1-0.4-1-1v-1.4c0-0.5,0.4-1,1-1h0.3c0.5,0,1,0.4,1,1v1.4C17.9,15.2,17.4,15.7,16.9,15.7
	z"/>
<path class="st4" d="M11.5,19.1h-0.4c-0.8,0-1.4-0.6-1.4-1.4v-0.6c0-0.8,0.6-1.4,1.4-1.4h0.4c0.8,0,1.4,0.6,1.4,1.4v0.6
	C12.9,18.4,12.3,19.1,11.5,19.1z"/>
<path class="st4" d="M14.5,19.1h-0.3c-0.6,0-1.1-0.5-1.1-1.1v-1.1c0-0.6,0.5-1.1,1.1-1.1h0.3c0.6,0,1.1,0.5,1.1,1.1v1.1
	C15.6,18.6,15.1,19.1,14.5,19.1z"/>
<path class="st4" d="M8.6,19.1H8.2c-0.6,0-1.1-0.5-1.1-1.1v-1.1c0-0.6,0.5-1.1,1.1-1.1h0.3c0.6,0,1.1,0.5,1.1,1.1v1.1
	C9.7,18.6,9.2,19.1,8.6,19.1z"/>
<path class="st4" d="M5.9,19.1H5.5c-0.6,0-1-0.5-1-1v-1.3c0-0.6,0.5-1,1-1h0.3c0.6,0,1,0.5,1,1V18C6.9,18.6,6.4,19.1,5.9,19.1z"/>
<path class="st4" d="M17,19.1h-0.3c-0.6,0-1-0.5-1-1v-1.3c0-0.6,0.5-1,1-1H17c0.6,0,1,0.5,1,1V18C18.1,18.6,17.6,19.1,17,19.1z"/>
<path class="st4" d="M14.7,22.4h-0.4c-0.7,0-1.2-0.5-1.2-1.2v-0.9c0-0.7,0.5-1.2,1.2-1.2h0.4c0.7,0,1.2,0.5,1.2,1.2v0.9
	C15.9,21.9,15.3,22.4,14.7,22.4z"/>
<path class="st4" d="M8.4,22.4H8c-0.7,0-1.2-0.5-1.2-1.2v-0.9c0-0.7,0.5-1.2,1.2-1.2h0.4c0.7,0,1.2,0.5,1.2,1.2v0.9
	C9.6,21.9,9.1,22.4,8.4,22.4z"/>
<path class="st4" d="M5.5,22.4H5.2c-0.6,0-1.1-0.5-1.1-1.1v-1.2c0-0.6,0.5-1.1,1.1-1.1h0.3c0.6,0,1.1,0.5,1.1,1.1v1.2
	C6.6,21.9,6.1,22.4,5.5,22.4z"/>
<path class="st4" d="M17.4,22.4h-0.3c-0.6,0-1.1-0.5-1.1-1.1v-1.2c0-0.6,0.5-1.1,1.1-1.1h0.3c0.6,0,1.1,0.5,1.1,1.1v1.2
	C18.5,21.9,18,22.4,17.4,22.4z"/>
<path class="st4" d="M11.5,25.8h-0.4c-0.8,0-1.5-0.7-1.5-1.5v-0.4c0-0.8,0.7-1.5,1.5-1.5h0.4c0.8,0,1.5,0.7,1.5,1.5v0.4
	C13,25.2,12.3,25.8,11.5,25.8z"/>
<path class="st4" d="M14.6,25.8h-0.4c-0.7,0-1.2-0.5-1.2-1.2v-0.9c0-0.7,0.5-1.2,1.2-1.2h0.4c0.7,0,1.2,0.5,1.2,1.2v0.9
	C15.9,25.3,15.3,25.8,14.6,25.8z"/>
<path class="st4" d="M8.4,25.8H8c-0.7,0-1.2-0.5-1.2-1.2v-0.9c0-0.7,0.5-1.2,1.2-1.2h0.4c0.7,0,1.2,0.5,1.2,1.2v0.9
	C9.6,25.3,9.1,25.8,8.4,25.8z"/>
<path class="st4" d="M5.5,25.8H5.2c-0.6,0-1.1-0.5-1.1-1.1v-1.2c0-0.6,0.5-1.1,1.1-1.1h0.3c0.6,0,1.1,0.5,1.1,1.1v1.2
	C6.6,25.3,6.1,25.8,5.5,25.8z"/>
<path class="st4" d="M17.4,25.8h-0.3c-0.6,0-1.1-0.5-1.1-1.1v-1.2c0-0.6,0.5-1.1,1.1-1.1h0.3c0.6,0,1.1,0.5,1.1,1.1v1.2
	C18.5,25.3,18,25.8,17.4,25.8z"/>
<path class="st4" d="M11.5,29.2H11c-0.8,0-1.5-0.7-1.5-1.5v-0.4c0-0.8,0.7-1.5,1.5-1.5h0.4c0.8,0,1.5,0.7,1.5,1.5v0.4
	C13,28.5,12.3,29.2,11.5,29.2z"/>
<path class="st4" d="M14.6,29.2h-0.4c-0.7,0-1.2-0.5-1.2-1.2V27c0-0.7,0.5-1.2,1.2-1.2h0.4c0.7,0,1.2,0.5,1.2,1.2V28
	C15.8,28.6,15.3,29.2,14.6,29.2z"/>
<path class="st4" d="M8.4,29.2H8c-0.7,0-1.2-0.5-1.2-1.2V27c0-0.7,0.5-1.2,1.2-1.2h0.4c0.7,0,1.2,0.5,1.2,1.2V28
	C9.6,28.6,9,29.2,8.4,29.2z"/>
<path class="st4" d="M5.5,29.2H5.2c-0.6,0-1.1-0.5-1.1-1.1v-1.2c0-0.6,0.5-1.1,1.1-1.1h0.3c0.6,0,1.1,0.5,1.1,1.1v1.2
	C6.6,28.7,6.1,29.2,5.5,29.2z"/>
<path class="st4" d="M17.4,29.2H17c-0.6,0-1.1-0.5-1.1-1.1v-1.2c0-0.6,0.5-1.1,1.1-1.1h0.3c0.6,0,1.1,0.5,1.1,1.1v1.2
	C18.5,28.7,18,29.2,17.4,29.2z"/>
<path class="st4" d="M11.5,32.5H11c-0.8,0-1.5-0.7-1.5-1.5v-0.4c0-0.8,0.7-1.5,1.5-1.5h0.4c0.8,0,1.5,0.7,1.5,1.5v0.4
	C12.9,31.9,12.3,32.5,11.5,32.5z"/>
<path class="st4" d="M14.6,32.5h-0.4c-0.7,0-1.2-0.5-1.2-1.2v-0.9c0-0.7,0.5-1.2,1.2-1.2h0.4c0.7,0,1.2,0.5,1.2,1.2v0.9
	C15.8,32,15.3,32.5,14.6,32.5z"/>
<path class="st4" d="M5.5,32.5H5.2c-0.6,0-1.1-0.5-1.1-1.1l0-1.2c0-0.6,0.5-1.1,1.1-1.1h0.3c0.6,0,1.1,0.5,1.1,1.1v1.2
	C6.6,32.1,6.1,32.5,5.5,32.5z"/>
<path class="st4" d="M17.4,32.5H17c-0.6,0-1.1-0.5-1.1-1.1v-1.2c0-0.6,0.5-1.1,1.1-1.1h0.3c0.6,0,1.1,0.5,1.1,1.1v1.2
	C18.5,32.1,18,32.5,17.4,32.5z"/>
<path class="st4" d="M11.5,35.9H11c-0.8,0-1.5-0.7-1.5-1.5V34c0-0.8,0.7-1.5,1.5-1.5h0.4c0.8,0,1.5,0.7,1.5,1.5v0.4
	C12.9,35.3,12.3,35.9,11.5,35.9z"/>
<path class="st4" d="M14.6,35.9h-0.4c-0.7,0-1.2-0.5-1.2-1.2v-0.9c0-0.7,0.5-1.2,1.2-1.2h0.4c0.7,0,1.2,0.5,1.2,1.2v0.9
	C15.8,35.4,15.3,35.9,14.6,35.9z"/>
<path class="st4" d="M8.4,35.9H8c-0.7,0-1.2-0.5-1.2-1.2v-0.9c0-0.7,0.5-1.2,1.2-1.2h0.4c0.7,0,1.2,0.5,1.2,1.2v0.9
	C9.6,35.4,9,35.9,8.4,35.9z"/>
<path class="st4" d="M5.5,35.9H5.2c-0.6,0-1.1-0.5-1.1-1.1v-1.2c0-0.6,0.5-1.1,1.1-1.1h0.3c0.6,0,1.1,0.5,1.1,1.1v1.2
	C6.6,35.4,6.1,35.9,5.5,35.9z"/>
<path class="st4" d="M17.3,35.9H17c-0.6,0-1.1-0.5-1.1-1.1v-1.2c0-0.6,0.5-1.1,1.1-1.1h0.3c0.6,0,1.1,0.5,1.1,1.1v1.2
	C18.4,35.4,18,35.9,17.3,35.9z"/>
<path class="st4" d="M11.5,39.3H11c-0.8,0-1.5-0.7-1.5-1.5v-0.4c0-0.8,0.7-1.5,1.5-1.5h0.4c0.8,0,1.5,0.7,1.5,1.5v0.4
	C12.9,38.6,12.3,39.3,11.5,39.3z"/>
<path class="st4" d="M14.6,39.3h-0.4c-0.7,0-1.2-0.5-1.2-1.2v-0.9c0-0.7,0.5-1.2,1.2-1.2h0.4c0.7,0,1.2,0.5,1.2,1.2v0.9
	C15.8,38.7,15.3,39.3,14.6,39.3z"/>
<path class="st4" d="M8.3,39.3H8c-0.7,0-1.2-0.5-1.2-1.2l0-0.9c0-0.7,0.5-1.2,1.2-1.2h0.4c0.7,0,1.2,0.5,1.2,1.2v0.9
	C9.6,38.7,9,39.3,8.3,39.3z"/>
<path class="st4" d="M5.5,39.3H5.2c-0.6,0-1.1-0.5-1.1-1.1V37c0-0.6,0.5-1.1,1.1-1.1h0.3c0.6,0,1.1,0.5,1.1,1.1v1.2
	C6.6,38.8,6.1,39.3,5.5,39.3z"/>
<path class="st4" d="M17.3,39.3H17c-0.6,0-1.1-0.5-1.1-1.1V37c0-0.6,0.5-1.1,1.1-1.1h0.3c0.6,0,1.1,0.5,1.1,1.1v1.2
	C18.4,38.8,17.9,39.3,17.3,39.3z"/>
<path class="st4" d="M11.5,42.7h-0.4c-0.8,0-1.4-0.6-1.4-1.4v-0.6c0-0.8,0.6-1.4,1.4-1.4h0.4c0.8,0,1.4,0.6,1.4,1.4v0.6
	C12.8,42,12.2,42.7,11.5,42.7z"/>
<path class="st4" d="M14.4,42.7h-0.3c-0.6,0-1.1-0.5-1.1-1.1v-1.1c0-0.6,0.5-1.1,1.1-1.1h0.3c0.6,0,1.1,0.5,1.1,1.1v1.1
	C15.5,42.2,15,42.7,14.4,42.7z"/>
<path class="st4" d="M8.6,42.7H8.2c-0.6,0-1.1-0.5-1.1-1.1v-1.1c0-0.6,0.5-1.1,1.1-1.1h0.3c0.6,0,1.1,0.5,1.1,1.1v1.1
	C9.7,42.2,9.2,42.7,8.6,42.7z"/>
<path class="st4" d="M5.9,42.7H5.6c-0.6,0-1-0.5-1-1v-1.3c0-0.6,0.5-1,1-1h0.3c0.6,0,1,0.5,1,1v1.3C6.9,42.2,6.5,42.7,5.9,42.7z"/>
<path class="st4" d="M16.9,42.7h-0.3c-0.6,0-1-0.5-1-1v-1.3c0-0.6,0.5-1,1-1h0.3c0.6,0,1,0.5,1,1v1.3C18,42.2,17.5,42.7,16.9,42.7z"
	/>
<path class="st4" d="M11.4,46.2H11c-0.8,0-1.4-0.6-1.4-1.4v-0.7c0-0.8,0.6-1.4,1.4-1.4h0.4c0.8,0,1.4,0.6,1.4,1.4v0.7
	C12.8,45.6,12.2,46.2,11.4,46.2z"/>
<path class="st4" d="M14.4,46.2H14c-0.6,0-1.1-0.5-1.1-1.1V44c0-0.6,0.5-1.1,1.1-1.1h0.3c0.6,0,1.1,0.5,1.1,1.1v1.1
	C15.5,45.7,15,46.2,14.4,46.2z"/>
<path class="st4" d="M8.5,46.2H8.2c-0.6,0-1.1-0.5-1.1-1.1V44c0-0.6,0.5-1.1,1.1-1.1h0.3c0.6,0,1.1,0.5,1.1,1.1v1.1
	C9.7,45.7,9.2,46.2,8.5,46.2z"/>
<path class="st4" d="M5.9,46.2H5.6c-0.6,0-1-0.5-1-1v-1.4c0-0.6,0.5-1,1-1h0.3c0.6,0,1,0.5,1,1v1.4C6.9,45.8,6.4,46.2,5.9,46.2z"/>
<path class="st4" d="M16.9,46.2h-0.3c-0.6,0-1-0.5-1-1v-1.4c0-0.6,0.5-1,1-1h0.3c0.6,0,1,0.5,1,1v1.4C17.9,45.8,17.5,46.2,16.9,46.2
	z"/>
<path class="st4" d="M11.2,4.7h-0.2c-0.4,0-0.8-0.3-0.8-0.8V3.5c0-0.4,0.3-0.8,0.8-0.8h0.2c0.4,0,0.8,0.3,0.8,0.8V4
	C11.9,4.4,11.6,4.7,11.2,4.7z"/>
<path class="st4" d="M12.8,4.7h-0.2c-0.3,0-0.6-0.3-0.6-0.6V3.4c0-0.3,0.3-0.6,0.6-0.6h0.2c0.3,0,0.6,0.3,0.6,0.6v0.7
	C13.5,4.5,13.2,4.7,12.8,4.7z"/>
<path class="st4" d="M9.5,4.7H9.4C9,4.7,8.7,4.5,8.7,4.1V3.4C8.7,3,9,2.7,9.4,2.7h0.2c0.3,0,0.6,0.3,0.6,0.6v0.7
	C10.2,4.5,9.9,4.7,9.5,4.7z"/>
<path class="st4" d="M11.3,2.9h-0.5c-0.3,0-0.6-0.3-0.6-0.6V2.1c0-0.3,0.3-0.6,0.6-0.6h0.5c0.3,0,0.6,0.3,0.6,0.6v0.2
	C11.9,2.6,11.6,2.9,11.3,2.9z"/>
<path class="st4" d="M12.8,2.9h-0.2c-0.3,0-0.6-0.3-0.6-0.6l0-0.2c0-0.3,0.3-0.6,0.6-0.6h0.2c0.3,0,0.6,0.3,0.6,0.6v0.2
	C13.4,2.6,13.2,2.9,12.8,2.9z"/>
<path class="st4" d="M9.5,2.9H9.3C9,2.9,8.7,2.6,8.7,2.3V2.1c0-0.3,0.3-0.6,0.6-0.6h0.2c0.3,0,0.6,0.3,0.6,0.6v0.2
	C10.2,2.6,9.9,2.9,9.5,2.9z"/>
<path class="st4" d="M8.1,4.7H7.9c-0.3,0-0.6-0.3-0.6-0.6l0-0.9c0-0.3,0.3-0.6,0.6-0.6h0.2c0.3,0,0.6,0.3,0.6,0.6v0.9
	C8.6,4.5,8.4,4.7,8.1,4.7z"/>
<path class="st4" d="M14.3,4.7h-0.2c-0.3,0-0.6-0.3-0.6-0.6V3.3c0-0.3,0.3-0.6,0.6-0.6h0.2c0.3,0,0.6,0.3,0.6,0.6v0.9
	C14.8,4.5,14.6,4.7,14.3,4.7z"/>
<path class="st3" d="M1.6,24.6c0,0,8.4,16.8,9.7,22.7s-1.2,8.6-1.2,8.6s-4.3-0.9-7.5-8.6C-0.2,40.6,1.6,24.6,1.6,24.6z"/>
<path class="st3" d="M19.2,46.8c4-9.5,3.1-28.6,3.1-28.6s-5.7,11.4-7.7,15c-2.9,5.2-4.7,12.4-4.7,12.4s-1.3,8.3,0.2,10.3
	S15.2,56.3,19.2,46.8z"/>
<line class="st4" x1="9.8" y1="55.9" x2="9.8" y2="69.6"/>
<line class="st4" x1="11.7" y1="56.8" x2="11.7" y2="69.6"/>
<path class="st4" d="M31.8,53c0,0-2.7-0.8-3.3,0.5c-0.5,1.3-0.4,1.5-0.3,2.1c0.1,0.9,2.6,2.1,3.3,1.7s1.1-0.8,2.5-1.7
	c1.4-1,0.6-1.4,0.3-1.7S31.8,53,31.8,53z"/>
<path class="st4" d="M29.5,53.7c0,0,0.3,0.8,1.4,1.1c1.1,0.3,2.3-0.3,2.3-0.3"/>
<path class="st4" d="M34.5,56.9c0,0,3.4-0.3,4.1,1.2c0.6,1.5,0.7,1.9-0.1,2.5s-3.3,1.4-4.3,0.6c-1.5-1-2.6-2.9-1.9-3.5
	C32.9,57.3,32.7,56.8,34.5,56.9z"/>
<path class="st4" d="M37.3,58.2c0,0-2,1.1-3,0.5c-1-0.6-1-0.6-1-0.6"/>
<path class="st4" d="M25.5,55.1c0,0-1.7,0.2-3.1,1s-1.2,2.1-0.9,2.6c0.3,0.5,2.9,2.5,4.9,1.6s1.1-2.2,1.2-3.3
	C27.7,55.7,27.2,55.1,25.5,55.1z"/>
<path class="st4" d="M23.4,56.5c0,0,0.7,0.8,2.3,0.7c1.5,0,0.9,0,0.9,0"/>
<path class="st7" d="M27.9,60.1c0,0-1.7,0.3-2.9,1.3s-1,2.2-0.6,2.7c0.4,0.5,3.2,2.1,5,1.1c1.9-1,0.9-2.3,0.9-3.4
	C30.3,60.5,29.7,60,27.9,60.1z"/>
<path class="st7" d="M26.1,61.8c0,0,0.8,0.7,2.3,0.5c1.5-0.2,0.9-0.1,0.9-0.1"/>
<path class="st4" d="M20.8,59.9c0,0-2.7-0.8-3.3,0.5c-0.5,1.3-0.4,1.5-0.3,2.1c0.1,0.9,2.6,2.1,3.3,1.7c0.7-0.4,1.1-0.8,2.5-1.7
	c1.4-1,0.6-1.4,0.3-1.7S20.8,59.9,20.8,59.9z"/>
<path class="st4" d="M18.6,60.6c0,0,0.3,0.8,1.4,1.1c1.1,0.3,2.3-0.3,2.3-0.3"/>
<path class="st7" d="M8.7,15.7H8.3c-0.6,0-1.1-0.5-1.1-1.1v-1.2c0-0.6,0.5-1.1,1.1-1.1h0.3c0.6,0,1.1,0.5,1.1,1.1v1.2
	C9.8,15.2,9.3,15.7,8.7,15.7z"/>
<path class="st7" d="M11.5,22.4h-0.4c-0.8,0-1.5-0.7-1.5-1.5v-0.4c0-0.8,0.7-1.5,1.5-1.5h0.4c0.8,0,1.5,0.7,1.5,1.5V21
	C13,21.8,12.3,22.4,11.5,22.4z"/>
<path class="st7" d="M8.4,32.5H8c-0.7,0-1.2-0.5-1.2-1.2v-0.9c0-0.7,0.5-1.2,1.2-1.2h0.4c0.7,0,1.2,0.5,1.2,1.2v0.9
	C9.6,32,9,32.5,8.4,32.5z"/>
<path class="st25" d="M14.1,12.3h-0.3c-0.6,0-1-0.4-1-1v-0.9c0-0.6,0.4-1,1-1h0.3c0.6,0,1,0.4,1,1v0.9
	C15.1,11.9,14.6,12.3,14.1,12.3z"/>
</svg>
