<?xml version="1.0" encoding="utf-8"?>
<!-- Generator: Adobe Illustrator 23.0.1, SVG Export Plug-In . SVG Version: 6.00 Build 0)  -->
<svg version="1.1" id="Layer_1" xmlns="http://www.w3.org/2000/svg" xmlns:xlink="http://www.w3.org/1999/xlink" x="0px" y="0px"
	 viewBox="0 0 80.3 67.5" style="enable-background:new 0 0 80.3 67.5;" xml:space="preserve">
<style type="text/css">
	.st0{fill-rule:evenodd;clip-rule:evenodd;fill:none;stroke:#00C1A3;stroke-width:0.75;stroke-miterlimit:10;}
	.st1{fill:#FFFFFF;stroke:#0066FF;stroke-width:0.75;stroke-linecap:round;stroke-linejoin:round;stroke-miterlimit:10;}
	.st2{fill:none;stroke:#0066FF;stroke-width:0.75;stroke-linecap:round;stroke-linejoin:round;stroke-miterlimit:10;}
	.st3{fill:#FFFFFF;stroke:#0066FF;stroke-width:0.75;stroke-miterlimit:10;}
	.st4{fill:none;stroke:#0066FF;stroke-width:0.75;stroke-miterlimit:10;}
	.st5{fill:none;stroke:#00C1A3;stroke-width:0.75;stroke-miterlimit:10;}
	.st6{fill:none;stroke:#FF25F3;stroke-width:0.75;stroke-miterlimit:10;}
	.st7{fill:none;stroke:#FF25F3;stroke-width:0.75;stroke-linecap:round;stroke-linejoin:round;stroke-miterlimit:10;}
	.st8{fill-rule:evenodd;clip-rule:evenodd;fill:none;stroke:#0066FF;stroke-width:0.75;stroke-miterlimit:10;}
	.st9{clip-path:url(#SVGID_2_);fill-rule:evenodd;clip-rule:evenodd;fill:#FFFFFF;}
	.st10{fill-rule:evenodd;clip-rule:evenodd;fill:#FCFDFF;}
	.st11{fill-rule:evenodd;clip-rule:evenodd;fill:#FFFFFF;}
	.st12{fill-rule:evenodd;clip-rule:evenodd;fill:#3D6A9D;}
	.st13{fill:#FFFFFF;}
	.st14{fill:#0066FF;}
	.st15{fill-rule:evenodd;clip-rule:evenodd;fill:#FFFFFF;stroke:#0066FF;stroke-width:0.75;stroke-miterlimit:10;}
	.st16{fill-rule:evenodd;clip-rule:evenodd;fill:#FFFFFF;stroke:#44E0A0;stroke-width:0.75;stroke-miterlimit:10;}
	.st17{fill-rule:evenodd;clip-rule:evenodd;fill:#FFFFFF;stroke:#FF25F3;stroke-width:0.75;stroke-miterlimit:10;}
	.st18{fill:none;stroke:#FFFFFF;stroke-width:2.8774;stroke-miterlimit:10;}
	
		.st19{fill-rule:evenodd;clip-rule:evenodd;fill:none;stroke:#FF25F3;stroke-width:0.75;stroke-linecap:round;stroke-linejoin:round;stroke-miterlimit:10;}
	.st20{fill-rule:evenodd;clip-rule:evenodd;fill:#FFFFFF;stroke:#FFFFFF;stroke-width:0.7194;stroke-miterlimit:10;}
	.st21{fill:none;stroke:#FFFFFF;stroke-width:0.7194;stroke-miterlimit:10;}
	.st22{fill:none;stroke:#44E0A0;stroke-width:0.75;stroke-linecap:round;stroke-linejoin:round;stroke-miterlimit:10;}
	.st23{fill-rule:evenodd;clip-rule:evenodd;fill:#FFFFFF;stroke:#00C1A3;stroke-width:0.75;stroke-miterlimit:10;}
	.st24{fill:none;stroke:#0066FF;stroke-width:0.75;stroke-linecap:round;stroke-miterlimit:10;}
	.st25{fill:#FFFFFF;stroke:#00C1A3;stroke-width:0.75;stroke-miterlimit:10;}
	.st26{clip-path:url(#SVGID_4_);}
	
		.st27{fill-rule:evenodd;clip-rule:evenodd;fill:none;stroke:#0066FF;stroke-width:0.75;stroke-linecap:round;stroke-miterlimit:10;}
	.st28{fill:#FFFFFF;stroke:#FF25F3;stroke-width:0.75;stroke-miterlimit:10;}
	.st29{fill:#FFFFFF;stroke:#FF25F3;stroke-width:0.75;stroke-linecap:round;stroke-linejoin:round;stroke-miterlimit:10;}
	.st30{fill:none;stroke:#00FA9B;stroke-width:0.75;stroke-miterlimit:10;}
	.st31{fill:#87D73F;}
	.st32{fill:#3DED98;}
</style>
<path class="st2" d="M35.4,13c13,2.4,22.8,12.9,22.8,25.4c0,14.3-12.8,25.9-28.5,25.9C14,64.4,1.2,52.8,1.2,38.4
	c0-10.7,7.1-19.8,17.2-23.8"/>
<path class="st2" d="M35.3,15.2c0.1-1.8-0.2-3.7-1.6-4.7C33,10.1,32.1,9.3,31.4,9c-1-0.4-2.6-0.2-3.4,0.4c-0.2,0.2-0.4,0.4-0.7,0.4
	c-0.3,0.1-0.5,0-0.8-0.1c-2.2-0.8-4.8-0.2-6.5,1.5s-2.1,4.4-1.2,6.5"/>
<path class="st25" d="M26.9,10c0.1,0,0.2,0,0.3,0.1c-1.1-3.1-1.7-6.3-1.9-9.5"/>
<circle class="st2" cx="46.8" cy="31.4" r="1"/>
<circle class="st2" cx="31.7" cy="36.5" r="1"/>
<circle class="st25" cx="36.4" cy="27.5" r="1"/>
<circle class="st2" cx="43.2" cy="37.4" r="0.7"/>
<circle class="st2" cx="19.3" cy="54.3" r="0.8"/>
<circle class="st2" cx="19.8" cy="30.9" r="0.5"/>
<circle class="st2" cx="43.3" cy="21" r="0.4"/>
<path class="st1" d="M79.1,47.9c2.6,4.2-12.7,18.8-25.9,18.8s-25.9-14-22.9-19.8c2.2-4.4,9.8,2,22.9,2S74.4,40.4,79.1,47.9z"/>
<ellipse class="st2" cx="54.9" cy="56.7" rx="1.9" ry="3.9"/>
<ellipse transform="matrix(0.9003 -0.4354 0.4354 0.9003 -18.1114 31.7969)" class="st28" cx="60.3" cy="55.4" rx="1.5" ry="3.5"/>
<ellipse transform="matrix(0.9003 -0.4354 0.4354 0.9003 -16.7415 33.5281)" class="st2" cx="64.8" cy="53.3" rx="1.3" ry="2.7"/>
<ellipse transform="matrix(0.5 -0.866 0.866 0.5 -23.722 65.5147)" class="st2" cx="44.9" cy="53.3" rx="2.7" ry="1.3"/>
<ellipse transform="matrix(0.3306 -0.9438 0.9438 0.3306 -19.0865 83.4042)" class="st2" cx="49.3" cy="55.2" rx="3.3" ry="1.6"/>
<circle class="st25" cx="12.5" cy="39.7" r="1"/>
<circle class="st2" cx="22" cy="44.4" r="0.8"/>
<circle class="st2" cx="15.3" cy="24.2" r="0.5"/>
<circle class="st2" cx="26.1" cy="25.3" r="1"/>
</svg>
