<?xml version="1.0" encoding="utf-8"?>
<!-- Generator: Adobe Illustrator 23.0.1, SVG Export Plug-In . SVG Version: 6.00 Build 0)  -->
<svg version="1.1" id="Layer_1" xmlns="http://www.w3.org/2000/svg" xmlns:xlink="http://www.w3.org/1999/xlink" x="0px" y="0px"
	 viewBox="0 0 55.6 47.5" style="enable-background:new 0 0 55.6 47.5;" xml:space="preserve">
<style type="text/css">
	.st0{fill-rule:evenodd;clip-rule:evenodd;fill:none;stroke:#00C1A3;stroke-width:0.75;stroke-miterlimit:10;}
	.st1{fill:#FFFFFF;stroke:#0066FF;stroke-width:0.75;stroke-linecap:round;stroke-linejoin:round;stroke-miterlimit:10;}
	.st2{fill:none;stroke:#0066FF;stroke-width:0.75;stroke-linecap:round;stroke-linejoin:round;stroke-miterlimit:10;}
	.st3{fill:#FFFFFF;stroke:#0066FF;stroke-width:0.75;stroke-miterlimit:10;}
	.st4{fill:none;stroke:#0066FF;stroke-width:0.75;stroke-miterlimit:10;}
	.st5{fill:none;stroke:#00C1A3;stroke-width:0.75;stroke-miterlimit:10;}
	.st6{fill:none;stroke:#FF25F3;stroke-width:0.75;stroke-miterlimit:10;}
	.st7{fill:none;stroke:#FF25F3;stroke-width:0.75;stroke-linecap:round;stroke-linejoin:round;stroke-miterlimit:10;}
	.st8{fill-rule:evenodd;clip-rule:evenodd;fill:none;stroke:#0066FF;stroke-width:0.75;stroke-miterlimit:10;}
	.st9{clip-path:url(#SVGID_2_);fill-rule:evenodd;clip-rule:evenodd;fill:#FFFFFF;}
	.st10{fill-rule:evenodd;clip-rule:evenodd;fill:#FCFDFF;}
	.st11{fill-rule:evenodd;clip-rule:evenodd;fill:#FFFFFF;}
	.st12{fill-rule:evenodd;clip-rule:evenodd;fill:#3D6A9D;}
	.st13{fill:#FFFFFF;}
	.st14{fill:#0066FF;}
	.st15{fill-rule:evenodd;clip-rule:evenodd;fill:#FFFFFF;stroke:#0066FF;stroke-width:0.75;stroke-miterlimit:10;}
	.st16{fill-rule:evenodd;clip-rule:evenodd;fill:#FFFFFF;stroke:#44E0A0;stroke-width:0.75;stroke-miterlimit:10;}
	.st17{fill-rule:evenodd;clip-rule:evenodd;fill:#FFFFFF;stroke:#FF25F3;stroke-width:0.75;stroke-miterlimit:10;}
	.st18{fill:none;stroke:#FFFFFF;stroke-width:2.8774;stroke-miterlimit:10;}
	
		.st19{fill-rule:evenodd;clip-rule:evenodd;fill:none;stroke:#FF25F3;stroke-width:0.75;stroke-linecap:round;stroke-linejoin:round;stroke-miterlimit:10;}
	.st20{fill-rule:evenodd;clip-rule:evenodd;fill:#FFFFFF;stroke:#FFFFFF;stroke-width:0.7194;stroke-miterlimit:10;}
	.st21{fill:none;stroke:#FFFFFF;stroke-width:0.7194;stroke-miterlimit:10;}
	.st22{fill:none;stroke:#44E0A0;stroke-width:0.75;stroke-linecap:round;stroke-linejoin:round;stroke-miterlimit:10;}
	.st23{fill-rule:evenodd;clip-rule:evenodd;fill:#FFFFFF;stroke:#00C1A3;stroke-width:0.75;stroke-miterlimit:10;}
	.st24{fill:none;stroke:#0066FF;stroke-width:0.75;stroke-linecap:round;stroke-miterlimit:10;}
	.st25{fill:#FFFFFF;stroke:#00C1A3;stroke-width:0.75;stroke-miterlimit:10;}
	.st26{clip-path:url(#SVGID_4_);}
	
		.st27{fill-rule:evenodd;clip-rule:evenodd;fill:none;stroke:#0066FF;stroke-width:0.75;stroke-linecap:round;stroke-miterlimit:10;}
	.st28{fill:#FFFFFF;stroke:#FF25F3;stroke-width:0.75;stroke-miterlimit:10;}
	.st29{fill:#FFFFFF;stroke:#FF25F3;stroke-width:0.75;stroke-linecap:round;stroke-linejoin:round;stroke-miterlimit:10;}
	.st30{fill:none;stroke:#00FA9B;stroke-width:0.75;stroke-miterlimit:10;}
	.st31{fill:#87D73F;}
	.st32{fill:#3DED98;}
</style>
<g>
	<path class="st25" d="M42,6.9c0,3.4-1.8,5.8-9.4,6.2c-6.8,0.3-9.4-2.7-9.4-6.2s2.9-6.2,9.4-6.2C40,0.7,42,3.5,42,6.9z"/>
	<ellipse class="st25" cx="32.6" cy="10.3" rx="2.6" ry="1"/>
</g>
<g>
	<path class="st3" d="M18.5,6.4c1.3,3.2,0.6,6-6.3,9.4c-6.2,3-9.7,1.1-11.1-2.1s0.3-6.9,6.2-9.4C14.2,1.5,17.1,3.2,18.5,6.4z"/>
	<ellipse transform="matrix(0.9218 -0.3877 0.3877 0.9218 -4.2449 5.3393)" class="st3" cx="11.1" cy="13.2" rx="2.6" ry="1"/>
</g>
<g>
	<path class="st3" d="M52.4,17.5c-2.8,2.1-5.7,2.1-10.6-3.8c-4.4-5.3-3.5-9.2-0.7-11.2s6.8-1.4,10.6,3.8
		C56.2,12.1,55.2,15.4,52.4,17.5z"/>
	<ellipse transform="matrix(0.7992 -0.601 0.601 0.7992 1.6234 28.9148)" class="st3" cx="44.1" cy="12" rx="1" ry="2.6"/>
</g>
<g>
	<path class="st3" d="M3.4,17.7c-0.1-3.4,1.6-5.9,9.2-6.4c6.8-0.5,9.5,2.5,9.6,5.9s-2.8,6.3-9.2,6.5C5.6,23.9,3.5,21.1,3.4,17.7z"/>
	
		<ellipse transform="matrix(0.9996 -2.730553e-02 2.730553e-02 0.9996 -0.3791 0.352)" class="st3" cx="12.7" cy="14.1" rx="2.6" ry="1"/>
</g>
<g>
	<path class="st3" d="M23.2,20.9c-0.1-3.4,1.6-5.9,9.2-6.4c6.8-0.5,9.5,2.5,9.6,5.9s-2.8,6.3-9.2,6.5C25.4,27.1,23.3,24.4,23.2,20.9
		z"/>
	
		<ellipse transform="matrix(0.9996 -2.730553e-02 2.730553e-02 0.9996 -0.4594 0.8946)" class="st3" cx="32.5" cy="17.3" rx="2.6" ry="1"/>
</g>
<g>
	<path class="st3" d="M35.2,24c-0.1-3.4,1.6-5.9,9.2-6.4c6.8-0.5,9.5,2.5,9.6,5.9s-2.8,6.3-9.2,6.5C37.4,30.1,35.3,27.4,35.2,24z"/>
	
		<ellipse transform="matrix(0.9996 -2.730553e-02 2.730553e-02 0.9996 -0.5379 1.2234)" class="st3" cx="44.5" cy="20.3" rx="2.6" ry="1"/>
</g>
<g>
	<path class="st28" d="M30.3,33.3c-1.8,3-4.5,4.1-11.2,0.6c-6.1-3.2-6.7-7.1-4.9-10.1s5.7-3.9,11.3-0.6C31.7,26.9,32,30.3,30.3,33.3
		z"/>
	<ellipse transform="matrix(0.5077 -0.8615 0.8615 0.5077 -17.0214 33.1034)" class="st28" cx="20.5" cy="31.4" rx="1" ry="2.6"/>
</g>
<g>
	<path class="st3" d="M49,27c1.6,3,1.2,6-5.3,9.9c-5.9,3.6-9.6,2.1-11.2-1c-1.6-3-0.4-6.9,5.3-10C44.3,22.4,47.4,23.9,49,27z"/>
</g>
<g>
	<path class="st3" d="M33.3,42.9c-0.9,3.3-3.3,5.1-10.7,3.4c-6.7-1.5-8.3-5.2-7.3-8.5c0.9-3.3,4.5-5.2,10.7-3.4
		C33.1,36.3,34.3,39.6,33.3,42.9z"/>
</g>
</svg>
