<?xml version="1.0" encoding="utf-8"?>
<!-- Generator: Adobe Illustrator 23.0.1, SVG Export Plug-In . SVG Version: 6.00 Build 0)  -->
<svg version="1.1" id="Layer_1" xmlns="http://www.w3.org/2000/svg" xmlns:xlink="http://www.w3.org/1999/xlink" x="0px" y="0px"
	 viewBox="0 0 71.9 52" style="enable-background:new 0 0 71.9 52;" xml:space="preserve">
<style type="text/css">
	.st0{fill-rule:evenodd;clip-rule:evenodd;fill:none;stroke:#00C1A3;stroke-width:0.75;stroke-miterlimit:10;}
	.st1{fill:#FFFFFF;stroke:#0066FF;stroke-width:0.75;stroke-linecap:round;stroke-linejoin:round;stroke-miterlimit:10;}
	.st2{fill:none;stroke:#0066FF;stroke-width:0.75;stroke-linecap:round;stroke-linejoin:round;stroke-miterlimit:10;}
	.st3{fill:#FFFFFF;stroke:#0066FF;stroke-width:0.75;stroke-miterlimit:10;}
	.st4{fill:none;stroke:#0066FF;stroke-width:0.75;stroke-miterlimit:10;}
	.st5{fill:none;stroke:#00C1A3;stroke-width:0.75;stroke-miterlimit:10;}
	.st6{fill:none;stroke:#FF25F3;stroke-width:0.75;stroke-miterlimit:10;}
	.st7{fill:none;stroke:#FF25F3;stroke-width:0.75;stroke-linecap:round;stroke-linejoin:round;stroke-miterlimit:10;}
	.st8{fill-rule:evenodd;clip-rule:evenodd;fill:none;stroke:#0066FF;stroke-width:0.75;stroke-miterlimit:10;}
	.st9{clip-path:url(#SVGID_2_);fill-rule:evenodd;clip-rule:evenodd;fill:#FFFFFF;}
	.st10{fill-rule:evenodd;clip-rule:evenodd;fill:#FCFDFF;}
	.st11{fill-rule:evenodd;clip-rule:evenodd;fill:#FFFFFF;}
	.st12{fill-rule:evenodd;clip-rule:evenodd;fill:#3D6A9D;}
	.st13{fill:#FFFFFF;}
	.st14{fill:#0066FF;}
	.st15{fill-rule:evenodd;clip-rule:evenodd;fill:#FFFFFF;stroke:#0066FF;stroke-width:0.75;stroke-miterlimit:10;}
	.st16{fill-rule:evenodd;clip-rule:evenodd;fill:#FFFFFF;stroke:#44E0A0;stroke-width:0.75;stroke-miterlimit:10;}
	.st17{fill-rule:evenodd;clip-rule:evenodd;fill:#FFFFFF;stroke:#FF25F3;stroke-width:0.75;stroke-miterlimit:10;}
	.st18{fill:none;stroke:#FFFFFF;stroke-width:2.8774;stroke-miterlimit:10;}
	
		.st19{fill-rule:evenodd;clip-rule:evenodd;fill:none;stroke:#FF25F3;stroke-width:0.75;stroke-linecap:round;stroke-linejoin:round;stroke-miterlimit:10;}
	.st20{fill-rule:evenodd;clip-rule:evenodd;fill:#FFFFFF;stroke:#FFFFFF;stroke-width:0.7194;stroke-miterlimit:10;}
	.st21{fill:none;stroke:#FFFFFF;stroke-width:0.7194;stroke-miterlimit:10;}
	.st22{fill:none;stroke:#44E0A0;stroke-width:0.75;stroke-linecap:round;stroke-linejoin:round;stroke-miterlimit:10;}
	.st23{fill-rule:evenodd;clip-rule:evenodd;fill:#FFFFFF;stroke:#00C1A3;stroke-width:0.75;stroke-miterlimit:10;}
	.st24{fill:none;stroke:#0066FF;stroke-width:0.75;stroke-linecap:round;stroke-miterlimit:10;}
	.st25{fill:#FFFFFF;stroke:#00C1A3;stroke-width:0.75;stroke-miterlimit:10;}
	.st26{clip-path:url(#SVGID_4_);}
	
		.st27{fill-rule:evenodd;clip-rule:evenodd;fill:none;stroke:#0066FF;stroke-width:0.75;stroke-linecap:round;stroke-miterlimit:10;}
	.st28{fill:#FFFFFF;stroke:#FF25F3;stroke-width:0.75;stroke-miterlimit:10;}
	.st29{fill:#FFFFFF;stroke:#FF25F3;stroke-width:0.75;stroke-linecap:round;stroke-linejoin:round;stroke-miterlimit:10;}
	.st30{fill:none;stroke:#00FA9B;stroke-width:0.75;stroke-miterlimit:10;}
	.st31{fill:#87D73F;}
	.st32{fill:#3DED98;}
</style>
<path class="st4" d="M36.2,16.6c-1.3-0.7-2.1-2-2.5-3c-1.2-2.8-1.6-9.1-1.3-10.6c0.3-1.5-1.6-1.9-2.6-2S29,4,27.9,8
	c-0.7,2.7-4.1,7-7,8.4C10.4,21.3,1.1,25.2,1.1,33.2c0,9.6,12,17.5,26.9,17.5c14.8,0,26.9-7.8,26.9-17.5C54.8,25.5,46,21.6,36.2,16.6
	z"/>
<path class="st4" d="M44.4,47c15.3,1.5,26.4-6.8,26.4-15.4c0-7-6.8-9.9-15.4-14.9c-4-2.3-6.3-4.4-6.7-5.3c-0.6-1.2-0.1-4-0.1-4
	l-4.5-0.6c0,0,0.5,2.5-0.5,6c-0.6,2.4-3.5,3.2-6.2,4.4"/>
<ellipse class="st4" cx="28.6" cy="49.6" rx="6.3" ry="1.3"/>
<path class="st7" d="M19.1,21.5c0,0-9.7,7.6-8.6,13.1s6.3,8.9,6.3,8.9"/>
<path class="st4" d="M36.5,19.7c0,0,4.6,4.1,6.6,5.9c4.8,4.2,2.8,11,2.2,12.5"/>
<path class="st4" d="M39.3,29.3c0,0,2,7.7-3.3,13.2"/>
<path class="st4" d="M23.6,26.1c0,0-2.3,6.5-2.3,8.6c0,4.5,1.7,6.8,1.7,6.8"/>
<path class="st3" d="M31.3,19.4c0,0,0.8,8.9,0.8,11.2c0,2.9-0.5,5.7-0.5,5.7"/>
<path class="st5" d="M54.8,20.3c0,0,4.5,4.9,4.5,10.1s-1.2,7.9-3.5,11.1"/>
<path class="st4" d="M59.3,21.4c0,0,4.5,2.9,5.1,6.5c0.6,3.6,0,4.8,0,4.8"/>
</svg>
