<?xml version="1.0" encoding="utf-8"?>
<!-- Generator: Adobe Illustrator 23.0.1, SVG Export Plug-In . SVG Version: 6.00 Build 0)  -->
<svg version="1.1" id="Layer_1" xmlns="http://www.w3.org/2000/svg" xmlns:xlink="http://www.w3.org/1999/xlink" x="0px" y="0px"
	 viewBox="0 0 88.6 69.5" style="enable-background:new 0 0 88.6 69.5;" xml:space="preserve">
<style type="text/css">
	.st0{fill:none;stroke:#0066FF;stroke-width:0.75;stroke-linejoin:round;stroke-miterlimit:10;}
	.st1{fill:#FFFFFF;stroke:#00C1A3;stroke-width:0.75;stroke-miterlimit:10;}
	.st2{fill:#FFFFFF;stroke:#0066FF;stroke-width:0.75;stroke-miterlimit:10;}
	.st3{fill:none;stroke:#00C1A3;stroke-width:0.75;stroke-miterlimit:10;}
	
		.st4{fill-rule:evenodd;clip-rule:evenodd;fill:none;stroke:#FF25F3;stroke-width:0.75;stroke-linecap:round;stroke-linejoin:round;stroke-miterlimit:10;}
	.st5{fill:none;stroke:#0066FF;stroke-width:0.75;stroke-miterlimit:10;}
	.st6{fill-rule:evenodd;clip-rule:evenodd;fill:none;stroke:#0066FF;stroke-width:0.75;stroke-miterlimit:10;}
	.st7{fill-rule:evenodd;clip-rule:evenodd;fill:none;stroke:#00C1A3;stroke-width:0.75;stroke-miterlimit:10;}
	.st8{fill:none;stroke:#FF25F3;stroke-width:0.75;stroke-linecap:round;stroke-linejoin:round;stroke-miterlimit:10;}
	.st9{fill:#FFFFFF;stroke:#FF25F3;stroke-width:0.75;stroke-linecap:round;stroke-linejoin:round;stroke-miterlimit:10;}
	.st10{fill-rule:evenodd;clip-rule:evenodd;fill:#FFFFFF;stroke:#0066FF;stroke-width:0.75;stroke-miterlimit:10;}
	
		.st11{fill-rule:evenodd;clip-rule:evenodd;fill:#FFFFFF;stroke:#FF25F3;stroke-width:0.75;stroke-linecap:round;stroke-linejoin:round;stroke-miterlimit:10;}
	.st12{fill-rule:evenodd;clip-rule:evenodd;fill:#FFFFFF;stroke:#00C1A3;stroke-width:0.75;stroke-miterlimit:10;}
	.st13{fill:none;stroke:#0066FF;stroke-width:0.75;stroke-linecap:round;stroke-linejoin:round;stroke-miterlimit:10;}
	.st14{fill:#FFFFFF;stroke:#00C1A3;stroke-width:0.75;stroke-linecap:round;stroke-linejoin:round;stroke-miterlimit:10;}
	
		.st15{fill-rule:evenodd;clip-rule:evenodd;fill:#FFFFFF;stroke:#0066FF;stroke-width:0.75;stroke-linecap:round;stroke-linejoin:round;stroke-miterlimit:10;}
	
		.st16{fill-rule:evenodd;clip-rule:evenodd;fill:none;stroke:#0066FF;stroke-width:0.75;stroke-linecap:round;stroke-linejoin:round;stroke-miterlimit:10;}
	.st17{fill:#FFFFFF;stroke:#0066FF;stroke-width:0.75;stroke-linejoin:round;stroke-miterlimit:10;}
	.st18{fill:none;stroke:#FF25F3;stroke-width:0.75;stroke-linecap:round;stroke-miterlimit:10;}
	.st19{fill:none;stroke:#00C1A3;stroke-width:0.75;stroke-miterlimit:10;stroke-dasharray:1.9953,1.9953;}
	.st20{fill:none;stroke:#FF25F3;stroke-width:0.75;stroke-linecap:round;stroke-miterlimit:10;stroke-dasharray:1.9953,1.9953;}
	.st21{fill:#FFFFFF;stroke:#000000;stroke-miterlimit:10;}
	.st22{fill:#0066FF;}
	.st23{fill:#FF25F3;}
	.st24{fill:none;stroke:#FF25F3;stroke-width:0.75;stroke-linejoin:round;stroke-miterlimit:10;}
	.st25{fill:none;stroke:#FF25F3;stroke-width:0.75;stroke-miterlimit:10;}
	.st26{fill:none;stroke:#0066FF;stroke-width:0.75;stroke-linecap:round;stroke-miterlimit:10;}
	.st27{fill:none;stroke:#FFFFFF;stroke-width:0.75;stroke-miterlimit:10;}
	.st28{fill:none;stroke:#0000FF;stroke-width:2;stroke-miterlimit:10;}
	.st29{fill:none;stroke:#00C1A3;stroke-width:2;stroke-miterlimit:10;}
	.st30{fill:none;stroke:#FF25F3;stroke-width:2;stroke-linecap:round;stroke-linejoin:round;stroke-miterlimit:10;}
	.st31{fill:none;stroke:#FF25F3;stroke-width:0.75;stroke-linejoin:round;}
	.st32{fill:none;stroke:#FF25F3;stroke-width:0.75;stroke-linejoin:round;stroke-dasharray:1.916,1.916;}
	.st33{fill:none;stroke:#FF25F3;stroke-width:0.75;stroke-miterlimit:10;stroke-dasharray:1.916,1.916;}
	.st34{fill:none;}
	.st35{fill-rule:evenodd;clip-rule:evenodd;fill:none;stroke:#FF25F3;stroke-width:0.75;stroke-miterlimit:10;}
	.st36{clip-path:url(#SVGID_2_);fill:#FF25F3;}
	.st37{clip-path:url(#SVGID_4_);fill:#00C1A3;}
	.st38{clip-path:url(#SVGID_6_);fill:#2935E8;}
</style>
<g>
	<path class="st5" d="M41.8,14.4h41.1c2.5,0,4.5,2,4.5,4.5v0c0,2.5-2,4.5-4.5,4.5H41.8"/>
	<path class="st5" d="M38.9,30.4H25.7c-1.8,0-3.3-1.5-3.3-3.3V12.1c0-1.8,1.5-3.3,3.3-3.3h13.2c1.8,0,3.3,1.5,3.3,3.3v15.1
		C42.2,29,40.7,30.4,38.9,30.4z"/>
	<path class="st5" d="M40.7,37.9H23.8c-2.1,0-3.7-1.7-3.7-3.7v0c0-2.1,1.7-3.7,3.7-3.7h16.9c2.1,0,3.7,1.7,3.7,3.7v0
		C44.5,36.2,42.8,37.9,40.7,37.9z"/>
	<path class="st5" d="M40.7,8.8H23.8c-2.1,0-3.7-1.7-3.7-3.7v0c0-2.1,1.7-3.7,3.7-3.7h16.9c2.1,0,3.7,1.7,3.7,3.7v0
		C44.5,7.1,42.8,8.8,40.7,8.8z"/>
	<path class="st5" d="M52.1,46H13.2c-2,0-3.6-1.6-3.6-3.6v0c0-2,1.6-3.6,3.6-3.6h38.9c2,0,3.6,1.6,3.6,3.6v0
		C55.7,44.4,54.1,46,52.1,46z"/>
	<path class="st5" d="M52.1,68.7H13.2c-2,0-3.6-1.6-3.6-3.6v0c0-2,1.6-3.6,3.6-3.6h38.9c2,0,3.6,1.6,3.6,3.6v0
		C55.7,67.1,54.1,68.7,52.1,68.7z"/>
	<line class="st3" x1="8" y1="22.7" x2="17.3" y2="34.7"/>
	<line class="st5" x1="57.1" y1="26.4" x2="47.7" y2="34.9"/>
	<line class="st5" x1="49.7" y1="37.9" x2="62.4" y2="34.2"/>
	<line class="st5" x1="15.4" y1="37" x2="1.4" y2="34.6"/>
	<rect x="12.5" y="46" class="st5" width="40.5" height="15.6"/>
</g>
<g>
	<path class="st23" d="M22.4,48.4c0.7-0.1,1.7-0.2,2.8-0.2c1.5,0,2.5,0.3,3.3,0.8c0.6,0.5,1,1.1,1,2.1c0,1.1-0.8,2.1-2,2.6v0
		c1.1,0.3,2.4,1.2,2.4,2.9c0,1-0.4,1.8-1,2.3c-0.8,0.7-2.2,1.1-4.1,1.1c-1.1,0-1.9-0.1-2.4-0.1V48.4z M23.9,53.2h1.4
		c1.6,0,2.6-0.8,2.6-2c0-1.4-1.1-1.9-2.6-1.9c-0.7,0-1.1,0.1-1.4,0.1V53.2z M23.9,58.8c0.3,0.1,0.7,0.1,1.3,0.1c1.6,0,3-0.6,3-2.3
		c0-1.6-1.4-2.2-3.1-2.2h-1.3V58.8z"/>
	<path class="st23" d="M33.5,48.3v11.7H32V48.3H33.5z"/>
	<path class="st23" d="M36.2,48.4c0.9-0.1,2-0.2,3.3-0.2c2.2,0,3.8,0.5,4.8,1.5c1.1,1,1.7,2.3,1.7,4.2c0,1.9-0.6,3.5-1.7,4.5
		C43.1,59.5,41.3,60,39,60c-1.1,0-2-0.1-2.8-0.1V48.4z M37.7,58.7c0.4,0.1,1,0.1,1.6,0.1c3.3,0,5.1-1.8,5.1-4.9
		c0-2.8-1.6-4.5-4.8-4.5c-0.8,0-1.4,0.1-1.8,0.2V58.7z"/>
</g>
</svg>
