<?xml version="1.0" encoding="utf-8"?>
<!-- Generator: Adobe Illustrator 23.0.1, SVG Export Plug-In . SVG Version: 6.00 Build 0)  -->
<svg version="1.1" id="Layer_1" xmlns="http://www.w3.org/2000/svg" xmlns:xlink="http://www.w3.org/1999/xlink" x="0px" y="0px"
	 viewBox="0 0 73.2 57.2" style="enable-background:new 0 0 73.2 57.2;" xml:space="preserve">
<style type="text/css">
	.st0{fill-rule:evenodd;clip-rule:evenodd;fill:none;stroke:#00C1A3;stroke-width:0.75;stroke-miterlimit:10;}
	.st1{fill:#FFFFFF;stroke:#0066FF;stroke-width:0.75;stroke-linecap:round;stroke-linejoin:round;stroke-miterlimit:10;}
	.st2{fill:none;stroke:#0066FF;stroke-width:0.75;stroke-linecap:round;stroke-linejoin:round;stroke-miterlimit:10;}
	.st3{fill:#FFFFFF;stroke:#0066FF;stroke-width:0.75;stroke-miterlimit:10;}
	.st4{fill:none;stroke:#0066FF;stroke-width:0.75;stroke-miterlimit:10;}
	.st5{fill:none;stroke:#00C1A3;stroke-width:0.75;stroke-miterlimit:10;}
	.st6{fill:none;stroke:#FF25F3;stroke-width:0.75;stroke-miterlimit:10;}
	.st7{fill:none;stroke:#FF25F3;stroke-width:0.75;stroke-linecap:round;stroke-linejoin:round;stroke-miterlimit:10;}
	.st8{fill-rule:evenodd;clip-rule:evenodd;fill:none;stroke:#0066FF;stroke-width:0.75;stroke-miterlimit:10;}
	.st9{clip-path:url(#SVGID_2_);fill-rule:evenodd;clip-rule:evenodd;fill:#FFFFFF;}
	.st10{fill-rule:evenodd;clip-rule:evenodd;fill:#FCFDFF;}
	.st11{fill-rule:evenodd;clip-rule:evenodd;fill:#FFFFFF;}
	.st12{fill-rule:evenodd;clip-rule:evenodd;fill:#3D6A9D;}
	.st13{fill:#FFFFFF;}
	.st14{fill:#0066FF;}
	.st15{fill-rule:evenodd;clip-rule:evenodd;fill:#FFFFFF;stroke:#0066FF;stroke-width:0.75;stroke-miterlimit:10;}
	.st16{fill-rule:evenodd;clip-rule:evenodd;fill:#FFFFFF;stroke:#44E0A0;stroke-width:0.75;stroke-miterlimit:10;}
	.st17{fill-rule:evenodd;clip-rule:evenodd;fill:#FFFFFF;stroke:#FF25F3;stroke-width:0.75;stroke-miterlimit:10;}
	.st18{fill:none;stroke:#FFFFFF;stroke-width:2.8774;stroke-miterlimit:10;}
	
		.st19{fill-rule:evenodd;clip-rule:evenodd;fill:none;stroke:#FF25F3;stroke-width:0.75;stroke-linecap:round;stroke-linejoin:round;stroke-miterlimit:10;}
	.st20{fill-rule:evenodd;clip-rule:evenodd;fill:#FFFFFF;stroke:#FFFFFF;stroke-width:0.7194;stroke-miterlimit:10;}
	.st21{fill:none;stroke:#FFFFFF;stroke-width:0.7194;stroke-miterlimit:10;}
	.st22{fill:none;stroke:#44E0A0;stroke-width:0.75;stroke-linecap:round;stroke-linejoin:round;stroke-miterlimit:10;}
	.st23{fill-rule:evenodd;clip-rule:evenodd;fill:#FFFFFF;stroke:#00C1A3;stroke-width:0.75;stroke-miterlimit:10;}
	.st24{fill:none;stroke:#0066FF;stroke-width:0.75;stroke-linecap:round;stroke-miterlimit:10;}
	.st25{fill:#FFFFFF;stroke:#00C1A3;stroke-width:0.75;stroke-miterlimit:10;}
	.st26{clip-path:url(#SVGID_4_);}
	
		.st27{fill-rule:evenodd;clip-rule:evenodd;fill:none;stroke:#0066FF;stroke-width:0.75;stroke-linecap:round;stroke-miterlimit:10;}
	.st28{fill:#FFFFFF;stroke:#FF25F3;stroke-width:0.75;stroke-miterlimit:10;}
	.st29{fill:#FFFFFF;stroke:#FF25F3;stroke-width:0.75;stroke-linecap:round;stroke-linejoin:round;stroke-miterlimit:10;}
	.st30{fill:none;stroke:#00FA9B;stroke-width:0.75;stroke-miterlimit:10;}
	.st31{fill:#87D73F;}
	.st32{fill:#3DED98;}
</style>
<g>
	<path class="st4" d="M25,27.5c-0.8,1.2-2,1.8-2.6,1.4c-0.6-0.4-0.4-1.7,0.4-2.9c0.8-1.2,3.4-2.7,3.4-2.7S25.8,26.3,25,27.5z"/>
	<path class="st4" d="M25.4,33c-1-1-1.5-2.3-1-2.8c0.5-0.5,1.8-0.1,2.8,0.9c1,1,2,3.8,2,3.8S26.4,34.1,25.4,33z"/>
	<path class="st4" d="M28.7,31.9c-1-1.1-1.4-2.3-0.8-2.8c0.5-0.5,1.8,0,2.7,1c1,1.1,1.9,3.9,1.9,3.9S29.7,33,28.7,31.9z"/>
	<path class="st4" d="M31.9,31.1c-1-1-1.4-2.3-0.9-2.8c0.5-0.5,1.8-0.1,2.8,0.9c1,1,2,3.9,2,3.9S32.9,32.2,31.9,31.1z"/>
	<path class="st4" d="M35,30.4c-0.9-1.1-1.2-2.4-0.7-2.9c0.6-0.5,1.8,0.1,2.7,1.2c0.9,1.1,1.7,4,1.7,4S35.9,31.5,35,30.4z"/>
	<path class="st4" d="M38.6,30.4c-0.9-1.1-1.2-2.4-0.7-2.9s1.8,0.1,2.7,1.2c0.9,1.1,1.6,4,1.6,4S39.5,31.5,38.6,30.4z"/>
	<path class="st25" d="M42.1,30.8c-0.8-1.2-1-2.5-0.4-2.9c0.6-0.4,1.7,0.3,2.5,1.5s1.2,4.2,1.2,4.2S42.9,32,42.1,30.8z"/>
	<path class="st4" d="M45.8,31.5c-0.7-1.2-0.8-2.6-0.2-2.9c0.6-0.4,1.7,0.3,2.5,1.6c0.7,1.2,1,4.2,1,4.2S46.6,32.8,45.8,31.5z"/>
	<path class="st4" d="M49.8,33c-0.7-1.3-0.8-2.6-0.1-2.9c0.6-0.4,1.7,0.4,2.4,1.7S53,36,53,36S50.5,34.3,49.8,33z"/>
	<path class="st4" d="M53,34c-0.5-1.4-0.3-2.7,0.4-2.9c0.7-0.2,1.6,0.7,2.1,2.1c0.5,1.4,0.1,4.4,0.1,4.4S53.5,35.4,53,34z"/>
	<path class="st4" d="M56.5,35.6c-0.6-1.3-0.6-2.6,0.1-2.9c0.7-0.3,1.7,0.5,2.3,1.8c0.6,1.3,0.5,4.3,0.5,4.3S57.1,36.9,56.5,35.6z"
		/>
	<path class="st4" d="M59.8,37.4c-0.6-1.3-0.5-2.6,0.2-2.9s1.7,0.6,2.2,1.9c0.6,1.3,0.4,4.3,0.4,4.3S60.3,38.7,59.8,37.4z"/>
	<path class="st4" d="M63.2,39c-0.6-1.3-0.5-2.6,0.2-2.9c0.7-0.3,1.7,0.6,2.2,1.9c0.6,1.3,0.4,4.3,0.4,4.3S63.8,40.3,63.2,39z"/>
	<path class="st4" d="M29.2,26.2c-0.8,1.2-2,1.8-2.6,1.4c-0.6-0.4-0.4-1.7,0.4-2.9c0.8-1.2,3.4-2.7,3.4-2.7S30,25,29.2,26.2z"/>
	<path class="st4" d="M33.4,25.5c-0.8,1.2-2,1.8-2.6,1.4c-0.6-0.4-0.4-1.7,0.4-2.9s3.4-2.7,3.4-2.7S34.3,24.3,33.4,25.5z"/>
	<path class="st4" d="M37.4,24.7c-0.8,1.2-2,1.8-2.6,1.4c-0.6-0.4-0.4-1.7,0.4-2.9s3.4-2.7,3.4-2.7S38.2,23.5,37.4,24.7z"/>
	<path class="st4" d="M41.2,24.7c-0.8,1.2-2,1.8-2.6,1.4c-0.6-0.4-0.4-1.7,0.4-2.9s3.4-2.7,3.4-2.7S42,23.5,41.2,24.7z"/>
	<path class="st4" d="M44.4,25c-0.8,1.2-2,1.8-2.6,1.4s-0.4-1.7,0.4-2.9c0.8-1.2,3.4-2.7,3.4-2.7S45.2,23.8,44.4,25z"/>
	<path class="st4" d="M47.7,25.5c-0.8,1.2-2,1.8-2.6,1.4s-0.4-1.7,0.4-2.9s3.4-2.7,3.4-2.7S48.6,24.3,47.7,25.5z"/>
	<path class="st4" d="M50.6,26.5c-0.8,1.2-2,1.8-2.6,1.4c-0.6-0.4-0.4-1.7,0.4-2.9s3.4-2.7,3.4-2.7S51.5,25.3,50.6,26.5z"/>
	<path class="st4" d="M53.6,27.5c-0.8,1.2-2,1.8-2.6,1.4s-0.4-1.7,0.4-2.9c0.8-1.2,3.4-2.7,3.4-2.7S54.4,26.3,53.6,27.5z"/>
	<path class="st4" d="M56.2,29.1c-1.1,1-2.4,1.3-2.8,0.7s0-1.8,1.1-2.7c1.1-1,4-1.8,4-1.8S57.3,28.1,56.2,29.1z"/>
	<path class="st4" d="M61.3,31.8c-1.2,0.8-2.5,1-2.9,0.3c-0.4-0.6,0.3-1.7,1.5-2.5c1.2-0.8,4.2-1.2,4.2-1.2S62.5,31,61.3,31.8z"/>
	<path class="st4" d="M64.1,33.2c-1.2,0.8-2.5,1-2.9,0.3c-0.4-0.6,0.3-1.7,1.5-2.5s4.2-1.2,4.2-1.2S65.4,32.4,64.1,33.2z"/>
	<path class="st4" d="M66.2,35.6c-1.4,0.3-2.7,0-2.9-0.7c-0.2-0.7,0.8-1.6,2.2-1.9c1.4-0.3,4.3,0.3,4.3,0.3S67.6,35.2,66.2,35.6z"/>
	<path class="st4" d="M67.5,38.7c-1.3-0.6-2.2-1.6-1.9-2.3c0.3-0.7,1.6-0.7,2.9-0.2c1.3,0.6,3.3,2.9,3.3,2.9S68.9,39.3,67.5,38.7z"
		/>
	<path class="st4" d="M2.6,46c0,0,8.8-9.7,20.9-15.7"/>
	<path class="st28" d="M58.8,30.4c-1.1,1-2.4,1.3-2.8,0.7c-0.5-0.5,0-1.8,1.1-2.7c1.1-1,4-1.8,4-1.8S59.9,29.5,58.8,30.4z"/>
</g>
<g>
	<path class="st4" d="M14.5,16.2c-0.3,1.4-1.1,2.4-1.8,2.3s-1-1.4-0.7-2.8s2.2-3.8,2.2-3.8S14.8,14.8,14.5,16.2z"/>
	<path class="st4" d="M17,21.2c-1.3-0.5-2.2-1.5-1.9-2.2s1.6-0.8,2.9-0.2c1.3,0.5,3.4,2.8,3.4,2.8S18.3,21.7,17,21.2z"/>
	<path class="st4" d="M19.7,18.8c-1.3-0.6-2.1-1.6-1.8-2.3c0.3-0.7,1.6-0.7,2.9-0.1c1.3,0.6,3.2,2.9,3.2,2.9S21,19.4,19.7,18.8z"/>
	<path class="st4" d="M22.3,16.9c-1.3-0.6-2.2-1.6-1.9-2.2s1.6-0.8,2.9-0.2c1.3,0.6,3.3,2.8,3.3,2.8S23.6,17.4,22.3,16.9z"/>
	<path class="st4" d="M24.9,15c-1.3-0.7-2.1-1.7-1.7-2.4c0.3-0.6,1.6-0.6,2.9,0c1.3,0.7,3.1,3.1,3.1,3.1S26.2,15.7,24.9,15z"/>
	<path class="st4" d="M28.2,13.6c-1.3-0.7-2-1.8-1.7-2.4c0.3-0.6,1.7-0.6,2.9,0.1s3,3.1,3,3.1S29.5,14.3,28.2,13.6z"/>
	<path class="st4" d="M31.6,12.7c-1.2-0.8-1.9-2-1.4-2.6c0.4-0.6,1.7-0.4,2.9,0.4c1.2,0.8,2.7,3.4,2.7,3.4S32.8,13.5,31.6,12.7z"/>
	<path class="st28" d="M35.3,11.9c-1.2-0.9-1.8-2-1.3-2.6c0.4-0.6,1.7-0.4,2.9,0.5c1.2,0.9,2.5,3.5,2.5,3.5S36.5,12.8,35.3,11.9z"/>
	<path class="st4" d="M39.6,11.7c-1.1-0.9-1.7-2.1-1.2-2.7c0.5-0.6,1.7-0.3,2.9,0.6s2.4,3.6,2.4,3.6S40.7,12.6,39.6,11.7z"/>
	<path class="st4" d="M42.9,11.5c-1-1.1-1.3-2.4-0.8-2.8c0.5-0.5,1.8,0,2.7,1.1c1,1.1,1.8,4,1.8,4S43.9,12.6,42.9,11.5z"/>
	<path class="st4" d="M46.7,11.6c-1.1-1-1.5-2.2-1-2.8c0.5-0.5,1.8-0.2,2.8,0.8s2.1,3.8,2.1,3.8S47.7,12.6,46.7,11.6z"/>
	<path class="st4" d="M50.4,12c-1-1-1.5-2.3-1-2.8c0.5-0.5,1.8-0.1,2.8,0.9c1,1,2.1,3.8,2.1,3.8S51.5,13,50.4,12z"/>
	<path class="st4" d="M54.2,12.1c-1-1-1.5-2.3-1-2.8S55,9.2,56,10.2s2.1,3.8,2.1,3.8S55.3,13.1,54.2,12.1z"/>
	<path class="st4" d="M17.9,13.3c-0.3,1.4-1.1,2.4-1.8,2.3c-0.7-0.2-1-1.4-0.7-2.8c0.3-1.4,2.2-3.8,2.2-3.8S18.2,11.9,17.9,13.3z"/>
	<path class="st4" d="M21.6,11.1c-0.3,1.4-1.1,2.4-1.8,2.3c-0.7-0.2-1-1.4-0.7-2.8c0.3-1.4,2.2-3.8,2.2-3.8S21.9,9.7,21.6,11.1z"/>
	<path class="st4" d="M24.9,8.8c-0.3,1.4-1.1,2.4-1.8,2.3c-0.7-0.2-1-1.4-0.7-2.8s2.2-3.8,2.2-3.8S25.2,7.4,24.9,8.8z"/>
	<path class="st25" d="M28.4,7.3c-0.3,1.4-1.1,2.4-1.8,2.3c-0.7-0.2-1-1.4-0.7-2.8C26.1,5.4,28,3,28,3S28.7,5.9,28.4,7.3z"/>
	<path class="st4" d="M31.5,6.5c-0.3,1.4-1.1,2.4-1.8,2.3c-0.7-0.2-1-1.4-0.7-2.8C29.2,4.5,31,2.1,31,2.1S31.8,5,31.5,6.5z"/>
	<path class="st4" d="M34.8,5.6c-0.3,1.4-1.1,2.4-1.8,2.3c-0.7-0.2-1-1.4-0.7-2.8s2.2-3.8,2.2-3.8S35.1,4.2,34.8,5.6z"/>
	<path class="st4" d="M37.8,5.4c-0.3,1.4-1.1,2.4-1.8,2.3c-0.7-0.2-1-1.4-0.7-2.8c0.3-1.4,2.2-3.8,2.2-3.8S38.1,4,37.8,5.4z"/>
	<path class="st4" d="M40.9,5.2c-0.3,1.4-1.1,2.4-1.8,2.3c-0.7-0.2-1-1.4-0.7-2.8c0.3-1.4,2.2-3.8,2.2-3.8S41.2,3.8,40.9,5.2z"/>
	<path class="st4" d="M43.9,5.6c-0.6,1.3-1.7,2.1-2.3,1.8c-0.7-0.3-0.7-1.6,0-2.9s3-3.1,3-3.1S44.6,4.3,43.9,5.6z"/>
	<path class="st4" d="M46.9,5.9c-0.6,1.3-1.7,2.1-2.3,1.8c-0.7-0.3-0.7-1.6,0-2.9c0.6-1.3,3-3.1,3-3.1S47.5,4.6,46.9,5.9z"/>
	<path class="st4" d="M49.7,6.2c-0.8,1.2-2,1.8-2.6,1.4c-0.6-0.4-0.4-1.7,0.4-2.9s3.4-2.7,3.4-2.7S50.5,5,49.7,6.2z"/>
	<path class="st4" d="M52.9,6.4c-0.8,1.2-2,1.8-2.6,1.4c-0.6-0.4-0.4-1.7,0.4-2.9s3.4-2.7,3.4-2.7S53.7,5.2,52.9,6.4z"/>
	<path class="st4" d="M55.7,7.8c-1.2,0.9-2.5,1.1-2.9,0.5c-0.4-0.6,0.2-1.8,1.3-2.6s4.1-1.4,4.1-1.4S56.8,7,55.7,7.8z"/>
	<path class="st4" d="M57.7,10.3c-1.5,0-2.6-0.6-2.6-1.4c0-0.7,1.2-1.3,2.6-1.3c1.5,0,4.1,1.4,4.1,1.4S59.2,10.3,57.7,10.3z"/>
	<path class="st4" d="M0.9,41.8c0,0,4.4-12.3,13.3-22.6"/>
</g>
<ellipse transform="matrix(0.9814 -0.1919 0.1919 0.9814 -8.3275 7.4274)" class="st28" cx="34.2" cy="46.7" rx="4.8" ry="1"/>
<ellipse transform="matrix(0.9987 -5.068186e-02 5.068186e-02 0.9987 -2.0578 1.9602)" class="st4" cx="37.6" cy="41.6" rx="4.8" ry="1"/>
<ellipse transform="matrix(0.1102 -0.9939 0.9939 0.1102 -5.0575 84.3109)" class="st4" cx="44.6" cy="45" rx="1" ry="4.8"/>
<ellipse transform="matrix(0.9814 -0.1919 0.1919 0.9814 -8.0374 11.0232)" class="st4" cx="52.9" cy="47" rx="4.8" ry="1"/>
<ellipse transform="matrix(0.1102 -0.9939 0.9939 0.1102 -9.3353 94.4246)" class="st28" cx="48.1" cy="52.4" rx="1" ry="4.8"/>
<ellipse transform="matrix(0.9814 -0.1919 0.1919 0.9814 -9.8293 8.4338)" class="st4" cx="38.6" cy="55" rx="4.8" ry="1"/>
<ellipse transform="matrix(0.1102 -0.9939 0.9939 0.1102 1.3424 86.6113)" class="st4" cx="49" cy="42.6" rx="1" ry="4.8"/>
<ellipse transform="matrix(0.2052 -0.9787 0.9787 0.2052 -13.2718 81.0735)" class="st4" cx="43.3" cy="48.7" rx="1" ry="4.8"/>
<ellipse transform="matrix(0.9932 -0.1166 0.1166 0.9932 -5.7033 4.4187)" class="st4" cx="34.9" cy="51" rx="4.8" ry="1"/>
</svg>
