<?xml version="1.0" encoding="utf-8"?>
<!-- Generator: Adobe Illustrator 23.0.1, SVG Export Plug-In . SVG Version: 6.00 Build 0)  -->
<svg version="1.1" id="Layer_1" xmlns="http://www.w3.org/2000/svg" xmlns:xlink="http://www.w3.org/1999/xlink" x="0px" y="0px"
	 viewBox="0 0 56 68.6" style="enable-background:new 0 0 56 68.6;" xml:space="preserve">
<style type="text/css">
	.st0{fill-rule:evenodd;clip-rule:evenodd;fill:none;stroke:#00C1A3;stroke-width:0.75;stroke-miterlimit:10;}
	.st1{fill:#FFFFFF;stroke:#0066FF;stroke-width:0.75;stroke-linecap:round;stroke-linejoin:round;stroke-miterlimit:10;}
	.st2{fill:none;stroke:#0066FF;stroke-width:0.75;stroke-linecap:round;stroke-linejoin:round;stroke-miterlimit:10;}
	.st3{fill:#FFFFFF;stroke:#0066FF;stroke-width:0.75;stroke-miterlimit:10;}
	.st4{fill:none;stroke:#0066FF;stroke-width:0.75;stroke-miterlimit:10;}
	.st5{fill:none;stroke:#00C1A3;stroke-width:0.75;stroke-miterlimit:10;}
	.st6{fill:none;stroke:#FF25F3;stroke-width:0.75;stroke-miterlimit:10;}
	.st7{fill:none;stroke:#FF25F3;stroke-width:0.75;stroke-linecap:round;stroke-linejoin:round;stroke-miterlimit:10;}
	.st8{fill-rule:evenodd;clip-rule:evenodd;fill:none;stroke:#0066FF;stroke-width:0.75;stroke-miterlimit:10;}
	.st9{clip-path:url(#SVGID_2_);fill-rule:evenodd;clip-rule:evenodd;fill:#FFFFFF;}
	.st10{fill-rule:evenodd;clip-rule:evenodd;fill:#FCFDFF;}
	.st11{fill-rule:evenodd;clip-rule:evenodd;fill:#FFFFFF;}
	.st12{fill-rule:evenodd;clip-rule:evenodd;fill:#3D6A9D;}
	.st13{fill:#FFFFFF;}
	.st14{fill:#0066FF;}
	.st15{fill-rule:evenodd;clip-rule:evenodd;fill:#FFFFFF;stroke:#0066FF;stroke-width:0.75;stroke-miterlimit:10;}
	.st16{fill-rule:evenodd;clip-rule:evenodd;fill:#FFFFFF;stroke:#44E0A0;stroke-width:0.75;stroke-miterlimit:10;}
	.st17{fill-rule:evenodd;clip-rule:evenodd;fill:#FFFFFF;stroke:#FF25F3;stroke-width:0.75;stroke-miterlimit:10;}
	.st18{fill:none;stroke:#FFFFFF;stroke-width:2.8774;stroke-miterlimit:10;}
	
		.st19{fill-rule:evenodd;clip-rule:evenodd;fill:none;stroke:#FF25F3;stroke-width:0.75;stroke-linecap:round;stroke-linejoin:round;stroke-miterlimit:10;}
	.st20{fill-rule:evenodd;clip-rule:evenodd;fill:#FFFFFF;stroke:#FFFFFF;stroke-width:0.7194;stroke-miterlimit:10;}
	.st21{fill:none;stroke:#FFFFFF;stroke-width:0.7194;stroke-miterlimit:10;}
	.st22{fill:none;stroke:#44E0A0;stroke-width:0.75;stroke-linecap:round;stroke-linejoin:round;stroke-miterlimit:10;}
	.st23{fill-rule:evenodd;clip-rule:evenodd;fill:#FFFFFF;stroke:#00C1A3;stroke-width:0.75;stroke-miterlimit:10;}
	.st24{fill:none;stroke:#0066FF;stroke-width:0.75;stroke-linecap:round;stroke-miterlimit:10;}
	.st25{fill:#FFFFFF;stroke:#00C1A3;stroke-width:0.75;stroke-miterlimit:10;}
	.st26{clip-path:url(#SVGID_4_);}
	
		.st27{fill-rule:evenodd;clip-rule:evenodd;fill:none;stroke:#0066FF;stroke-width:0.75;stroke-linecap:round;stroke-miterlimit:10;}
	.st28{fill:#FFFFFF;stroke:#FF25F3;stroke-width:0.75;stroke-miterlimit:10;}
	.st29{fill:#FFFFFF;stroke:#FF25F3;stroke-width:0.75;stroke-linecap:round;stroke-linejoin:round;stroke-miterlimit:10;}
	.st30{fill:none;stroke:#00FA9B;stroke-width:0.75;stroke-miterlimit:10;}
	.st31{fill:#87D73F;}
	.st32{fill:#3DED98;}
</style>
<g>
	<g>
		<path class="st4" d="M11.8,47.7c1.2,1.1,1.8,2.4,1.3,3.1c-0.5,0.6-2,0.2-3.2-0.8c-1.2-1.1-2.6-4.2-2.6-4.2S10.5,46.7,11.8,47.7z"
			/>
		<path class="st4" d="M10.9,43.1c1.2,1.1,1.8,2.4,1.3,3.1c-0.5,0.6-2,0.2-3.2-0.8c-1.2-1.1-2.6-4.2-2.6-4.2S9.6,42.1,10.9,43.1z"/>
		<path class="st4" d="M10,38.5c1.2,1.1,1.8,2.4,1.3,3.1c-0.5,0.6-2,0.2-3.2-0.8c-1.2-1.1-2.6-4.2-2.6-4.2S8.7,37.4,10,38.5z"/>
		<path class="st4" d="M9.1,33.9c1.2,1.1,1.8,2.4,1.3,3.1c-0.5,0.6-2,0.2-3.2-0.8C5.9,35.1,4.6,32,4.6,32S7.8,32.8,9.1,33.9z"/>
		<path class="st4" d="M8.2,29.3c1.2,1.1,1.8,2.4,1.3,3.1s-2,0.2-3.2-0.8c-1.2-1.1-2.6-4.2-2.6-4.2S6.9,28.2,8.2,29.3z"/>
		<path class="st4" d="M7.3,24.7c1.2,1.1,1.8,2.4,1.3,3.1c-0.5,0.6-2,0.2-3.2-0.8s-2.6-4.2-2.6-4.2S6,23.6,7.3,24.7z"/>
		<path class="st4" d="M6.4,20.1c1.2,1.1,1.8,2.4,1.3,3.1c-0.5,0.6-2,0.2-3.2-0.8c-1.2-1.1-2.6-4.2-2.6-4.2S5.1,19,6.4,20.1z"/>
		<path class="st25" d="M5.5,15.5c1.2,1.1,1.8,2.4,1.3,3.1c-0.5,0.6-2,0.2-3.2-0.8S1,13.5,1,13.5S4.2,14.4,5.5,15.5z"/>
	</g>
	<path class="st4" d="M7.2,11.6c0.2,1.6-0.2,3-1.1,3.1S4.5,13.6,4.2,12C4,10.4,5.1,7.2,5.1,7.2S6.9,10,7.2,11.6z"/>
	<g>
		<path class="st4" d="M14.1,46.9c-0.7,1.5-0.7,2.9,0,3.3s1.9-0.5,2.7-2c0.7-1.5,0.8-4.8,0.8-4.8S14.8,45.4,14.1,46.9z"/>
		<path class="st4" d="M13.2,42.3c-0.7,1.5-0.7,2.9,0,3.3c0.7,0.4,1.9-0.5,2.7-2c0.7-1.5,0.8-4.8,0.8-4.8S13.9,40.8,13.2,42.3z"/>
		<path class="st28" d="M12.3,37.7c-0.7,1.5-0.7,2.9,0,3.3c0.7,0.4,1.9-0.5,2.7-2c0.7-1.5,0.8-4.8,0.8-4.8S13,36.2,12.3,37.7z"/>
		<path class="st4" d="M11.4,33.1c-0.7,1.5-0.7,2.9,0,3.3c0.7,0.4,1.9-0.5,2.7-2s0.8-4.8,0.8-4.8S12.1,31.6,11.4,33.1z"/>
		<path class="st4" d="M10.5,28.5c-0.7,1.5-0.7,2.9,0,3.3c0.7,0.4,1.9-0.5,2.7-2c0.7-1.5,0.8-4.8,0.8-4.8S11.2,27,10.5,28.5z"/>
		<path class="st28" d="M9.6,23.8c-0.7,1.5-0.7,2.9,0,3.3c0.7,0.4,1.9-0.5,2.7-2s0.8-4.8,0.8-4.8S10.3,22.4,9.6,23.8z"/>
		<path class="st4" d="M8.7,19.2c-0.7,1.5-0.7,2.9,0,3.3s1.9-0.5,2.7-2c0.7-1.5,0.8-4.8,0.8-4.8S9.4,17.8,8.7,19.2z"/>
		<path class="st4" d="M7.8,14.6c-0.7,1.5-0.7,2.9,0,3.3s1.9-0.5,2.7-2c0.7-1.5,0.8-4.8,0.8-4.8S8.5,13.2,7.8,14.6z"/>
	</g>
	<line class="st4" x1="13.9" y1="51.2" x2="17.2" y2="67.8"/>
</g>
<g>
	<g>
		<path class="st4" d="M22.4,42.3c0.9,1.4,1,2.9,0.3,3.3s-2-0.4-2.8-1.7c-0.9-1.4-1.2-4.8-1.2-4.8S21.5,40.9,22.4,42.3z"/>
		<path class="st4" d="M22.9,37.7c0.9,1.4,1,2.9,0.3,3.3c-0.7,0.4-2-0.4-2.8-1.7c-0.9-1.4-1.2-4.8-1.2-4.8S22,36.3,22.9,37.7z"/>
		<path class="st25" d="M23.4,33c0.9,1.4,1,2.9,0.3,3.3c-0.7,0.4-2-0.4-2.8-1.7c-0.9-1.4-1.2-4.8-1.2-4.8S22.5,31.6,23.4,33z"/>
		<path class="st4" d="M23.9,28.3c0.9,1.4,1,2.9,0.3,3.3c-0.7,0.4-2-0.4-2.8-1.7c-0.9-1.4-1.2-4.8-1.2-4.8S23.1,26.9,23.9,28.3z"/>
		<path class="st4" d="M24.4,23.7c0.9,1.4,1,2.9,0.3,3.3s-2-0.4-2.8-1.7c-0.9-1.4-1.2-4.8-1.2-4.8S23.6,22.3,24.4,23.7z"/>
		<path class="st4" d="M24.9,19c0.9,1.4,1,2.9,0.3,3.3c-0.7,0.4-2-0.4-2.8-1.7c-0.9-1.4-1.2-4.8-1.2-4.8S24.1,17.6,24.9,19z"/>
		<path class="st4" d="M25.5,14.3c0.9,1.4,1,2.9,0.3,3.3s-2-0.4-2.8-1.7c-0.9-1.4-1.2-4.8-1.2-4.8S24.6,12.9,25.5,14.3z"/>
		<path class="st4" d="M26,9.7c0.9,1.4,1,2.9,0.3,3.3c-0.7,0.4-2-0.4-2.8-1.7c-0.9-1.4-1.2-4.8-1.2-4.8S25.1,8.3,26,9.7z"/>
	</g>
	<path class="st4" d="M28.8,6.4c-0.3,1.6-1.1,2.8-1.9,2.7C26,9,25.6,7.6,25.9,6c0.3-1.6,2.2-4.4,2.2-4.4S29,4.8,28.8,6.4z"/>
	<g>
		<path class="st4" d="M24.8,42.2c-1.1,1.2-1.6,2.6-1,3.2c0.6,0.6,2,0.1,3.1-1.1c1.1-1.2,2.2-4.4,2.2-4.4S26,41,24.8,42.2z"/>
		<path class="st4" d="M25.3,37.5c-1.1,1.2-1.6,2.6-1,3.2c0.6,0.6,2,0.1,3.1-1.1s2.2-4.4,2.2-4.4S26.5,36.4,25.3,37.5z"/>
		<path class="st4" d="M25.9,32.9c-1.1,1.2-1.6,2.6-1,3.2s2,0.1,3.1-1.1s2.2-4.4,2.2-4.4S27,31.7,25.9,32.9z"/>
		<path class="st4" d="M26.4,28.2c-1.1,1.2-1.6,2.6-1,3.2s2,0.1,3.1-1.1c1.1-1.2,2.2-4.4,2.2-4.4S27.5,27,26.4,28.2z"/>
		<path class="st28" d="M26.9,23.5c-1.1,1.2-1.6,2.6-1,3.2c0.6,0.6,2,0.1,3.1-1.1c1.1-1.2,2.2-4.4,2.2-4.4S28,22.4,26.9,23.5z"/>
		<path class="st4" d="M27.4,18.9c-1.1,1.2-1.6,2.6-1,3.2c0.6,0.6,2,0.1,3.1-1.1c1.1-1.2,2.2-4.4,2.2-4.4S28.5,17.7,27.4,18.9z"/>
		<path class="st4" d="M27.9,14.2c-1.1,1.2-1.6,2.6-1,3.2c0.6,0.6,2,0.1,3.1-1.1c1.1-1.2,2.2-4.4,2.2-4.4S29.1,13,27.9,14.2z"/>
		<path class="st4" d="M28.4,9.5c-1.1,1.2-1.6,2.6-1,3.2c0.6,0.6,2,0.1,3.1-1.1s2.2-4.4,2.2-4.4S29.6,8.4,28.4,9.5z"/>
	</g>
	<line class="st4" x1="23.4" y1="46.3" x2="21.5" y2="63.1"/>
</g>
<ellipse transform="matrix(0.9814 -0.1919 0.1919 0.9814 -9.5134 7.0216)" class="st28" cx="31.5" cy="52.6" rx="4.8" ry="1"/>
<ellipse transform="matrix(0.9987 -5.068186e-02 5.068186e-02 0.9987 -2.3613 1.8316)" class="st4" cx="34.9" cy="47.5" rx="4.8" ry="1"/>
<ellipse transform="matrix(0.1102 -0.9939 0.9939 0.1102 -13.3336 86.9066)" class="st4" cx="41.9" cy="50.9" rx="1" ry="4.8"/>
<ellipse transform="matrix(0.9814 -0.1919 0.1919 0.9814 -9.2233 10.6174)" class="st25" cx="50.2" cy="52.9" rx="4.8" ry="1"/>
<ellipse transform="matrix(0.1102 -0.9939 0.9939 0.1102 -17.6114 97.0203)" class="st28" cx="45.4" cy="58.3" rx="1" ry="4.8"/>
<ellipse transform="matrix(0.9814 -0.1919 0.1919 0.9814 -11.0152 8.0279)" class="st4" cx="35.9" cy="60.9" rx="4.8" ry="1"/>
<ellipse transform="matrix(0.1102 -0.9939 0.9939 0.1102 -6.9337 89.207)" class="st4" cx="46.4" cy="48.5" rx="1" ry="4.8"/>
<ellipse transform="matrix(0.2052 -0.9787 0.9787 0.2052 -21.2026 83.1478)" class="st4" cx="40.6" cy="54.6" rx="1" ry="4.8"/>
<ellipse transform="matrix(0.9932 -0.1166 0.1166 0.9932 -6.4117 4.1457)" class="st4" cx="32.2" cy="56.9" rx="4.8" ry="1"/>
</svg>
