<?xml version="1.0" encoding="utf-8"?>
<!-- Generator: Adobe Illustrator 23.0.1, SVG Export Plug-In . SVG Version: 6.00 Build 0)  -->
<svg version="1.1" id="Layer_1" xmlns="http://www.w3.org/2000/svg" xmlns:xlink="http://www.w3.org/1999/xlink" x="0px" y="0px"
	 viewBox="0 0 83.5 77.6" style="enable-background:new 0 0 83.5 77.6;" xml:space="preserve">
<style type="text/css">
	.st0{fill-rule:evenodd;clip-rule:evenodd;fill:none;stroke:#00C1A3;stroke-width:0.75;stroke-miterlimit:10;}
	.st1{fill:#FFFFFF;stroke:#0066FF;stroke-width:0.75;stroke-linecap:round;stroke-linejoin:round;stroke-miterlimit:10;}
	.st2{fill:none;stroke:#0066FF;stroke-width:0.75;stroke-linecap:round;stroke-linejoin:round;stroke-miterlimit:10;}
	.st3{fill:#FFFFFF;stroke:#0066FF;stroke-width:0.75;stroke-miterlimit:10;}
	.st4{fill:none;stroke:#0066FF;stroke-width:0.75;stroke-miterlimit:10;}
	.st5{fill:none;stroke:#00C1A3;stroke-width:0.75;stroke-miterlimit:10;}
	.st6{fill:none;stroke:#FF25F3;stroke-width:0.75;stroke-miterlimit:10;}
	.st7{fill:none;stroke:#FF25F3;stroke-width:0.75;stroke-linecap:round;stroke-linejoin:round;stroke-miterlimit:10;}
	.st8{fill-rule:evenodd;clip-rule:evenodd;fill:none;stroke:#0066FF;stroke-width:0.75;stroke-miterlimit:10;}
	.st9{clip-path:url(#SVGID_2_);fill-rule:evenodd;clip-rule:evenodd;fill:#FFFFFF;}
	.st10{fill-rule:evenodd;clip-rule:evenodd;fill:#FCFDFF;}
	.st11{fill-rule:evenodd;clip-rule:evenodd;fill:#FFFFFF;}
	.st12{fill-rule:evenodd;clip-rule:evenodd;fill:#3D6A9D;}
	.st13{fill:#FFFFFF;}
	.st14{fill:#0066FF;}
	.st15{fill-rule:evenodd;clip-rule:evenodd;fill:#FFFFFF;stroke:#0066FF;stroke-width:0.75;stroke-miterlimit:10;}
	.st16{fill-rule:evenodd;clip-rule:evenodd;fill:#FFFFFF;stroke:#44E0A0;stroke-width:0.75;stroke-miterlimit:10;}
	.st17{fill-rule:evenodd;clip-rule:evenodd;fill:#FFFFFF;stroke:#FF25F3;stroke-width:0.75;stroke-miterlimit:10;}
	.st18{fill:none;stroke:#FFFFFF;stroke-width:2.8774;stroke-miterlimit:10;}
	
		.st19{fill-rule:evenodd;clip-rule:evenodd;fill:none;stroke:#FF25F3;stroke-width:0.75;stroke-linecap:round;stroke-linejoin:round;stroke-miterlimit:10;}
	.st20{fill-rule:evenodd;clip-rule:evenodd;fill:#FFFFFF;stroke:#FFFFFF;stroke-width:0.7194;stroke-miterlimit:10;}
	.st21{fill:none;stroke:#FFFFFF;stroke-width:0.7194;stroke-miterlimit:10;}
	.st22{fill:none;stroke:#44E0A0;stroke-width:0.75;stroke-linecap:round;stroke-linejoin:round;stroke-miterlimit:10;}
	.st23{fill-rule:evenodd;clip-rule:evenodd;fill:#FFFFFF;stroke:#00C1A3;stroke-width:0.75;stroke-miterlimit:10;}
	.st24{fill:none;stroke:#0066FF;stroke-width:0.75;stroke-linecap:round;stroke-miterlimit:10;}
	.st25{fill:#FFFFFF;stroke:#00C1A3;stroke-width:0.75;stroke-miterlimit:10;}
	.st26{clip-path:url(#SVGID_4_);}
	
		.st27{fill-rule:evenodd;clip-rule:evenodd;fill:none;stroke:#0066FF;stroke-width:0.75;stroke-linecap:round;stroke-miterlimit:10;}
	.st28{fill:#FFFFFF;stroke:#FF25F3;stroke-width:0.75;stroke-miterlimit:10;}
	.st29{fill:#FFFFFF;stroke:#FF25F3;stroke-width:0.75;stroke-linecap:round;stroke-linejoin:round;stroke-miterlimit:10;}
	.st30{fill:none;stroke:#00FA9B;stroke-width:0.75;stroke-miterlimit:10;}
	.st31{fill:#87D73F;}
	.st32{fill:#3DED98;}
</style>
<circle class="st3" cx="28.6" cy="38.5" r="27.9"/>
<path class="st1" d="M23.1,13.2c0,0-2.2-8.5,0-9.7s3.1,2.9,3.1,2.9s1.8-6.5,2.5-5.9c0.7,0.6,2.1,2.2,2.1,4s0.8-2.8,2.3-3
	c1.6-0.2,1.7,11.6,1.7,11.6"/>
<path class="st4" d="M51.5,57.9c0,0-3.2,4.4-1.5,6.6c1,1.3,3.2,2,4.5,1.2c1.5-1,2.4-3.2,1.6-4.8C55.5,59.6,51.5,57.9,51.5,57.9z"/>
<path class="st4" d="M51.2,61.3c0,0,0.6,0.8,2.3,0.6c1.7-0.2,2-0.6,2-0.6"/>
<g>
	<path class="st4" d="M62.6,56.7c0,0-0.2,5.4,2.5,6.2c1.6,0.5,3.8-0.1,4.4-1.6c0.7-1.7,0.2-4-1.4-4.9C66.9,56,62.6,56.7,62.6,56.7z"
		/>
	<path class="st4" d="M64.2,58.2c0,0,0.5,0.9,2.2,0.9c1.7,0,2.1-0.3,2.1-0.3"/>
</g>
<path class="st4" d="M59.2,51.6c0,0-5.4,0.2-6.1,2.8c-0.4,1.6,0.3,3.8,1.8,4.3c1.7,0.6,4-0.1,4.8-1.7C60.2,55.8,59.2,51.6,59.2,51.6
	z"/>
<path class="st4" d="M54.3,53.6c0,0,0.4,0.9,2.2,1c1.7,0.1,2.1-0.2,2.1-0.2"/>
<path class="st4" d="M75.9,57.6c0,0-0.5,5.4,2.1,6.4c1.5,0.6,3.8,0.1,4.5-1.3c0.8-1.6,0.4-4-1.1-4.9C80.2,57.1,75.9,57.6,75.9,57.6z
	"/>
<path class="st4" d="M77.5,58.9c0,0,0.6,0.8,2.3,0.6s2-0.6,2-0.6"/>
<path class="st28" d="M62.5,61.3c0,0-5.4,0.4-5.9,3.1c-0.3,1.6,0.5,3.8,2,4.2c1.8,0.5,4-0.3,4.7-1.9C63.8,65.5,62.5,61.3,62.5,61.3z
	"/>
<path class="st28" d="M57.8,63.8c0,0,0.6,0.8,2.3,0.6c1.7-0.2,2-0.6,2-0.6"/>
<g>
	<path class="st4" d="M71.1,63.4c0,0-5.4-0.2-6.2,2.5c-0.5,1.6,0.1,3.8,1.6,4.4c1.7,0.7,4,0.2,4.9-1.4
		C71.9,67.7,71.1,63.4,71.1,63.4z"/>
	<path class="st4" d="M66.6,64.7c0,0,0.3,1,2,1.3c1.7,0.3,2.1,0.1,2.1,0.1"/>
</g>
<path class="st25" d="M48.8,67.6c0,0-5.4,0.4-5.9,3.1c-0.3,1.6,0.5,3.8,2,4.2c1.8,0.5,4-0.3,4.7-1.9C50.1,71.8,48.8,67.6,48.8,67.6z
	"/>
<path class="st25" d="M44.1,70.4c0,0,0.6,0.8,2.3,0.6s2-0.6,2-0.6"/>
<g>
	<path class="st4" d="M61.7,68.8c0,0-4.9,2.2-4.5,5c0.2,1.6,1.8,3.4,3.3,3.2c1.8-0.1,3.7-1.6,3.8-3.4C64.3,72.3,61.7,68.8,61.7,68.8
		z"/>
	<path class="st4" d="M58.3,71.9c0,0,0.7,0.8,2.4,0.3s1.9-0.9,1.9-0.9"/>
</g>
</svg>
