<?xml version="1.0" encoding="utf-8"?>
<!-- Generator: Adobe Illustrator 23.0.1, SVG Export Plug-In . SVG Version: 6.00 Build 0)  -->
<svg version="1.1" id="Layer_1" xmlns="http://www.w3.org/2000/svg" xmlns:xlink="http://www.w3.org/1999/xlink" x="0px" y="0px"
	 viewBox="0 0 76.6 41.2" style="enable-background:new 0 0 76.6 41.2;" xml:space="preserve">
<style type="text/css">
	.st0{fill-rule:evenodd;clip-rule:evenodd;fill:none;stroke:#00C1A3;stroke-width:0.75;stroke-miterlimit:10;}
	.st1{fill:#FFFFFF;stroke:#0066FF;stroke-width:0.75;stroke-linecap:round;stroke-linejoin:round;stroke-miterlimit:10;}
	.st2{fill:none;stroke:#0066FF;stroke-width:0.75;stroke-linecap:round;stroke-linejoin:round;stroke-miterlimit:10;}
	.st3{fill:#FFFFFF;stroke:#0066FF;stroke-width:0.75;stroke-miterlimit:10;}
	.st4{fill:none;stroke:#0066FF;stroke-width:0.75;stroke-miterlimit:10;}
	.st5{fill:none;stroke:#00C1A3;stroke-width:0.75;stroke-miterlimit:10;}
	.st6{fill:none;stroke:#FF25F3;stroke-width:0.75;stroke-miterlimit:10;}
	.st7{fill:none;stroke:#FF25F3;stroke-width:0.75;stroke-linecap:round;stroke-linejoin:round;stroke-miterlimit:10;}
	.st8{fill-rule:evenodd;clip-rule:evenodd;fill:none;stroke:#0066FF;stroke-width:0.75;stroke-miterlimit:10;}
	.st9{clip-path:url(#SVGID_2_);fill-rule:evenodd;clip-rule:evenodd;fill:#FFFFFF;}
	.st10{fill-rule:evenodd;clip-rule:evenodd;fill:#FCFDFF;}
	.st11{fill-rule:evenodd;clip-rule:evenodd;fill:#FFFFFF;}
	.st12{fill-rule:evenodd;clip-rule:evenodd;fill:#3D6A9D;}
	.st13{fill:#FFFFFF;}
	.st14{fill:#0066FF;}
	.st15{fill-rule:evenodd;clip-rule:evenodd;fill:#FFFFFF;stroke:#0066FF;stroke-width:0.75;stroke-miterlimit:10;}
	.st16{fill-rule:evenodd;clip-rule:evenodd;fill:#FFFFFF;stroke:#44E0A0;stroke-width:0.75;stroke-miterlimit:10;}
	.st17{fill-rule:evenodd;clip-rule:evenodd;fill:#FFFFFF;stroke:#FF25F3;stroke-width:0.75;stroke-miterlimit:10;}
	.st18{fill:none;stroke:#FFFFFF;stroke-width:2.8774;stroke-miterlimit:10;}
	
		.st19{fill-rule:evenodd;clip-rule:evenodd;fill:none;stroke:#FF25F3;stroke-width:0.75;stroke-linecap:round;stroke-linejoin:round;stroke-miterlimit:10;}
	.st20{fill-rule:evenodd;clip-rule:evenodd;fill:#FFFFFF;stroke:#FFFFFF;stroke-width:0.7194;stroke-miterlimit:10;}
	.st21{fill:none;stroke:#FFFFFF;stroke-width:0.7194;stroke-miterlimit:10;}
	.st22{fill:none;stroke:#44E0A0;stroke-width:0.75;stroke-linecap:round;stroke-linejoin:round;stroke-miterlimit:10;}
	.st23{fill-rule:evenodd;clip-rule:evenodd;fill:#FFFFFF;stroke:#00C1A3;stroke-width:0.75;stroke-miterlimit:10;}
	.st24{fill:none;stroke:#0066FF;stroke-width:0.75;stroke-linecap:round;stroke-miterlimit:10;}
	.st25{fill:#FFFFFF;stroke:#00C1A3;stroke-width:0.75;stroke-miterlimit:10;}
	.st26{clip-path:url(#SVGID_4_);}
	
		.st27{fill-rule:evenodd;clip-rule:evenodd;fill:none;stroke:#0066FF;stroke-width:0.75;stroke-linecap:round;stroke-miterlimit:10;}
	.st28{fill:#FFFFFF;stroke:#FF25F3;stroke-width:0.75;stroke-miterlimit:10;}
	.st29{fill:#FFFFFF;stroke:#FF25F3;stroke-width:0.75;stroke-linecap:round;stroke-linejoin:round;stroke-miterlimit:10;}
	.st30{fill:none;stroke:#00FA9B;stroke-width:0.75;stroke-miterlimit:10;}
	.st31{fill:#87D73F;}
	.st32{fill:#3DED98;}
</style>
<g>
	<path class="st3" d="M25.8,0.9c-3.1,0-6.2-0.3-9.2,0.4C8.3,3,1.7,9.2,1,17.7c0,0.6,0.7,3.4,0.8,3.9C2,22.6,3.3,28.3,4,29
		c2.9,3.1,3.9,2.5,8,3.7c4.3,1.2,13.7-0.2,18.1-1.4c5.6-1.5,11.9-3.5,16.3-6.6c3.5-2.5,3.8-5.7,3.9-8.9c0.1-2.3-3-4.8-3.8-7.1
		C43.5,0.4,32.9,0.9,25.8,0.9z"/>
	<path class="st4" d="M41.3,8.8c1.8,2.8,2.5,6.3,1.9,9.6"/>
	<path class="st4" d="M38.1,19c-0.4,1-0.7,2.2-0.7,3.3"/>
	<path class="st4" d="M31.7,5.9c0.9,1.6,1.7,3.3,2.1,5.1"/>
	<path class="st5" d="M28.4,14.3c0.1,1.5,0.1,3-0.2,4.5s-1.1,2.9-2.4,3.7"/>
	<path class="st6" d="M20.2,10.6c-2.5-2.4-5.7-4.1-9.1-4.8"/>
	<path class="st4" d="M12.6,16.1c0.9,1.7,1.2,3.7,1,5.6"/>
	<path class="st4" d="M20,24.1c-0.3,1.9-1.4,3.7-3.1,4.8"/>
</g>
<g>
	<path class="st3" d="M55.6,13.6C53.1,14,50.8,15,48.5,16c-1.7,0.8-3.5,1.6-5.2,2.4c-1.4,0.6-2.8,1.3-4,2.3c-1.6,1.3-2.7,3.1-3.6,5
		c-0.8,1.7-1.4,3.6-0.9,5.4c0.5,1.6,1.8,2.9,3.2,3.9c4,3,8.7,5.2,13.6,5.6c2.6,0.2,5.2-0.2,7.8-0.5c2.6-0.3,5.2-0.7,7.5-1.9
		c1.8-1,3.3-2.4,4.8-3.9c1.6-1.6,3.4-3.4,3.8-5.6c0.5-3.1-1.7-6-4.2-7.8c-2.5-1.8-5.4-3-7.9-4.9C61,14.1,58.6,13.2,55.6,13.6z"/>
	<path class="st4" d="M58.2,24.4c0.6,0.7,1.2,1.4,1.8,2.2"/>
	<path class="st4" d="M58,30.5c0,0.5,0,1,0,1.4"/>
	<path class="st4" d="M63.4,28.9c0.1,0.4,0.3,0.8,0.6,1.1"/>
	<path class="st4" d="M46,20.7c0.8-0.1,1.6,0.5,2.2,1.1c0.6,0.6,1.2,1.3,2,1.6"/>
	<path class="st4" d="M55.6,17.2c1.3,0.6,2.5,1.2,3.8,1.8"/>
	<path class="st3" d="M49.4,29.2c0,1.6-0.3,3.2-1,4.7"/>
	<path class="st6" d="M68.3,25.8c1.2,2,1.1,4.5,0.9,6.8"/>
</g>
</svg>
