<?xml version="1.0" encoding="utf-8"?>
<!-- Generator: Adobe Illustrator 23.0.1, SVG Export Plug-In . SVG Version: 6.00 Build 0)  -->
<svg version="1.1" id="Layer_1" xmlns="http://www.w3.org/2000/svg" xmlns:xlink="http://www.w3.org/1999/xlink" x="0px" y="0px"
	 viewBox="0 0 52.1 67.3" style="enable-background:new 0 0 52.1 67.3;" xml:space="preserve">
<style type="text/css">
	.st0{fill:none;stroke:#0066FF;stroke-width:0.75;stroke-linejoin:round;stroke-miterlimit:10;}
	.st1{fill:#FFFFFF;stroke:#00C1A3;stroke-width:0.75;stroke-miterlimit:10;}
	.st2{fill:#FFFFFF;stroke:#0066FF;stroke-width:0.75;stroke-miterlimit:10;}
	.st3{fill:none;stroke:#00C1A3;stroke-width:0.75;stroke-miterlimit:10;}
	
		.st4{fill-rule:evenodd;clip-rule:evenodd;fill:none;stroke:#FF25F3;stroke-width:0.75;stroke-linecap:round;stroke-linejoin:round;stroke-miterlimit:10;}
	.st5{fill:none;stroke:#0066FF;stroke-width:0.75;stroke-miterlimit:10;}
	.st6{fill-rule:evenodd;clip-rule:evenodd;fill:none;stroke:#0066FF;stroke-width:0.75;stroke-miterlimit:10;}
	.st7{fill-rule:evenodd;clip-rule:evenodd;fill:none;stroke:#00C1A3;stroke-width:0.75;stroke-miterlimit:10;}
	.st8{fill:none;stroke:#FF25F3;stroke-width:0.75;stroke-linecap:round;stroke-linejoin:round;stroke-miterlimit:10;}
	.st9{fill:#FFFFFF;stroke:#FF25F3;stroke-width:0.75;stroke-linecap:round;stroke-linejoin:round;stroke-miterlimit:10;}
	.st10{fill-rule:evenodd;clip-rule:evenodd;fill:#FFFFFF;stroke:#0066FF;stroke-width:0.75;stroke-miterlimit:10;}
	
		.st11{fill-rule:evenodd;clip-rule:evenodd;fill:#FFFFFF;stroke:#FF25F3;stroke-width:0.75;stroke-linecap:round;stroke-linejoin:round;stroke-miterlimit:10;}
	.st12{fill-rule:evenodd;clip-rule:evenodd;fill:#FFFFFF;stroke:#00C1A3;stroke-width:0.75;stroke-miterlimit:10;}
	.st13{fill:none;stroke:#0066FF;stroke-width:0.75;stroke-linecap:round;stroke-linejoin:round;stroke-miterlimit:10;}
	.st14{fill:#FFFFFF;stroke:#00C1A3;stroke-width:0.75;stroke-linecap:round;stroke-linejoin:round;stroke-miterlimit:10;}
	
		.st15{fill-rule:evenodd;clip-rule:evenodd;fill:#FFFFFF;stroke:#0066FF;stroke-width:0.75;stroke-linecap:round;stroke-linejoin:round;stroke-miterlimit:10;}
	
		.st16{fill-rule:evenodd;clip-rule:evenodd;fill:none;stroke:#0066FF;stroke-width:0.75;stroke-linecap:round;stroke-linejoin:round;stroke-miterlimit:10;}
	.st17{fill:#FFFFFF;stroke:#0066FF;stroke-width:0.75;stroke-linejoin:round;stroke-miterlimit:10;}
	.st18{fill:none;stroke:#FF25F3;stroke-width:0.75;stroke-linecap:round;stroke-miterlimit:10;}
	.st19{fill:none;stroke:#00C1A3;stroke-width:0.75;stroke-miterlimit:10;stroke-dasharray:1.9953,1.9953;}
	.st20{fill:none;stroke:#FF25F3;stroke-width:0.75;stroke-linecap:round;stroke-miterlimit:10;stroke-dasharray:1.9953,1.9953;}
	.st21{fill:#0066FF;}
	.st22{fill:#FF25F3;}
	.st23{fill:none;stroke:#FF25F3;stroke-width:0.75;stroke-linejoin:round;stroke-miterlimit:10;}
	.st24{fill:none;stroke:#FF25F3;stroke-width:0.75;stroke-miterlimit:10;}
	.st25{fill:none;stroke:#0066FF;stroke-width:0.75;stroke-linecap:round;stroke-miterlimit:10;}
</style>
<g>
	<polyline class="st5" points="19.2,55.7 17,57.9 2.8,43.7 34,12.5 47.2,13.5 48.2,26.7 35.8,39.1 	"/>
	<circle class="st5" cx="42.9" cy="17.8" r="1.7"/>
	<path class="st5" d="M41.6,13.6c-0.1-1.5,0.1-3.4,0.6-5.4c1.2-4.3,3.7-7.4,5.6-6.8c1.8,0.5,2.4,4.4,1.1,8.7
		c-1.2,4.3-3.7,7.4-5.6,6.8"/>
	<g>
		<path class="st1" d="M38.8,23.4c0,0-2.2,2.8-5.2,2.6c-1.2-0.1-3.1-0.9-3.1-0.9L29.3,34"/>
		<line class="st1" x1="34.7" y1="19.3" x2="41.4" y2="26"/>
		<line class="st1" x1="32.5" y1="21.5" x2="39.2" y2="28.2"/>
	</g>
</g>
<g>
	<g>
		
			<rect x="38.2" y="47.4" transform="matrix(-1 -1.002297e-10 1.002297e-10 -1 79.9293 108.6612)" class="st10" width="3.4" height="13.8"/>
		
			<rect x="33.8" y="52.7" transform="matrix(-1 -4.401647e-11 4.401647e-11 -1 71.0838 113.9052)" class="st10" width="3.4" height="8.6"/>
		
			<rect x="29.4" y="50.8" transform="matrix(-1 -3.712243e-11 3.712243e-11 -1 62.2382 112.0591)" class="st10" width="3.4" height="10.4"/>
		
			<rect x="25" y="56.1" transform="matrix(-1 -1.643986e-11 1.643986e-11 -1 53.3926 117.3446)" class="st10" width="3.4" height="5.2"/>
		<line class="st5" x1="43.7" y1="63" x2="22.9" y2="63"/>
		<polyline class="st15" points="26.3,50.7 30.8,46.8 35.5,49.4 39.3,44.1 		"/>
		<circle class="st1" cx="26.3" cy="50.7" r="1"/>
		<circle class="st17" cx="30.8" cy="46.8" r="1"/>
		<circle class="st17" cx="35.5" cy="49.4" r="1"/>
		<circle class="st9" cx="39.3" cy="44.1" r="1"/>
	</g>
	<path class="st5" d="M44,66.3H22.5c-1.5,0-2.8-1.3-2.8-2.8v-21c0-1.5,1.3-2.8,2.8-2.8H44c1.5,0,2.8,1.3,2.8,2.8v21
		C46.8,65.1,45.6,66.3,44,66.3z"/>
</g>
</svg>
