<?xml version="1.0" encoding="utf-8"?>
<!-- Generator: Adobe Illustrator 23.0.1, SVG Export Plug-In . SVG Version: 6.00 Build 0)  -->
<svg version="1.1" id="Layer_1" xmlns="http://www.w3.org/2000/svg" xmlns:xlink="http://www.w3.org/1999/xlink" x="0px" y="0px"
	 viewBox="0 0 55 73" style="enable-background:new 0 0 55 73;" xml:space="preserve">
<style type="text/css">
	.st0{fill:none;stroke:#0066FF;stroke-width:0.75;stroke-miterlimit:10;}
	.st1{fill:none;stroke:#FF25F3;stroke-width:0.75;stroke-linecap:round;stroke-linejoin:round;stroke-miterlimit:10;}
	.st2{fill:none;stroke:#00C1A3;stroke-width:0.75;stroke-miterlimit:10;}
	.st3{fill-rule:evenodd;clip-rule:evenodd;fill:none;stroke:#0066FF;stroke-width:0.75;stroke-miterlimit:10;}
	.st4{fill:none;stroke:#FF25F3;stroke-width:0.75;stroke-linejoin:round;stroke-miterlimit:10;}
	.st5{fill:none;stroke:#FF25F3;stroke-width:0.75;stroke-miterlimit:10;}
	
		.st6{fill-rule:evenodd;clip-rule:evenodd;fill:none;stroke:#FF25F3;stroke-width:0.75;stroke-linejoin:round;stroke-miterlimit:10;}
	.st7{fill-rule:evenodd;clip-rule:evenodd;fill:none;stroke:#00C1A3;stroke-width:0.75;stroke-miterlimit:10;}
	
		.st8{fill-rule:evenodd;clip-rule:evenodd;fill:none;stroke:#FF25F3;stroke-width:0.75;stroke-linecap:round;stroke-linejoin:round;stroke-miterlimit:10;}
</style>
<g>
	<polyline class="st3" points="46.2,39.4 46.2,2.4 2.2,2.4 2.2,57.5 23,57.5 	"/>
	<path class="st6" d="M32.5,37.3c-13.5,2.5-9,21.5,3.5,19C48.1,53.8,44.7,35,32.5,37.3L32.5,37.3z"/>
	<path class="st3" d="M31.4,35.7c6.8-1.6,12.3,3.2,13.5,8.5c1.6,7-3.2,12.5-8.5,13.6c-6.9,1.6-12.3-3.2-13.6-8.5
		C21.2,42.3,26,37,31.4,35.7L31.4,35.7z M18.8,41.9c-0.2,2.7,1.6,3.5,1.6,5.2c0.1,1.8-1.8,2.5-1.6,5.3c2,1.5,3.4,1.7,4.1,2.5
		c1.2,1.6,0.2,4,1.7,5c1.9,1.1,3.9-0.8,5.6,0.2c1.1,0.6,2,2.9,3.8,2.8c1.7-0.1,2.5-2,3.5-2.8c1.5-1,3.7,0.5,6-0.2
		c1.8-3.9-1-4.1,3.5-6.3c4.4-2.1,0.5-3.8,0.4-6.4c-0.2-2.6,4.2-4.6-0.3-6.7c-1.4-0.6-2.3-0.8-2.7-2.3c-0.4-1.5,0-3.3-1.2-4.1
		c-2.3-1.6-3.7,2.2-7.2-1.6c-3.3-3.5-3.9,0.2-5.9,1.4c-2.7,1.6-5.9-2.8-6.6,2.5C23.1,40.7,21.6,39.8,18.8,41.9L18.8,41.9z"/>
	<rect x="10.5" y="9.8" class="st7" width="27.4" height="3.2"/>
	<line class="st0" x1="10.5" y1="16.5" x2="37.5" y2="16.5"/>
	<line class="st0" x1="10.5" y1="19.5" x2="37.5" y2="19.5"/>
	<line class="st0" x1="10.5" y1="22.5" x2="37.5" y2="22.5"/>
	<line class="st0" x1="10.5" y1="25.5" x2="37.5" y2="25.5"/>
	<line class="st0" x1="10.5" y1="28.5" x2="37.5" y2="28.5"/>
	<polyline class="st3" points="23.5,56.5 17.5,63.5 23.5,63.5 26.5,70.5 32.5,62.5 	"/>
	<polyline class="st3" points="45.5,54.5 52.5,62.5 46.5,62.5 43.5,69.5 36.5,60.5 	"/>
</g>
</svg>
