<?xml version="1.0" encoding="utf-8"?>
<!-- Generator: Adobe Illustrator 23.0.1, SVG Export Plug-In . SVG Version: 6.00 Build 0)  -->
<svg version="1.1" id="Layer_1" xmlns="http://www.w3.org/2000/svg" xmlns:xlink="http://www.w3.org/1999/xlink" x="0px" y="0px"
	 viewBox="0 0 105.7 41" style="enable-background:new 0 0 105.7 41;" xml:space="preserve">
<style type="text/css">
	.st0{fill:none;stroke:#0066FF;stroke-width:0.75;stroke-linejoin:round;stroke-miterlimit:10;}
	.st1{fill:#FFFFFF;stroke:#00C1A3;stroke-width:0.75;stroke-miterlimit:10;}
	.st2{fill:#FFFFFF;stroke:#0066FF;stroke-width:0.75;stroke-miterlimit:10;}
	.st3{fill:none;stroke:#00C1A3;stroke-width:0.75;stroke-miterlimit:10;}
	
		.st4{fill-rule:evenodd;clip-rule:evenodd;fill:none;stroke:#FF25F3;stroke-width:0.75;stroke-linecap:round;stroke-linejoin:round;stroke-miterlimit:10;}
	.st5{fill:none;stroke:#0066FF;stroke-width:0.75;stroke-miterlimit:10;}
	.st6{fill-rule:evenodd;clip-rule:evenodd;fill:none;stroke:#0066FF;stroke-width:0.75;stroke-miterlimit:10;}
	.st7{fill-rule:evenodd;clip-rule:evenodd;fill:none;stroke:#00C1A3;stroke-width:0.75;stroke-miterlimit:10;}
	.st8{fill:none;stroke:#FF25F3;stroke-width:0.75;stroke-linecap:round;stroke-linejoin:round;stroke-miterlimit:10;}
	.st9{fill:#FFFFFF;stroke:#FF25F3;stroke-width:0.75;stroke-linecap:round;stroke-linejoin:round;stroke-miterlimit:10;}
	.st10{fill-rule:evenodd;clip-rule:evenodd;fill:#FFFFFF;stroke:#0066FF;stroke-width:0.75;stroke-miterlimit:10;}
	
		.st11{fill-rule:evenodd;clip-rule:evenodd;fill:#FFFFFF;stroke:#FF25F3;stroke-width:0.75;stroke-linecap:round;stroke-linejoin:round;stroke-miterlimit:10;}
	.st12{fill-rule:evenodd;clip-rule:evenodd;fill:#FFFFFF;stroke:#00C1A3;stroke-width:0.75;stroke-miterlimit:10;}
	.st13{fill:none;stroke:#0066FF;stroke-width:0.75;stroke-linecap:round;stroke-linejoin:round;stroke-miterlimit:10;}
	.st14{fill:#FFFFFF;stroke:#00C1A3;stroke-width:0.75;stroke-linecap:round;stroke-linejoin:round;stroke-miterlimit:10;}
	
		.st15{fill-rule:evenodd;clip-rule:evenodd;fill:#FFFFFF;stroke:#0066FF;stroke-width:0.75;stroke-linecap:round;stroke-linejoin:round;stroke-miterlimit:10;}
	
		.st16{fill-rule:evenodd;clip-rule:evenodd;fill:none;stroke:#0066FF;stroke-width:0.75;stroke-linecap:round;stroke-linejoin:round;stroke-miterlimit:10;}
	.st17{fill:#FFFFFF;stroke:#0066FF;stroke-width:0.75;stroke-linejoin:round;stroke-miterlimit:10;}
	.st18{fill:none;stroke:#FF25F3;stroke-width:0.75;stroke-linecap:round;stroke-miterlimit:10;}
	.st19{fill:none;stroke:#00C1A3;stroke-width:0.75;stroke-miterlimit:10;stroke-dasharray:1.9953,1.9953;}
	.st20{fill:none;stroke:#FF25F3;stroke-width:0.75;stroke-linecap:round;stroke-miterlimit:10;stroke-dasharray:1.9953,1.9953;}
	.st21{fill:#FFFFFF;stroke:#000000;stroke-miterlimit:10;}
	.st22{fill:#0066FF;}
	.st23{fill:#FF25F3;}
	.st24{fill:none;stroke:#FF25F3;stroke-width:0.75;stroke-linejoin:round;stroke-miterlimit:10;}
	.st25{fill:none;stroke:#FF25F3;stroke-width:0.75;stroke-miterlimit:10;}
	.st26{fill:none;stroke:#0066FF;stroke-width:0.75;stroke-linecap:round;stroke-miterlimit:10;}
	.st27{fill:none;stroke:#FFFFFF;stroke-width:0.75;stroke-miterlimit:10;}
	.st28{fill:none;stroke:#0000FF;stroke-width:2;stroke-miterlimit:10;}
	.st29{fill:none;stroke:#00C1A3;stroke-width:2;stroke-miterlimit:10;}
	.st30{fill:none;stroke:#FF25F3;stroke-width:2;stroke-linecap:round;stroke-linejoin:round;stroke-miterlimit:10;}
	.st31{fill:none;stroke:#FF25F3;stroke-width:0.75;stroke-linejoin:round;}
	.st32{fill:none;stroke:#FF25F3;stroke-width:0.75;stroke-linejoin:round;stroke-dasharray:1.916,1.916;}
	.st33{fill:none;stroke:#FF25F3;stroke-width:0.75;stroke-miterlimit:10;stroke-dasharray:1.916,1.916;}
	.st34{fill:none;}
	.st35{fill-rule:evenodd;clip-rule:evenodd;fill:none;stroke:#FF25F3;stroke-width:0.75;stroke-miterlimit:10;}
</style>
<g>
	<path class="st5" d="M32.6,39.4c0-8.3-7.1-11-15.4-11c-8.3,0-15.1,2.8-15.4,11H32.6z"/>
	<path class="st5" d="M11.9,17c-0.3-0.5-1.2-0.5-1.5-0.5C9.9,16.7,9.7,18,10,19.2c0.3,1.2,0.9,2,1.5,1.9c0.1,0,0.2-0.1,0.3-0.2
		l0.2,1.5c0,0,0.7,4.2,5.4,4.2c2.3,0,4.7-2.6,5-4c0.1-0.5,0.3-1,0.4-1.5c0.1,0.1,0.1,0.2,0.2,0.2c0.5,0.2,1.2-0.6,1.7-1.7
		c0.4-1.1,0.4-2.5-0.1-2.6c-0.2-0.1-0.8-0.1-1.1,0.1"/>
	<path class="st5" d="M11.9,16.8c-1.6-1.2-3.1-3.1-3.1-5c0-3.8,4-6.9,9-6.9s9,3.1,9,6.9c0,2.2-1.3,3.7-3.3,5"/>
	<line class="st5" x1="25.4" y1="8.1" x2="11.7" y2="16.8"/>
	<line class="st5" x1="19.3" y1="12" x2="23.8" y2="17.1"/>
	<polyline class="st5" points="23.3,6.3 24.6,1.4 29.8,3.4 25.4,8.1 	"/>
	<path class="st26" d="M18.9,17.9c0,0,0.6-0.2,1.1-0.2c0.5,0,1.1,0.2,1.1,0.2"/>
	<path class="st26" d="M13.9,17.7c0,0,0.6-0.2,1.1-0.2c0.5,0,1.1,0.2,1.1,0.2"/>
	<path class="st26" d="M15.4,22.5c0,0,0.9,0.4,1.8,0.4c0.9,0,1.8-0.4,1.8-0.4"/>
</g>
<g>
	<path class="st5" d="M68.1,39.4c0-8.3-7.1-11-15.4-11c-8.3,0-15.1,2.8-15.4,11H68.1z"/>
	<path class="st26" d="M54.5,17.9c0,0,0.6-0.2,1.1-0.2c0.5,0,1.1,0.2,1.1,0.2"/>
	<path class="st26" d="M49.5,17.7c0,0,0.6-0.2,1.1-0.2c0.5,0,1.1,0.2,1.1,0.2"/>
	<path class="st26" d="M51,22.5c0,0,0.9,0.4,1.8,0.4c0.9,0,1.8-0.4,1.8-0.4"/>
	<ellipse class="st5" cx="53.5" cy="7.2" rx="6" ry="2.6"/>
	<path class="st5" d="M59.8,11.7c1.7,0.4,2.8,0.9,2.8,1.5c0,1.1-4.2,2.1-9.4,2.1s-9.4-0.9-9.4-2.1c0-0.6,1.1-1.1,2.8-1.5"/>
	<path class="st5" d="M60.2,12.5c0,0.9-3,1.6-6.8,1.6s-6.8-0.7-6.8-1.6"/>
	<line class="st5" x1="47.4" y1="7.2" x2="46.7" y2="12.5"/>
	<line class="st5" x1="59.5" y1="7.2" x2="60.2" y2="12.5"/>
	<path class="st5" d="M59.2,15l-0.1,1.9c0.3-0.2,0.9-0.2,1.1-0.1c0.5,0.2,0.5,1.5,0.1,2.6c-0.4,1.1-1.2,1.9-1.7,1.7
		c-0.1,0-0.2-0.1-0.2-0.2c-0.1,0.5-0.3,1-0.4,1.5c-0.4,1.4-2.8,4-5,4c-4.7,0-5.4-4.2-5.4-4.2l-0.2-1.5C47.3,21,47.2,21,47.1,21
		c-0.5,0.1-1.2-0.7-1.5-1.9c-0.3-1.2-0.2-2.5,0.4-2.6c0.3-0.1,1.2,0,1.5,0.5l0.2-1.9"/>
	<line class="st5" x1="46.3" y1="14.6" x2="46.5" y2="16.6"/>
	<line class="st5" x1="60.5" y1="14.5" x2="59.9" y2="16.9"/>
</g>
<g>
	<path class="st5" d="M103.7,39.5c0-8.3-7.1-11-15.4-11c-8.3,0-15.1,2.8-15.4,11H103.7z"/>
	<path class="st26" d="M90,18c0,0,0.6-0.2,1.1-0.2c0.5,0,1.1,0.2,1.1,0.2"/>
	<path class="st26" d="M85,17.8c0,0,0.6-0.2,1.1-0.2c0.5,0,1.1,0.2,1.1,0.2"/>
	<path class="st26" d="M86.5,22.6c0,0,0.9,0.4,1.8,0.4c0.9,0,1.8-0.4,1.8-0.4"/>
	<ellipse class="st5" cx="89" cy="7.3" rx="6" ry="2.6"/>
	<path class="st5" d="M95.4,11.8c1.7,0.4,2.8,0.9,2.8,1.5c0,1.1-4.2,2.1-9.4,2.1c-5.2,0-9.4-0.9-9.4-2.1c0-0.6,1.1-1.1,2.8-1.5"/>
	<path class="st5" d="M95.8,12.6c0,0.9-3,1.6-6.8,1.6s-6.8-0.7-6.8-1.6"/>
	<line class="st5" x1="83" y1="7.3" x2="82.3" y2="12.6"/>
	<line class="st5" x1="95" y1="7.3" x2="95.8" y2="12.6"/>
	<path class="st5" d="M94.8,15.1L94.7,17c0.3-0.2,0.9-0.2,1.1-0.1c0.5,0.2,0.5,1.5,0.1,2.6c-0.4,1.1-1.2,1.9-1.7,1.7
		c-0.1,0-0.2-0.1-0.2-0.2c-0.1,0.5-0.3,1-0.4,1.5c-0.4,1.4-2.8,4-5,4c-4.7,0-5.4-4.2-5.4-4.2L82.9,21c-0.1,0.1-0.2,0.2-0.3,0.2
		c-0.5,0.1-1.2-0.7-1.5-1.9c-0.3-1.2-0.2-2.5,0.4-2.6c0.3-0.1,1.2,0,1.5,0.5l0.2-1.9"/>
	<line class="st5" x1="81.8" y1="14.7" x2="82.1" y2="16.7"/>
	<line class="st5" x1="96.1" y1="14.6" x2="95.5" y2="17"/>
</g>
<polygon class="st24" points="65.3,15.4 71,15.4 71,12 77.4,19.3 71,26.7 71,23.3 65.3,23.3 "/>
<polygon class="st3" points="29.8,15.4 35.5,15.4 35.5,12 41.9,19.3 35.5,26.7 35.5,23.3 29.8,23.3 "/>
</svg>
