<?xml version="1.0" encoding="utf-8"?>
<!-- Generator: Adobe Illustrator 23.0.1, SVG Export Plug-In . SVG Version: 6.00 Build 0)  -->
<svg version="1.1" id="Layer_1" xmlns="http://www.w3.org/2000/svg" xmlns:xlink="http://www.w3.org/1999/xlink" x="0px" y="0px"
	 viewBox="0 0 54.7 34.1" style="enable-background:new 0 0 54.7 34.1;" xml:space="preserve">
<style type="text/css">
	.st0{fill-rule:evenodd;clip-rule:evenodd;fill:none;stroke:#00C1A3;stroke-width:0.75;stroke-miterlimit:10;}
	.st1{fill:#FFFFFF;stroke:#0066FF;stroke-width:0.75;stroke-linecap:round;stroke-linejoin:round;stroke-miterlimit:10;}
	.st2{fill:none;stroke:#0066FF;stroke-width:0.75;stroke-linecap:round;stroke-linejoin:round;stroke-miterlimit:10;}
	.st3{fill:#FFFFFF;stroke:#0066FF;stroke-width:0.75;stroke-miterlimit:10;}
	.st4{fill:none;stroke:#0066FF;stroke-width:0.75;stroke-miterlimit:10;}
	.st5{fill:none;stroke:#00C1A3;stroke-width:0.75;stroke-miterlimit:10;}
	.st6{fill:none;stroke:#FF25F3;stroke-width:0.75;stroke-miterlimit:10;}
	.st7{fill:none;stroke:#FF25F3;stroke-width:0.75;stroke-linecap:round;stroke-linejoin:round;stroke-miterlimit:10;}
	.st8{fill-rule:evenodd;clip-rule:evenodd;fill:none;stroke:#0066FF;stroke-width:0.75;stroke-miterlimit:10;}
	.st9{clip-path:url(#SVGID_2_);fill-rule:evenodd;clip-rule:evenodd;fill:#FFFFFF;}
	.st10{fill-rule:evenodd;clip-rule:evenodd;fill:#FCFDFF;}
	.st11{fill-rule:evenodd;clip-rule:evenodd;fill:#FFFFFF;}
	.st12{fill-rule:evenodd;clip-rule:evenodd;fill:#3D6A9D;}
	.st13{fill:#FFFFFF;}
	.st14{fill:#0066FF;}
	.st15{fill-rule:evenodd;clip-rule:evenodd;fill:#FFFFFF;stroke:#0066FF;stroke-width:0.75;stroke-miterlimit:10;}
	.st16{fill-rule:evenodd;clip-rule:evenodd;fill:#FFFFFF;stroke:#44E0A0;stroke-width:0.75;stroke-miterlimit:10;}
	.st17{fill-rule:evenodd;clip-rule:evenodd;fill:#FFFFFF;stroke:#FF25F3;stroke-width:0.75;stroke-miterlimit:10;}
	.st18{fill:none;stroke:#FFFFFF;stroke-width:2.8774;stroke-miterlimit:10;}
	
		.st19{fill-rule:evenodd;clip-rule:evenodd;fill:none;stroke:#FF25F3;stroke-width:0.75;stroke-linecap:round;stroke-linejoin:round;stroke-miterlimit:10;}
	.st20{fill-rule:evenodd;clip-rule:evenodd;fill:#FFFFFF;stroke:#FFFFFF;stroke-width:0.7194;stroke-miterlimit:10;}
	.st21{fill:none;stroke:#FFFFFF;stroke-width:0.7194;stroke-miterlimit:10;}
	.st22{fill:none;stroke:#44E0A0;stroke-width:0.75;stroke-linecap:round;stroke-linejoin:round;stroke-miterlimit:10;}
	.st23{fill-rule:evenodd;clip-rule:evenodd;fill:#FFFFFF;stroke:#00C1A3;stroke-width:0.75;stroke-miterlimit:10;}
	.st24{fill:none;stroke:#0066FF;stroke-width:0.75;stroke-linecap:round;stroke-miterlimit:10;}
	.st25{fill:#FFFFFF;stroke:#00C1A3;stroke-width:0.75;stroke-miterlimit:10;}
	.st26{clip-path:url(#SVGID_4_);}
	
		.st27{fill-rule:evenodd;clip-rule:evenodd;fill:none;stroke:#0066FF;stroke-width:0.75;stroke-linecap:round;stroke-miterlimit:10;}
	.st28{fill:#FFFFFF;stroke:#FF25F3;stroke-width:0.75;stroke-miterlimit:10;}
	.st29{fill:#FFFFFF;stroke:#FF25F3;stroke-width:0.75;stroke-linecap:round;stroke-linejoin:round;stroke-miterlimit:10;}
	.st30{fill:none;stroke:#00FA9B;stroke-width:0.75;stroke-miterlimit:10;}
	.st31{fill:#87D73F;}
	.st32{fill:#3DED98;}
</style>
<path class="st1" d="M18.5,0.6c1.2-0.1,2.3,0.6,2.3,1.5S20,3.8,18.7,3.9c-1.2,0.1-3.3-1.5-3.3-1.5S17.3,0.6,18.5,0.6z"/>
<path class="st1" d="M22.8,4.7c-1.2,0-2.2-0.7-2.2-1.7s1-1.7,2.2-1.7C24,1.3,26,3,26,3S24,4.7,22.8,4.7z"/>
<path class="st1" d="M21,8.6c-1.2,0-2.2-0.7-2.2-1.7s1-1.7,2.2-1.7c1.2,0,3.2,1.7,3.2,1.7S22.3,8.6,21,8.6z"/>
<path class="st1" d="M26.7,3.9c1.2,0.2,2.1,1,2,2s-1.2,1.5-2.4,1.3C25,7,23.3,5.1,23.3,5.1S25.4,3.7,26.7,3.9z"/>
<path class="st1" d="M19.1,6.4c-1.1,0.5-2.3,0.3-2.7-0.5c-0.4-0.8,0.2-1.9,1.3-2.5c1.1-0.5,3.6,0.1,3.6,0.1S20.2,5.8,19.1,6.4z"/>
<path class="st1" d="M21.5,8.1c1.2-0.1,2.3,0.6,2.3,1.5s-0.9,1.7-2.1,1.8c-1.2,0.1-3.3-1.5-3.3-1.5S20.3,8.2,21.5,8.1z"/>
<path class="st1" d="M28.7,9.3c-1.2,0-2.2-0.7-2.2-1.7s1-1.7,2.2-1.7c1.2,0,3.2,1.7,3.2,1.7S30,9.3,28.7,9.3z"/>
<path class="st1" d="M25,14.4c-1.2,0-2.2-0.7-2.2-1.7c0-0.9,1-1.7,2.2-1.7s3.2,1.7,3.2,1.7S26.2,14.4,25,14.4z"/>
<path class="st1" d="M27.3,9.1c1.2,0.2,2.1,1,2,2s-1.2,1.5-2.4,1.3c-1.2-0.2-2.9-2.1-2.9-2.1S26,9,27.3,9.1z"/>
<path class="st1" d="M32.5,16c-1.2,0-2.2-0.7-2.2-1.7c0-0.9,1-1.7,2.2-1.7s3.2,1.7,3.2,1.7S33.7,16,32.5,16z"/>
<path class="st1" d="M15.8,5.5c1.1,0.6,1.5,1.8,1.1,2.6c-0.5,0.8-1.7,0.9-2.8,0.3s-1.9-3.1-1.9-3.1S14.7,4.9,15.8,5.5z"/>
<path class="st1" d="M12.6,4.8c-1.2,0-2.2-0.7-2.2-1.7s1-1.7,2.2-1.7s3.2,1.7,3.2,1.7S13.8,4.8,12.6,4.8z"/>
<path class="st1" d="M18,14.1c-1.2,0-2.2-0.7-2.2-1.7s1-1.7,2.2-1.7s3.2,1.7,3.2,1.7S19.2,14.1,18,14.1z"/>
<path class="st1" d="M23.3,14.7c1.2-0.3,2.3,0.2,2.6,1c0.2,0.9-0.5,1.9-1.7,2.2c-1.2,0.3-3.5-0.8-3.5-0.8S22.1,15,23.3,14.7z"/>
<path class="st1" d="M14.7,10.8c-1.2,0-2.2-0.7-2.2-1.7c0-0.9,1-1.7,2.2-1.7s3.2,1.7,3.2,1.7S16,10.8,14.7,10.8z"/>
<path class="st1" d="M13.1,9.7c1.2-0.1,2.3,0.6,2.3,1.5s-0.9,1.7-2.1,1.8c-1.2,0.1-3.3-1.5-3.3-1.5S11.9,9.8,13.1,9.7z"/>
<path class="st1" d="M18.9,20.8c-1.2,0-2.2-0.7-2.2-1.7s1-1.7,2.2-1.7c1.2,0,3.2,1.7,3.2,1.7S20.1,20.8,18.9,20.8z"/>
<path class="st1" d="M14.1,16.2c-1.2,0-2.2-0.7-2.2-1.7c0-0.9,1-1.7,2.2-1.7s3.2,1.7,3.2,1.7S15.4,16.2,14.1,16.2z"/>
<path class="st1" d="M19.5,13.1c1.2-0.4,2.4,0,2.7,0.8s-0.4,1.9-1.6,2.3c-1.2,0.4-3.6-0.5-3.6-0.5S18.3,13.5,19.5,13.1z"/>
<path class="st1" d="M9.3,18.3c-1.2,0-2.2-0.7-2.2-1.7c0-0.9,1-1.7,2.2-1.7s3.2,1.7,3.2,1.7S10.5,18.3,9.3,18.3z"/>
<path class="st1" d="M8.3,4.8c1.2-0.1,2.3,0.6,2.3,1.5S9.7,8.1,8.5,8.1S5.2,6.7,5.2,6.7S7.1,4.9,8.3,4.8z"/>
<path class="st1" d="M28.7,18.3c-1.2,0-2.2-0.7-2.2-1.7c0-0.9,1-1.7,2.2-1.7c1.2,0,3.2,1.7,3.2,1.7S30,18.3,28.7,18.3z"/>
<path class="st1" d="M8.1,13.3c-1.2,0-2.2-0.7-2.2-1.7c0-0.9,1-1.7,2.2-1.7s3.2,1.7,3.2,1.7S9.4,13.3,8.1,13.3z"/>
<path class="st29" d="M16.4,8.1c1.2,0.2,2.1,1,2,2s-1.2,1.5-2.4,1.3S13,9.4,13,9.4S15.2,8,16.4,8.1z"/>
<path class="st1" d="M9.6,9.7C8.3,9.7,7.3,8.9,7.3,8s1-1.7,2.2-1.7S12.8,8,12.8,8S10.8,9.7,9.6,9.7z"/>
<path class="st1" d="M36.6,7.8c1.2-0.1,2.3,0.6,2.3,1.5s-0.9,1.7-2.1,1.8s-3.3-1.5-3.3-1.5S35.3,7.9,36.6,7.8z"/>
<path class="st1" d="M40.8,11.9c-1.2,0-2.2-0.7-2.2-1.7s1-1.7,2.2-1.7s3.2,1.7,3.2,1.7S42,11.9,40.8,11.9z"/>
<path class="st1" d="M39.1,15.8c-1.2,0-2.2-0.7-2.2-1.7c0-0.9,1-1.7,2.2-1.7s3.2,1.7,3.2,1.7S40.3,15.8,39.1,15.8z"/>
<path class="st1" d="M44.7,11.1c1.2,0.2,2.1,1,2,2c-0.1,0.9-1.2,1.5-2.4,1.3s-2.9-2.1-2.9-2.1S43.5,11,44.7,11.1z"/>
<path class="st25" d="M37.2,13.6c-1.1,0.5-2.3,0.3-2.7-0.5s0.2-1.9,1.3-2.5c1.1-0.5,3.6,0.1,3.6,0.1S38.3,13.1,37.2,13.6z"/>
<path class="st1" d="M39.6,15.4c1.2-0.1,2.3,0.6,2.3,1.5c0.1,0.9-0.9,1.7-2.1,1.8c-1.2,0.1-3.3-1.5-3.3-1.5S38.3,15.5,39.6,15.4z"/>
<path class="st1" d="M46.8,16.6c-1.2,0-2.2-0.7-2.2-1.7s1-1.7,2.2-1.7c1.2,0,3.2,1.7,3.2,1.7S48,16.6,46.8,16.6z"/>
<path class="st1" d="M43,21.6c-1.2,0-2.2-0.7-2.2-1.7s1-1.7,2.2-1.7c1.2,0,3.2,1.7,3.2,1.7S44.2,21.6,43,21.6z"/>
<path class="st1" d="M45.3,16.4c1.2,0.2,2.1,1,2,2s-1.2,1.5-2.4,1.3c-1.2-0.2-2.9-2.1-2.9-2.1S44.1,16.2,45.3,16.4z"/>
<path class="st25" d="M50.6,23.3c-1.2,0-2.2-0.7-2.2-1.7s1-1.7,2.2-1.7s3.2,1.7,3.2,1.7S51.8,23.3,50.6,23.3z"/>
<path class="st1" d="M33.8,12.8c1.1,0.6,1.5,1.8,1.1,2.6s-1.7,0.9-2.8,0.3c-1.1-0.6-1.9-3.1-1.9-3.1S32.8,12.1,33.8,12.8z"/>
<path class="st1" d="M30.6,12.1c-1.2,0-2.2-0.7-2.2-1.7s1-1.7,2.2-1.7c1.2,0,3.2,1.7,3.2,1.7S31.8,12.1,30.6,12.1z"/>
<path class="st1" d="M36,21.4c-1.2,0-2.2-0.7-2.2-1.7c0-0.9,1-1.7,2.2-1.7s3.2,1.7,3.2,1.7S37.2,21.4,36,21.4z"/>
<path class="st1" d="M41.3,21.9c1.2-0.3,2.3,0.2,2.6,1c0.2,0.9-0.5,1.9-1.7,2.2c-1.2,0.3-3.5-0.8-3.5-0.8S40.1,22.2,41.3,21.9z"/>
<path class="st1" d="M32.8,18c-1.2,0-2.2-0.7-2.2-1.7c0-0.9,1-1.7,2.2-1.7c1.2,0,3.2,1.7,3.2,1.7S34,18,32.8,18z"/>
<path class="st1" d="M31.2,16.9c1.2-0.1,2.3,0.6,2.3,1.5c0.1,0.9-0.9,1.7-2.1,1.8c-1.2,0.1-3.3-1.5-3.3-1.5S29.9,17,31.2,16.9z"/>
<path class="st1" d="M36.9,28.1c-1.2,0-2.2-0.7-2.2-1.7s1-1.7,2.2-1.7c1.2,0,3.2,1.7,3.2,1.7S38.1,28.1,36.9,28.1z"/>
<path class="st1" d="M32.2,23.5c-1.2,0-2.2-0.7-2.2-1.7s1-1.7,2.2-1.7c1.2,0,3.2,1.7,3.2,1.7S33.4,23.5,32.2,23.5z"/>
<path class="st1" d="M37.5,20.4c1.2-0.4,2.4,0,2.7,0.8s-0.4,1.9-1.6,2.3C37.4,23.9,35,23,35,23S36.3,20.8,37.5,20.4z"/>
<path class="st1" d="M27.3,25.5c-1.2,0-2.2-0.7-2.2-1.7s1-1.7,2.2-1.7c1.2,0,3.2,1.7,3.2,1.7S28.6,25.5,27.3,25.5z"/>
<path class="st1" d="M26.3,12.1c1.2-0.1,2.3,0.6,2.3,1.5s-0.9,1.7-2.1,1.8s-3.3-1.5-3.3-1.5S25.1,12.1,26.3,12.1z"/>
<path class="st1" d="M46.8,25.5c-1.2,0-2.2-0.7-2.2-1.7s1-1.7,2.2-1.7c1.2,0,3.2,1.7,3.2,1.7S48,25.5,46.8,25.5z"/>
<path class="st1" d="M26.2,20.6c-1.2,0-2.2-0.7-2.2-1.7s1-1.7,2.2-1.7c1.2,0,3.2,1.7,3.2,1.7S27.4,20.6,26.2,20.6z"/>
<path class="st1" d="M34.5,15.4c1.2,0.2,2.1,1,2,2s-1.2,1.5-2.4,1.3c-1.2-0.2-2.9-2.1-2.9-2.1S33.3,15.2,34.5,15.4z"/>
<path class="st1" d="M27.6,16.9c-1.2,0-2.2-0.7-2.2-1.7c0-0.9,1-1.7,2.2-1.7c1.2,0,3.2,1.7,3.2,1.7S28.8,16.9,27.6,16.9z"/>
<path class="st1" d="M13.8,13.3c1.2-0.1,2.3,0.6,2.3,1.5c0.1,0.9-0.9,1.7-2.1,1.8c-1.2,0.1-3.3-1.5-3.3-1.5S12.6,13.4,13.8,13.3z"/>
<path class="st1" d="M18.1,17.4c-1.2,0-2.2-0.7-2.2-1.7c0-0.9,1-1.7,2.2-1.7c1.2,0,3.2,1.7,3.2,1.7S19.3,17.4,18.1,17.4z"/>
<path class="st1" d="M16.4,21.3c-1.2,0-2.2-0.7-2.2-1.7s1-1.7,2.2-1.7c1.2,0,3.2,1.7,3.2,1.7S17.6,21.3,16.4,21.3z"/>
<path class="st1" d="M22,16.6c1.2,0.2,2.1,1,2,2c-0.1,0.9-1.2,1.5-2.4,1.3c-1.2-0.2-2.9-2.1-2.9-2.1S20.8,16.4,22,16.6z"/>
<path class="st1" d="M14.5,19.1c-1.1,0.5-2.3,0.3-2.7-0.5c-0.4-0.8,0.2-1.9,1.3-2.5c1.1-0.5,3.6,0.1,3.6,0.1S15.6,18.6,14.5,19.1z"
	/>
<path class="st1" d="M16.9,20.9c1.2-0.1,2.3,0.6,2.3,1.5c0.1,0.9-0.9,1.7-2.1,1.8c-1.2,0.1-3.3-1.5-3.3-1.5S15.6,20.9,16.9,20.9z"/>
<path class="st29" d="M24.1,22c-1.2,0-2.2-0.7-2.2-1.7s1-1.7,2.2-1.7c1.2,0,3.2,1.7,3.2,1.7S25.3,22,24.1,22z"/>
<path class="st1" d="M20.3,27.1c-1.2,0-2.2-0.7-2.2-1.7c0-0.9,1-1.7,2.2-1.7c1.2,0,3.2,1.7,3.2,1.7S21.5,27.1,20.3,27.1z"/>
<path class="st1" d="M22.6,21.9c1.2,0.2,2.1,1,2,2s-1.2,1.5-2.4,1.3c-1.2-0.2-2.9-2.1-2.9-2.1S21.4,21.7,22.6,21.9z"/>
<path class="st1" d="M27.8,28.8c-1.2,0-2.2-0.7-2.2-1.7s1-1.7,2.2-1.7c1.2,0,3.2,1.7,3.2,1.7S29.1,28.8,27.8,28.8z"/>
<path class="st1" d="M11.1,18.2c1.1,0.6,1.5,1.8,1.1,2.6c-0.5,0.8-1.7,0.9-2.8,0.3C8.4,20.5,7.5,18,7.5,18S10.1,17.6,11.1,18.2z"/>
<path class="st1" d="M7.9,17.6c-1.2,0-2.2-0.7-2.2-1.7c0-0.9,1-1.7,2.2-1.7s3.2,1.7,3.2,1.7S9.1,17.6,7.9,17.6z"/>
<path class="st1" d="M13.3,26.8c-1.2,0-2.2-0.7-2.2-1.7s1-1.7,2.2-1.7s3.2,1.7,3.2,1.7S14.5,26.8,13.3,26.8z"/>
<path class="st1" d="M18.6,27.4c1.2-0.3,2.3,0.2,2.6,1c0.2,0.9-0.5,1.9-1.7,2.2c-1.2,0.3-3.5-0.8-3.5-0.8S17.4,27.7,18.6,27.4z"/>
<path class="st1" d="M10.1,23.5c-1.2,0-2.2-0.7-2.2-1.7s1-1.7,2.2-1.7s3.2,1.7,3.2,1.7S11.3,23.5,10.1,23.5z"/>
<path class="st1" d="M8.5,22.4c1.2-0.1,2.3,0.6,2.3,1.5c0.1,0.9-0.9,1.7-2.1,1.8c-1.2,0.1-3.3-1.5-3.3-1.5S7.2,22.5,8.5,22.4z"/>
<path class="st1" d="M14.2,33.5c-1.2,0-2.2-0.7-2.2-1.7s1-1.7,2.2-1.7s3.2,1.7,3.2,1.7S15.4,33.5,14.2,33.5z"/>
<path class="st1" d="M9.5,29c-1.2,0-2.2-0.7-2.2-1.7s1-1.7,2.2-1.7s3.2,1.7,3.2,1.7S10.7,29,9.5,29z"/>
<path class="st1" d="M14.8,25.8c1.2-0.4,2.4,0,2.7,0.8S17,28.6,15.9,29c-1.2,0.4-3.6-0.5-3.6-0.5S13.6,26.2,14.8,25.8z"/>
<path class="st1" d="M4.6,31c-1.2,0-2.2-0.7-2.2-1.7s1-1.7,2.2-1.7s3.2,1.7,3.2,1.7S5.9,31,4.6,31z"/>
<path class="st1" d="M3.6,17.5C4.9,17.4,5.9,18.1,6,19C6,20,5.1,20.8,3.8,20.8c-1.2,0.1-3.3-1.5-3.3-1.5S2.4,17.6,3.6,17.5z"/>
<path class="st1" d="M24.1,31c-1.2,0-2.2-0.7-2.2-1.7s1-1.7,2.2-1.7c1.2,0,3.2,1.7,3.2,1.7S25.3,31,24.1,31z"/>
<path class="st25" d="M3.5,26.1c-1.2,0-2.2-0.7-2.2-1.7s1-1.7,2.2-1.7s3.2,1.7,3.2,1.7S4.7,26.1,3.5,26.1z"/>
<path class="st1" d="M11.8,20.9c1.2,0.2,2.1,1,2,2c-0.1,0.9-1.2,1.5-2.4,1.3c-1.2-0.2-2.9-2.1-2.9-2.1S10.6,20.7,11.8,20.9z"/>
<path class="st1" d="M4.9,22.4c-1.2,0-2.2-0.7-2.2-1.7s1-1.7,2.2-1.7s3.2,1.7,3.2,1.7S6.1,22.4,4.9,22.4z"/>
</svg>
