<?xml version="1.0" encoding="utf-8"?>
<!-- Generator: Adobe Illustrator 23.0.1, SVG Export Plug-In . SVG Version: 6.00 Build 0)  -->
<svg version="1.1" id="Layer_1" xmlns="http://www.w3.org/2000/svg" xmlns:xlink="http://www.w3.org/1999/xlink" x="0px" y="0px"
	 viewBox="0 0 115.2 64.3" style="enable-background:new 0 0 115.2 64.3;" xml:space="preserve">
<style type="text/css">
	.st0{fill:#FF25F3;}
	.st1{fill:#2935E8;}
	.st2{fill:#00C1A3;}
	.st3{fill:none;stroke:#0066FF;stroke-width:0.75;stroke-linejoin:round;stroke-miterlimit:10;}
	.st4{fill:#FFFFFF;stroke:#00C1A3;stroke-width:0.75;stroke-miterlimit:10;}
	.st5{fill:#FFFFFF;stroke:#0066FF;stroke-width:0.75;stroke-miterlimit:10;}
	.st6{fill:none;stroke:#00C1A3;stroke-width:0.75;stroke-miterlimit:10;}
	
		.st7{fill-rule:evenodd;clip-rule:evenodd;fill:none;stroke:#FF25F3;stroke-width:0.75;stroke-linecap:round;stroke-linejoin:round;stroke-miterlimit:10;}
	.st8{fill:none;stroke:#0066FF;stroke-width:0.75;stroke-miterlimit:10;}
	.st9{fill-rule:evenodd;clip-rule:evenodd;fill:none;stroke:#0066FF;stroke-width:0.75;stroke-miterlimit:10;}
	.st10{fill-rule:evenodd;clip-rule:evenodd;fill:none;stroke:#00C1A3;stroke-width:0.75;stroke-miterlimit:10;}
	.st11{fill:none;stroke:#FF25F3;stroke-width:0.75;stroke-linecap:round;stroke-linejoin:round;stroke-miterlimit:10;}
	.st12{fill:#FFFFFF;stroke:#FF25F3;stroke-width:0.75;stroke-linecap:round;stroke-linejoin:round;stroke-miterlimit:10;}
	.st13{fill-rule:evenodd;clip-rule:evenodd;fill:#FFFFFF;stroke:#0066FF;stroke-width:0.75;stroke-miterlimit:10;}
	
		.st14{fill-rule:evenodd;clip-rule:evenodd;fill:#FFFFFF;stroke:#FF25F3;stroke-width:0.75;stroke-linecap:round;stroke-linejoin:round;stroke-miterlimit:10;}
	.st15{fill-rule:evenodd;clip-rule:evenodd;fill:#FFFFFF;stroke:#00C1A3;stroke-width:0.75;stroke-miterlimit:10;}
	.st16{fill:none;stroke:#0066FF;stroke-width:0.75;stroke-linecap:round;stroke-linejoin:round;stroke-miterlimit:10;}
	.st17{fill:#FFFFFF;stroke:#00C1A3;stroke-width:0.75;stroke-linecap:round;stroke-linejoin:round;stroke-miterlimit:10;}
	
		.st18{fill-rule:evenodd;clip-rule:evenodd;fill:#FFFFFF;stroke:#0066FF;stroke-width:0.75;stroke-linecap:round;stroke-linejoin:round;stroke-miterlimit:10;}
	
		.st19{fill-rule:evenodd;clip-rule:evenodd;fill:none;stroke:#0066FF;stroke-width:0.75;stroke-linecap:round;stroke-linejoin:round;stroke-miterlimit:10;}
	.st20{fill:#FFFFFF;stroke:#0066FF;stroke-width:0.75;stroke-linejoin:round;stroke-miterlimit:10;}
	.st21{fill:none;stroke:#FF25F3;stroke-width:0.75;stroke-linecap:round;stroke-miterlimit:10;}
	.st22{fill:none;stroke:#00C1A3;stroke-width:0.75;stroke-miterlimit:10;stroke-dasharray:1.9953,1.9953;}
	.st23{fill:none;stroke:#FF25F3;stroke-width:0.75;stroke-linecap:round;stroke-miterlimit:10;stroke-dasharray:1.9953,1.9953;}
	.st24{fill:#FFFFFF;stroke:#000000;stroke-miterlimit:10;}
	.st25{fill:#0066FF;}
	.st26{fill:none;stroke:#FF25F3;stroke-width:0.75;stroke-linejoin:round;stroke-miterlimit:10;}
	.st27{fill:none;stroke:#FF25F3;stroke-width:0.75;stroke-miterlimit:10;}
	.st28{fill:none;stroke:#0066FF;stroke-width:0.75;stroke-linecap:round;stroke-miterlimit:10;}
	.st29{fill:none;stroke:#FFFFFF;stroke-width:0.75;stroke-miterlimit:10;}
	.st30{fill:none;stroke:#0000FF;stroke-width:2;stroke-miterlimit:10;}
	.st31{fill:none;stroke:#00C1A3;stroke-width:2;stroke-miterlimit:10;}
	.st32{fill:none;stroke:#FF25F3;stroke-width:2;stroke-linecap:round;stroke-linejoin:round;stroke-miterlimit:10;}
	.st33{fill:none;stroke:#FF25F3;stroke-width:0.75;stroke-linejoin:round;}
	.st34{fill:none;stroke:#FF25F3;stroke-width:0.75;stroke-linejoin:round;stroke-dasharray:1.916,1.916;}
	.st35{fill:none;stroke:#FF25F3;stroke-width:0.75;stroke-miterlimit:10;stroke-dasharray:1.916,1.916;}
	.st36{fill:none;}
	.st37{fill-rule:evenodd;clip-rule:evenodd;fill:none;stroke:#FF25F3;stroke-width:0.75;stroke-miterlimit:10;}
	.st38{clip-path:url(#SVGID_2_);fill:#2935E8;}
	.st39{clip-path:url(#SVGID_4_);fill:#00C1A3;}
	.st40{clip-path:url(#SVGID_6_);fill:#FF25F3;}
	.st41{fill:#FFFFFF;}
	.st42{fill:none;stroke:#FF25F3;stroke-width:0.75;stroke-linecap:round;stroke-linejoin:round;}
	.st43{fill:none;stroke:#FF25F3;stroke-width:0.75;stroke-linecap:round;stroke-linejoin:round;stroke-dasharray:5.1058,5.1058;}
	.st44{fill:none;stroke:#FF25F3;stroke-width:0.75;stroke-miterlimit:10;stroke-dasharray:7.3935,7.3935;}
	.st45{fill:none;stroke:#00C1A3;stroke-width:0.75;stroke-miterlimit:10;stroke-dasharray:8.7323,8.7323;}
</style>
<g>
	<g>
		<rect x="63.6" y="35.3" class="st8" width="32.7" height="5.8"/>
		<polygon class="st8" points="96.3,35.3 83.1,35.3 83.1,21.4 93.2,21.4 96.3,28.5 		"/>
		<polygon class="st8" points="83.1,35.3 63.6,35.3 67.4,28.3 83.1,28.3 		"/>
		<polygon class="st8" points="94,28.3 85.4,28.3 85.4,23.8 92.1,23.8 		"/>
		<polyline class="st8" points="82,28.3 70.7,16.9 65.5,21.8 66.6,23 70.2,19.9 78.4,28.4 		"/>
		<line class="st8" x1="82.4" y1="48" x2="74.6" y2="48"/>
		<polyline class="st8" points="65.8,48 63.6,41.1 96.3,41.1 93.6,45.3 		"/>
		<polygon class="st8" points="104.1,49.5 100,47.2 98.7,42.7 101,38.6 105.5,37.3 109.5,39.6 110.8,44.1 108.6,48.2 		"/>
		<circle class="st8" cx="104.9" cy="43.3" r="1.2"/>
		<line class="st8" x1="96.3" y1="39.3" x2="99.8" y2="40.6"/>
		<line class="st8" x1="98.9" y1="42.3" x2="96.3" y2="41.1"/>
		<circle class="st8" cx="88.2" cy="46.9" r="5.8"/>
		<circle class="st8" cx="88.2" cy="46.9" r="2.8"/>
		<circle class="st8" cx="70.2" cy="48.4" r="4.2"/>
		<circle class="st8" cx="70.2" cy="48.4" r="2.1"/>
	</g>
	<g>
		<path class="st6" d="M57,6.1h0.7c2.2,0,3.9,1.8,3.9,3.9v16.6c0,2.2-1.8,3.9-3.9,3.9H41.1c-2.2,0-3.9-1.8-3.9-3.9V10.1
			c0-2.2,1.8-3.9,3.9-3.9h1.4"/>
		<line class="st6" x1="52.6" y1="6.1" x2="55.3" y2="6.1"/>
		<line class="st6" x1="48.3" y1="6.1" x2="51.1" y2="6.1"/>
		<line class="st6" x1="44" y1="6.1" x2="46.8" y2="6.1"/>
		<rect x="42.6" y="4" class="st8" width="1.1" height="4.9"/>
		<rect x="46.9" y="4" class="st8" width="1.1" height="4.9"/>
		<rect x="51.3" y="4" class="st8" width="1.1" height="4.9"/>
		<rect x="55.6" y="4" class="st8" width="1.1" height="4.9"/>
		<g>
			<rect x="41.6" y="11.7" class="st8" width="6.4" height="6.4"/>
			<rect x="50.7" y="11.7" class="st8" width="6.4" height="6.4"/>
			<rect x="41.6" y="20.8" class="st8" width="6.4" height="6.4"/>
			<rect x="50.7" y="20.8" class="st11" width="6.4" height="6.4"/>
		</g>
	</g>
	<g>
		<path class="st8" d="M12,33.4l9.5-2.4l-0.1-0.4l-7.8,2c-0.7,0.2-1.3-0.2-1.5-0.9s0.2-1.3,0.9-1.5l7.8-2l0,0l4-1l-0.1-0.5L19.6,28
			c-0.7,0.2-1.3-0.2-1.5-0.9c-0.2-0.7,0.2-1.3,0.9-1.5l5.1-1.3c0,0,4.2-1.2,6.8,0.1c2.1,1.1,3.2,4.9,3.2,4.9l0,0
			c0,0.1,0,0.1,0.1,0.2l0.5,1.8c0.6,2.5-0.9,5-3.3,5.6l-7.5,1.9c0,0-0.1,0-0.1,0c0,0,0,0,0,0l-6,1.5c-0.7,0.2-1.3-0.2-1.5-0.9
			C16,38.8,16.4,38.2,17,38l5.9-1.5l-0.1-0.4l-7.8,2c-0.7,0.2-1.3-0.2-1.5-0.9c-0.2-0.7,0.2-1.3,0.9-1.5l7.8-2l-0.1-0.4l-9.5,2.4
			c-0.7,0.2-1.3-0.2-1.5-0.9S11.4,33.5,12,33.4z"/>
		<path class="st8" d="M27.3,53.1c0,4.2-3.4,7.6-7.6,7.6s-7.6-3.4-7.6-7.6"/>
		<line class="st8" x1="12.1" y1="53.1" x2="-0.7" y2="53.1"/>
		<line class="st8" x1="27.3" y1="53.1" x2="113.7" y2="53.1"/>
		<path class="st8" d="M20.9,55.8c-0.5,1.7-2.4,2.6-2.4,2.6s-1-1.8-0.4-3.5c0.5-1.7,2.4-2.6,2.4-2.6S21.5,54.1,20.9,55.8z"/>
		<path class="st8" d="M22.6,45.3c-0.2,1.7-1.9,3-1.9,3s-1.3-1.6-1-3.4c0.2-1.7,1.9-3,1.9-3S22.9,43.5,22.6,45.3z"/>
	</g>
</g>
</svg>
