<?xml version="1.0" encoding="utf-8"?>
<!-- Generator: Adobe Illustrator 23.0.1, SVG Export Plug-In . SVG Version: 6.00 Build 0)  -->
<svg version="1.1" id="Layer_1" xmlns="http://www.w3.org/2000/svg" xmlns:xlink="http://www.w3.org/1999/xlink" x="0px" y="0px"
	 viewBox="0 0 75.1 70.6" style="enable-background:new 0 0 75.1 70.6;" xml:space="preserve">
<style type="text/css">
	.st0{fill-rule:evenodd;clip-rule:evenodd;fill:none;stroke:#00C1A3;stroke-width:0.75;stroke-miterlimit:10;}
	.st1{fill:#FFFFFF;stroke:#0066FF;stroke-width:0.75;stroke-linecap:round;stroke-linejoin:round;stroke-miterlimit:10;}
	.st2{fill:none;stroke:#0066FF;stroke-width:0.75;stroke-linecap:round;stroke-linejoin:round;stroke-miterlimit:10;}
	.st3{fill:#FFFFFF;stroke:#0066FF;stroke-width:0.75;stroke-miterlimit:10;}
	.st4{fill:none;stroke:#0066FF;stroke-width:0.75;stroke-miterlimit:10;}
	.st5{fill:none;stroke:#00C1A3;stroke-width:0.75;stroke-miterlimit:10;}
	.st6{fill:none;stroke:#FF25F3;stroke-width:0.75;stroke-miterlimit:10;}
	.st7{fill:none;stroke:#FF25F3;stroke-width:0.75;stroke-linecap:round;stroke-linejoin:round;stroke-miterlimit:10;}
	.st8{fill-rule:evenodd;clip-rule:evenodd;fill:none;stroke:#0066FF;stroke-width:0.75;stroke-miterlimit:10;}
	.st9{clip-path:url(#SVGID_2_);fill-rule:evenodd;clip-rule:evenodd;fill:#FFFFFF;}
	.st10{fill-rule:evenodd;clip-rule:evenodd;fill:#FCFDFF;}
	.st11{fill-rule:evenodd;clip-rule:evenodd;fill:#FFFFFF;}
	.st12{fill-rule:evenodd;clip-rule:evenodd;fill:#3D6A9D;}
	.st13{fill:#FFFFFF;}
	.st14{fill:#0066FF;}
	.st15{fill-rule:evenodd;clip-rule:evenodd;fill:#FFFFFF;stroke:#0066FF;stroke-width:0.75;stroke-miterlimit:10;}
	.st16{fill-rule:evenodd;clip-rule:evenodd;fill:#FFFFFF;stroke:#44E0A0;stroke-width:0.75;stroke-miterlimit:10;}
	.st17{fill-rule:evenodd;clip-rule:evenodd;fill:#FFFFFF;stroke:#FF25F3;stroke-width:0.75;stroke-miterlimit:10;}
	.st18{fill:none;stroke:#FFFFFF;stroke-width:2.8774;stroke-miterlimit:10;}
	
		.st19{fill-rule:evenodd;clip-rule:evenodd;fill:none;stroke:#FF25F3;stroke-width:0.75;stroke-linecap:round;stroke-linejoin:round;stroke-miterlimit:10;}
	.st20{fill-rule:evenodd;clip-rule:evenodd;fill:#FFFFFF;stroke:#FFFFFF;stroke-width:0.7194;stroke-miterlimit:10;}
	.st21{fill:none;stroke:#FFFFFF;stroke-width:0.7194;stroke-miterlimit:10;}
	.st22{fill:none;stroke:#44E0A0;stroke-width:0.75;stroke-linecap:round;stroke-linejoin:round;stroke-miterlimit:10;}
	.st23{fill-rule:evenodd;clip-rule:evenodd;fill:#FFFFFF;stroke:#00C1A3;stroke-width:0.75;stroke-miterlimit:10;}
	.st24{fill:none;stroke:#0066FF;stroke-width:0.75;stroke-linecap:round;stroke-miterlimit:10;}
	.st25{fill:#FFFFFF;stroke:#00C1A3;stroke-width:0.75;stroke-miterlimit:10;}
	.st26{clip-path:url(#SVGID_4_);}
	
		.st27{fill-rule:evenodd;clip-rule:evenodd;fill:none;stroke:#0066FF;stroke-width:0.75;stroke-linecap:round;stroke-miterlimit:10;}
	.st28{fill:#FFFFFF;stroke:#FF25F3;stroke-width:0.75;stroke-miterlimit:10;}
	.st29{fill:#FFFFFF;stroke:#FF25F3;stroke-width:0.75;stroke-linecap:round;stroke-linejoin:round;stroke-miterlimit:10;}
	.st30{fill:none;stroke:#00FA9B;stroke-width:0.75;stroke-miterlimit:10;}
	.st31{fill:#87D73F;}
	.st32{fill:#3DED98;}
</style>
<path class="st3" d="M51.2,1.3c0,0-1.2,7-3.1,9c-1.9,2-2.8,0.2-8.8,1.6c-4.8,1.1-7.3,5.9-7.7,10.6c-0.3,4.7-4.3,2.3-7.8,6.7
	c-2.7,3.3-1.9,8.3-5.1,12.5c-4.4,5.8-9.3,3.1-12.3,9.4c-1.3,2.8,0.9,8.7,0,12.3C5.2,67.8,1,69.7,1,69.7s5.5-2.3,9.5-3.1
	s10.3,0.2,13.3-4.5s1.1-8.5,5.1-11.7c4-3.1,7.9-3.1,9.7-6c3.5-5.7,1.1-7.7,3.9-11c1.9-2.1,3.7-0.2,8-6.7c2-2.9,1.2-6.8,0.9-13.8
	C54.4,6.7,51.2,1.3,51.2,1.3z"/>
<g>
	<path class="st3" d="M55.6,49.1c0,3.4-1.8,5.8-9.4,6.2c-6.8,0.3-9.4-2.7-9.4-6.2c0-3.4,2.9-6.2,9.4-6.2
		C53.6,42.9,55.6,45.7,55.6,49.1z"/>
	<ellipse class="st3" cx="46.2" cy="52.5" rx="2.6" ry="1"/>
</g>
<g>
	<path class="st3" d="M72.1,62.7c-2.8,2.1-5.7,2.1-10.6-3.8c-4.4-5.3-3.5-9.2-0.7-11.2c2.8-2.1,6.8-1.4,10.6,3.8
		C75.8,57.4,74.8,60.7,72.1,62.7z"/>
	<ellipse transform="matrix(0.7992 -0.601 0.601 0.7992 -21.6313 49.7956)" class="st3" cx="63.7" cy="57.3" rx="1" ry="2.6"/>
</g>
<g>
	<path class="st28" d="M36.8,63.1c-0.1-3.4,1.6-5.9,9.2-6.4c6.8-0.5,9.5,2.5,9.6,5.9c0.1,3.4-2.8,6.3-9.2,6.5
		C39,69.3,36.9,66.5,36.8,63.1z"/>
	
		<ellipse transform="matrix(0.9996 -2.730553e-02 2.730553e-02 0.9996 -1.6055 1.2813)" class="st28" cx="46.1" cy="59.4" rx="2.6" ry="1"/>
</g>
<path class="st25" d="M37.7,16.4c-1.5,0.8-2.2,2.6-2,4.3c0.2,1.7,1.2,3.2,2.5,4.2c1.3,1.1,2.9,1.7,4.5,2.3"/>
<path class="st4" d="M25.9,33.1c-1.5,0.8-2.2,2.6-2,4.3c0.2,1.7,1.2,3.2,2.5,4.2c1.3,1.1,2.9,1.7,4.5,2.3"/>
<path class="st4" d="M11.3,50.4c-1.5,0.6-2.4,2.2-2.4,3.9c0,1.6,0.8,3.2,1.9,4.3s2.5,2.1,3.8,3"/>
</svg>
