<?xml version="1.0" encoding="utf-8"?>
<!-- Generator: Adobe Illustrator 23.0.1, SVG Export Plug-In . SVG Version: 6.00 Build 0)  -->
<svg version="1.1" id="Layer_1" xmlns="http://www.w3.org/2000/svg" xmlns:xlink="http://www.w3.org/1999/xlink" x="0px" y="0px"
	 viewBox="0 0 61.3 49.2" style="enable-background:new 0 0 61.3 49.2;" xml:space="preserve">
<style type="text/css">
	.st0{fill:none;stroke:#0066FF;stroke-width:0.75;stroke-miterlimit:10;}
	.st1{fill-rule:evenodd;clip-rule:evenodd;fill:none;stroke:#FF25F3;stroke-width:0.75;stroke-miterlimit:10;}
	.st2{fill-rule:evenodd;clip-rule:evenodd;fill:none;stroke:#00C1A3;stroke-width:0.75;stroke-miterlimit:10;}
</style>
<rect x="17.4" y="35.8" class="st0" width="39.1" height="5.3"/>
<rect x="1.7" y="43.1" class="st1" width="25.9" height="5.3"/>
<path class="st0" d="M37.3,33.9h0.9c0.2-3.5-0.6-2.3,1-4.1c0.7-0.9,2.1-2.6,2.5-3.7c0-0.2,0.1-0.4,0-0.6c-1.3,0-3.1,1.7-4,3.2
	c-1-1.3-2.8-3.3-4.1-3.2c-0.1,1.1,1.9,3.6,2.5,4.2C37.8,31.5,37.2,30.2,37.3,33.9L37.3,33.9z"/>
<path class="st0" d="M37.8,22.3c1.2-1.3,4.1-4.4,4-6c-1.3-0.1-3.1,1.8-4,3.2c-0.8-1.4-2.8-3.3-4-3.2C33.6,18,36.6,21,37.8,22.3
	L37.8,22.3z"/>
<path class="st0" d="M37.8,17.8c1.6-1.7,3.6-3.9,4.1-5.9c-0.2,0,0,0-0.2,0c-0.3,0-0.5,0.1-0.8,0.3c-0.4,0.2-0.7,0.4-1.1,0.7
	c-1,0.8-1.2,1.3-2,2.2c-0.7-1.1-3-3.5-4.1-3.2C33.7,13.5,36.5,16.4,37.8,17.8L37.8,17.8z"/>
<path class="st0" d="M37.8,26.9c1.1-1.2,4.2-4.5,4-6c-1.1-0.1-3.2,2-4,3.2c-0.8-1.2-2.9-3.4-4.1-3.2C33.5,22.3,36.7,25.6,37.8,26.9
	L37.8,26.9z"/>
<path class="st0" d="M37.8,13.3c1.3-1.4,4.2-4.6,2.7-6c-1,1.2-1.8,2.1-2.7,3.4c-0.9-1.3-1.7-2.2-2.7-3.4
	C33.7,8.7,36.6,11.9,37.8,13.3L37.8,13.3z"/>
<path class="st0" d="M23.7,33.7h0.9c0.2-3.5-0.6-2.3,1-4.1c0.7-0.9,2.1-2.6,2.5-3.7c0-0.2,0.1-0.4,0-0.6c-1.3,0-3.1,1.8-4,3.2
	c-1-1.3-2.8-3.3-4.1-3.2c-0.2,1.2,1.9,3.6,2.5,4.3C24.2,31.4,23.5,30,23.7,33.7L23.7,33.7z"/>
<path class="st0" d="M24.1,22.2c1.2-1.3,4.1-4.4,4-6c-1.3-0.1-3.1,1.8-4,3.2c-0.8-1.4-2.8-3.3-4-3.2C20,17.8,23,20.9,24.1,22.2
	L24.1,22.2z"/>
<path class="st0" d="M24.1,26.7c1.1-1.2,4.2-4.5,4-6c-1.1-0.1-3.2,2-4,3.2c-0.8-1.2-2.9-3.4-4.1-3.2C19.9,22.2,23,25.5,24.1,26.7
	L24.1,26.7z"/>
<path class="st0" d="M10.1,33.6H11c0.2-3.4-0.6-2.2,1-4.1c0.7-0.9,2.1-2.6,2.5-3.7c0-0.2,0.1-0.4,0-0.6c-1.3,0-3.1,1.8-4,3.2
	c-1-1.3-2.8-3.3-4.1-3.2c-0.2,1.2,1.9,3.6,2.5,4.3C10.6,31.2,9.9,29.9,10.1,33.6L10.1,33.6z"/>
<path class="st0" d="M51.8,33.9h0.8c0.2-3.5-0.5-2.3,1.1-4.1c0.7-0.9,2.1-2.6,2.5-3.7c0-0.2,0.1-0.4,0.1-0.6c-1.3,0-3.2,1.8-4,3.2
	c-0.9-1.3-2.7-3.3-4.1-3.2c-0.1,1.2,1.9,3.6,2.5,4.3C52.3,31.6,51.6,30.3,51.8,33.9L51.8,33.9z"/>
<path class="st2" d="M52.2,22.4c1.1-1.3,4.1-4.4,4-6c-1.3-0.1-3.1,1.8-4,3.2c-0.9-1.4-2.8-3.3-4.1-3.2C48.1,18,51,21.1,52.2,22.4
	L52.2,22.4z"/>
<path class="st0" d="M52.2,17.8c1.6-1.8,3.6-3.9,4.1-5.9c-0.2,0,0,0-0.2,0c-0.3,0-0.5,0.1-0.8,0.3c-0.4,0.2-0.7,0.4-1.1,0.7
	c-1.1,0.8-1.2,1.3-2,2.2c-0.6-1.1-3-3.5-4-3.2C48.2,13.6,51,16.5,52.2,17.8L52.2,17.8z"/>
<path class="st0" d="M52.2,26.9c1.1-1.2,4.2-4.5,4-6c-1.1-0.1-3.3,2-4,3.2c-0.8-1.2-2.9-3.4-4.1-3.2C48,22.4,51.1,25.7,52.2,26.9
	L52.2,26.9z"/>
<path class="st0" d="M52.2,13.3c1.3-1.4,4.2-4.6,2.7-6c-1,1.2-1.8,2.1-2.7,3.4c-0.9-1.3-1.7-2.2-2.7-3.4C48.1,8.8,51,12,52.2,13.3
	L52.2,13.3z"/>
<path class="st0" d="M52.2,8.1c1.7-2.5,1.7-4.9,0-7.4C50.6,3.3,50.6,5.6,52.2,8.1L52.2,8.1z"/>
<line class="st0" x1="0.4" y1="33.9" x2="61" y2="33.9"/>
</svg>
