<?xml version="1.0" encoding="utf-8"?>
<!-- Generator: Adobe Illustrator 23.0.1, SVG Export Plug-In . SVG Version: 6.00 Build 0)  -->
<svg version="1.1" id="Layer_1" xmlns="http://www.w3.org/2000/svg" xmlns:xlink="http://www.w3.org/1999/xlink" x="0px" y="0px"
	 viewBox="0 0 70 54" style="enable-background:new 0 0 70 54;" xml:space="preserve">
<style type="text/css">
	.st0{fill:none;stroke:#0066FF;stroke-width:0.75;stroke-miterlimit:10;}
	.st1{fill:none;stroke:#00C1A3;stroke-width:0.75;stroke-miterlimit:10;}
	.st2{fill:none;stroke:#0066FF;stroke-width:0.75;stroke-linejoin:round;stroke-miterlimit:10;}
	.st3{fill:none;stroke:#FF25F3;stroke-width:0.75;stroke-linecap:round;stroke-linejoin:round;stroke-miterlimit:10;}
	.st4{fill-rule:evenodd;clip-rule:evenodd;fill:none;stroke:#0066FF;stroke-width:0.75;stroke-miterlimit:10;}
	.st5{fill-rule:evenodd;clip-rule:evenodd;fill:none;stroke:#00C1A3;stroke-width:0.75;stroke-miterlimit:10;}
	
		.st6{fill-rule:evenodd;clip-rule:evenodd;fill:none;stroke:#FF25F3;stroke-width:0.75;stroke-linecap:round;stroke-linejoin:round;stroke-miterlimit:10;}
	.st7{fill:none;stroke:#0066FF;stroke-width:0.75;stroke-linecap:round;stroke-miterlimit:10;}
	.st8{clip-path:url(#SVGID_2_);}
	.st9{clip-path:url(#SVGID_4_);}
	.st10{fill:#8E7700;}
</style>
<polygon class="st0" points="18.9,23.3 2.4,23.3 10.3,37.7 2.4,52 18.9,52 27.2,37.7 "/>
<polygon class="st1" points="39.5,23.3 23,23.3 30.9,37.7 23,52 39.5,52 47.8,37.7 "/>
<polygon class="st3" points="60.1,23.3 43.5,23.3 51.5,37.7 43.5,52 60.1,52 68.4,37.7 "/>
<g>
	<path class="st0" d="M6.7,5.4H1.9V2h13.8v3.4h-4.9v14.5H6.7V5.4z"/>
</g>
<g>
	<path class="st0" d="M58.6,10.9c0,5.4-2.2,9-6.6,9c-4.5,0-6.4-4-6.5-8.9c0-5,2.1-9,6.6-9C56.8,2,58.6,6.2,58.6,10.9z M49.6,11
		c0,4,0.9,5.9,2.5,5.9c1.6,0,2.4-2,2.4-5.9c0-3.8-0.8-5.9-2.4-5.9C50.6,5.1,49.6,7,49.6,11z"/>
</g>
<g>
	<path class="st0" d="M32.4,3.9v5.8H38v2.5h-5.6v5.9h-2.6v-5.9h-5.6V9.7h5.6V3.9H32.4z"/>
</g>
</svg>
