<?xml version="1.0" encoding="utf-8"?>
<!-- Generator: Adobe Illustrator 23.0.1, SVG Export Plug-In . SVG Version: 6.00 Build 0)  -->
<svg version="1.1" id="Layer_1" xmlns="http://www.w3.org/2000/svg" xmlns:xlink="http://www.w3.org/1999/xlink" x="0px" y="0px"
	 viewBox="0 0 86 43" style="enable-background:new 0 0 86 43;" xml:space="preserve">
<style type="text/css">
	.st0{fill:none;stroke:#0066FF;stroke-width:0.75;stroke-miterlimit:10;}
	.st1{fill:none;stroke:#FF25F3;stroke-width:0.75;stroke-linecap:round;stroke-linejoin:round;stroke-miterlimit:10;}
	.st2{fill:none;stroke:#00C1A3;stroke-width:0.75;stroke-miterlimit:10;}
</style>
<g>
	<g>
		<path class="st0" d="M39.1,18.9c0,3.1-3.4,5.7-7.7,5.7c-10.2,0-17.1-5.7-17.1-5.7s6.7-5.7,17.1-5.7C35.6,13.3,39.1,15.8,39.1,18.9
			z"/>
		<path class="st0" d="M14.7,19.2c0,0,12.5,4.9,16.8,4.4c5.8-0.7,7.6-5.1,7.6-5.1"/>
		<path class="st0" d="M14.3,18.9c0,0,10.2-5.7,17.5-4.5c5.8,0.9,7.3,3.8,7.3,3.8"/>
	</g>
	<g>
		<path class="st0" d="M60.5,14.7c-0.9,3-4.9,4.4-9,3.2C41.7,15,36.7,7.6,36.7,7.6s8-3.5,18-0.5C58.9,8.2,61.4,11.7,60.5,14.7z"/>
		<path class="st0" d="M37.1,8c0,0,10.5,8.3,14.8,9c5.8,1,8.8-2.7,8.8-2.7"/>
		<path class="st0" d="M36.8,7.6c0,0,11.4-2.5,18.1,0.7c5.3,2.5,5.9,5.8,5.9,5.8"/>
	</g>
	<g>
		<path class="st0" d="M58.2,23.7c0-3.1,3.5-5.7,7.7-5.6c10.2,0,19.1,5.7,19.1,5.7s-8.7,5.7-19.1,5.6C61.6,29.3,58.2,26.8,58.2,23.7
			z"/>
		<path class="st0" d="M84.6,23.4c0,0-14.4-4.9-18.8-4.5C60,19.5,58.2,24,58.2,24"/>
		<path class="st0" d="M85,23.7c0,0-12.2,5.6-19.5,4.4c-5.8-0.9-7.3-3.8-7.3-3.8"/>
	</g>
	<g>
		<path class="st0" d="M23.2,34.8c0.6-3.1,4.5-4.8,8.7-4c10,2.1,15.6,9.1,15.6,9.1s-7.7,4.2-17.9,2C25.4,41,22.5,37.8,23.2,34.8z"/>
		<path class="st0" d="M47.1,39.5c0,0-11.2-7.4-15.5-7.8c-5.8-0.6-8.5,3.4-8.5,3.4"/>
		<path class="st0" d="M47.4,39.9c0,0-11.2,3.4-18.1,0.8c-5.4-2.1-6.3-5.3-6.3-5.3"/>
	</g>
	<g>
		<path class="st0" d="M1.2,24.2c0.6-3.1,2.5-4.8,6.7-4c10,2.1,15.6,9.1,15.6,9.1s-7.7,4.2-17.9,2C1.4,30.5,0.6,27.3,1.2,24.2z"/>
		<path class="st0" d="M23.2,29c0,0-11.2-7.4-15.5-7.8c-5.8-0.6-6.5,3.4-6.5,3.4"/>
		<path class="st0" d="M23.5,29.4c0,0-11.2,3.4-18.1,0.8c-5.4-2.1-4.3-5.3-4.3-5.3"/>
	</g>
	<g>
		<path class="st1" d="M41.8,25.6c1.2-2.9,5.4-3.9,9.3-2.2c9.4,4,13.6,11.9,13.6,11.9s-8.4,2.6-18-1.4
			C42.8,32.2,40.6,28.5,41.8,25.6z"/>
		<path class="st1" d="M64.4,34.8c0,0-9.6-9.4-13.8-10.6c-5.6-1.7-9,1.7-9,1.7"/>
		<path class="st1" d="M64.7,35.2c0,0-11.6,1.3-17.9-2.7c-5-3.1-5.2-6.4-5.2-6.4"/>
	</g>
	<g>
		<path class="st2" d="M14.7,9c-0.8-3,1.9-6.4,6-7.4c9.9-2.6,18,1.2,18,1.2s-5,7.2-15.1,9.8C19.4,13.6,15.4,12,14.7,9z"/>
		<path class="st2" d="M38.2,2.6c0,0-13.3-1.6-17.4,0c-5.5,2.1-6.1,6.8-6.1,6.8"/>
		<path class="st2" d="M38.7,2.8c0,0-8.4,8.1-15.8,8.7c-5.8,0.5-8-1.9-8-1.9"/>
	</g>
</g>
</svg>
