<?xml version="1.0" encoding="utf-8"?>
<!-- Generator: Adobe Illustrator 23.0.1, SVG Export Plug-In . SVG Version: 6.00 Build 0)  -->
<svg version="1.1" id="Layer_1" xmlns="http://www.w3.org/2000/svg" xmlns:xlink="http://www.w3.org/1999/xlink" x="0px" y="0px"
	 viewBox="0 0 76.7 66.9" style="enable-background:new 0 0 76.7 66.9;" xml:space="preserve">
<style type="text/css">
	.st0{fill-rule:evenodd;clip-rule:evenodd;fill:none;stroke:#00C1A3;stroke-width:0.75;stroke-miterlimit:10;}
	.st1{fill:#FFFFFF;stroke:#0066FF;stroke-width:0.75;stroke-linecap:round;stroke-linejoin:round;stroke-miterlimit:10;}
	.st2{fill:none;stroke:#0066FF;stroke-width:0.75;stroke-linecap:round;stroke-linejoin:round;stroke-miterlimit:10;}
	.st3{fill:#FFFFFF;stroke:#0066FF;stroke-width:0.75;stroke-miterlimit:10;}
	.st4{fill:none;stroke:#0066FF;stroke-width:0.75;stroke-miterlimit:10;}
	.st5{fill:none;stroke:#00C1A3;stroke-width:0.75;stroke-miterlimit:10;}
	.st6{fill:none;stroke:#FF25F3;stroke-width:0.75;stroke-miterlimit:10;}
	.st7{fill:none;stroke:#FF25F3;stroke-width:0.75;stroke-linecap:round;stroke-linejoin:round;stroke-miterlimit:10;}
	.st8{fill-rule:evenodd;clip-rule:evenodd;fill:none;stroke:#0066FF;stroke-width:0.75;stroke-miterlimit:10;}
	.st9{clip-path:url(#SVGID_2_);fill-rule:evenodd;clip-rule:evenodd;fill:#FFFFFF;}
	.st10{fill-rule:evenodd;clip-rule:evenodd;fill:#FCFDFF;}
	.st11{fill-rule:evenodd;clip-rule:evenodd;fill:#FFFFFF;}
	.st12{fill-rule:evenodd;clip-rule:evenodd;fill:#3D6A9D;}
	.st13{fill:#FFFFFF;}
	.st14{fill:#0066FF;}
	.st15{fill-rule:evenodd;clip-rule:evenodd;fill:#FFFFFF;stroke:#0066FF;stroke-width:0.75;stroke-miterlimit:10;}
	.st16{fill-rule:evenodd;clip-rule:evenodd;fill:#FFFFFF;stroke:#44E0A0;stroke-width:0.75;stroke-miterlimit:10;}
	.st17{fill-rule:evenodd;clip-rule:evenodd;fill:#FFFFFF;stroke:#FF25F3;stroke-width:0.75;stroke-miterlimit:10;}
	.st18{fill:none;stroke:#FFFFFF;stroke-width:2.8774;stroke-miterlimit:10;}
	
		.st19{fill-rule:evenodd;clip-rule:evenodd;fill:none;stroke:#FF25F3;stroke-width:0.75;stroke-linecap:round;stroke-linejoin:round;stroke-miterlimit:10;}
	.st20{fill-rule:evenodd;clip-rule:evenodd;fill:#FFFFFF;stroke:#FFFFFF;stroke-width:0.7194;stroke-miterlimit:10;}
	.st21{fill:none;stroke:#FFFFFF;stroke-width:0.7194;stroke-miterlimit:10;}
	.st22{fill:none;stroke:#44E0A0;stroke-width:0.75;stroke-linecap:round;stroke-linejoin:round;stroke-miterlimit:10;}
	.st23{fill-rule:evenodd;clip-rule:evenodd;fill:#FFFFFF;stroke:#00C1A3;stroke-width:0.75;stroke-miterlimit:10;}
	.st24{fill:none;stroke:#0066FF;stroke-width:0.75;stroke-linecap:round;stroke-miterlimit:10;}
	.st25{fill:#FFFFFF;stroke:#00C1A3;stroke-width:0.75;stroke-miterlimit:10;}
	.st26{clip-path:url(#SVGID_4_);}
	
		.st27{fill-rule:evenodd;clip-rule:evenodd;fill:none;stroke:#0066FF;stroke-width:0.75;stroke-linecap:round;stroke-miterlimit:10;}
	.st28{fill:#FFFFFF;stroke:#FF25F3;stroke-width:0.75;stroke-miterlimit:10;}
	.st29{fill:#FFFFFF;stroke:#FF25F3;stroke-width:0.75;stroke-linecap:round;stroke-linejoin:round;stroke-miterlimit:10;}
	.st30{fill:none;stroke:#00FA9B;stroke-width:0.75;stroke-miterlimit:10;}
	.st31{fill:#87D73F;}
	.st32{fill:#3DED98;}
</style>
<path class="st2" d="M71.3,36.2c-3.5,11.3-14.6,18.6-28.2,18.6c-16.4,0-29.6-12.1-29.6-26.9S26.8,1,43.1,1c15,0,27.3,9.6,29.3,22.7"
	/>
<g>
	<circle class="st3" cx="25.9" cy="41.7" r="24.8"/>
	<g>
		<path class="st3" d="M26.1,23.8c0.8,7.9,0,17.4,0,17.4s-6.8-3.4-13.4-7.7c-8.4-5.6-2.5-9.4,2.7-12.3
			C21.1,17.9,25.5,17.7,26.1,23.8z"/>
		<path class="st3" d="M41.2,32.6c-6.5,4.5-15.1,8.5-15.1,8.5s-0.4-7.6,0.1-15.5c0.7-10,6.9-6.8,12-3.7
			C43.9,25.4,46.2,29.1,41.2,32.6z"/>
		<path class="st3" d="M25.6,58.5c-0.5-7.9,0.5-17.4,0.5-17.4s6.7,3.6,13.2,8.1c8.2,5.8,2.3,9.4-3.1,12.2
			C30.4,64.5,26,64.7,25.6,58.5z"/>
		<path class="st3" d="M10.7,49.3c6.6-4.3,15.4-8.1,15.4-8.1s0.2,7.6-0.6,15.5c-1,10-7.1,6.6-12.1,3.3C7.8,56.4,5.6,52.7,10.7,49.3z
			"/>
		<path class="st25" d="M11.4,31.8c7,3.6,14.6,9.4,14.6,9.4s-6.5,3.9-13.7,7.1c-9.2,4.1-9.2-2.9-8.9-8.9C3.8,32.8,6,29,11.4,31.8z"
			/>
		<path class="st28" d="M40.9,50.1c-7.1-3.4-14.9-9-14.9-9s6.4-4.1,13.5-7.5c9.1-4.3,9.3,2.7,9.1,8.7C48.5,48.9,46.5,52.8,40.9,50.1
			z"/>
	</g>
</g>
<path class="st2" d="M69.8,22.2c1.9,1.6,3.7,1.8,5.5,3.1c1.6,1.2-0.1,4.9-0.5,5.9c-0.2,0.6,1.9,2.7,0,4.5c-1.5,1.3-3.4,0-5.3,0.5"/>
<circle class="st2" cx="54.6" cy="11.5" r="0.8"/>
<circle class="st2" cx="63.5" cy="17.7" r="0.9"/>
<circle class="st2" cx="49.2" cy="18" r="1.2"/>
<circle class="st2" cx="41.6" cy="6.9" r="0.7"/>
<circle class="st2" cx="30.3" cy="10.8" r="1"/>
<circle class="st2" cx="60.3" cy="36.4" r="0.6"/>
<circle class="st2" cx="56.3" cy="24.4" r="0.8"/>
<circle class="st2" cx="56.3" cy="45.7" r="0.8"/>
<path class="st2" d="M72.5,29.3c-0.2-0.5-0.8-0.6-1.4-0.7c-1.4-0.2-2.8-0.5-4.2-0.7"/>
</svg>
