<?xml version="1.0" encoding="utf-8"?>
<!-- Generator: Adobe Illustrator 23.0.1, SVG Export Plug-In . SVG Version: 6.00 Build 0)  -->
<svg version="1.1" id="Layer_1" xmlns="http://www.w3.org/2000/svg" xmlns:xlink="http://www.w3.org/1999/xlink" x="0px" y="0px"
	 viewBox="0 0 60 49" style="enable-background:new 0 0 60 49;" xml:space="preserve">
<style type="text/css">
	.st0{fill:none;stroke:#0066FF;stroke-width:0.75;stroke-miterlimit:10;}
	.st1{fill:none;stroke:#FF25F3;stroke-width:0.75;stroke-linecap:round;stroke-linejoin:round;stroke-miterlimit:10;}
	.st2{fill:none;stroke:#00C1A3;stroke-width:0.75;stroke-miterlimit:10;}
	.st3{fill-rule:evenodd;clip-rule:evenodd;fill:none;stroke:#0066FF;stroke-width:0.75;stroke-miterlimit:10;}
	.st4{fill:none;stroke:#FF25F3;stroke-width:0.75;stroke-linejoin:round;stroke-miterlimit:10;}
	.st5{fill:none;stroke:#FF25F3;stroke-width:0.75;stroke-miterlimit:10;}
	
		.st6{fill-rule:evenodd;clip-rule:evenodd;fill:none;stroke:#FF25F3;stroke-width:0.75;stroke-linejoin:round;stroke-miterlimit:10;}
	.st7{fill-rule:evenodd;clip-rule:evenodd;fill:none;stroke:#00C1A3;stroke-width:0.75;stroke-miterlimit:10;}
	
		.st8{fill-rule:evenodd;clip-rule:evenodd;fill:none;stroke:#FF25F3;stroke-width:0.75;stroke-linecap:round;stroke-linejoin:round;stroke-miterlimit:10;}
</style>
<g>
	<path class="st3" d="M38.4,37H22.7v-1.1h16.1c1,0,2.4-1,2.4-2.2c0-0.9-0.5-1.9-1-2.2c-0.8-0.7-1.3-0.7-2.7-0.7
		c-3,0-6.5,0.1-9.2-0.5c-1-0.2-1.7-0.5-2.6-0.8c-4.6-1.3-7.9-1.7-12.3,0.6c-1.6,0.8-3.1,1.6-4.7,2.2c-0.3,0.1-0.6,0.1-0.6,0.5V45
		c0,0.6,1,0,2.3-0.2c4.9-0.9,11.2-1.3,16.2-0.6c1.6,0.2,3.5,0.9,4.8,0.9c2.5,0,5.3-1.9,7.5-2.8c1.1-0.4,2.3-1.1,3.4-1.7
		c1-0.5,4.4-2.2,5.1-2.6c0.6-0.3,1.1-0.6,1.7-0.9c1.6-1,5.1-2.6,6.7-3.7c0.6-0.4,0.9-0.6,1.4-1.1c1.7-1.8,0.5-4.4-2.1-4.4
		c-0.8,0-3.7,1.5-4.5,1.9l-3.3,1.5c-0.4,0.2-0.7,0.3-1.1,0.5s-0.6,0.3-1,0.5l-2.2,0.9c-0.6,0.3-0.4,0.3-0.6,1
		C41.8,35.8,40.3,37,38.4,37L38.4,37z"/>
	<path class="st8" d="M2,30.8v17h5.2v-17H4.1c-0.5,0-0.6-0.1-1-0.1S2.5,30.8,2,30.8L2,30.8z"/>
	<path class="st7" d="M27.9,4.9c0.8,1,1.8,2.5,2.1,4.2h-9.8V12h9.7c-1.3,3.3-7.4,3.5-7.4,3.5l7.7,12.8l3.8-0.2l-6.6-10.4
		c0,0,5.1-1.1,6.1-5.7h6.4V9.1h-6.3c-0.2-1.9-0.9-3.3-1.5-4.2h8V2H20.4v2.9H27.9z"/>
</g>
</svg>
