<?xml version="1.0" encoding="utf-8"?>
<!-- Generator: Adobe Illustrator 23.0.1, SVG Export Plug-In . SVG Version: 6.00 Build 0)  -->
<svg version="1.1" id="Layer_1" xmlns="http://www.w3.org/2000/svg" xmlns:xlink="http://www.w3.org/1999/xlink" x="0px" y="0px"
	 viewBox="0 0 52.9 41.9" style="enable-background:new 0 0 52.9 41.9;" xml:space="preserve">
<style type="text/css">
	.st0{fill-rule:evenodd;clip-rule:evenodd;fill:none;stroke:#00C1A3;stroke-width:0.75;stroke-miterlimit:10;}
	.st1{fill:none;stroke:#0066FF;stroke-width:0.75;stroke-linecap:round;stroke-linejoin:round;stroke-miterlimit:10;}
	.st2{fill:none;stroke:#FF25F3;stroke-width:0.75;stroke-linecap:round;stroke-linejoin:round;stroke-miterlimit:10;}
	.st3{fill:none;stroke:#00C1A3;stroke-width:0.75;stroke-miterlimit:10;}
	.st4{fill:none;stroke:#0066FF;stroke-width:0.75;stroke-miterlimit:10;}
	.st5{fill-rule:evenodd;clip-rule:evenodd;fill:none;stroke:#0066FF;stroke-width:0.75;stroke-miterlimit:10;}
	.st6{clip-path:url(#SVGID_2_);fill-rule:evenodd;clip-rule:evenodd;fill:#FFFFFF;}
	.st7{fill-rule:evenodd;clip-rule:evenodd;fill:#FCFDFF;}
	.st8{fill-rule:evenodd;clip-rule:evenodd;fill:#FFFFFF;}
	.st9{fill-rule:evenodd;clip-rule:evenodd;fill:#3D6A9D;}
	.st10{fill:#FFFFFF;}
	.st11{fill:#0066FF;}
	.st12{fill-rule:evenodd;clip-rule:evenodd;fill:#FFFFFF;stroke:#0066FF;stroke-width:0.75;stroke-miterlimit:10;}
	.st13{fill-rule:evenodd;clip-rule:evenodd;fill:#FFFFFF;stroke:#44E0A0;stroke-width:0.75;stroke-miterlimit:10;}
	.st14{fill-rule:evenodd;clip-rule:evenodd;fill:#FFFFFF;stroke:#FF25F3;stroke-width:0.75;stroke-miterlimit:10;}
	.st15{fill:none;stroke:#FFFFFF;stroke-width:2.8774;stroke-miterlimit:10;}
	
		.st16{fill-rule:evenodd;clip-rule:evenodd;fill:none;stroke:#FF25F3;stroke-width:0.75;stroke-linecap:round;stroke-linejoin:round;stroke-miterlimit:10;}
	.st17{fill-rule:evenodd;clip-rule:evenodd;fill:#FFFFFF;stroke:#FFFFFF;stroke-width:0.7194;stroke-miterlimit:10;}
	.st18{fill:none;stroke:#FFFFFF;stroke-width:0.7194;stroke-miterlimit:10;}
	.st19{fill:none;stroke:#44E0A0;stroke-width:0.75;stroke-linecap:round;stroke-linejoin:round;stroke-miterlimit:10;}
	.st20{fill-rule:evenodd;clip-rule:evenodd;fill:#FFFFFF;stroke:#00C1A3;stroke-width:0.75;stroke-miterlimit:10;}
	.st21{fill:none;stroke:#0066FF;stroke-width:0.75;stroke-linecap:round;stroke-miterlimit:10;}
	.st22{fill:#FFFFFF;stroke:#00C1A3;stroke-width:0.75;stroke-miterlimit:10;}
	.st23{clip-path:url(#SVGID_4_);}
	
		.st24{fill-rule:evenodd;clip-rule:evenodd;fill:none;stroke:#0066FF;stroke-width:0.75;stroke-linecap:round;stroke-miterlimit:10;}
	.st25{fill:#FFFFFF;stroke:#0066FF;stroke-width:0.75;stroke-miterlimit:10;}
	.st26{fill:none;stroke:#FF25F3;stroke-width:0.75;stroke-miterlimit:10;}
	.st27{fill:#87D73F;}
	.st28{fill:#3DED98;}
	.st29{fill:#FFFFFF;stroke:#0066FF;stroke-width:0.75;stroke-linecap:round;stroke-linejoin:round;stroke-miterlimit:10;}
	.st30{fill:#FFFFFF;stroke:#FF25F3;stroke-width:0.75;stroke-miterlimit:10;}
	.st31{fill:#FFFFFF;stroke:#FF25F3;stroke-width:0.75;stroke-linecap:round;stroke-linejoin:round;stroke-miterlimit:10;}
</style>
<g>
	<g>
		<path class="st1" d="M1.8,25.1c5-3.3,13.8-1.6,11.9,6.6"/>
		<g>
			<path class="st1" d="M33.4,12.6c1-1.4,1.9-2.9,2.2-4.6c0.4-1.7,0.1-3.6-1.1-4.8c-2-2.1-5.4-1.5-8.1-0.6c-1.7,0.6-3.3,1.2-4.7,2.3
				c-1.4,1.1-2.3,2.7-3.6,4c-1.5,1.6-3.4,2.7-5.1,4c-3.6,2.6-6.8,5.8-9.5,9.4c-0.9,1.3-1.8,2.7-2.3,4.3c-0.5,1.8-0.3,3.8-0.1,5.7
				c0.1,0.6,0.1,1.2,0.5,1.7c0.7,1.2,2.4,1.3,3.8,1.3c1.6,0,3.3-0.1,4.9-0.1c0.5,0,1.1,0,1.5-0.4c0.4-0.4,0.5-1,0.7-1.6
				c0.8-2.1,3.4-2.6,5.1-4.1c1.2-1.1,1.9-2.7,2.8-4.1c1.8-2.8,4.1-3.6,6.7-5.2C29.7,18.2,31.8,15,33.4,12.6z"/>
			<path class="st26" d="M15,15.6c3,0.4,5.7,2.8,6.5,5.7"/>
			<path class="st1" d="M17.7,10.8c2.2-0.3,4.5,0.6,6,2.3"/>
			<path class="st1" d="M24.4,7.1c2.4,0.8,4.5,2.2,6.2,4.1"/>
		</g>
	</g>
	<path class="st1" d="M39.9,23.5c-1,0.1-2.2-0.3-2.9,0.4c-0.7-1.5-1.5-3.1-2.9-3.9c-1.4-0.8-3.6-0.5-4.2,1c-0.8,2.2,2.1,4,2.3,6.3
		c0.2,2.2-3.7,1-5.9,1.4s-3,2.8-5,3.6c-0.5,0.2-0.9,0.4-1.2,0.8c-0.5,0.7-0.4,1.8,0,2.6c0.9,2.2,2.7,3.9,4.9,4.6s4.7,0.4,6.7-0.8
		c2.1-1.3,3.5-3.6,5.6-4.9c2.9-1.8,6.3-1.8,9-4c1.9-1.5,4.1-3.8,4.8-6.2c0.7-2.4-0.6-4.1-3-4.6C44,19,43.2,23.1,39.9,23.5z"/>
	<path class="st1" d="M24.3,31c0.9-0.2,2.1-0.2,2.9,0.2c0.8,0.4,1.4,1,2.1,1.6c0.9,0.9,1.7,1.9,1.8,3.1c0.1,0.6,1.3,1.9,0.1,4"/>
	<path class="st3" d="M40.1,25c2.1,0,4,1.4,4.8,3.4"/>
	<path class="st1" d="M38.8,28.3c0.6,0.4,0.9,1,1.1,1.7c0.2,0.7,0.2,1.4,0.2,2.1"/>
	<path class="st1" d="M43.7,22.1c0.8-0.1,1.5,0.2,2.1,0.7c0.8,0.7,1.4,1.6,1.9,2.5"/>
</g>
</svg>
