<?xml version="1.0" encoding="utf-8"?>
<!-- Generator: Adobe Illustrator 23.0.1, SVG Export Plug-In . SVG Version: 6.00 Build 0)  -->
<svg version="1.1" id="Layer_1" xmlns="http://www.w3.org/2000/svg" xmlns:xlink="http://www.w3.org/1999/xlink" x="0px" y="0px"
	 viewBox="0 0 78.9 55" style="enable-background:new 0 0 78.9 55;" xml:space="preserve">
<style type="text/css">
	.st0{fill-rule:evenodd;clip-rule:evenodd;fill:none;stroke:#00C1A3;stroke-width:0.75;stroke-miterlimit:10;}
	.st1{fill:#FFFFFF;stroke:#0066FF;stroke-width:0.75;stroke-linecap:round;stroke-linejoin:round;stroke-miterlimit:10;}
	.st2{fill:none;stroke:#0066FF;stroke-width:0.75;stroke-linecap:round;stroke-linejoin:round;stroke-miterlimit:10;}
	.st3{fill:#FFFFFF;stroke:#0066FF;stroke-width:0.75;stroke-miterlimit:10;}
	.st4{fill:none;stroke:#0066FF;stroke-width:0.75;stroke-miterlimit:10;}
	.st5{fill:none;stroke:#00C1A3;stroke-width:0.75;stroke-miterlimit:10;}
	.st6{fill:none;stroke:#FF25F3;stroke-width:0.75;stroke-miterlimit:10;}
	.st7{fill:none;stroke:#FF25F3;stroke-width:0.75;stroke-linecap:round;stroke-linejoin:round;stroke-miterlimit:10;}
	.st8{fill-rule:evenodd;clip-rule:evenodd;fill:none;stroke:#0066FF;stroke-width:0.75;stroke-miterlimit:10;}
	.st9{clip-path:url(#SVGID_2_);fill-rule:evenodd;clip-rule:evenodd;fill:#FFFFFF;}
	.st10{fill-rule:evenodd;clip-rule:evenodd;fill:#FCFDFF;}
	.st11{fill-rule:evenodd;clip-rule:evenodd;fill:#FFFFFF;}
	.st12{fill-rule:evenodd;clip-rule:evenodd;fill:#3D6A9D;}
	.st13{fill:#FFFFFF;}
	.st14{fill:#0066FF;}
	.st15{fill-rule:evenodd;clip-rule:evenodd;fill:#FFFFFF;stroke:#0066FF;stroke-width:0.75;stroke-miterlimit:10;}
	.st16{fill-rule:evenodd;clip-rule:evenodd;fill:#FFFFFF;stroke:#44E0A0;stroke-width:0.75;stroke-miterlimit:10;}
	.st17{fill-rule:evenodd;clip-rule:evenodd;fill:#FFFFFF;stroke:#FF25F3;stroke-width:0.75;stroke-miterlimit:10;}
	.st18{fill:none;stroke:#FFFFFF;stroke-width:2.8774;stroke-miterlimit:10;}
	
		.st19{fill-rule:evenodd;clip-rule:evenodd;fill:none;stroke:#FF25F3;stroke-width:0.75;stroke-linecap:round;stroke-linejoin:round;stroke-miterlimit:10;}
	.st20{fill-rule:evenodd;clip-rule:evenodd;fill:#FFFFFF;stroke:#FFFFFF;stroke-width:0.7194;stroke-miterlimit:10;}
	.st21{fill:none;stroke:#FFFFFF;stroke-width:0.7194;stroke-miterlimit:10;}
	.st22{fill:none;stroke:#44E0A0;stroke-width:0.75;stroke-linecap:round;stroke-linejoin:round;stroke-miterlimit:10;}
	.st23{fill-rule:evenodd;clip-rule:evenodd;fill:#FFFFFF;stroke:#00C1A3;stroke-width:0.75;stroke-miterlimit:10;}
	.st24{fill:none;stroke:#0066FF;stroke-width:0.75;stroke-linecap:round;stroke-miterlimit:10;}
	.st25{fill:#FFFFFF;stroke:#00C1A3;stroke-width:0.75;stroke-miterlimit:10;}
	.st26{clip-path:url(#SVGID_4_);}
	
		.st27{fill-rule:evenodd;clip-rule:evenodd;fill:none;stroke:#0066FF;stroke-width:0.75;stroke-linecap:round;stroke-miterlimit:10;}
	.st28{fill:#FFFFFF;stroke:#FF25F3;stroke-width:0.75;stroke-miterlimit:10;}
	.st29{fill:#FFFFFF;stroke:#FF25F3;stroke-width:0.75;stroke-linecap:round;stroke-linejoin:round;stroke-miterlimit:10;}
	.st30{fill:none;stroke:#00FA9B;stroke-width:0.75;stroke-miterlimit:10;}
	.st31{fill:#87D73F;}
	.st32{fill:#3DED98;}
</style>
<g>
	<path class="st3" d="M38.1,11.3H32c-2.8,0-5-2.3-5-5v0c0-2.8,2.3-5,5-5h6.1c2.8,0,5,2.3,5,5v0C43.1,9,40.9,11.3,38.1,11.3z"/>
	<line class="st3" x1="32.2" y1="8.8" x2="37.8" y2="8.8"/>
</g>
<g>
	<path class="st3" d="M46.5,22.2l-5.9-1.7c-2.6-0.8-4.2-3.6-3.4-6.2l0,0c0.8-2.6,3.6-4.2,6.2-3.4l5.9,1.7c2.6,0.8,4.2,3.6,3.4,6.2v0
		C52,21.5,49.2,23,46.5,22.2z"/>
	<line class="st3" x1="41.6" y1="18.2" x2="47" y2="19.8"/>
</g>
<g>
	<path class="st3" d="M66.3,12.1l-5.6,2.6c-2.5,1.2-5.5,0.1-6.7-2.4l0,0c-1.2-2.5-0.1-5.5,2.4-6.7L62,3c2.5-1.2,5.5-0.1,6.7,2.4l0,0
		C69.9,7.9,68.8,10.9,66.3,12.1z"/>
	<line class="st3" x1="59.9" y1="12.4" x2="65" y2="10"/>
</g>
<g>
	<path class="st3" d="M29.6,24.7l-5.8-2c-2.6-0.9-4-3.7-3.1-6.4l0,0c0.9-2.6,3.7-4,6.4-3.1l5.8,2c2.6,0.9,4,3.7,3.1,6.4l0,0
		C35.1,24.2,32.2,25.6,29.6,24.7z"/>
	<line class="st3" x1="24.8" y1="20.5" x2="30.1" y2="22.3"/>
</g>
<g>
	<path class="st3" d="M39.8,34.9l-5.9-1.7c-2.6-0.8-4.2-3.6-3.4-6.2l0,0c0.8-2.6,3.6-4.2,6.2-3.4l5.9,1.7c2.6,0.8,4.2,3.6,3.4,6.2
		l0,0C45.3,34.2,42.5,35.7,39.8,34.9z"/>
	<line class="st3" x1="34.9" y1="30.9" x2="40.2" y2="32.5"/>
</g>
<g>
	<path class="st3" d="M59.6,24.8L54,27.4c-2.5,1.2-5.5,0.1-6.7-2.4l0,0c-1.2-2.5-0.1-5.5,2.4-6.7l5.6-2.6c2.5-1.2,5.5-0.1,6.7,2.4
		l0,0C63.2,20.6,62.1,23.6,59.6,24.8z"/>
	<line class="st3" x1="53.2" y1="25.1" x2="58.3" y2="22.7"/>
</g>
<g>
	<path class="st3" d="M56.8,36.3L50.6,37c-2.7,0.3-5.3-1.6-5.6-4.4l0,0c-0.3-2.7,1.6-5.3,4.4-5.6l6.1-0.8c2.7-0.3,5.3,1.6,5.6,4.4v0
		C61.5,33.4,59.5,36,56.8,36.3z"/>
	<line class="st3" x1="50.6" y1="34.6" x2="56.2" y2="33.9"/>
</g>
<g>
	<path class="st25" d="M69.5,29l-6.1-0.3c-2.8-0.1-4.9-2.5-4.8-5.2v0c0.1-2.8,2.5-4.9,5.2-4.8l6.1,0.3c2.8,0.1,4.9,2.5,4.8,5.2v0
		C74.6,27,72.2,29.2,69.5,29z"/>
	<line class="st25" x1="63.7" y1="26.4" x2="69.3" y2="26.6"/>
</g>
<g>
	<path class="st3" d="M18.9,25.4h-6.1c-2.8,0-5-2.3-5-5v0c0-2.8,2.3-5,5-5h6.1c2.8,0,5,2.3,5,5v0C23.9,23.1,21.7,25.4,18.9,25.4z"/>
	<line class="st3" x1="13" y1="22.9" x2="18.6" y2="22.9"/>
</g>
<g>
	<path class="st3" d="M28.8,38.1L22.7,38c-2.8-0.1-5-2.4-4.9-5.1v0c0.1-2.8,2.4-5,5.1-4.9l6.1,0.1c2.8,0.1,5,2.4,4.9,5.1v0
		C33.9,35.9,31.6,38.2,28.8,38.1z"/>
	<line class="st3" x1="23" y1="35.5" x2="28.6" y2="35.7"/>
</g>
<g>
	<path class="st3" d="M75.2,39.7l-5.6,2.6c-2.5,1.2-5.5,0.1-6.7-2.4l0,0c-1.2-2.5-0.1-5.5,2.4-6.7l5.6-2.6c2.5-1.2,5.5-0.1,6.7,2.4
		v0C78.7,35.5,77.7,38.5,75.2,39.7z"/>
	<line class="st3" x1="68.8" y1="40" x2="73.9" y2="37.6"/>
</g>
<g>
	<path class="st3" d="M12.2,40.5H6.1c-2.8,0-5-2.3-5-5v0c0-2.8,2.3-5,5-5h6.1c2.8,0,5,2.3,5,5v0C17.2,38.2,15,40.5,12.2,40.5z"/>
	<line class="st3" x1="6.3" y1="38" x2="11.9" y2="38"/>
</g>
<g>
	<path class="st3" d="M20.7,51.4l-5.9-1.7c-2.6-0.8-4.2-3.6-3.4-6.2l0,0c0.8-2.6,3.6-4.2,6.2-3.4l5.9,1.7c2.6,0.8,4.2,3.6,3.4,6.2
		l0,0C26.1,50.7,23.3,52.2,20.7,51.4z"/>
	<line class="st3" x1="15.7" y1="47.4" x2="21.1" y2="49"/>
</g>
<g>
	<path class="st28" d="M43.7,40.8l-5.6,2.6c-2.5,1.2-5.5,0.1-6.7-2.4l0,0c-1.2-2.5-0.1-5.5,2.4-6.7l5.6-2.6c2.5-1.2,5.5-0.1,6.7,2.4
		l0,0C47.3,36.6,46.2,39.6,43.7,40.8z"/>
	<line class="st28" x1="37.3" y1="41.1" x2="42.4" y2="38.7"/>
</g>
<g>
	<path class="st3" d="M33.6,53.5l-6.1,0.8c-2.7,0.3-5.3-1.6-5.6-4.4l0,0c-0.3-2.7,1.6-5.3,4.4-5.6l6.1-0.8c2.7-0.3,5.3,1.6,5.6,4.4
		v0C38.3,50.7,36.4,53.2,33.6,53.5z"/>
	<line class="st3" x1="27.5" y1="51.8" x2="33" y2="51.1"/>
</g>
<g>
	<path class="st3" d="M58.6,51.3L52.5,51c-2.8-0.1-4.9-2.5-4.8-5.2v0c0.1-2.8,2.5-4.9,5.2-4.8l6.1,0.3c2.8,0.1,4.9,2.5,4.8,5.2v0
		C63.7,49.2,61.3,51.4,58.6,51.3z"/>
	<line class="st3" x1="52.8" y1="48.6" x2="58.4" y2="48.8"/>
</g>
</svg>
