<?xml version="1.0" encoding="utf-8"?>
<!-- Generator: Adobe Illustrator 23.0.1, SVG Export Plug-In . SVG Version: 6.00 Build 0)  -->
<svg version="1.1" id="Layer_1" xmlns="http://www.w3.org/2000/svg" xmlns:xlink="http://www.w3.org/1999/xlink" x="0px" y="0px"
	 viewBox="0 0 60 50" style="enable-background:new 0 0 60 50;" xml:space="preserve">
<style type="text/css">
	.st0{fill:none;stroke:#0066FF;stroke-width:0.75;stroke-miterlimit:10;}
	.st1{fill:none;stroke:#FF25F3;stroke-width:0.75;stroke-linecap:round;stroke-linejoin:round;stroke-miterlimit:10;}
	.st2{fill:none;stroke:#00C1A3;stroke-width:0.75;stroke-miterlimit:10;}
	.st3{fill-rule:evenodd;clip-rule:evenodd;fill:none;stroke:#0066FF;stroke-width:0.75;stroke-miterlimit:10;}
	.st4{fill:none;stroke:#FF25F3;stroke-width:0.75;stroke-linejoin:round;stroke-miterlimit:10;}
	.st5{fill:none;stroke:#FF25F3;stroke-width:0.75;stroke-miterlimit:10;}
	
		.st6{fill-rule:evenodd;clip-rule:evenodd;fill:none;stroke:#FF25F3;stroke-width:0.75;stroke-linejoin:round;stroke-miterlimit:10;}
	.st7{fill-rule:evenodd;clip-rule:evenodd;fill:none;stroke:#00C1A3;stroke-width:0.75;stroke-miterlimit:10;}
	
		.st8{fill-rule:evenodd;clip-rule:evenodd;fill:none;stroke:#FF25F3;stroke-width:0.75;stroke-linecap:round;stroke-linejoin:round;stroke-miterlimit:10;}
</style>
<path class="st3" d="M38.4,38H22.7v-1.1h16.1c1,0,2.4-1,2.4-2.2c0-0.9-0.5-1.9-1-2.2c-0.8-0.7-1.3-0.7-2.7-0.7c-3,0-6.5,0.1-9.2-0.5
	c-1-0.2-1.7-0.5-2.6-0.8c-4.6-1.3-7.9-1.7-12.3,0.6c-1.6,0.8-3.1,1.6-4.7,2.2c-0.3,0.1-0.6,0.1-0.6,0.5V46c0,0.6,1,0,2.3-0.2
	c4.9-0.9,11.2-1.3,16.2-0.6c1.6,0.2,3.5,0.9,4.8,0.9c2.5,0,5.3-1.9,7.5-2.8c1.1-0.4,2.3-1.1,3.4-1.7c1-0.5,4.4-2.2,5.1-2.6
	c0.6-0.3,1.1-0.6,1.7-0.9c1.6-1,5.1-2.6,6.7-3.7c0.6-0.4,0.9-0.6,1.4-1.1c1.7-1.8,0.5-4.4-2.1-4.4c-0.8,0-3.7,1.5-4.5,1.9l-3.3,1.5
	c-0.4,0.2-0.7,0.3-1.1,0.5c-0.4,0.2-0.6,0.3-1,0.5l-2.2,0.9c-0.6,0.3-0.4,0.3-0.6,1C41.8,36.8,40.3,38,38.4,38L38.4,38z"/>
<path class="st3" d="M2,31.8v17h5.2v-17H4.1c-0.5,0-0.6-0.1-1-0.1S2.5,31.8,2,31.8L2,31.8z"/>
<polygon class="st7" points="24.3,6.5 18.7,6.5 18.7,1 16,1 16,6.5 10.5,6.5 10.5,9.2 16,9.2 16,14.8 18.7,14.8 18.7,9.2 24.3,9.2 
	"/>
<polygon class="st3" points="44.3,17 35.7,17 35.7,8.5 31.5,8.5 31.5,17 23,17 23,21.2 31.5,21.2 31.5,29.8 35.7,29.8 35.7,21.2 
	44.3,21.2 "/>
<polygon class="st8" points="57.3,9.8 51.9,9.8 51.9,4.5 49.3,4.5 49.3,9.8 44,9.8 44,12.4 49.3,12.4 49.3,17.8 51.9,17.8 
	51.9,12.4 57.3,12.4 "/>
</svg>
