<?xml version="1.0" encoding="utf-8"?>
<!-- Generator: Adobe Illustrator 23.0.1, SVG Export Plug-In . SVG Version: 6.00 Build 0)  -->
<svg version="1.1" id="Layer_1" xmlns="http://www.w3.org/2000/svg" xmlns:xlink="http://www.w3.org/1999/xlink" x="0px" y="0px"
	 viewBox="0 0 119 50" style="enable-background:new 0 0 119 50;" xml:space="preserve">
<style type="text/css">
	.st0{fill:none;stroke:#0066FF;stroke-width:0.75;stroke-miterlimit:10;}
	.st1{fill:none;stroke:#FF25F3;stroke-width:0.75;stroke-linecap:round;stroke-linejoin:round;stroke-miterlimit:10;}
	.st2{fill:none;stroke:#00C1A3;stroke-width:0.75;stroke-miterlimit:10;}
	.st3{fill-rule:evenodd;clip-rule:evenodd;fill:none;stroke:#0066FF;stroke-width:0.75;stroke-miterlimit:10;}
	.st4{fill:none;stroke:#FF25F3;stroke-width:0.75;stroke-linejoin:round;stroke-miterlimit:10;}
	.st5{fill:none;stroke:#FF25F3;stroke-width:0.75;stroke-miterlimit:10;}
	
		.st6{fill-rule:evenodd;clip-rule:evenodd;fill:none;stroke:#FF25F3;stroke-width:0.75;stroke-linejoin:round;stroke-miterlimit:10;}
	.st7{fill-rule:evenodd;clip-rule:evenodd;fill:none;stroke:#00C1A3;stroke-width:0.75;stroke-miterlimit:10;}
	
		.st8{fill-rule:evenodd;clip-rule:evenodd;fill:none;stroke:#FF25F3;stroke-width:0.75;stroke-linecap:round;stroke-linejoin:round;stroke-miterlimit:10;}
</style>
<g>
	<polyline class="st0" points="68.8,39.9 1.1,39.9 1.1,8 23.1,1.8 47.5,8 71.2,1.8 94,8 94,19.3 	"/>
	<polyline class="st0" points="61.9,39.7 61.9,29.7 70.9,29.7 	"/>
	<rect x="17.1" y="29.7" class="st2" width="18" height="10"/>
</g>
<polyline class="st0" points="1.1,10 23.1,3.8 47.5,10 71.2,3.8 94,10 "/>
<g>
	<rect x="72" y="20" class="st0" width="30.9" height="19.3"/>
	<ellipse class="st0" cx="79.3" cy="44.5" rx="4.1" ry="4.2"/>
	<polygon class="st5" points="115.7,29.6 107.5,29.6 107.5,25 113.7,25 	"/>
	<polyline class="st0" points="75.4,42.9 70,42.9 70,39.4 104.2,39.4 104.2,42.9 83,42.9 	"/>
	<ellipse class="st0" cx="79.3" cy="44.5" rx="2.1" ry="2.1"/>
	<ellipse class="st0" cx="110.4" cy="44.5" rx="4.1" ry="4.2"/>
	<ellipse class="st0" cx="110.4" cy="44.5" rx="2.1" ry="2.1"/>
	<rect x="74.1" y="21.6" class="st0" width="2.3" height="16.2"/>
	<rect x="78.2" y="21.6" class="st0" width="2.3" height="16.2"/>
	<rect x="82.3" y="21.6" class="st0" width="2.3" height="16.2"/>
	<rect x="86.5" y="21.6" class="st0" width="2.3" height="16.2"/>
	<rect x="90.6" y="21.6" class="st0" width="2.3" height="16.2"/>
	<rect x="94.7" y="21.6" class="st0" width="2.3" height="16.2"/>
	<rect x="98.8" y="21.6" class="st0" width="2.3" height="16.2"/>
	<path class="st0" d="M114.4,22.5h-10.3v20.3h1.4c0.6-2.1,2.6-3.7,4.8-3.7c2.3,0,4.2,1.6,4.8,3.7h2.9V30.2L114.4,22.5z"/>
</g>
</svg>
