<?xml version="1.0" encoding="utf-8"?>
<!-- Generator: Adobe Illustrator 23.0.1, SVG Export Plug-In . SVG Version: 6.00 Build 0)  -->
<svg version="1.1" id="Layer_1" xmlns="http://www.w3.org/2000/svg" xmlns:xlink="http://www.w3.org/1999/xlink" x="0px" y="0px"
	 viewBox="0 0 51.3 74.4" style="enable-background:new 0 0 51.3 74.4;" xml:space="preserve">
<style type="text/css">
	.st0{fill-rule:evenodd;clip-rule:evenodd;fill:none;stroke:#00C1A3;stroke-width:0.75;stroke-miterlimit:10;}
	.st1{fill:#FFFFFF;stroke:#0066FF;stroke-width:0.75;stroke-linecap:round;stroke-linejoin:round;stroke-miterlimit:10;}
	.st2{fill:none;stroke:#0066FF;stroke-width:0.75;stroke-linecap:round;stroke-linejoin:round;stroke-miterlimit:10;}
	.st3{fill:#FFFFFF;stroke:#0066FF;stroke-width:0.75;stroke-miterlimit:10;}
	.st4{fill:none;stroke:#0066FF;stroke-width:0.75;stroke-miterlimit:10;}
	.st5{fill:none;stroke:#00C1A3;stroke-width:0.75;stroke-miterlimit:10;}
	.st6{fill:none;stroke:#FF25F3;stroke-width:0.75;stroke-miterlimit:10;}
	.st7{fill:none;stroke:#FF25F3;stroke-width:0.75;stroke-linecap:round;stroke-linejoin:round;stroke-miterlimit:10;}
	.st8{fill-rule:evenodd;clip-rule:evenodd;fill:none;stroke:#0066FF;stroke-width:0.75;stroke-miterlimit:10;}
	.st9{clip-path:url(#SVGID_2_);fill-rule:evenodd;clip-rule:evenodd;fill:#FFFFFF;}
	.st10{fill-rule:evenodd;clip-rule:evenodd;fill:#FCFDFF;}
	.st11{fill-rule:evenodd;clip-rule:evenodd;fill:#FFFFFF;}
	.st12{fill-rule:evenodd;clip-rule:evenodd;fill:#3D6A9D;}
	.st13{fill:#FFFFFF;}
	.st14{fill:#0066FF;}
	.st15{fill-rule:evenodd;clip-rule:evenodd;fill:#FFFFFF;stroke:#0066FF;stroke-width:0.75;stroke-miterlimit:10;}
	.st16{fill-rule:evenodd;clip-rule:evenodd;fill:#FFFFFF;stroke:#44E0A0;stroke-width:0.75;stroke-miterlimit:10;}
	.st17{fill-rule:evenodd;clip-rule:evenodd;fill:#FFFFFF;stroke:#FF25F3;stroke-width:0.75;stroke-miterlimit:10;}
	.st18{fill:none;stroke:#FFFFFF;stroke-width:2.8774;stroke-miterlimit:10;}
	
		.st19{fill-rule:evenodd;clip-rule:evenodd;fill:none;stroke:#FF25F3;stroke-width:0.75;stroke-linecap:round;stroke-linejoin:round;stroke-miterlimit:10;}
	.st20{fill-rule:evenodd;clip-rule:evenodd;fill:#FFFFFF;stroke:#FFFFFF;stroke-width:0.7194;stroke-miterlimit:10;}
	.st21{fill:none;stroke:#FFFFFF;stroke-width:0.7194;stroke-miterlimit:10;}
	.st22{fill:none;stroke:#44E0A0;stroke-width:0.75;stroke-linecap:round;stroke-linejoin:round;stroke-miterlimit:10;}
	.st23{fill-rule:evenodd;clip-rule:evenodd;fill:#FFFFFF;stroke:#00C1A3;stroke-width:0.75;stroke-miterlimit:10;}
	.st24{fill:none;stroke:#0066FF;stroke-width:0.75;stroke-linecap:round;stroke-miterlimit:10;}
	.st25{fill:#FFFFFF;stroke:#00C1A3;stroke-width:0.75;stroke-miterlimit:10;}
	.st26{clip-path:url(#SVGID_4_);}
	
		.st27{fill-rule:evenodd;clip-rule:evenodd;fill:none;stroke:#0066FF;stroke-width:0.75;stroke-linecap:round;stroke-miterlimit:10;}
	.st28{fill:#FFFFFF;stroke:#FF25F3;stroke-width:0.75;stroke-miterlimit:10;}
	.st29{fill:#FFFFFF;stroke:#FF25F3;stroke-width:0.75;stroke-linecap:round;stroke-linejoin:round;stroke-miterlimit:10;}
	.st30{fill:none;stroke:#00FA9B;stroke-width:0.75;stroke-miterlimit:10;}
	.st31{fill:#87D73F;}
	.st32{fill:#3DED98;}
</style>
<g>
	<path class="st4" d="M45.8,58.1c1.9,0.3-1.5,1.9-4.4,2.1C39,60.3,37,59.2,37,58.1c0-1.1,2-2.1,4.4-2.1C43.9,56,44.6,57.9,45.8,58.1
		z"/>
	<path class="st4" d="M43.8,57.5c0,0-1.7-0.3-3.1-0.2s-2.9,0.4-3.1,0.4"/>
</g>
<g>
	<path class="st4" d="M39.2,63.5c-0.3,1.2-2.3,1.7-4.5,1.2s-3.9-2.2-3.5-3.1c0.5-1.1,2.3-1.7,4.5-1.2S39.5,62.4,39.2,63.5z"/>
	<path class="st4" d="M38.6,62.9c0,0-1.6-0.8-2.8-1s-3.3-0.3-3.4-0.3"/>
</g>
<g>
	<path class="st7" d="M50.3,62.5c0.5,0.5-1.7,2.6-3.8,3.1s-4.1,0.1-4.4-1.1s1.2-2.5,3.3-3C47.5,61,49.1,61.2,50.3,62.5z"/>
	<path class="st7" d="M49.1,62.5c0,0-2.4-0.4-3.5,0c-1.1,0.4-2.6,1.6-2.7,1.6"/>
</g>
<g>
	<g>
		<g>
			<path class="st4" d="M25,46c1.5,1.7,2.1,3.5,1.5,4.1c-0.7,0.6-2.4-0.3-3.9-1.9s-1.5-4.1-1.5-4.1S23.5,44.4,25,46z"/>
			<line class="st4" x1="21.1" y1="44.1" x2="19.9" y2="35"/>
		</g>
		<g>
			<path class="st4" d="M26.2,41.2c1.5,1.7,2.1,3.5,1.5,4.1c-0.7,0.6-2.4-0.3-3.9-1.9s-1.5-4.1-1.5-4.1S24.7,39.5,26.2,41.2z"/>
			<line class="st4" x1="22.3" y1="39.2" x2="21.1" y2="30.2"/>
		</g>
		<g>
			<path class="st4" d="M27.3,36.3c1.5,1.7,2.1,3.5,1.5,4.1c-0.7,0.6-2.4-0.3-3.9-1.9s-1.5-4.1-1.5-4.1S25.9,34.7,27.3,36.3z"/>
			<line class="st4" x1="23.4" y1="34.4" x2="22.2" y2="25.3"/>
		</g>
		<g>
			<path class="st4" d="M28.5,31.5c1.5,1.7,2.1,3.5,1.5,4.1s-2.4-0.3-3.9-1.9c-1.5-1.7-1.5-4.1-1.5-4.1S27,29.8,28.5,31.5z"/>
			<line class="st4" x1="24.6" y1="29.5" x2="23.4" y2="20.5"/>
		</g>
		<g>
			<path class="st4" d="M29.7,26.6c1.5,1.7,2.1,3.5,1.5,4.1c-0.7,0.6-2.4-0.3-3.9-1.9c-1.5-1.7-1.5-4.1-1.5-4.1S28.2,24.9,29.7,26.6
				z"/>
			<line class="st4" x1="25.8" y1="24.7" x2="24.6" y2="15.6"/>
		</g>
		<g>
			<path class="st4" d="M31,21.4c1.2,1.9,1.6,3.8,0.9,4.3s-2.4-0.6-3.6-2.5c-1.2-1.9-0.9-4.3-0.9-4.3S29.7,19.5,31,21.4z"/>
			<line class="st4" x1="27.4" y1="18.9" x2="27.4" y2="9.8"/>
		</g>
		<g>
			<path class="st7" d="M32.6,16.4c1.1,1.9,1.4,3.9,0.6,4.3c-0.8,0.4-2.3-0.8-3.4-2.7c-1.1-1.9-0.6-4.3-0.6-4.3S31.5,14.4,32.6,16.4
				z"/>
			<line class="st7" x1="29.2" y1="13.7" x2="29.9" y2="4.6"/>
		</g>
	</g>
	<g>
		<g>
			<path class="st4" d="M29.8,46.8c-2.1,0.8-3.6,2.1-3.3,2.9c0.3,0.8,2.3,0.9,4.4,0.2c2.1-0.8,3.3-2.9,3.3-2.9S31.9,46,29.8,46.8z"
				/>
			<line class="st4" x1="34.1" y1="46.9" x2="39.5" y2="39.6"/>
		</g>
		<g>
			<path class="st7" d="M31.1,41.9c-2.1,0.8-3.6,2.1-3.3,2.9c0.3,0.8,2.3,0.9,4.4,0.2c2.1-0.8,3.3-2.9,3.3-2.9S33.2,41.2,31.1,41.9z
				"/>
			<line class="st7" x1="35.4" y1="42.1" x2="40.8" y2="34.7"/>
		</g>
		<g>
			<path class="st4" d="M32.4,37.1c-2.1,0.8-3.6,2.1-3.3,2.9c0.3,0.8,2.3,0.9,4.4,0.2c2.1-0.8,3.3-2.9,3.3-2.9S34.5,36.4,32.4,37.1z
				"/>
			<line class="st4" x1="36.7" y1="37.3" x2="42.1" y2="29.9"/>
		</g>
		<g>
			<path class="st4" d="M33.7,32.3c-2.1,0.8-3.6,2.1-3.3,2.9c0.3,0.8,2.3,0.9,4.4,0.2c2.1-0.8,3.3-2.9,3.3-2.9S35.8,31.5,33.7,32.3z
				"/>
			<line class="st4" x1="38" y1="32.5" x2="43.4" y2="25.1"/>
		</g>
		<g>
			<path class="st7" d="M35,27.5c-2.1,0.8-3.6,2.1-3.3,2.9c0.3,0.8,2.3,0.9,4.4,0.2c2.1-0.8,3.3-2.9,3.3-2.9S37.1,26.7,35,27.5z"/>
			<line class="st7" x1="39.3" y1="27.6" x2="44.7" y2="20.3"/>
		</g>
		<g>
			<path class="st4" d="M35.8,22.5c-2,0.9-3.4,2.3-3,3.1s2.3,0.8,4.4-0.1c2-0.9,3-3.1,3-3.1S37.8,21.6,35.8,22.5z"/>
			<line class="st4" x1="40.2" y1="22.3" x2="45" y2="14.6"/>
		</g>
		<g>
			<path class="st4" d="M37.1,17.3c-1.9,1.1-3.1,2.7-2.7,3.4c0.5,0.8,2.4,0.5,4.3-0.6c1.9-1.1,2.7-3.4,2.7-3.4S39.1,16.1,37.1,17.3z
				"/>
			<line class="st4" x1="41.4" y1="16.6" x2="45.4" y2="8.4"/>
		</g>
	</g>
	<g>
		<path class="st4" d="M37.5,13.5c-0.7,2.1-1.9,3.6-2.8,3.4c-0.9-0.3-1-2.2-0.3-4.3c0.7-2.1,2.8-3.4,2.8-3.4S38.2,11.4,37.5,13.5z"
			/>
		<line class="st4" x1="37.2" y1="9.2" x2="40" y2="0.3"/>
	</g>
	<line class="st25" x1="26.4" y1="51.8" x2="23" y2="68.3"/>
</g>
<g>
	<g>
		<g>
			<path class="st4" d="M10.3,54.2c1.7,1,2.8,2.3,2.4,3c-0.4,0.7-2.1,0.5-3.9-0.5s-2.4-3-2.4-3S8.5,53.2,10.3,54.2z"/>
			<line class="st4" x1="6.4" y1="53.7" x2="2.7" y2="46.4"/>
		</g>
		<g>
			<path class="st4" d="M9.8,49.7c1.7,1,2.8,2.3,2.4,3c-0.4,0.7-2.1,0.5-3.9-0.5c-1.7-1-2.4-3-2.4-3S8.1,48.8,9.8,49.7z"/>
			<line class="st4" x1="6" y1="49.2" x2="2.3" y2="42"/>
		</g>
		<g>
			<path class="st4" d="M9.4,45.3c1.7,1,2.8,2.3,2.4,3C11.4,49,9.7,48.8,8,47.8s-2.4-3-2.4-3S7.6,44.3,9.4,45.3z"/>
			<line class="st4" x1="5.5" y1="44.8" x2="1.8" y2="37.5"/>
		</g>
		<g>
			<path class="st7" d="M8.9,40.9c1.7,1,2.8,2.3,2.4,3c-0.4,0.7-2.1,0.5-3.9-0.5s-2.4-3-2.4-3S7.2,39.9,8.9,40.9z"/>
			<line class="st7" x1="5.1" y1="40.4" x2="1.4" y2="33.1"/>
		</g>
		<g>
			<path class="st4" d="M8.5,36.4c1.7,1,2.8,2.3,2.4,3c-0.4,0.7-2.1,0.5-3.9-0.5c-1.7-1-2.4-3-2.4-3S6.8,35.4,8.5,36.4z"/>
			<line class="st4" x1="4.6" y1="35.9" x2="1" y2="28.6"/>
		</g>
		<g>
			<path class="st4" d="M8,31.6c1.6,1.2,2.5,2.7,2,3.3s-2.2,0.2-3.8-1c-1.6-1.2-2-3.3-2-3.3S6.4,30.4,8,31.6z"/>
			<line class="st4" x1="4.3" y1="30.6" x2="1.6" y2="22.9"/>
		</g>
		<g>
			<path class="st2" d="M7.9,26.9c1.5,1.3,2.3,2.9,1.8,3.5c-0.5,0.6-2.2,0-3.7-1.3s-1.8-3.5-1.8-3.5S6.4,25.6,7.9,26.9z"/>
			<line class="st2" x1="4.3" y1="25.7" x2="2.1" y2="17.8"/>
		</g>
	</g>
	<g>
		<g>
			<path class="st4" d="M14.5,53.4c-1.5,1.3-2.4,2.8-1.9,3.4c0.5,0.6,2.2,0.1,3.7-1.1c1.5-1.3,1.9-3.4,1.9-3.4S16.1,52.1,14.5,53.4z
				"/>
			<line class="st4" x1="18.2" y1="52.2" x2="20.6" y2="44.4"/>
		</g>
		<g>
			<path class="st2" d="M14.2,48.9c-1.5,1.3-2.4,2.8-1.9,3.4c0.5,0.6,2.2,0.1,3.7-1.1s1.9-3.4,1.9-3.4S15.7,47.7,14.2,48.9z"/>
			<line class="st2" x1="17.9" y1="47.8" x2="20.3" y2="40"/>
		</g>
		<g>
			<path class="st4" d="M13.9,44.5c-1.5,1.3-2.4,2.8-1.9,3.4c0.5,0.6,2.2,0.1,3.7-1.1c1.5-1.3,1.9-3.4,1.9-3.4S15.4,43.2,13.9,44.5z
				"/>
			<line class="st4" x1="17.6" y1="43.3" x2="20" y2="35.5"/>
		</g>
		<g>
			<path class="st4" d="M13.5,40c-1.5,1.3-2.4,2.8-1.9,3.4s2.2,0.1,3.7-1.1c1.5-1.3,1.9-3.4,1.9-3.4S15.1,38.8,13.5,40z"/>
			<line class="st4" x1="17.3" y1="38.9" x2="19.6" y2="31.1"/>
		</g>
		<g>
			<path class="st2" d="M13.2,35.6c-1.5,1.3-2.4,2.8-1.9,3.4c0.5,0.6,2.2,0.1,3.7-1.1c1.5-1.3,1.9-3.4,1.9-3.4S14.8,34.3,13.2,35.6z
				"/>
			<line class="st2" x1="16.9" y1="34.4" x2="19.3" y2="26.6"/>
		</g>
		<g>
			<path class="st25" d="M12.4,31.1c-1.5,1.4-2.2,2.9-1.6,3.5c0.6,0.6,2.2,0,3.6-1.4c1.5-1.4,1.6-3.5,1.6-3.5S13.9,29.8,12.4,31.1z"
				/>
			<line class="st25" x1="16.1" y1="29.7" x2="17.9" y2="21.8"/>
		</g>
		<g>
			<path class="st4" d="M12,26.3c-1.3,1.5-1.8,3.2-1.2,3.7c0.6,0.5,2.2-0.3,3.5-1.8s1.2-3.7,1.2-3.7S13.3,24.8,12,26.3z"/>
			<line class="st4" x1="15.5" y1="24.5" x2="16.4" y2="16.5"/>
		</g>
	</g>
	<g>
		<path class="st4" d="M11.2,23.1c0.1,2-0.5,3.6-1.4,3.7c-0.8,0-1.5-1.6-1.6-3.6c-0.1-2,1.4-3.7,1.4-3.7S11.2,21.1,11.2,23.1z"/>
		<line class="st4" x1="9.7" y1="19.5" x2="9.4" y2="11.2"/>
	</g>
	<line class="st4" x1="13.2" y1="58.6" x2="15.2" y2="73.5"/>
</g>
</svg>
